<?xml version="1.0" encoding="utf-8"?>
<!-- Generator: Adobe Illustrator 24.3.0, SVG Export Plug-In . SVG Version: 6.00 Build 0)  -->
<!DOCTYPE svg PUBLIC "-//W3C//DTD SVG 1.0//EN" "http://www.w3.org/TR/2001/REC-SVG-20010904/DTD/svg10.dtd" [
	<!ENTITY ns_extend "http://ns.adobe.com/Extensibility/1.0/">
	<!ENTITY ns_ai "http://ns.adobe.com/AdobeIllustrator/10.0/">
	<!ENTITY ns_graphs "http://ns.adobe.com/Graphs/1.0/">
	<!ENTITY ns_vars "http://ns.adobe.com/Variables/1.0/">
	<!ENTITY ns_imrep "http://ns.adobe.com/ImageReplacement/1.0/">
	<!ENTITY ns_sfw "http://ns.adobe.com/SaveForWeb/1.0/">
	<!ENTITY ns_custom "http://ns.adobe.com/GenericCustomNamespace/1.0/">
	<!ENTITY ns_adobe_xpath "http://ns.adobe.com/XPath/1.0/">
]>
<svg version="1.0" id="Layer" xmlns:x="&ns_extend;" xmlns:i="&ns_ai;" xmlns:graph="&ns_graphs;"
	 xmlns="http://www.w3.org/2000/svg" xmlns:xlink="http://www.w3.org/1999/xlink" x="0px" y="0px" viewBox="0 0 500 500"
	 style="enable-background:new 0 0 500 500;" xml:space="preserve">
<style type="text/css">
	.st0{fill:#E099A2;}
	.st1{fill:#191A15;}
	.st2{fill:#FFC7A6;}
	.st3{fill:#404040;}
	.st4{fill:#0073E6;}
	.st5{fill:#F9D2BB;}
	.st6{fill:#751600;}
	.st7{enable-background:new    ;}
	.st8{fill:#BFBFBF;}
	.st9{fill:#D9D9D9;}
	.st10{fill:#A6A6A6;}
	.st11{fill:#F2F2F2;}
	.st12{fill:#005FBD;}
	.st13{fill:#85CFE6;}
	.st14{fill:#58A1B8;}
	.st15{fill:#591100;}
</style>
<metadata><?xpacket begin="﻿" id="W5M0MpCehiHzreSzNTczkc9d"?>
<x:xmpmeta xmlns:x="adobe:ns:meta/" x:xmptk="Adobe XMP Core 6.0-c002 79.164488, 2020/07/10-22:06:53        ">
   <rdf:RDF xmlns:rdf="http://www.w3.org/1999/02/22-rdf-syntax-ns#">
      <rdf:Description rdf:about=""
            xmlns:dc="http://purl.org/dc/elements/1.1/"
            xmlns:xmp="http://ns.adobe.com/xap/1.0/"
            xmlns:xmpGImg="http://ns.adobe.com/xap/1.0/g/img/"
            xmlns:xmpMM="http://ns.adobe.com/xap/1.0/mm/"
            xmlns:stRef="http://ns.adobe.com/xap/1.0/sType/ResourceRef#"
            xmlns:stEvt="http://ns.adobe.com/xap/1.0/sType/ResourceEvent#"
            xmlns:illustrator="http://ns.adobe.com/illustrator/1.0/"
            xmlns:xmpTPg="http://ns.adobe.com/xap/1.0/t/pg/"
            xmlns:stDim="http://ns.adobe.com/xap/1.0/sType/Dimensions#"
            xmlns:xmpG="http://ns.adobe.com/xap/1.0/g/"
            xmlns:pdf="http://ns.adobe.com/pdf/1.3/">
         <dc:format>image/svg+xml</dc:format>
         <dc:title>
            <rdf:Alt>
               <rdf:li xml:lang="x-default">2210.i301.024.F.m004.c9.Bad boss isometric background</rdf:li>
            </rdf:Alt>
         </dc:title>
         <xmp:MetadataDate>2025-11-15T13:57:21+05:30</xmp:MetadataDate>
         <xmp:ModifyDate>2025-11-15T13:57:21+05:30</xmp:ModifyDate>
         <xmp:CreateDate>2025-11-15T13:57:20+05:30</xmp:CreateDate>
         <xmp:CreatorTool>Adobe Illustrator 24.3 (Windows)</xmp:CreatorTool>
         <xmp:Thumbnails>
            <rdf:Alt>
               <rdf:li rdf:parseType="Resource">
                  <xmpGImg:width>256</xmpGImg:width>
                  <xmpGImg:height>180</xmpGImg:height>
                  <xmpGImg:format>JPEG</xmpGImg:format>
                  <xmpGImg:image>/9j/4AAQSkZJRgABAgEASABIAAD/7QAsUGhvdG9zaG9wIDMuMAA4QklNA+0AAAAAABAASAAAAAEA&#xA;AQBIAAAAAQAB/+4ADkFkb2JlAGTAAAAAAf/bAIQABgQEBAUEBgUFBgkGBQYJCwgGBggLDAoKCwoK&#xA;DBAMDAwMDAwQDA4PEA8ODBMTFBQTExwbGxscHx8fHx8fHx8fHwEHBwcNDA0YEBAYGhURFRofHx8f&#xA;Hx8fHx8fHx8fHx8fHx8fHx8fHx8fHx8fHx8fHx8fHx8fHx8fHx8fHx8fHx8f/8AAEQgAtAEAAwER&#xA;AAIRAQMRAf/EAaIAAAAHAQEBAQEAAAAAAAAAAAQFAwIGAQAHCAkKCwEAAgIDAQEBAQEAAAAAAAAA&#xA;AQACAwQFBgcICQoLEAACAQMDAgQCBgcDBAIGAnMBAgMRBAAFIRIxQVEGE2EicYEUMpGhBxWxQiPB&#xA;UtHhMxZi8CRygvElQzRTkqKyY3PCNUQnk6OzNhdUZHTD0uIIJoMJChgZhJRFRqS0VtNVKBry4/PE&#xA;1OT0ZXWFlaW1xdXl9WZ2hpamtsbW5vY3R1dnd4eXp7fH1+f3OEhYaHiImKi4yNjo+Ck5SVlpeYmZ&#xA;qbnJ2en5KjpKWmp6ipqqusra6voRAAICAQIDBQUEBQYECAMDbQEAAhEDBCESMUEFURNhIgZxgZEy&#xA;obHwFMHR4SNCFVJicvEzJDRDghaSUyWiY7LCB3PSNeJEgxdUkwgJChgZJjZFGidkdFU38qOzwygp&#xA;0+PzhJSktMTU5PRldYWVpbXF1eX1RlZmdoaWprbG1ub2R1dnd4eXp7fH1+f3OEhYaHiImKi4yNjo&#xA;+DlJWWl5iZmpucnZ6fkqOkpaanqKmqq6ytrq+v/aAAwDAQACEQMRAD8A9U4q7FXYq7FXYq7FXYq7&#xA;FXYq7FXYq7FXYq7FXYqpPcouy/EfwxVDPM79Tt4Dpiq6O4dNj8Q8DiqvDdQTO8aODJHQyJUVXlWl&#xA;R70xV5H+bf58XXlG8k0zRNJN5dwkLcajdLILNHIDemvDiZGAI5UcU6bmtMTPquE0A7TR9neIOKRo&#xA;fa850n/nKzzrBdKdU02wvbSv7xIlkglp/kvzkUfShzHjrZdQ50+yMZGxIL6K8lectG84eX4Nb0ly&#xA;beUlJYnoJIpVpyjkAr8QqPmKHNhjyCYsOjz4JYpcMk9ybS7FXYq7FXYq7FXYq7FXYq7FXYq7FXYq&#xA;7FXYq7FXYq7FXYq8i/MP/nI3yv5anNhosa69qK1ErRShbaIg0o0oD829lH05i5dXGOw3dnpuzJ5B&#xA;cvSPtYXpn/OW16LtBqfl+I2hIEjW0zCRR3IDqVb5VHzyka49Q5c+xhW0t3v/AJc8w6X5i0S01rSp&#xA;TLYXqF4XI4nZirKw7MrKVPvmdCQkLDpcuMwkYy5hMsk1uxVKNcupYGh/0hIC5bgHB9NqU2Y7UO+2&#xA;4xVDxaogPC7T6u/Ziaxn5P8A1/HFWtQ1vTrEH1pOUgFfSShb6ew+k4qxfUvNWoXVY4P9GiPZSeZH&#xA;u2x+7j88VTj8valb9ya8jFv/AMGfl3xVZqPpzwXJmhFzHIrmSBlDCQEElOJ2Nema0Dilv1Ltr4Y2&#xA;Oj5K1HyvqGras0ei6eTL6c00lpCKCKOH4j9rpSvEVO5oOub72n7OxYJY/D6xr/S/xfH9DgeyvauX&#xA;PHL4vSdg/wBa/T8P0vYv+cR9RlMHmTTWJMSNa3MS9gziRJD8yET7s0mhPMO07ZjvE+99DZnukdir&#xA;sVdirsVdirsVdirsVdirsVdirsVdirsVdirsVdiqRefL+40/yN5iv7ZuFzaaZeTwPStJI7d2U/QR&#xA;kZmolswi5xHmHwB9aNPs75puB63xmjdP2Ax4EeMX2b/zjhq09/8Albp0csHo/U2lgjYCiyIJGPNf&#xA;mag/5Vc2WlPpruee7Rj+8vveoZkuAl99r+k2VRNOpkH+60+Nvpp0+nLYYZS5Bx8uqxw5lIdYvodY&#xA;SKazagh5gxyfC3xUruKjt0IPyyuQMZcJ5t2OYnASjySdZLmA+iKp/wAVEbbeCVP/AAhP+rgZIMaX&#xA;cTM8hKoCxKDfx9gtPoAzGnqoxNc3Lx6OchfJRTTL6Sf0I4Wd+uw2+deg/E5dDIJCw4+TGYGizPyv&#xA;pk+lwTCcqz3BUsq9goPc9Tvk2CjNbywmjjbsw6HNbPGY83awyRlyeDfnV+aOqWOtXPlvR1Fo8MSx&#xA;X2oAD1mWdFk9OJv2U4sKnrXw74859A7TS6cEcRZd/wA4ueTdf0iy1fWdTtXs7fUxAlikoKSOsRkL&#xA;ycDQhfjHE9/lmbo8ZAJPV13a2eMiIg3T3bM107sVdirsVdirsVdirsVdirsVdirsVdirsVdirsVd&#xA;irsVQ+o2FtqGn3VhdLytryJ4J1G1UlUow+44CLCYyo2H59+bfLGp+V/MN9oepRmO5s5GTkQQJEr8&#xA;EqV6q60YZqpRINF6bHkE4iQetfk9+Smmaxocmt+aLeR4r1SumW3J4iI6U+sHiQasfsV2pvvUYgNW&#xA;XKQaD3XRbq08paLa6Np8JeG2hSKD1CNljHHk5UDkzdT03za9n6fjBN7POdr63w5AVcihL/zBqt7U&#xA;SzlYz/uqP4V/Dc/Tm3hgjHkHnMuryT5nZCWdjdXkwhtozI58OgHiT2GTlMRFlqx45TNRDLItJ0zR&#xA;dNMmpSc5nNQEJBrQfCg2r8zmrzYxnnYHJ3+my/lMRBPNi+oX5upSY09GD9mIEnp3JPU5sMWCMB3l&#xA;0+o1k8p7h3JnoyfWogjzBJK8UDVqwp2PQnNLrtEPEuOwL0vZfaJOGp2SNmQtJZadbj1ZFiXxOxY/&#xA;Ibk5LHARFBcmQzNlIb/zkoqljHXt60nT6F/qfoybBiureftG0aRLrzNqYtkl5LbiQO1WFCeKIrHY&#xA;H+UZjaqJlGg5WknGMrkwW6/5yO/L3TvMkF1Y6D+lkZwL7U3hjimEYFA0BdTIzLts/Hbb3FenwmJs&#xA;tuq1QmKjb6I8r+adC80aLb6zol0t3YXA+F12ZWH2kdTurL3BzNcBNcVdirsVdirsVdirsVdirsVd&#xA;irsVdirsVdirsVdirsVdiqG1LUbTTrGa+u34W8C8nbqfAADxJ2GSjEyNBhkmIRJPIPLdY1Xyx5vv&#xA;o7q+0W0uWtKpb/W445ZuNeVakGgr+zuMyJ9nRkNzu4OPtueOXpHp7k5i1qAAKYiijYBaEAfhmLLs&#xA;qXQhzIdvQP1RI+39SCuJZ7+5HpRlmpREUFjT6M2WmwDDCrdLrNVLU5LA8gE1sfKcxUT6nKtnb9SG&#xA;YBz9+y/57Yz1I5R3LLFoTzmeEJjN5i0XSrc22lRCV+7CoWvizHdspGCczcnJlq8WIcOMWxa9vrq9&#xA;nM9y5dz08APADsMzYQERQdVkyymbkug0+5lj9UIfT8dqn3AJWo+nKc2cQ2HNydLozk3O0UUly6Qm&#xA;FuLQJsUelFrvSpAK/Jx/ss1spEmy76EBEUOST3M8k8zO7l+RIUsa7DoOrf8AG2BksijkkcLGpdul&#xA;F3/z+/6MVeefnj+X9xqel2epNq1nYyaesvCxvZUgWQScSfTkYqvM8AOJAGAq8D0rS/rLerNtCpoA&#xA;P2j/AEwAK+jv+cV7u6h1/WNNiIXT5LRbh4gNvWjkVEYeHwu1fHbwySvpLFXYq7FXYq7FXYq7FXYq&#xA;7FXYq7FXYq7FXYq7FXYq7FXYqxj8yopJPJ17wFeBiZgP5RKtfuy/TH1hxNcLxF4hm0eebLuRQsaf&#xA;PFWReUZruD1pYbmWKlE4RuyA13NQCK4DEHmGccko8jSdySSSNykYux6sxJP44QKYkk824oZZpBHE&#xA;hkkbZUUVJ+gYkgc1jEk0GW6J5OVONxqVGbqtsDsP9cjr8swcuq6Rdtpuz63n8kv12b/cvO8fwCLi&#xA;gK0XiFUAVIGw8OalfA5hO1AS+4mkKlm/vEUkEAhqU9jy+kFlxVK42gA5OpkY/s1op+dORb8cVVDq&#xA;NyF4xkQp04xjj+Na/wDDfRir5g/Mqd9c/MnViZS8Vu6wEk1KiBFR1H/PQNkVUEREQIg4qooAPDJK&#xA;+hv+cWdEkW11zW3FI5Xis4D4mMGSX/iaYq96xV2KuxV2KuxV2KuxV2KuxV2KuxV2KuxV2KuxVp5E&#xA;QVY0xVTS4jY0rT54qq4qh9Rso76wubOX+7uYnib2DqRXDGVG2M48USO986XEEtvPJBKOMsLtHIvg&#xA;ymhH35ugbeWkKNFTxQj9K1RrF3qnOOSnIVoQR3GKsy8lS2ev6tJZzK8SRwmYEMKtxZVp0/yspz5D&#xA;CNhytHgjklRem2Wm2NinC1hWOvVhux+bHc5rZ5JS5l3uPDGA9IpR1i9e1t1KoGLtx+KtBt7Zi6jK&#xA;YDZztNhGQ0WJS3sNzJS7hKyipWaEFZAPHhU8vmjH3y4Gw45FFLdRjRLb926yROfhIA69a8eJWviV&#xA;phQlXX3r+P66/wDDYqqw208zUjQselew+mv8foyueWMeZbceGU+QSfyb+Vemabo2pRa7DDfalrk7&#xA;3OqOvIoCzlkjiY8XATlXlsan5ZrsmoJlY2p2mHSiMalvaN0r/nHLyVdym6mlvktq/DAsqcWNfExl&#xA;qf7LMzTznIWeTganHCBqPN6x5e8u6P5e0qHStItxbWUFeEYJYksaszMxJJJ7nMlxUxxV2KuxV2Ku&#xA;xV2KuxV2KuxV2KuxV2KuxVbLKkUbSOaKoJJ67DFUL9eWVA0DBkPRwQa/KmKqZJJqTU4qskkjiQyS&#xA;MERd2ZiAAPcnFUti81QNqEFlaAzeo4V3NQoWu5A69PkMVZKCDuOmKvF/zP0Y2HmRrlFpBqC+sp7e&#xA;oNpB9/xfTmz0s7jXc6HX4uHJfSTEMyHBdirLfyvn9PzfbpX++jlT7kL/APGmY+qHoc3s81lD2rNY&#xA;79ZNBFNGY5VDoeoORlESFFlGZibDHdZ0G3hQTQRsyE/vFJJC06MPD55iZoyxgcN05uCcchImBaRS&#xA;2ME6kSLQ/wAwPWnQmvU/PKDqZA7FyRpIkbj5IOVdC0+pvLmKI9zcSKn38iK/TlsfzGb6IyP9UEtR&#xA;jp8P1yiP6xAS+7/MPybZrT9IJIR0SBWk+4qOP45mYfZ3W5P4CPfQ+/dxcvtBosf8YPus/dsxPzD+&#xA;b6y20tvotvJFI44i8mKhl8SqDlv4En6M6Hs/2PqQlnkCP5sevx2/HV0Gv9rbiY4IkH+cf1b/AI6P&#xA;Yfyw1dtV8h6PdOxaVIfq8pO55W7GKp9yErmD2pgGLUTiBQux8d3I7NznLgjI7n9WzKc17nOxV2Ku&#xA;xV2KuxV2KuxV2KuxV2KuxV2KuxVCaswj0+eWg5RoStaUr9JUfjirEYdSjEhejWs/V3j/ALs/66Nu&#xA;vzNR4HFVW+80zW0IVYkeZqlZATwoP2uJp/xL6cVSCa+lvWEl/dMR1SJBVv8AYgcVHz/XiqP0LUIx&#xA;qlpbWsCQQySBXc0eRx3Bc7b/AOSMVeiAACgFBirFPzL0ddQ8szTKtZ7A/WIz/kjaQfLjv9GZGmnU&#xA;ve4WuxcWO+o3eJ5s3QOxVPvIs3o+btMetKy8P+DUp/xtlWceguTpDWWL3nNS9G7FXYq89/OqaLTv&#xA;Il29ughnupYYBIg4sAX5tQjxCEHNr2DpYS1QJA2BLru2tVOOmI4juQHzWSSancnPQ3hGsVdir6D/&#xA;AOceb/1vKl9Zsata3hZd+iSxqQKf6ytnE+0uOs0Zd8fuL13s/kvEY90vveqZzrvnYq7FXYq7FXYq&#xA;7FXYq7FXYq7FXYq7FXYqgdVurVIDDM3ESgryP2Rt+0R0xVi19oxhHOJaIN141ZR/q8aMn+x/HFWP&#xA;34H7ug7t0p9ravTv/sA3jiqmLMqvK4YQKd6EVcjx4V+4uaYqynyTb2LzTz+jvHxWGaSrMSa8iCdh&#xA;26D6TirMsVQOvy28OhajLcsEto7WZ53b7IRY2LE+1MMTRDCYuJHk+dVZWUMpBUioI3BBzdPLN4qm&#xA;XluX0vMOmSfy3cBNPD1FrkMg9J9zbgNTj7w+hc0707sVdiryz/nIi44+UbCAGhlv1Y70qEhk2p33&#xA;YZ0Xs1H9/I/0f0h0PtBL9zEf0v0F8952zyLsVdir2n/nG+ZhNr8P7BW1f5EGUfjXOU9p47Yz/W/Q&#xA;9L7OneY936Xt2ck9O7FXYq0zBRUmgxVQe7HRBX3OKqPqycuXI1xVWjuh0cfSMVVo5I5EDxsHRvss&#xA;DUHFV2KuxV2KuxV2KuxVj/mm6ktmtfSCn1PU5RsAwanGm2zbVP2TX2OKpPbamse8JNvU0aIn1ISe&#xA;4HSh9tmxVKNV1V5rtjFCls6/CWUHnt3qQGH3L88VQ8c9lEQ5Q3c1agyVEdfEKPif/OuKsu8lX811&#xA;9bNw4+ExrEgAVF+1UKFFB95OKspxV57/AM5A6q+m/k/5kmjajzQR2oHiLmZIXA/2DtgKvkDyZ5l1&#xA;vT7eRIbkvbqwCW8vxou1TxB3Xr2y3HmlHkXHy6XHk5jdly/mHqPGjWsJfxBYD7qn9eX/AJyXc4p7&#xA;Mh3lCT+edeklR43S3EbBwsa9eJqKkkn7srnqZSbsWhxwN8z5vtbTr2K/0+1votorqGOeP/VkUMPw&#xA;OUOYiMVdirxz/nI+amn6HDUfHNO9O/wKg2/4POp9mI+qZ8h+l5z2iPpgPMvC8695Z2KuxV7f/wA4&#xA;4WZEGu3hGztbwof9QSM3/Elzkvaee8I+8/c9P7Ow2nL3fpe0Zyj0rsVablQ8dz2riqQS6jcrczcS&#xA;t1HG5DxKQJY6HcUPX2/XiqItry3uVJibcfaQ7MPmDiqXaj5o0+0qkR+szdAqH4a/62//AAtcVSO6&#xA;udV1FOd5OtlYt0DfCGHsm7P+P0YqzrSVC6dbBDyhESek1CpK8RQkHptiqLxV2KuxV2KuxV2Kpbrd&#xA;jFc25aTjwjUlzJTiABWpJ6UxViN7YNB8dDxYU5E8hx/1wGqP9YEfLFUkW2muJ3W3TmAxPw8eIAPU&#xA;kfAPnviqqItPtz++f61Kf91REiP6X3Z/o29xiqb6bBfyXlm9w0dnbiVGgtdk5sGBUKnU79zX54qz&#xA;5SxA5Ch7jFXmv/OR9g95+TmvCOpeAW84A8I7mMvX5JU4Cr428usPq8q9w4J+kf2YhU2wq7FX2h+U&#xA;d8b38tfL0xNeFmkH/SOTD/zLxVl2KuxV4j/zkjJWby/FT7K3TV/1jCP+Nc632YG2Q/1f0vMe0R3g&#xA;P636Hi2dW807FXYq+jP+cf7RYfI8s37VzeyuT7KiIB/wucN7RzvUAd0R+l7HsGNYL75H9D0vNA7t&#xA;2KuxVgeq21yl/PNxJBkdlZCSV5MTTarr/saj/JxVL765kktWEhD/AMsjca1rTrQq30UP+TiqVxTS&#xA;RMWU0buxAJH39PpP0YqirWxvr+4QA/HM3FZZWI5HwBPxN/saYq9Qs4DBZwQMQWijRCR0qqgbYqrY&#xA;q7FXYq7FXYq7FULqiu2nXCp9to2Vd6bkeI6YqwQSXdoxSrR1P92QOLf7HZG8fh4n2xVBalcMyoin&#xA;irEl0UmhcU3I61/2FcVQkV1LAKw0jeu8oA5V/wBY1ofxxVH6RFcJfQajckx28cgdppSQX470Wvxu&#xA;fb8MVekWV3FeWsdzFX05BVa7GlaYqxX84lVvyr81BgCP0ZcGh33EZIxKvgawvntJuYHJW2dfEZEK&#xA;yiGVJYllT7LgEfTklX4q+t/+ce7j1fyt01K19CW5jpSlKzu9P+HxV6PirsVeT/n15S1vV7bTdR0y&#xA;2e8Fj6qXMEQLyBZOJV1QbsBxNaZ0ns9rMeIyhM8PFVW6Dt3STyCMoC+G7eP6b5E816jFJLb6fIqR&#xA;niTNSGppWi+pxrTOg1fbWl05AnLn3b/c6XSdj6nUAmEeXft96STwTW8zwTo0U0ZKyRuCGUjqCDmx&#xA;x5IziJRNguunCUJGMhRCnk2L6S/IYv8A4CQMhTjdTcSf2lPE8h7VNM4L2gIOpNHoHtewwRpxY6l6&#xA;Lmkdu7FUJqkjR2cj8zGijd0BZhvQEAVriqQfW1kjBuFW5h6C6gPxDt8Sin+fbFUq1ewtvRM0N3Hw&#xA;lIB5Eq+xGxVKM1PAgnFUogRC4SzhNxKOkrgFV9wu6j6a/IYqnGg28K61btPdevfEkLFF8ar8J+2/&#xA;TbwBOKs+Fabmp7nFXYq7FXYq7FXYqpPcxrsPiPtiq4OkqkA9RuO/44qxLUJdPNzPbl/S9NyjFgGi&#xA;J8KivH5MMVSS+02cyIruqwgGsvxMoHWnFQx+jkR7Yqhhd2Nt/vLF60o2FzNQgf6qbqPpr/q4qhbi&#xA;4nnkMk7l37lj0Hhv0HsafLFXp3l4AaHZACn7lf1fIYqxP897lrf8ovM8i1q1oI9jTaWRIz/xLAVf&#xA;BORVk2gW94dIN00Z+prOYEm7c+Icp9xrkgqOwq+r/wDnHL/yWkP/ADF3H/Ehir0/FXYq7FUq8xRK&#xA;1kslPiRxQ+x2OYmsj6bc3Qyqdd7CtQ8teXtUnWXUrCK4aoDSEcXKjtzWjfjlek7T1GDbHOUY93T5&#xA;ORq+zcGfecAZd/X5rbj8tvKmmXIaPS4Xjb4oncGQEfJywzN1XbGt5HJKj3bfc4Wl7K0Z3GONjv3+&#xA;9OtOu3sJFMIAiACmIbKVHag6e2anHmlGV8+92uTBGUeHl3MwilSWJZENVcBh8jm3jIEWHSSiYmiu&#xA;wsUFrUBn02aEAfGB1HIChB6YqweSK5tn5Gqt/v1WqNv8vf8A4cH/AFsVS7VJHkZC/h3FBTt1+H/h&#xA;mxVDxtcyUt05vU7RLU1PyFCfppiqZ6cV0e8jvLmRfWh5BbZKM1WUrRj9lOvQb+2KvQtNu2u7GC5Z&#xA;QjSoHKDtyFab0xVE4q7FXYqhrnUba3lSJ2Akk+xXYE1pSvj7YqpSTSP1O3gMVWYqgr/WrCwB9aX9&#xA;6BURJu/9nzNMVY8TLqhm1CKMxRhyvxMxJPUnn269KFfniqAuuUcDo/wgg0VuIH0VPH/gD81xVK6E&#xA;n/Kp71p+Bp/wIxVE6farcX1vbOSollSM8Oqh2Ar4Dr/bir1W2t47e2it46+nCixrXc0UUFcVePf8&#xA;5VeaIdK/LN9IrW616eO3jANCIoHWeV/l8Cof9bAVfGWRV9IaP5HEP/OLiX7R0u5L39MgdG4tILQb&#xA;+Ho/HkgryPCr6v8A+ccv/JaQ/wDMXcf8SGKvT8VdirsVQ2pW5uLKWIfaIqvzXcfqyrNDiiQ3YJ8M&#xA;wWH5pnesvNlHPp8dvNvRFHLuGA6jNz4YlARPc6LxTGZkO9i15aS2s7QydR0PYjsRmqyYzA0Xc4sg&#xA;nGwyLQJeenBT/utmX+P8c2OklcPc6vWxrJ70xzJcRzKGFDuDirC9Qvofr88MsWyyMkckVVf4SR0q&#xA;Q/vxNfbFUnubO05+v6vO3QGoQBJCd/hJpQHxoK/PFUOt85VoYOFjB+2VryI/y2+0fwH+TircV1Y2&#xA;prBB9YnA2lnHwgf5MY/iQMVekaQ3qaZaTGheSGNnYU3LKCem2KovFXYq7FWNeZrsW91HEI0kjaPl&#xA;JGw7EkVqvxL068SMVQFtq/p8fQkPE9Leb4gR/wAVutfwqB4Yql2o+aL+4cwwEW0daEqSWI6V5UDU&#xA;+QHzxVLklsYTzZDeTk1BclYq+IA+J8VTbT9WuZbZmm5xxq5EbwBRGtAKqY1rXr3r74qh9WuYPSFE&#xA;HOQbzRMyKwHiv2fp5Yqk3I/ZHwjrQV+/sfp2+eKozQ2VdYsSxAUTIamgH2h9H3ffioD1XFXxr/zl&#xA;d5mbVPzKGko9bfQ7WODh+z604E8jD34uin/VyJV41DDLPMkMSl5ZWCRoOpZjQAfM4FfffmDy1Bp/&#xA;5P33l+IApp+iPbxUpu1tbfCd/FkrXJq+NcVfVn/ON8qv+WyKOsd7cK3zPFv1Nir1LFXYqtlliija&#xA;WVgkaCrOxoAPcnFIBJoMS1T8wYI2aPTofWI29aSoT6FFGP4ZWZuxxdnk7yNIC2uWuoFnageSpbj0&#xA;BrvTNTlFSLsQK2SQ+YdeDGt9PUHcczmz4ix/L4/5oRljrmpXlykN5MZlo3AsBUHr1Ar2zH1IuN9y&#xA;Y4Yw+kU3qHn+Pytrei2lyUaw1ec206UJmRiAI5kA6orHi4p3FOm7opcw4GuhZjXN6VHJHLGskbB4&#xA;3FVdTUEHuCMz3WkEbFdihiutaQvrSSqpHqEszKNj3+NWqD8z+GKsbvVZI5FLVYDela8a+7K4HzLL&#xA;8sVQVtY3NyC0S0jT7UrELGo93NAPo+/FVemm2m3+9s43pQrCp8abM3zNPnirLfJF5dXcd3JO1VUx&#xA;rEo2VQA2ygUFPl95xVk+KuxV2KpRrunJchXKcynTsQSf2WrscVYjd2xgYhieJPxB1ANf8qvwH/ZU&#xA;PviqUQ21xdTMkEZlJJJoNh7k7qPpLYqiDBYWx/0iT61Kf90wn4P9lJuW/wBjUfLFV8V/PcSJByWC&#xA;2BJEMYolQNq0YEnb+YnFIBKjfmroP2qmvTlXb2D1+a198ULLLTry+k9G1haZ+4UCg92J+FfprkeJ&#xA;yI6c1cvSPx0ZXpfkNFpJqUvOvWCIkA/6zn4j9GNXzZeNGH0DfvLLYYY4YkiiUJGgCoo6ADJOMSSb&#xA;L87fP2snWvO+vary5LeX9xLGfCMyt6Y+hKDIoTv8kNB/Tn5q+XLMryiiu1u5RSo4WgNwQ3sfTp9O&#xA;IV95ahaLeWFzaNstzE8TH2dSv8ckr4JkR43ZHFHQlWHgRscVfS//ADi7dF/J+q2p/wB06gZB8pYY&#xA;x/zLxV7NirsVYB581iaW/wD0ajFbeAKZVH7TsOW/sARlUz0dxoMIEeLqWA67rtvpMMPJGuL27kEF&#xA;hZRkepNK2wVa9FHVmOyjfK3MyZRAJd5u/O3y/wCUtLj0+0ki1nzAsdJYrZq2sUp3YvIK7BiaKKt4&#xA;065ixwynKzsHDzasR85K/kfUNX1HytYX+rpwv7pXlkWnEcXkYx0G+3p8cy6rZytPKRgDLm1r3niw&#xA;8s6latco8rCKaZIY+rPT041J6BTzYk/5ORnjMxQatTqBAgMT8o3t75v853OvatSQ2aA28Ir6cTMS&#xA;I1UHsoDH575YICEaDiaS8uQyl0e7eQ9Ymivf0ZIxaCcM0QP7LqORp7EA4YHo26/CDHjHMM+y11DG&#xA;fNsk8dxbyRFkCq1ZEqKGo2JWp+9SMVSKS7S4QJcxrITujKoDbd+I5K3zSvyxVKLy8uZpPTkkJRCR&#xA;Gg2UAbVCqF+8KPniqH7Dwrt8/bqK/KpxVnHkaJ7exuJZlKCZwY6ihYAdR3+84qn8l07bL8I/HFVI&#xA;MwNQTXxxVUk1OC3jMl06xxjq7GgxVQ8yJI+kyoilmJU8QAagMD0bbt4j54qw9L+4UcJG9RF+0sgJ&#xA;Kj/WPxqP9ao/ysVS/UbmQBYIy0dsQGEfQEk9e4b2py9sVQB71/2Vf41P/Ej9GKp55S0n69qBNxB6&#xA;tmiMJS3SrD4Rvv8AdTEhlGZibHNko8k6YbgPJLNJbr9i2Zth7cvtcfauR4XI/NHnQ4u9Pbe2t7aI&#xA;Q28axRL0RAAPwyTjykZGyqYsUu8y6j+jPLmq6lXj9Rs7i55eHpRM9e38uKvzeyCvfP8AnETS7X/F&#xA;Wta9dyJFFp9mttE0jBR6l0/KoJpuEgYfThDKMDLkLfUx8w6EDT6/B/wa4eINn5fJ/NL4v8+2kVp5&#xA;11yCFg0C307QMCCDG8hdNx/ksMLVKJBovX/+cVb4CXzFYnqy2s6f7EyK3/ElxQ+gcVdirzzz5pcs&#xA;GqfXgtYLoCrDoHUUIPzArlUxu7nQZQYcPUPl782dI85az53lii066ubOJI49PMUTtFwKBnPIDjXm&#xA;TyOMapxdZDJLJyNdGf8A5a/ltaeXdMFxqUEU2tT/ABSuQJPRXtGhNRt+0R1PsBkSXN0ulEBZ+pne&#xA;Rcx5X+Ymg+YdS80c7WymuIDDGkEiKSgAqSC32V+Jj1y2BADqNZinLJsLZh5F8rvoGkmO4IN7ct6l&#xA;xx3C0FFQHvxH4nIylbm6XB4cd+ZeleRNMln1UXpFILUH4uxdgVC/ca4wG7Xr8oEOHqXobcqHj17V&#xA;y50rGry4kkvJkDifgxDwV4ypQ/sg/aWvTY/MYqlFzapIGa3FW+1JCaK+3UlG+F6fzA/TirHpUrI/&#xA;I05MTTqTv4Vb8ScVV9Pl0+O4DXkbyQ9PhIqfY+PyU4qy211B0+GB1uokoDCfgmQdAKHr7V+/FUaN&#xA;W0/0jI8yxcR8SyHiw+g9foxVJNR85IAyWKciNjNJsB8l2/4anyxVjs93dXk4a5kaRie9dgfAfDQf&#xA;8CMVZ7r05jnjV7gRFgeKuD6Tb7Bj0B+kH3xVKLuKOT+9HoS7lXc1Su+6yrQr8z95xVjeoRlLkhuI&#xA;oOLMCpqamo+CnL6afLFUNyC9B9n9o0qP1Bfw+WKs48gL/oN0xrUygb16BR4/PwGKspxV2KuxVhH5&#xA;16tBpv5WeZXkkCNcWE9rENqs06GKgr/r4CWQiTy6PgTIsX0F+RWl/VfJr3jD4tQuZJFbxSOkQ/4Z&#xA;WyuXN3WghWO+8vRsi5zxf8z7X0PNs8lKC5iilH/A+n+tMuhydHro1kPmmP5Ma3e6V5tdrSUxPcWz&#xA;xnoQeLK9CD1+zhmdmOjhGU6l3Ppry951hvpFtb5RBdNtG4+w58N/snBGdtuo0RhvHcMnybgKV1a2&#xA;91A8FxGJYXFGRumJDKMjE2ObDNV/L6ZWMmmyh0O/oymjD5N0P05UYdzs8XaA5SDHrjy9rlu1JbKX&#xA;builx96chkeEubHUY5ciEL9Rvf8Alnk/4Bv6YKZ8ce8Im38v63cGkVlMa92UoPvagw8JYS1GMcyG&#xA;QaX+X1wzCTUpRGnUwxHkx9i3QfRXJCHe4eXtAfwhmtpaW1pAtvbRiKJNlVf89zloDq5zMjZ5rpJk&#xA;Tqd/AdcWLG73QFuJJZlmKyvI0gBB4jka9jyB91IxVI9Xg1CC3dLpWZduMh+IGlKUcK34hT88VY/0&#xA;rXp+1X+NT+sn5YqitPtTdXkcW4DEciOoFf8AKK/jT5HBbYMZIvom9xYTwMBQMqdCgII/2Ioy/wCx&#xA;/wCBwtaB1GeaS3Xk3JeX2tz0HQkUX7+PyxVLKEEU+gD+FB+oD54qmWg6Z+kNTitmcRj+8bapou/T&#xA;pv4/jirJfMjQXeocbedGuIE4SRBqN1J60+8Go9sFszjkBZGySK9xA3pjkh/30Rtt4KD/AMQP+xws&#xA;Elckux77161p+B/4iMVLlUkqANzslP8AjWn/ABqPpwE02Y8Up8gznyXY6zZxOs8Cw2kp50f4ZuVK&#xA;fZFaDb9rfEEs8kIRFXcvsZRhaHYq7FXg3/ORF1c3+g6xZo1OAhgt1PSolR3/AOCocnp9PLNk4I83&#xA;Mz5YYNIZy61975ai8taq70aNYx/MzKR/wpJzYQ7F1BNEAfEfot0E+1sAGxv4freu+UvPU2jabY6Q&#xA;9mktrbIsQeIlZDvu1CWBJJr2zYZfZ2PDcZni8+SdL7UTiRGUAY+XP9v2PV85N7p5d+cVqFvdNu+8&#xA;kckRP/GNgw/5OZbjdT2kNwWJ+XJb+y1CO/tmMTxBgrkA15KVOxqD1zoOyOyTnnxZB+6+V+55ftHt&#xA;b8uKxy/e/Ovezny7rfmi91eBI7h5ow6tcAheIjr8RO223SmbjtTs/RYcEiYiJr087vo4fY/aevz6&#xA;iMRIyjY4uVcPX3PpvyzfyX2iW08prLxKOx7lCVr9NK5xMTYep1OMQyEBM8k0OxV2KuxV2KtMwVan&#xA;oMVSxtZiadoGJgYNxXnty8KN038OuKr8VUrm6traP1LiRY08WPU+AHc4qxrVPN6srw2cYKGqtLKA&#xA;Rvt9k7ff92KrtI8k3F0qXF9J6ETgMscdDJQ79acU+QGRolyRPHAbDil58k71Kw0/SdJK21uvpllW&#xA;RDy+OvdmAY/ThAppyZJTNlJ0vIHCrE9VI+G3n8P+K5Fr+Gw8MLBJdXe1MgEfPnszBgjEdejg1p/r&#xA;fhiqXc+y/DXfatT9PU/R9+Ksg8iiutk02ETn2rUDsafrxVmeo6Lp2oAG4i/ej7E6fDIvyYb4CLbc&#xA;eaUOXLuYzqflzVrYExE31t1+GnrAf5SH4X+jfBuG2sc/6Evs/YgtL8l6ldkSXI+qQE1+MVkPyTov&#xA;+y3x3K1jhz9Z+xmGl6BpmmitvFWb9qd/ikP0np9GECmrJnlLbp3dExwtTsVdirsVeafmd5SivTNL&#xA;PGXsLzj6pXYpItKGvatARhxZ54ZicOYdhjx49ThOHJ+P7Hn2n+QfLVmpBtzdOTXncHmQPCgCr+GZ&#xA;mftnUZOvD7vxbDTez2lxD6eM/wBLf9Q+xMrTy9odpIsttYwxyp9mQICw+THfMTJrs0xUpyI97nYe&#xA;ztPjNxhEEdaTDMRzUm8zeXE1u3hj9URSQuWVivIUIoRSo9s2nZfaI0siTHjEg6btnso6yEQJcEon&#xA;moaZ5J0WzjHrR/W5u8ko+H6E6ffXMjV+0Goyn0ngj3D9f9jjaH2Z0uEeoeJLvl+rl97ILDT15pa2&#xA;NuqtIQEiiULU/IZqMmWeQ3ImR893eQx48MfSBGPkKeu6Lpw07S7ezrVo1+MjuzHk34nJgUHRZsnH&#xA;MyRuFqdirsVdirsVdirA7jULlbmeJx6sXNz6UtWopb3+NR8uS/LFVkutz2tqTbOyBgAiOVdRWm6E&#xA;1Hy41HtiqQXFzcTyNJcSNI5+0zHoPpOw+ZA9sVU+48abfL26H7qDFXqujXlrdadA9vIsioio1OzB&#xA;RUEdsANs545RNEUgvM7P9WRDaSXFvXlJLFQmMjoQB8f0jEmmWPGJdQCxJ0gZDJDMssJNWrQGv+VX&#xA;4SfnRvfEG2M8comiKSy+5eueVa7Ury6/7MV/4l88LBZbWdzdS+lbxNLKeqIOR+Z/5uOAyb4aeRFn&#xA;0x7yy7QvJl3DMl1d3DQSLuIoG+P5NJ4ew2wUSzOSEBURxeZ/Uy/JOK7FXYq7FXYq7FXYq7FVssUU&#xA;0bRSoHjcUdGFQQfEHFIJBsMQ1b8v45GaXTZRFXf0Jalf9iwqR9Iysw7nY4u0CNpBjd15W1+2J52c&#xA;jgftRD1B/wAJU5AxLnR1WOXVBNp9+po1tKD4FGH8MFNviR7wqQ6Pq0xHpWcz17iNqffSmNFic0Bz&#xA;ITew8ia1cEG442sfcuQzfQq/xIyQgXHya+A5bsz0Xy5p2krWFfUuCKPcP9o+w8BlgjTrM+plk58k&#xA;0yTjuxV2KuxV2KuxVZMjyROiOY2YELIACQfGjAjFINFh+p6ZqtqtbqIX9upqLmJSJV92Ub/Sp2yN&#xA;kOTwQn9J4T3H9aQXbI0DNCSyMRVhXc/5XGn/AA4B98ILTPFKJohT07SL/UX4WkJkANC/RF+b/ZH+&#xA;x3wcXc2jT1vM8P3/ACZbpXkW0ho+oP8AWH6+ilVjr7/tN9OPD3r44jtAV59WTxRRQxrHEixxrsqK&#xA;AAB7AZJxySTZXYoSnUvLWnXrmZQba6P+74fhJ/1h0b6ciYt8NRICjvHuKU2nkRTcGS+uA8Y2VIF9&#xA;PkB/Me3yXGj1ZeNCO8Y7+e9e5k1pZWlnCIbWJYYx+yopX3PjhAaJzMjZNq2Fi7FXYq7FXYq7FXYq&#xA;7FXYq7FXYq7FXYq7FXYq7FXYq7FXYq7FXYq7FXYq7FWO6t/g36+n170vrVfj48qV/wCLeG3X+bIG&#xA;nMxeNw+nl+OSfW/1f0E+rcPQp+79OnCn+TTbJuLK735qmLF2KuxV2KuxV2KuxV//2Q==</xmpGImg:image>
               </rdf:li>
            </rdf:Alt>
         </xmp:Thumbnails>
         <xmpMM:InstanceID>xmp.iid:abec5413-8025-4042-adcc-8361bd4fe6a6</xmpMM:InstanceID>
         <xmpMM:DocumentID>xmp.did:abec5413-8025-4042-adcc-8361bd4fe6a6</xmpMM:DocumentID>
         <xmpMM:OriginalDocumentID>uuid:5D20892493BFDB11914A8590D31508C8</xmpMM:OriginalDocumentID>
         <xmpMM:RenditionClass>default</xmpMM:RenditionClass>
         <xmpMM:DerivedFrom rdf:parseType="Resource">
            <stRef:instanceID>xmp.iid:8d3d80ba-6f88-9d47-b4a8-c1b5011435e2</stRef:instanceID>
            <stRef:documentID>xmp.did:47393899-2e5d-8b4f-80c7-3794761771c8</stRef:documentID>
            <stRef:originalDocumentID>uuid:5D20892493BFDB11914A8590D31508C8</stRef:originalDocumentID>
            <stRef:renditionClass>default</stRef:renditionClass>
         </xmpMM:DerivedFrom>
         <xmpMM:History>
            <rdf:Seq>
               <rdf:li rdf:parseType="Resource">
                  <stEvt:action>saved</stEvt:action>
                  <stEvt:instanceID>xmp.iid:877234a0-2c46-3949-ad59-261e819cbc77</stEvt:instanceID>
                  <stEvt:when>2014-05-04T11:44:48+03:00</stEvt:when>
                  <stEvt:softwareAgent>Adobe Illustrator CC (Windows)</stEvt:softwareAgent>
                  <stEvt:changed>/</stEvt:changed>
               </rdf:li>
               <rdf:li rdf:parseType="Resource">
                  <stEvt:action>saved</stEvt:action>
                  <stEvt:instanceID>xmp.iid:47393899-2e5d-8b4f-80c7-3794761771c8</stEvt:instanceID>
                  <stEvt:when>2022-10-29T21:57:47+03:00</stEvt:when>
                  <stEvt:softwareAgent>Adobe Illustrator CC 2017 (Windows)</stEvt:softwareAgent>
                  <stEvt:changed>/</stEvt:changed>
               </rdf:li>
               <rdf:li rdf:parseType="Resource">
                  <stEvt:action>converted</stEvt:action>
                  <stEvt:parameters>from application/postscript to application/vnd.adobe.illustrator</stEvt:parameters>
               </rdf:li>
               <rdf:li rdf:parseType="Resource">
                  <stEvt:action>converted</stEvt:action>
                  <stEvt:parameters>from application/postscript to application/vnd.adobe.illustrator</stEvt:parameters>
               </rdf:li>
               <rdf:li rdf:parseType="Resource">
                  <stEvt:action>saved</stEvt:action>
                  <stEvt:instanceID>xmp.iid:abec5413-8025-4042-adcc-8361bd4fe6a6</stEvt:instanceID>
                  <stEvt:when>2025-11-15T13:57:21+05:30</stEvt:when>
                  <stEvt:softwareAgent>Adobe Illustrator 24.3 (Windows)</stEvt:softwareAgent>
                  <stEvt:changed>/</stEvt:changed>
               </rdf:li>
            </rdf:Seq>
         </xmpMM:History>
         <illustrator:StartupProfile>Print</illustrator:StartupProfile>
         <xmpTPg:HasVisibleOverprint>False</xmpTPg:HasVisibleOverprint>
         <xmpTPg:HasVisibleTransparency>False</xmpTPg:HasVisibleTransparency>
         <xmpTPg:NPages>1</xmpTPg:NPages>
         <xmpTPg:MaxPageSize rdf:parseType="Resource">
            <stDim:w>500.000000</stDim:w>
            <stDim:h>500.000000</stDim:h>
            <stDim:unit>Pixels</stDim:unit>
         </xmpTPg:MaxPageSize>
         <xmpTPg:PlateNames>
            <rdf:Seq>
               <rdf:li>Cyan</rdf:li>
               <rdf:li>Magenta</rdf:li>
               <rdf:li>Yellow</rdf:li>
               <rdf:li>Black</rdf:li>
            </rdf:Seq>
         </xmpTPg:PlateNames>
         <xmpTPg:SwatchGroups>
            <rdf:Seq>
               <rdf:li rdf:parseType="Resource">
                  <xmpG:groupName>Default Swatch Group</xmpG:groupName>
                  <xmpG:groupType>0</xmpG:groupType>
               </rdf:li>
            </rdf:Seq>
         </xmpTPg:SwatchGroups>
         <pdf:Producer>Adobe PDF library 15.00</pdf:Producer>
      </rdf:Description>
   </rdf:RDF>
</x:xmpmeta>
                                                                                                    
                                                                                                    
                                                                                                    
                                                                                                    
                                                                                                    
                                                                                                    
                                                                                                    
                                                                                                    
                                                                                                    
                                                                                                    
                                                                                                    
                                                                                                    
                                                                                                    
                                                                                                    
                                                                                                    
                                                                                                    
                                                                                                    
                                                                                                    
                                                                                                    
                                                                                                    
                           
<?xpacket end="w"?>
	</metadata>
<path class="st0" d="M333.5,340c-17.2,9.9-45.1,9.9-62.4-0.1c-17.3-10-17.4-26.1-0.2-36C288,294,316,294,333.3,304
	C350.5,314,350.6,330.1,333.5,340z"/>
<path class="st1" d="M272,326.5c-0.4,0.7-0.6,1.5-0.7,2.3c-0.1,1,0.1,2.5,0.7,3.3c0.6,0.7,1.7,1,2.5,1.1c3.5,0.4,7.2-1.1,9.6-3.8
	c2.1-2.4,3.3-5.7,6.1-7c1.9-0.9,4.1-0.7,5.9-1.8c1.4-0.8,2.3-2.3,2.6-3.9c0.3-1.6,0-3.2-0.6-4.7c-0.6-1.4-1.5-2.7-2.8-3.6
	c-0.9-0.6-2-0.9-3-1.1c-0.4-0.1-1-0.2-1.4-0.2c-0.4,0.1-0.8,0.5-1.2,0.8c-1.9,1.5-3.7,3-5.5,4.5c-4.5,3.9-9,8.1-11.9,13.3
	C272.3,326,272.2,326.3,272,326.5z"/>
<path class="st2" d="M281.8,253.7c-2.4-0.7-4.5-0.6-6.5,1c-1.6,1.3-1.7,3-1.4,5c0.4,3,0.6,6.1,1.9,9c0.4,0.8,0.9,1.6,1.2,2.5
	c0.7,1.8,0.6,3.9,0.7,5.8c0.1,2.6,0.5,5.1,1.2,7.6c1.1,3.8,2.7,7.4,4,11.1c0.8,2.3,1.3,4.6,1.8,6.9c0.4,2,1,4.6,0.7,6.6
	c-0.6,4.1-3.7,8.7-6.1,12c4.1-0.8,7.8-3.2,11.3-5.5c1.7-1.1,3.4-2.3,5.1-3.4c0.3-0.2,0.7-0.5,0.9-0.8c0.5-0.7,0.2-1.7-0.1-2.5
	c-1.5-5-1.9-10.3-1.1-15.5c0.6-3.6,1.7-7.1,1.2-10.7c-0.3-1.8-0.9-3.5-1.5-5.3c-1.7-5.8-1.8-11.9-2.9-17.8c-0.1-0.8-0.3-1.6-0.8-2.2
	c-1-1.5-3-1.6-4.8-2.1C285,254.9,283.4,254.2,281.8,253.7z"/>
<path class="st3" d="M315.3,318.4c-1,3-1.7,6.1-2.1,9.2c-0.1,0.8-0.2,1.7-0.1,2.5c0.3,1.8,1.7,2.7,3.4,2.9c1.2,0.1,2.5-0.2,3.7-0.6
	c2.4-0.9,4.5-2.6,6-4.6c2.6-3.6,3.3-8.1,4.2-12.4c0.3-1.3,0.6-2.6,1.3-3.8c0.6-1,1.6-1.6,2.2-2.5c0.7-1.1,1-2.3,0.7-3.6
	c-0.2-1-0.7-2-1.3-2.9c-0.6-1-1.4-2-2.4-2.8c-1-0.8-2.1-1.3-3.3-1.4c0.1,0.4,0.1,0.9,0.1,1.3c-1.2-0.1-2.2-0.1-3.4,0.4
	c-2.4,1-3.6,3.2-4.1,5.6c-0.9,3.7-2.7,7.1-4,10.7C315.8,316.9,315.5,317.6,315.3,318.4z"/>
<path class="st2" d="M297.3,273.3c4,4.6,8,9.2,12,13.8c2.4,2.8,4.8,5.6,6.7,8.7c1.9,3.2,3.2,6.7,3.2,10.4c0,3.7-1.2,7.3-1,10.9
	c4.5-3.3,8.5-7.4,11.6-12c0.3-0.4,0.6-0.9,0.7-1.4c0.3-1.3-0.8-2.5-1.5-3.7c-0.8-1.5-1-3.2-1.2-4.9c-0.5-3.6-1.1-7.2-2-10.7
	c-0.6-2.4-1.2-4.9-2.4-7.1c-3.3-6.3-10.4-10.1-13.1-16.6c-4,2.5-8.8,3.2-13.4,3.9c-1.5,0.2-3.2,0.7-3.5,2.2
	C293,269,296,271.8,297.3,273.3z"/>
<path class="st4" d="M270,188.8c-1.8,4.1-3.6,8.3-4.6,12.6c-1,4.1-1.4,8.4-1.7,12.7c-1.1,13.7-2.2,27.3-2.4,41c0,2.4,0,5,1.3,7.1
	c1.7,2.6,5,3.6,8.1,3.9c0.9,0.1,2,0.1,2.7-0.4c0.9-0.6,1.1-1.9,1.8-2.7c1.3-1.5,3.8-1.2,5.5-0.1c1.7,1.1,2.9,2.8,4.4,4
	c3.6,2.9,8.7,3,13.4,2.8c4.9-0.2,10.2-0.6,13.8-3.9c0.5-0.5,1.1-1.1,1.2-1.8c0.1-0.6,0-1.3-0.1-1.9c-2.4-12.5,2.5-25.2,2.5-37.9
	c0-4.4-0.6-8.7-1.2-13c-2-13.8-4.7-27.7-11.1-40.1c-4.1,4.1-10.4,5.8-16,4.4c-3.9-1-10-3.8-12.9,0.8c-0.8,1.3-0.9,3-1.4,4.4
	C272.5,183.4,271.1,186.1,270,188.8z"/>
<path class="st2" d="M294.8,156.8c-1.6-1.8-4.2-2.1-6-0.4c-1.8,1.7-3.3,3.6-4.9,5.5c-1.2,1.5-5.7,7.5-7.3,8.4
	c-2.4,1.4-20.9,9.3-24.2,10.2c0,0-0.1,0-0.1,0c-0.1-0.1-0.1-0.1-0.2-0.2c-0.9-0.9-2.1-1.5-3.3-1.8c-0.5-0.1-1-0.2-1.5-0.2
	c-0.2,0-0.5,0-0.8-0.1c-0.2-0.1-0.2-0.2-0.4-0.2c-0.4-0.1-0.8-0.2-1.2-0.2c-0.2,0-0.4,0.1-0.6-0.1c-0.7-0.7-1.7-0.9-2.7-0.9
	c-0.6,0-1.3,0.1-1.7,0.4c-0.4,0.3-0.6,0.8-0.6,1.2c0,0.5,0.3,0.9,0.6,1.2c0.5,0.4,1.2,0.4,1.8,0.4c0.6,0,1.3,0.2,1.7,0.6
	c0.4,0.5,0.3,1.2-0.2,1.5c-0.1,0.1-0.3,0.1-0.5,0.2c-0.4,0.1-0.7,0.2-1.1,0.3c-0.4,0.1-0.7,0.2-1.1,0.4c-0.3,0.2-0.6,0.5-0.7,0.9
	c-0.1,0.4,0.1,0.6,0.2,0.9c0.1,0.2,0,0.4,0.1,0.7c0.1,0.5,0.5,1,0.8,1.4c0.2,0.3,0.3,0.7,0.6,1c0.3,0.4,0.7,0.6,1.1,0.9
	c1,0.6,2.1,1.1,3.2,1.2c0.8,0.1,1.5,0.1,2.3,0c1.7-0.2,3.4-0.6,4.9-1.4c0.3-0.1,0.5-0.3,0.7-0.5c0.1,0,0.3,0,0.4,0
	c9.1-1.5,18.2-3,26.8-6.1c1-0.3,2-0.7,2.8-1.4c0.1-0.1,0.2-0.2,0.3-0.3c0.1,0,0.1,0.1,0.2,0.1c1.5-1.3,3.1-2.7,4.4-4.2
	c1.4-1.5,2.6-3.2,3.9-4.8c0.9-1.2,1.8-2.4,2.7-3.6c0.3-0.4,0.6-0.8,0.8-1.3c0.2-0.5,0.2-1,0.2-1.5c0-1.6,0-3.3-0.2-4.9
	C295.9,158.9,295.6,157.7,294.8,156.8z"/>
<path class="st3" d="M288,133.7c-4.8,4.4-9.1,9.3-13.4,14.1c-0.2,0.2-0.3,0.4-0.4,0.6c0,0.2,0.1,0.4,0.2,0.7
	c1.6,3.6,4.6,6.6,8.3,8.2c2.2-7.9,8.5-14.1,10.9-21.9c0.1-0.5,0.3-1,0.2-1.5c-0.1-1.1-1.4-2.3-2.5-2.3
	C290.2,131.6,288.9,132.9,288,133.7z"/>
<path class="st1" d="M285.2,137.5c-1.9,2.4-3.7,4.9-5.2,7.5c-1.5,2.6-2.8,5.3-3.9,8.1c-1.1,2.9-1.6,5.8-2,8.8
	c-0.6,4.7-1,9.4-1.1,14.1c0,2.3,0,4.6,0.1,6.8c0.1,1.9,1.7,3,3.2,4c4.4,2.5,9.4,3.6,14.5,3.7c5,0.1,10-0.6,15-1.5
	c0.6-0.1,1.2-0.2,1.7-0.5c0.4-0.2,0.7-0.5,0.9-0.8c1.1-1.2,2.1-2.5,3-3.9c4-5.9,7.8-12,11.5-18.1c1.8-3.1,3.6-6.2,5.4-9.3
	c0.9-1.5,1.6-2.7,1.7-4.5c0.1-1.9-0.7-4.1-1.8-5.7c-0.6-0.9-1.3-1.7-2-2.5c-2-2.2-9.4-7.2-10.8-7.7c-1.5-0.6-3.1-1-4.7-1.4
	c-3.4-0.9-6.8-1.7-10.3-2.3c-1.7-0.3-3.5-0.5-5.2-0.6c-1.2-0.1-2.7-0.4-3.9-0.2c-1.2,0.2-2.2,1.6-3,2.4
	C287.2,135.2,286.2,136.3,285.2,137.5z"/>
<path class="st2" d="M299.1,139.7c-0.2,0.5-0.3,1.1,0,1.5c0.1,0.2,0.3,0.2,0.5,0.3c0.5,0.2,1.1,0.3,1.7,0.4c4.5,0.5,9-0.7,13.1-2.4
	c1.2-0.5,2.4-1,3.4-1.9c-1.3-2-2-4.3-2.3-6.6c-0.3-2.3-0.4-4.7-0.8-7.1c-0.8,1.8-2.7,2.9-4.5,3.6c-2.4,0.9-5,1.5-7.6,1.6
	c-0.4,0-0.8,0-1.1,0.2c-1,0.5-1.2,2-1.3,2.9c-0.2,1.6-0.1,3.1-0.4,4.7C299.6,137.9,299.3,138.8,299.1,139.7z"/>
<path class="st5" d="M296.8,107.4c-0.1,0.3-0.2,0.6-0.2,0.9c0,0,0,0.1,0,0.1c-0.8,3.5-1.1,7.1-1.2,10.7c-0.1,3.5,0.2,7,1.4,10.4
	c0.2,0.5,0.4,1.1,0.8,1.5c0.6,0.6,1.5,0.9,2.3,1.1c1.4,0.2,2.7,0,4.1-0.3c2.1-0.4,4.2-0.9,6.2-1.4c1.4-0.4,2.9-0.9,4.1-1.7
	c1.2-0.9,2.2-2.2,2.3-3.7c0-0.4,0-0.8,0.3-1c0.2-0.1,0.4-0.1,0.6-0.1c1.6-0.1,3-1.2,4.1-2.3c1-0.9,2-1.9,2.6-3.1
	c0.9-1.7,1.2-3.6,1.2-5.5c0-3-0.8-6-2.3-8.6c-1.6-2.6-3.9-4.7-6.8-5.7c-4.9-1.8-10.5-1-14.6,2.1c-0.5,0.4-1,0.8-1.5,1.2
	c-0.1,0.1-0.4,0.5-0.6,0.5c-0.1,0-0.5-0.5-0.4-0.6C298.1,103.4,297.3,105.4,296.8,107.4z"/>
<path class="st6" d="M312.6,127c-0.5,1.2-0.4,2.6-0.2,3.9c0.1,0.3,0.2,1.1,0.5,1.4c0.2,0.2,0.8,0.2,1,0.3c1.4,0.2,2.9,0,4.2-0.3
	c2.1-0.5,4.1-1.1,6-2.1c1.9-1,3.6-2.4,4.8-4.2c0.6-0.9,0.5-2.2,0.6-3.2c0.1-1.2,0.1-2.5,0.1-3.7c0-2.5-0.2-4.9-0.5-7.4
	c-0.1-0.9-0.3-1.9-0.4-2.8c-0.4-2-0.8-3.9-1.8-5.7c-1.3-2.4-3.5-4.3-5.9-5.6c-2.5-1.2-5.2-1.8-7.9-2c-2.4-0.1-4.8,0.1-7,0.9
	c-1.7,0.6-3.3,1.4-4.7,2.5c-0.7,0.6-1.4,1.2-2,2c-0.6,0.8-0.9,1.8-1.3,2.8c0.5-0.6,1.2-0.9,2-1c0.8-0.1,1.5,0,2.3,0.2
	c2.5,0.5,5,1.3,6.9,3c1.6,1.4,2.7,3.4,3.5,5.4c0.6,1.5,1.1,3,1.4,4.5c0.3,1.3,0.6,2.8,1.8,3.5c0,0,0.3-1.1,0.3-1.2
	c0.1-0.5,0.3-1,0.6-1.5c0.6-1.1,1.6-2.6,2.9-2.9c0.4-0.1,0.8-0.1,1.2,0c1.6,0.5,2.2,2.5,1.7,3.9c-0.3,1-1,1.8-1.8,2.4
	c-0.8,0.6-1.7,1.1-2.6,1.6c-0.8,0.5-1.7,1-2.5,1.5C314.6,124.5,313.2,125.5,312.6,127z"/>
<path class="st4" d="M308.7,112.5L308.7,112.5l3.4-7.4l3.4,7.3l0,0c0.2,0.5,0.4,1.1,0.4,1.6c0,2.1-1.7,3.8-3.8,3.8s-3.8-1.7-3.8-3.8
	C308.3,113.5,308.4,113,308.7,112.5z"/>
<g>
	<g class="st7">
		<g>
			<polygon class="st8" points="304.5,131.3 294.9,181.4 260.7,196.6 270.3,146.4 			"/>
		</g>
		<g>
			<polygon class="st9" points="270.3,146.4 260.7,196.6 240.6,186 250.2,135.8 			"/>
		</g>
		<g>
			<g>
				<polygon class="st10" points="304.4,131.8 304.3,132.6 270.2,147.7 270.1,147.6 250,136.9 250.2,136.1 270.2,146.8 270.2,146.8 
									"/>
			</g>
			<g>
				<polygon class="st10" points="303.7,135.5 303.6,136.3 269.5,151.4 269.4,151.3 249.3,140.6 249.4,139.8 269.5,150.6 
					269.5,150.5 				"/>
			</g>
			<g>
				<polygon class="st10" points="303,139.2 302.8,140 268.7,155.1 268.7,155 248.6,144.3 248.7,143.5 268.8,154.3 268.8,154.3 				
					"/>
			</g>
			<g>
				<polygon class="st10" points="302.3,142.9 302.1,143.8 268,158.8 268,158.8 247.9,148 248,147.2 268.1,158 268.1,157.9 
					268.1,157.9 				"/>
			</g>
			<g>
				<polygon class="st10" points="301.6,146.6 301.4,147.5 267.3,162.5 267.3,162.5 247.2,151.7 247.3,151 267.4,161.7 267.4,161.7 
									"/>
			</g>
			<g>
				<polygon class="st10" points="300.9,150.3 300.7,151.2 266.6,166.2 266.5,166.2 246.5,155.4 246.6,154.7 266.6,165.4 
					266.7,165.4 				"/>
			</g>
			<polygon class="st11" points="261.3,162.5 246.6,154.7 246.9,153.3 243.6,154.9 			"/>
			<polygon class="st11" points="268.8,150.2 249.5,139.8 250,136.9 243.1,140.5 			"/>
			<g>
				<polygon class="st10" points="300.2,154 300,154.9 265.9,169.9 265.8,169.9 265.8,169.9 245.8,159.1 245.9,158.4 265.9,169.1 
					266,169.1 				"/>
			</g>
			<g>
				<polygon class="st10" points="299.5,157.7 299.3,158.6 265.2,173.6 265.1,173.6 245,162.8 245.2,162.1 265.2,172.8 265.3,172.8 
					265.3,172.8 265.3,172.8 				"/>
			</g>
			<polygon class="st9" points="270.8,167 300.2,154 300.7,151.2 309,155.8 			"/>
			<g>
				<polygon class="st10" points="298.8,161.4 298.6,162.3 264.5,177.4 264.4,177.3 244.3,166.6 244.5,165.8 264.5,176.5 
					264.6,176.5 				"/>
			</g>
			<g>
				<polygon class="st10" points="298,165.2 297.9,166 263.8,181.1 263.7,181 243.6,170.3 243.8,169.5 263.8,180.2 263.9,180.2 				
					"/>
			</g>
			<g>
				<polygon class="st10" points="297.3,168.9 297.2,169.7 263.1,184.8 263,184.7 242.9,174 243.1,173.2 263.1,184 263.1,183.9 				
					"/>
			</g>
			<polygon class="st11" points="262.4,183.6 243.1,173.2 243.6,170.3 236.7,173.9 			"/>
			<g>
				<polygon class="st10" points="296.6,172.6 296.5,173.4 262.4,188.5 262.3,188.4 242.2,177.7 242.3,177 262.4,187.7 262.4,187.6 
									"/>
			</g>
			<g>
				<polygon class="st10" points="295.9,176.3 295.8,177.1 295.8,177.2 261.6,192.2 261.6,192.2 241.5,181.4 241.6,180.7 
					261.7,191.4 261.7,191.4 				"/>
			</g>
			<g>
				<polygon class="st10" points="295.2,180 295,180.9 260.9,195.9 260.9,195.9 240.8,185.1 240.9,184.4 261,195.1 261,195.1 				
					"/>
			</g>
		</g>
		<g>
			<polygon class="st11" points="304.5,131.3 270.3,146.4 250.2,135.8 284.4,120.7 			"/>
		</g>
	</g>
</g>
<path class="st2" d="M321.3,166.9c-0.4-0.7-0.9-1.3-1.6-1.8c-1.3-1.1-3-1.7-4.6-1.7c-2.1,0-4.2,0.9-5.8,2.3c-2.7,2.1-4.8,5-6.7,7.8
	c-1.4,2.2-2.9,4.4-4.3,6.6c-0.8,0.2-22.8,10.4-29.2,11.4c-0.1,0-0.2,0-0.3,0.1c-0.8-0.1-1.5-0.4-2.1-0.8c-0.4-0.3-0.8-0.7-1.2-0.9
	c-1-0.5-2.3-0.3-3.4-0.2c-1.3,0-2.5-0.3-3.7-0.8c-0.6-0.3-1.1-0.7-1.8-0.7c-0.6,0-1.4,0.4-1.3,1.1c0,0.3,0.2,0.5,0.4,0.7
	c1,1.2,2.5,1.8,3.8,2.7c0.7,0.5,1.5,1.2,1.4,2.1c0,0.3-0.1,0.5-0.3,0.7c-0.4,0.3-1,0.2-1.4,0c-1.5-0.6-2.9-1.6-4.1-2.9
	c-0.4-0.5-0.8-1-1.1-1.6c-0.2-0.5-0.3-1-0.5-1.5c-0.4-0.7-1.1-1.1-1.9-1.1c-0.2,0-0.4,0-0.6,0c-0.3-0.1-0.5-0.3-0.7-0.4
	c-0.6-0.3-1.4,0.1-1.6,0.7c-0.1,0.2-0.1,0.3-0.2,0.5c-0.1,0.2-0.3,0.3-0.5,0.4c-0.4,0.4-0.4,1.1-0.2,1.6c0.2,0.5,0.5,1.1,0.6,1.6
	c0,0.4-0.1,0.7-0.1,1.1c0,1,0.6,1.9,1.4,2.5c0.8,0.6,1.7,1,2.6,1.5c1.4,0.8,2.6,1.9,4,2.7c1.4,0.8,3.1,1.3,4.6,0.9
	c0.6-0.2,1.2-0.5,1.8-0.7c0.9-0.4,1.9-0.6,2.9-0.9c2.5-0.6,22.2-3.6,29-5.1c3.3-0.8,6.6-1.6,9.7-3.1c1.3-0.6,2.4-2.1,3.4-3.1
	c1.2-1.2,2.4-2.5,3.5-3.7c2.3-2.5,4.5-5,6.7-7.5c0.8-1,1.7-1.9,2.5-2.9C322,172.6,322.5,169,321.3,166.9z"/>
<path class="st3" d="M319.6,150.4c-0.5,0.5-0.9,0.9-1.4,1.4c-2.7,2.8-14.3,17.3-14.6,17.9c-0.2,0.6,0.1,1.2,0.4,1.7
	c0.6,1.2,1.6,2.3,2.7,3.1c1.6,1.1,3.5,1.7,5.4,2.1c3.9,0.7,8,0.4,11.7-1c0.9-0.3,1.8-0.8,2.3-1.6c0.6-1,0.9-2.2,1.3-3.3
	c1.2-3.6,2.3-7.3,2.7-11.1c0.3-2.9,0.5-5.8,0.1-8.8c-0.2-1.2-0.4-2.3-1-3.3c-0.3-0.5-0.6-1-1-1.3c-1.3-0.9-2.7,0-3.9,0.6
	C322.5,147.7,321,149,319.6,150.4z"/>
<path class="st2" d="M237.6,177.7c0.3,0.1,0.6,0.4,0.6,0.7c0.3-0.2,0.7-0.3,1.1-0.3c0.4,0.1,0.7,0.5,0.6,0.8c0.4,0,0.8,0.2,1,0.5
	c0.2,0.3,0.2,0.8,0,1.1c-0.1,0.1-0.2,0.2-0.2,0.3c0,0.1-0.1,0.2,0,0.4c0,0.7,0.5,1.3,0.7,1.9c0.3,0.6,0.4,1.3,0.8,1.8
	c0.3,0.4,0.8,0.7,1.3,1c0.9,0.5,1.7,1.2,2.4,2c0.4,0.5,0.8,1.1,0.7,1.7c0,0.2-0.1,0.4-0.3,0.4c-0.1,0.1-0.3,0.1-0.4,0.1
	c-1.3,0-2.8-0.2-3.9-0.9c-0.4-0.3-0.8-0.6-1.3-0.8c-0.4-0.2-0.9-0.2-1.3-0.2c-0.4-0.1-0.9-0.3-1-0.7c-0.1-0.2-0.1-0.3-0.2-0.5
	c-0.2-0.2-0.4-0.1-0.7-0.1c-0.9,0-1.7-1-1.8-1.8c-0.1-1.2-0.2-2.5-0.2-3.7c0-0.8,0.1-1.6,0.5-2.4
	C236.3,178.4,236.9,177.6,237.6,177.7z"/>
<ellipse transform="matrix(5.421292e-03 -1 1 5.421292e-03 -164.5991 555.2834)" class="st0" cx="196.9" cy="360.4" rx="27.6" ry="47.9"/>
<path class="st2" d="M230.2,126.7c2.4-0.9,4.9-1.8,7.3-2.9c2.4-1.1,4.8-2.6,6-5c0.4-0.8,0.8-1.8,1.7-2c0.2,0,0.4,0,0.5,0.1
	c0.2,0.1,0.2,0.4,0.3,0.6c0.1,1,0,2.1-0.4,3c-0.4,0.9-0.9,1.7-1.1,2.7c0,0.2,0,0.5,0.1,0.6c0.1,0.1,0.3,0.2,0.5,0.2
	c3.1,0.1,6.2,0.5,9.2,1c0.1,0,0.3,0.1,0.4,0.2c0.3,0.3,0,1.4-0.1,1.7c-0.1,0.6-0.3,1.2-0.7,1.7c-0.2,0.2-0.5,0.4-0.7,0.6
	c-3.2,2.1-6.5,4-10,5.5c-1.1,0.5-2.3,0.9-3.4,0.7c-0.8-0.1-1.5-0.6-2.3-0.8c-1.4-0.4-3-0.1-4.4,0.5c-1.4,0.6-2.6,1.5-3.9,2.3
	c-0.1,0.1-0.3,0.2-0.5,0.1c-0.1,0-0.2-0.1-0.2-0.2c-1.2-1.9-1.9-4.2-3.6-5.5c0.9-1,1.8-2.1,2.5-3.3
	C228,127.5,229.2,127.2,230.2,126.7z"/>
<path class="st12" d="M155.9,361.7c0.2,1.7,0.9,3.4,2.3,4.5c1.2,1,2.9,1.3,4.4,0.9c1.2-0.4,2.2-1.3,3.3-1.9c1.9-1,4.2-1.1,6.4-1.1
	c3.8,0,7.8,0.2,11.4-1.2c0.9-0.4,1.8-0.9,2.5-1.7c0.8-1,1.1-2.4,0.6-3.6c-0.4-1-1.7-1.8-2.7-2.1c-3.7-1.4-7.6-1.7-11.6-1.9
	c-2.4-0.1-4.8-0.1-7.3,0c-2.4,0.2-4.9,0.5-7,1.7c-1.1,0.6-1.7,1.2-2.1,2.3C155.9,358.9,155.7,360.3,155.9,361.7z"/>
<path class="st1" d="M201,245.1c-0.1-0.5-0.5-0.9-0.8-1.2c-4.6-6-6.2-13.7-8.8-20.8c-0.7-2-1.5-3.9-2.9-5.5
	c-1.5-1.7-3.7-2.7-5.9-2.8c-1-0.1-2.3,0.5-3.2,0.4c-1.2-0.1-1.3-1.1-1.6-2.2c-3.6,6.1-6.1,13-7.2,20c-0.6,3.5-0.8,7-0.7,10.5
	c0.1,3.6,0.9,7.1,1.3,10.7c0.3,2.8,0.4,5.6,0.3,8.5c-0.1,5-0.5,10.1-0.9,15.1c-0.2,2.2,0,4.4-0.3,6.5c-0.3,2.2-1.3,4.2-2,6.2
	c-1,2.7-1.9,5.3-2.8,8c-0.7,2.1-1.3,4.2-1.9,6.4c-1.9,7.1-3.1,14.4-4.1,21.8c-0.7,5-1.2,10.1-1.6,15.2c-0.3,4.1-0.8,8.1-1.1,12.2
	c0,0.6-0.1,1.3-0.1,1.9c0,1.1,1.4,1.7,2.4,2c1,0.3,2,0.4,3,0.5c4.1,0.2,8.3-0.6,11.7-2.9c0.6-0.4,1.2-0.9,1.3-1.6
	c0.1-0.8,19.8-85.6,23.1-96.4c1.1-3.4,2.1-6.9,2.9-10.4C201.1,246.4,201.2,245.7,201,245.1z"/>
<path class="st13" d="M228.8,126.8c-0.4-0.1-0.7-0.1-1.1,0c-0.9,0.2-1.7,0.5-2.5,0.8c-2.8,1-5.6,2-8.4,3c-7.9,2.9-15.7,6-23.5,9
	c-6.7,2.6-13.4,5.3-20.1,8c-1,0.4-2,0.8-3,1.2c-3.2,1.3-6.4,2.8-9.3,4.7c-1.6,1-3.2,2.4-3.6,4.2c-0.3,1.2,0,2.5,0.2,3.7
	c0.1,0.8-0.1,2,0.5,2.8c0.4,0.5,1.1,0.4,2,0.2c1.8-0.4,3.5-0.8,5.4-0.9c2.5-0.2,5.1,0.2,7.6,0.2c5.4,0,10.8-1.6,15.9-3.4
	c3.5-1.3,7.3-2.2,10.8-3.6c3.7-1.5,7.3-3.2,10.8-5.2c3.9-2.2,7.7-4.7,11.4-7.2c3.2-2.1,6.4-4.3,9.7-6.4c0.3-0.2,0.7-0.5,0.9-0.8
	c0.2-0.3,0.3-0.8,0.4-1.2c0.4-1.8,0.4-3.7-0.2-5.4C232,128.9,230.5,127.1,228.8,126.8z"/>
<path class="st4" d="M208.4,366.3c0.3,1,0.7,1.8,1.5,2.3c1,0.6,2.2,0.6,3.3,0.3c2.7-0.7,5-2.6,7.5-3.7c4.5-2,9.8-1.5,14.1-3.8
	c1.6-0.9,3-2.1,3.9-3.7c1.1-1.9,1.2-4.8-1.1-5.9c-1.2-0.5-2.5-0.7-3.8-0.8c-2.1,0-4.1,0.2-6.2,0.6c-2.7,0.5-5.5,1.2-8.2,1.9
	c-1.8,0.5-3.7,1-5.4,1.7c-0.9,0.4-1.8,0.8-2.6,1.3c-0.6,0.4-1.3,1.3-2,0.6c-1.2,1.7-1.6,4-1.5,6C207.9,364.1,208,365.3,208.4,366.3z
	"/>
<path class="st3" d="M220,322.7c-0.8-9.7-2.2-19.4-2-29.2c0.3-9.7,0.3-19.3-0.2-29c-0.7-14.1-2.6-28.2-6.5-41.8
	c-0.3-1.2-1.2-2.6-2.3-2.3c-0.4,0.1-0.7,0.4-1.1,0.7c-3.8,3.6-9.5,5-14.6,3.6c-1.5-0.4-2.9-1-4.3-1.5c-0.9-0.3-4.1-2.2-5.1-1.7
	c-0.5,0.3-0.8,0.9-1,1.4c-2.2,5.7-3.9,11.7-4.1,17.8c-0.2,5.9,0.6,14.6,5.5,18.6c1.3,1.1,2.6,0.7,3.4,2.4c3.8,7.4,6.3,15.3,8.4,23.3
	c2.1,7.7,2.6,15.6,3.4,23.4c0.8,8,2.3,15.9,3.5,23.9c1,4.9,1.6,9.9,2.4,14.8c0.4,2.5,0.8,5,1.3,7.5c0.2,1.2,0.4,2.5,0.6,3.7
	c0.2,1.1,0.2,2.5,0.6,3.6c0.3,1.1,2.1,0.8,3,0.8c1.4-0.1,2.8-0.4,4.2-1c2.3-0.9,4.4-2.4,6.3-4.1c0.8-0.7,1.6-1.5,2.1-2.5
	C224.9,352.8,220.7,331.3,220,322.7z"/>
<path class="st14" d="M158,155.9c-1.3,1.8-1.9,4.1-2,6.3c-0.2,3.6,0.8,7.1,1.8,10.5c2.4,8.3,5,16.6,8.4,24.6
	c1.9,4.6,4.1,9.1,5.4,13.9c0.9,3.5,1.4,7.2,1.3,10.8c0,0.8,0,1.6,0.3,2.3c0.3,0.7,1,1.2,1.7,1.7c11,7.4,26.2,8.1,37.8,1.8
	c-0.6-11-1.6-22-2.7-32.9c-0.8-8-1.6-16.1-3.8-23.9c-0.8-2.8-1.9-5.8-4.2-7.6c-1.3-1-2.8-1.5-4.2-2.1c-3.4-1.2-6.8-2.5-10.3-3.7
	c-5.4-2-10.9-4.2-16.7-4.7C166.1,152.4,161.2,151.4,158,155.9z"/>
<path class="st5" d="M192.3,133.4c0,0,0,0.1,0,0.1c0,0.2,0.2,0.4,0.3,0.6c0.5,0.8,1,1.6,1.3,2.5c0,0.1,0.1,0.2,0,0.3
	c0,0.1-0.1,0.1-0.1,0.1c-0.8,0.6-1.4,1.5-1.6,2.5c-0.2,1-0.2,2-0.1,3c0,1.2,0.1,2.5,0.1,3.7c0,1.1,0.1,2.1-0.5,3.1
	c-1.2,1.6-3.1,2.5-4.7,3.6c-0.3,0.2-0.6,0.5-0.8,0.8c-0.1,0.3-0.1,0.7,0,1c0,0.4,0.1,0.8,0.1,1.3c0,0.1,0,0.2-0.1,0.3
	c-0.1,0.2-0.4,0.1-0.6,0.1c-0.2,0-0.5,0.2-0.7,0.3c-0.6,0.2-1.1,0.3-1.7,0.4c-5.3,0.6-11,0.4-15.5-2.5c-0.2-0.1-0.4-0.3-0.5-0.5
	c-0.1-0.3-0.1-0.6-0.1-0.9c0.1-2.1-0.3-4.2-1.1-6.1c-0.9-1.9-2.2-3.5-3.2-5.3c-1.2-2.1-2.1-4.3-2.8-6.6c-0.9-2.9-1.4-5.9-1.1-8.9
	c0.3-3,1.3-6,3.3-8.2c1.9-2.1,4.5-3.5,7.2-4.4c3.7-1.3,7.8-1.9,11.7-1c6.8,1.6,10.2,8,11.9,14.4c0.1,0.6,0.2,1.2,0.4,1.7
	c0.1,0.4,0.3,0.6,0.2,1.1c-0.2,1.1-0.8,2-1.1,3.1C192.3,133,192.3,133.2,192.3,133.4z"/>
<path class="st15" d="M165.6,116.4c-1.7,0.4-3.2,1.6-4.5,2.7c-1.3,1.2-2.4,2.8-2.8,4.5c-0.4,1.5-0.4,3.1-0.2,4.7
	c0.3,3.5,1.1,7,2.5,10.2c1.1,2.6,2.7,5.2,5,7c2.4,1.7,5.4,1.7,7.8,0c1.8-1.3,3.1-3.2,4.3-5.1c1.2-1.9,2.4-3.9,4.1-5.3
	c0.6-0.5,1.3-1,2.1-1.1c1.5-0.2,2.9,1.1,3.9,2.2c0-1.7,0.5-3.3,1.5-4.6c0.8-1.2,2-2.3,2-3.7c0-0.6-0.3-1.2-0.5-1.8
	c-1.1-2.5-2.2-5-3.2-7.5c-0.1-0.2-0.2-0.5-0.4-0.6c-0.2-0.1-0.4,0-0.6,0c-3.8,1-7.8,1-11.6,0C171.9,117.2,168.8,115.7,165.6,116.4z"
	/>
<path class="st6" d="M159.5,118.6c-0.8,1.5-1,3.1,0.2,4.5c0.9,1,2.3,1.6,3.6,1.8c2.1,0.3,4.3-0.4,6-1.7c0.1-0.1,0.2-0.2,0.3-0.2
	c0.3,0,0.9,0.3,1.3,0.4c0.7,0.1,1.4,0.2,2,0.2c1.3,0.1,2.6,0.1,4,0c2.6-0.2,5.1-0.6,7.7-1.1c1.5-0.3,2.8-0.8,4-1.8
	c0.4-0.4,0.8-0.8,1.1-1.3c0.4-0.8,0.7-1.9,0.4-2.8c-0.3-0.9-0.8-1.7-1.4-2.3c-1.2-1.3-2.8-2.2-4.5-2.8c-5.9-2.2-14.7-1.8-19.2,3.1
	c-0.2,0.2-0.3,0.4-0.6,0.5c-0.2,0.1-0.4,0.2-0.7,0.2c-0.9,0.3-1.8,0.7-2.6,1.3C160.5,117.2,159.9,117.9,159.5,118.6z"/>
<path class="st13" d="M165.3,150.8c0,0.7,0.2,1.4,0,2c-0.2,0.5-0.5,0.9-0.5,1.4c0,0.6,0.2,1.1,0.6,1.6c0.6,0.7,1.5,1.2,2.3,1.5
	c3.1,1.2,6.4,1.6,9.7,1.6c3.3,0,6.6-0.3,9.9-0.5c1.8-0.1,3.8,0,5.3,1.1c0,0,0-0.9,0-1.1c-0.1-0.4-0.3-0.8-0.6-1.2
	c-0.6-0.7-1.3-1.1-2.1-1.5c-4.4-2.1-9.4-2.9-14.2-3.5c-2.5-0.3-5-0.6-7.1-1.9c-0.6-0.4-1.4-1.1-2.2-1.1
	C165.6,149.3,165.3,150.2,165.3,150.8z"/>
<g>
	<g class="st7">
		<g>
			<polygon class="st8" points="288.5,101.8 287.7,124.7 255.8,140.5 256.5,117.6 			"/>
		</g>
		<g>
			<polygon class="st9" points="256.5,117.6 255.8,140.5 234.1,129.5 234.8,106.6 			"/>
		</g>
		<g>
			<g>
				<polygon class="st10" points="288.4,102.3 288.4,103.2 256.6,118.9 256.5,118.9 234.8,107.7 234.8,106.9 256.5,118 256.5,118 
									"/>
			</g>
			<g>
				<polygon class="st10" points="288.3,106.2 288.3,107.1 256.4,122.8 256.3,122.7 234.7,111.5 234.7,110.7 256.3,121.9 
					256.4,121.9 				"/>
			</g>
			<g>
				<polygon class="st10" points="288.1,110.1 288.1,111 256.3,126.6 256.2,126.6 234.5,115.4 234.5,114.6 256.2,125.8 256.2,125.8 
									"/>
			</g>
			<g>
				<polygon class="st10" points="288,113.9 288,114.8 256.1,130.5 256,130.5 234.4,119.3 234.4,118.5 256,129.7 256.1,129.6 
					256.1,129.6 				"/>
			</g>
			<g>
				<polygon class="st10" points="287.8,117.8 287.8,118.7 256,134.4 255.9,134.3 234.2,123.1 234.2,122.3 255.9,133.5 255.9,133.5 
									"/>
			</g>
			<g>
				<polygon class="st10" points="287.7,121.7 287.7,122.6 255.8,138.2 255.7,138.2 234.1,127 234.1,126.2 255.7,137.4 255.8,137.4 
									"/>
			</g>
			<polygon class="st11" points="249.9,134.4 234.1,126.2 234.1,124.7 231.1,126.5 			"/>
			<polygon class="st11" points="255.5,121.5 234.7,110.8 234.8,107.7 228.5,111.4 			"/>
		</g>
		<g>
			<polygon class="st11" points="288.5,101.8 256.5,117.6 234.8,106.6 266.8,90.8 			"/>
		</g>
	</g>
</g>
<path class="st2" d="M259.8,127.4c0.3-0.4,0.7-0.8,1.1-1c1-0.7,2.3-0.7,3.6-0.7c0.8,0,1.5,0.1,2.3,0.3c0.8,0.2,1.5,0.7,2.2,1.1
	c1.4,0.8,2.9,1.7,4,2.8c0.4,0.3,0.7,0.7,0.8,1.2c0.1,0.5-0.2,1.1-0.6,1.2c-0.7,0.2-1.4-0.6-2-0.2c-0.4,0.3-0.2,1-0.2,1.5
	c0.1,0.6-0.1,1.2-0.5,1.6c-0.3,0.4-0.8,0.7-1.2,1.1c-0.5,0.6-0.8,1.3-1.3,1.9c-1.1,1.4-3.2,1.9-4.7,1c-0.3-0.2-0.5-0.4-0.8-0.5
	c-0.6-0.2-1.2,0-1.8,0.3c-1.2,0.5-2.3,1.3-3.6,1.4c-0.4,0-0.8,0-1.1-0.3c-0.4-0.4-0.4-1-0.5-1.5c-0.2-1.2-0.9-2.3-1.9-2.9
	c-0.6-0.4-1.6-0.7-1.6-1.7c0-0.7,0.7-1,1.2-1.3C254.6,131.9,259.1,128.2,259.8,127.4z"/>
<path class="st13" d="M258.9,136.9c-0.9-2.1-2.8-3.7-4.7-5.1c-0.2-0.1-0.5-0.3-0.7-0.3c-0.2,0-0.4,0.1-0.6,0.2
	c-3.4,1.8-6.6,3.9-9.7,6.2c-5.9,4.4-11.2,9.5-17.4,13.4c-1.5,1-3.2,1.9-4.8,2.7c-1.9,0.9-3.8,1.7-5.7,2.3c-4.3,1.5-8.7,2.5-13.1,3.4
	c-3.7,0.7-7.3,1.9-8.5,6c-0.6,1.9-0.5,3.9-0.3,5.9c0.3,2.3,0.9,4.7,2.7,6.2c1.7,1.5,4.3,1.8,6.6,1.5c2.5-0.3,5-1.1,7.4-2
	c5.8-2.1,11.4-4.6,16.8-7.6c2.7-1.5,16.7-11.6,18.5-13c3.8-3.2,7.6-6.5,11.2-9.9c0.6-0.6,1.2-1.2,1.8-1.8c0.7-0.9,1.7-2.4,1.8-3.5
	C259.9,140.1,259.5,138.3,258.9,136.9z"/>
<g>
	<polygon class="st0" points="423.8,342.5 386.7,360.9 361.5,348.1 398.6,329.7 	"/>
</g>
<g class="st7">
	<g>
		<polygon class="st8" points="419.4,318.9 418.7,341.8 386.7,357.6 387.5,334.7 		"/>
	</g>
	<g>
		<polygon class="st9" points="387.5,334.7 386.7,357.6 365,346.6 365.8,323.7 		"/>
	</g>
	<g>
		<g>
			<polygon class="st10" points="419.4,319.4 419.4,320.3 387.6,336 387.5,335.9 365.8,324.7 365.8,324 387.5,335.1 387.5,335.1 			
				"/>
		</g>
		<g>
			<polygon class="st10" points="419.3,323.3 419.2,324.2 387.4,339.9 387.3,339.8 365.6,328.6 365.6,327.8 387.3,339 387.3,339 			
				"/>
		</g>
		<g>
			<polygon class="st10" points="419.1,327.1 419.1,328.1 387.3,343.7 387.2,343.7 365.5,332.5 365.5,331.7 387.2,342.9 
				387.2,342.9 			"/>
		</g>
		<g>
			<polygon class="st10" points="419,331 418.9,331.9 387.1,347.6 387,347.5 365.3,336.3 365.3,335.6 387,346.7 387,346.7 
				387.1,346.7 			"/>
		</g>
		<g>
			<polygon class="st10" points="418.8,334.9 418.8,335.8 387,351.4 386.9,351.4 365.2,340.2 365.2,339.4 386.9,350.6 386.9,350.6 
							"/>
		</g>
		<g>
			<polygon class="st10" points="418.7,338.7 418.6,339.7 386.8,355.3 386.7,355.3 365,344.1 365.1,343.3 386.7,354.5 386.8,354.4 
							"/>
		</g>
		<polygon class="st11" points="380.9,351.5 365.1,343.3 365.1,341.8 362.1,343.6 		"/>
		<polygon class="st11" points="386.5,338.6 365.7,327.8 365.8,324.7 359.4,328.5 		"/>
	</g>
	<g>
		<polygon class="st11" points="419.4,318.9 387.5,334.7 365.8,323.7 397.7,307.9 		"/>
	</g>
</g>
<g>
	<g class="st7">
		<g>
			<polygon class="st8" points="423.6,295.4 422.8,318.4 390.9,334.2 391.7,311.2 			"/>
		</g>
		<g>
			<polygon class="st9" points="391.7,311.2 390.9,334.2 369.2,323.1 370,300.2 			"/>
		</g>
		<g>
			<g>
				<polygon class="st10" points="423.6,295.9 423.6,296.9 391.7,312.5 391.7,312.5 370,301.3 370,300.5 391.6,311.7 391.7,311.6 
									"/>
			</g>
			<g>
				<polygon class="st10" points="423.4,299.8 423.4,300.7 391.6,316.4 391.5,316.3 369.8,305.2 369.8,304.4 391.5,315.5 
					391.5,315.5 				"/>
			</g>
			<g>
				<polygon class="st10" points="423.3,303.7 423.3,304.6 391.4,320.2 391.4,320.2 369.7,309 369.7,308.2 391.3,319.4 391.4,319.4 
									"/>
			</g>
			<g>
				<polygon class="st10" points="423.2,307.6 423.1,308.5 391.3,324.1 391.2,324.1 369.5,312.9 369.5,312.1 391.2,323.3 
					391.2,323.2 391.2,323.2 				"/>
			</g>
			<g>
				<polygon class="st10" points="423,311.4 423,312.3 391.1,328 391.1,327.9 369.4,316.8 369.4,316 391,327.1 391.1,327.1 				"/>
			</g>
			<g>
				<polygon class="st10" points="422.8,315.3 422.8,316.2 391,331.8 390.9,331.8 369.2,320.6 369.2,319.8 390.9,331 390.9,331 				
					"/>
			</g>
			<polygon class="st11" points="385.1,328 369.2,319.8 369.3,318.4 366.3,320.1 			"/>
			<polygon class="st11" points="390.7,315.1 369.8,304.4 370,301.3 363.6,305.1 			"/>
		</g>
		<g>
			<polygon class="st11" points="423.6,295.4 391.7,311.2 370,300.2 401.9,284.4 			"/>
		</g>
	</g>
</g>
<g>
	<g class="st7">
		<g>
			<polygon class="st8" points="419.4,272.7 418.7,295.6 386.7,311.4 387.5,288.5 			"/>
		</g>
		<g>
			<polygon class="st9" points="387.5,288.5 386.7,311.4 365,300.4 365.8,277.5 			"/>
		</g>
		<g>
			<g>
				<polygon class="st10" points="419.4,273.2 419.4,274.1 387.6,289.8 387.5,289.7 365.8,278.5 365.8,277.8 387.5,288.9 
					387.5,288.9 				"/>
			</g>
			<g>
				<polygon class="st10" points="419.3,277.1 419.2,278 387.4,293.7 387.3,293.6 365.6,282.4 365.6,281.6 387.3,292.8 387.3,292.8 
									"/>
			</g>
			<g>
				<polygon class="st10" points="419.1,280.9 419.1,281.9 387.3,297.5 387.2,297.5 365.5,286.3 365.5,285.5 387.2,296.7 
					387.2,296.7 				"/>
			</g>
			<polygon class="st11" points="398.3,291.6 419.2,280.9 419.2,277.8 425.4,281.6 			"/>
			<g>
				<polygon class="st10" points="419,284.8 418.9,285.7 387.1,301.4 387,301.3 365.3,290.2 365.3,289.4 387,300.5 387,300.5 
					387.1,300.5 				"/>
			</g>
			<g>
				<polygon class="st10" points="418.8,288.7 418.8,289.6 387,305.2 386.9,305.2 365.2,294 365.2,293.2 386.9,304.4 386.9,304.4 
									"/>
			</g>
			<g>
				<polygon class="st10" points="418.7,292.5 418.6,293.5 386.8,309.1 386.7,309.1 365,297.9 365.1,297.1 386.7,308.3 386.8,308.2 
									"/>
			</g>
			<polygon class="st11" points="380.9,305.3 365.1,297.1 365.1,295.6 362.1,297.4 			"/>
			<polygon class="st11" points="386.5,292.4 365.7,281.6 365.8,278.5 359.4,282.3 			"/>
		</g>
		<g>
			<polygon class="st11" points="419.4,272.7 387.5,288.5 365.8,277.5 397.7,261.7 			"/>
		</g>
	</g>
</g>
<g>
	<g class="st7">
		<g>
			<polygon class="st8" points="414.5,250.6 413.8,273.5 381.8,289.3 382.6,266.4 			"/>
		</g>
		<g>
			<polygon class="st9" points="382.6,266.4 381.8,289.3 360.1,278.3 360.9,255.3 			"/>
		</g>
		<g>
			<g>
				<polygon class="st10" points="414.5,251.1 414.5,252 382.7,267.7 382.6,267.6 360.9,256.4 360.9,255.7 382.6,266.8 382.6,266.8 
									"/>
			</g>
			<g>
				<polygon class="st10" points="414.4,255 414.3,255.9 382.5,271.6 382.4,271.5 360.7,260.3 360.8,259.5 382.4,270.7 382.4,270.7 
									"/>
			</g>
			<g>
				<polygon class="st10" points="414.2,258.8 414.2,259.8 382.4,275.4 382.3,275.4 360.6,264.2 360.6,263.4 382.3,274.6 
					382.3,274.6 				"/>
			</g>
			<polygon class="st11" points="393.4,269.5 414.3,258.8 414.4,255.7 420.5,259.5 			"/>
			<g>
				<polygon class="st10" points="414.1,262.7 414,263.6 382.2,279.3 382.1,279.2 360.4,268 360.5,267.3 382.1,278.4 382.1,278.4 
					382.2,278.4 				"/>
			</g>
			<g>
				<polygon class="st10" points="413.9,266.6 413.9,267.5 382.1,283.1 382,283.1 360.3,271.9 360.3,271.1 382,282.3 382,282.3 				
					"/>
			</g>
			<g>
				<polygon class="st10" points="413.8,270.4 413.7,271.4 381.9,287 381.8,287 360.1,275.8 360.2,275 381.8,286.2 381.9,286.1 				
					"/>
			</g>
			<polygon class="st11" points="376,283.2 360.2,275 360.2,273.5 357.2,275.3 			"/>
			<polygon class="st11" points="381.6,270.3 360.8,259.5 360.9,256.4 354.5,260.2 			"/>
		</g>
		<g>
			<polygon class="st11" points="414.5,250.6 382.6,266.4 360.9,255.3 392.8,239.6 			"/>
		</g>
	</g>
</g>
<g>
	<g class="st7">
		<g>
			<polygon class="st8" points="419.2,224.6 418.4,247.5 386.5,263.3 387.3,240.4 			"/>
		</g>
		<g>
			<polygon class="st9" points="387.3,240.4 386.5,263.3 364.8,252.2 365.6,229.3 			"/>
		</g>
		<g>
			<g>
				<polygon class="st10" points="419.2,225.1 419.1,226 387.3,241.6 387.2,241.6 365.5,230.4 365.5,229.6 387.2,240.8 387.2,240.8 
									"/>
			</g>
			<g>
				<polygon class="st10" points="419,229 419,229.9 387.1,245.5 387.1,245.5 365.4,234.3 365.4,233.5 387,244.7 387.1,244.6 				
					"/>
			</g>
			<g>
				<polygon class="st10" points="418.9,232.8 418.8,233.7 387,249.4 386.9,249.3 365.2,238.1 365.2,237.4 386.9,248.5 386.9,248.5 
									"/>
			</g>
			<polygon class="st11" points="398,243.5 418.9,232.7 419,229.6 425.1,233.4 			"/>
			<g>
				<polygon class="st10" points="418.7,236.7 418.7,237.6 386.8,253.2 386.8,253.2 365.1,242 365.1,241.2 386.7,252.4 386.8,252.4 
					386.8,252.4 				"/>
			</g>
			<g>
				<polygon class="st10" points="418.6,240.5 418.5,241.4 386.7,257.1 386.6,257.1 364.9,245.9 364.9,245.1 386.6,256.3 
					386.6,256.2 				"/>
			</g>
			<g>
				<polygon class="st10" points="418.4,244.4 418.4,245.3 386.5,261 386.5,260.9 364.8,249.7 364.8,248.9 386.4,260.1 386.5,260.1 
									"/>
			</g>
			<polygon class="st11" points="380.6,257.1 364.8,248.9 364.9,247.5 361.8,249.2 			"/>
			<polygon class="st11" points="386.3,244.3 365.4,233.5 365.5,230.4 359.2,234.2 			"/>
		</g>
		<g>
			<polygon class="st11" points="419.2,224.6 387.3,240.4 365.6,229.3 397.5,213.5 			"/>
		</g>
	</g>
</g>
<g>
	<polygon class="st0" points="148.7,309.1 111.6,327.4 86.4,314.6 123.5,296.2 	"/>
</g>
<g class="st7">
	<g>
		<polygon class="st8" points="144.4,285.4 143.6,308.3 111.7,324.1 112.5,301.2 		"/>
	</g>
	<g>
		<polygon class="st9" points="112.5,301.2 111.7,324.1 90,313.1 90.8,290.2 		"/>
	</g>
	<g>
		<g>
			<polygon class="st10" points="144.4,285.9 144.3,286.8 112.5,302.5 112.4,302.5 90.7,291.3 90.7,290.5 112.4,301.6 112.4,301.6 
							"/>
		</g>
		<g>
			<polygon class="st10" points="144.2,289.8 144.2,290.7 112.3,306.4 112.3,306.3 90.6,295.1 90.6,294.3 112.2,305.5 112.3,305.5 
							"/>
		</g>
		<g>
			<polygon class="st10" points="144.1,293.7 144,294.6 112.2,310.2 112.1,310.2 90.4,299 90.4,298.2 112.1,309.4 112.1,309.4 			
				"/>
		</g>
		<g>
			<polygon class="st10" points="143.9,297.5 143.9,298.4 112,314.1 112,314.1 90.3,302.9 90.3,302.1 111.9,313.2 112,313.2 
				112,313.2 			"/>
		</g>
		<g>
			<polygon class="st10" points="143.8,301.4 143.7,302.3 111.9,318 111.8,317.9 90.1,306.7 90.1,305.9 111.8,317.1 111.8,317.1 			
				"/>
		</g>
		<g>
			<polygon class="st10" points="143.6,305.3 143.6,306.2 111.7,321.8 111.7,321.8 90,310.6 90,309.8 111.6,321 111.7,320.9 			"/>
		</g>
		<polygon class="st11" points="105.8,318 90,309.8 90.1,308.3 87,310.1 		"/>
		<polygon class="st11" points="111.5,305.1 90.6,294.4 90.7,291.3 84.4,295 		"/>
	</g>
	<g>
		<polygon class="st11" points="144.4,285.4 112.5,301.2 90.8,290.2 122.7,274.4 		"/>
	</g>
</g>
<g>
	<g class="st7">
		<g>
			<polygon class="st8" points="148.6,262 147.8,284.9 115.9,300.7 116.6,277.8 			"/>
		</g>
		<g>
			<polygon class="st9" points="116.6,277.8 115.9,300.7 94.2,289.6 94.9,266.7 			"/>
		</g>
		<g>
			<g>
				<polygon class="st10" points="148.5,262.5 148.5,263.4 116.7,279 116.6,279 94.9,267.8 94.9,267 116.6,278.2 116.6,278.2 				
					"/>
			</g>
			<g>
				<polygon class="st10" points="148.4,266.3 148.4,267.2 116.5,282.9 116.4,282.9 94.8,271.7 94.8,270.9 116.4,282.1 116.5,282 
									"/>
			</g>
			<g>
				<polygon class="st10" points="148.2,270.2 148.2,271.1 116.4,286.8 116.3,286.7 94.6,275.5 94.6,274.7 116.3,285.9 116.3,285.9 
									"/>
			</g>
			<g>
				<polygon class="st10" points="148.1,274.1 148.1,275 116.2,290.6 116.1,290.6 94.5,279.4 94.5,278.6 116.1,289.8 116.2,289.8 
					116.2,289.8 				"/>
			</g>
			<g>
				<polygon class="st10" points="147.9,277.9 147.9,278.8 116.1,294.5 116,294.4 94.3,283.3 94.3,282.5 116,293.7 116,293.6 				
					"/>
			</g>
			<g>
				<polygon class="st10" points="147.8,281.8 147.8,282.7 115.9,298.4 115.8,298.3 94.2,287.1 94.2,286.3 115.8,297.5 115.9,297.5 
									"/>
			</g>
			<polygon class="st11" points="110,294.5 94.2,286.3 94.2,284.9 91.2,286.6 			"/>
			<polygon class="st11" points="115.6,281.7 94.8,270.9 94.9,267.8 88.6,271.6 			"/>
		</g>
		<g>
			<polygon class="st11" points="148.6,262 116.6,277.8 94.9,266.7 126.9,250.9 			"/>
		</g>
	</g>
</g>
<g>
	<g class="st7">
		<g>
			<polygon class="st8" points="144.4,239.2 143.6,262.1 111.7,277.9 112.5,255 			"/>
		</g>
		<g>
			<polygon class="st9" points="112.5,255 111.7,277.9 90,266.9 90.8,244 			"/>
		</g>
		<g>
			<g>
				<polygon class="st10" points="144.4,239.7 144.3,240.6 112.5,256.3 112.4,256.3 90.7,245.1 90.7,244.3 112.4,255.4 112.4,255.4 
									"/>
			</g>
			<g>
				<polygon class="st10" points="144.2,243.6 144.2,244.5 112.3,260.2 112.3,260.1 90.6,248.9 90.6,248.1 112.2,259.3 112.3,259.3 
									"/>
			</g>
			<g>
				<polygon class="st10" points="144.1,247.5 144,248.4 112.2,264 112.1,264 90.4,252.8 90.4,252 112.1,263.2 112.1,263.2 				"/>
			</g>
			<polygon class="st11" points="123.2,258.2 144.1,247.4 144.2,244.3 150.3,248.1 			"/>
			<g>
				<polygon class="st10" points="143.9,251.3 143.9,252.2 112,267.9 112,267.9 90.3,256.7 90.3,255.9 111.9,267 112,267 112,267 
									"/>
			</g>
			<g>
				<polygon class="st10" points="143.8,255.2 143.7,256.1 111.9,271.8 111.8,271.7 90.1,260.5 90.1,259.7 111.8,270.9 111.8,270.9 
									"/>
			</g>
			<g>
				<polygon class="st10" points="143.6,259.1 143.6,260 111.7,275.6 111.7,275.6 90,264.4 90,263.6 111.6,274.8 111.7,274.7 				
					"/>
			</g>
			<polygon class="st11" points="105.8,271.8 90,263.6 90.1,262.1 87,263.9 			"/>
			<polygon class="st11" points="111.5,258.9 90.6,248.2 90.7,245.1 84.4,248.8 			"/>
		</g>
		<g>
			<polygon class="st11" points="144.4,239.2 112.5,255 90.8,244 122.7,228.2 			"/>
		</g>
	</g>
</g>
<g>
	<g class="st7">
		<g>
			<polygon class="st8" points="139.5,217.1 138.7,240 106.8,255.8 107.6,232.9 			"/>
		</g>
		<g>
			<polygon class="st9" points="107.6,232.9 106.8,255.8 85.1,244.8 85.9,221.9 			"/>
		</g>
		<g>
			<g>
				<polygon class="st10" points="139.5,217.6 139.4,218.5 107.6,234.2 107.5,234.2 85.8,223 85.8,222.2 107.5,233.3 107.5,233.3 
									"/>
			</g>
			<g>
				<polygon class="st10" points="139.3,221.5 139.3,222.4 107.4,238.1 107.4,238 85.7,226.8 85.7,226 107.3,237.2 107.4,237.2 				
					"/>
			</g>
			<g>
				<polygon class="st10" points="139.2,225.4 139.1,226.3 107.3,241.9 107.2,241.9 85.5,230.7 85.6,229.9 107.2,241.1 107.3,241.1 
									"/>
			</g>
			<polygon class="st11" points="118.3,236.1 139.2,225.3 139.3,222.2 145.4,226 			"/>
			<g>
				<polygon class="st10" points="139,229.2 139,230.1 107.1,245.8 107.1,245.8 85.4,234.6 85.4,233.8 107.1,244.9 107.1,244.9 
					107.1,244.9 				"/>
			</g>
			<g>
				<polygon class="st10" points="138.9,233.1 138.8,234 107,249.7 106.9,249.6 85.2,238.4 85.3,237.6 106.9,248.8 107,248.8 				
					"/>
			</g>
			<g>
				<polygon class="st10" points="138.7,237 138.7,237.9 106.8,253.5 106.8,253.5 85.1,242.3 85.1,241.5 106.8,252.7 106.8,252.6 
									"/>
			</g>
			<polygon class="st11" points="100.9,249.7 85.1,241.5 85.2,240 82.2,241.8 			"/>
			<polygon class="st11" points="106.6,236.8 85.7,226.1 85.8,223 79.5,226.7 			"/>
		</g>
		<g>
			<polygon class="st11" points="139.5,217.1 107.6,232.9 85.9,221.9 117.8,206.1 			"/>
		</g>
	</g>
</g>
<g>
	<g class="st7">
		<g>
			<polygon class="st8" points="144.1,191.1 143.3,214 111.4,229.8 112.2,206.9 			"/>
		</g>
		<g>
			<polygon class="st9" points="112.2,206.9 111.4,229.8 89.7,218.7 90.5,195.8 			"/>
		</g>
		<g>
			<g>
				<polygon class="st10" points="144.1,191.6 144.1,192.5 112.2,208.2 112.2,208.1 90.5,196.9 90.5,196.1 112.1,207.3 112.2,207.3 
									"/>
			</g>
			<g>
				<polygon class="st10" points="144,195.5 143.9,196.4 112.1,212 112,212 90.3,200.8 90.3,200 112,211.2 112,211.2 				"/>
			</g>
			<g>
				<polygon class="st10" points="143.8,199.3 143.8,200.2 111.9,215.9 111.9,215.8 90.2,204.6 90.2,203.9 111.8,215 111.9,215 				
					"/>
			</g>
			<polygon class="st11" points="123,210 143.8,199.2 143.9,196.2 150.1,199.9 			"/>
			<g>
				<polygon class="st10" points="143.7,203.2 143.6,204.1 111.8,219.8 111.7,219.7 90,208.5 90,207.7 111.7,218.9 111.7,218.9 
					111.7,218.9 				"/>
			</g>
			<g>
				<polygon class="st10" points="143.5,207.1 143.5,208 111.6,223.6 111.6,223.6 89.9,212.4 89.9,211.6 111.5,222.8 111.6,222.8 
									"/>
			</g>
			<g>
				<polygon class="st10" points="143.4,210.9 143.3,211.8 111.5,227.5 111.4,227.4 89.7,216.3 89.7,215.5 111.4,226.6 111.4,226.6 
									"/>
			</g>
			<polygon class="st11" points="105.6,223.6 89.7,215.5 89.8,214 86.8,215.7 			"/>
			<polygon class="st11" points="111.2,210.8 90.3,200 90.5,196.9 84.1,200.7 			"/>
		</g>
		<g>
			<polygon class="st11" points="144.1,191.1 112.2,206.9 90.5,195.8 122.4,180 			"/>
		</g>
	</g>
</g>
<g>
	<polygon class="st0" points="102.1,355.4 65,373.8 39.8,360.9 76.9,342.5 	"/>
</g>
<g class="st7">
	<g>
		<polygon class="st8" points="97.7,331.8 97,354.7 65.1,370.5 65.8,347.6 		"/>
	</g>
	<g>
		<polygon class="st9" points="65.8,347.6 65.1,370.5 43.3,359.4 44.1,336.5 		"/>
	</g>
	<g>
		<g>
			<polygon class="st10" points="97.7,332.3 97.7,333.2 65.9,348.8 65.8,348.8 44.1,337.6 44.1,336.8 65.8,348 65.8,348 			"/>
		</g>
		<g>
			<polygon class="st10" points="97.6,336.1 97.5,337 65.7,352.7 65.6,352.7 43.9,341.5 44,340.7 65.6,351.8 65.7,351.8 			"/>
		</g>
		<g>
			<polygon class="st10" points="97.4,340 97.4,340.9 65.6,356.6 65.5,356.5 43.8,345.3 43.8,344.5 65.5,355.7 65.5,355.7 			"/>
		</g>
		<g>
			<polygon class="st10" points="97.3,343.9 97.3,344.8 65.4,360.4 65.3,360.4 43.6,349.2 43.7,348.4 65.3,359.6 65.4,359.5 
				65.4,359.5 			"/>
		</g>
		<g>
			<polygon class="st10" points="97.1,347.7 97.1,348.6 65.3,364.3 65.2,364.2 43.5,353.1 43.5,352.3 65.2,363.5 65.2,363.4 			"/>
		</g>
		<g>
			<polygon class="st10" points="97,351.6 97,352.5 65.1,368.2 65,368.1 43.3,356.9 43.4,356.1 65,367.3 65.1,367.3 			"/>
		</g>
		<polygon class="st11" points="59.2,364.3 43.4,356.1 43.4,354.7 40.4,356.4 		"/>
		<polygon class="st11" points="64.8,351.5 44,340.7 44.1,337.6 37.8,341.4 		"/>
	</g>
	<g>
		<polygon class="st11" points="97.7,331.8 65.8,347.6 44.1,336.5 76,320.7 		"/>
	</g>
</g>
<g>
	<g class="st7">
		<g>
			<polygon class="st8" points="101.9,308.3 101.2,331.2 69.2,347 70,324.1 			"/>
		</g>
		<g>
			<polygon class="st9" points="70,324.1 69.2,347 47.5,335.9 48.3,313 			"/>
		</g>
		<g>
			<g>
				<polygon class="st10" points="101.9,308.8 101.9,309.7 70,325.4 70,325.3 48.3,314.1 48.3,313.3 69.9,324.5 70,324.5 				"/>
			</g>
			<g>
				<polygon class="st10" points="101.8,312.7 101.7,313.6 69.9,329.2 69.8,329.2 48.1,318 48.1,317.2 69.8,328.4 69.8,328.4 				
					"/>
			</g>
			<g>
				<polygon class="st10" points="101.6,316.5 101.6,317.4 69.7,333.1 69.7,333 48,321.9 48,321.1 69.7,332.3 69.7,332.2 				"/>
			</g>
			<g>
				<polygon class="st10" points="101.5,320.4 101.4,321.3 69.6,337 69.5,336.9 47.8,325.7 47.8,324.9 69.5,336.1 69.5,336.1 
					69.5,336.1 				"/>
			</g>
			<g>
				<polygon class="st10" points="101.3,324.3 101.3,325.2 69.4,340.8 69.4,340.8 47.7,329.6 47.7,328.8 69.4,340 69.4,340 				"/>
			</g>
			<g>
				<polygon class="st10" points="101.2,328.1 101.1,329 69.3,344.7 69.2,344.7 47.5,333.5 47.5,332.7 69.2,343.8 69.2,343.8 				
					"/>
			</g>
			<polygon class="st11" points="63.4,340.8 47.5,332.7 47.6,331.2 44.6,333 			"/>
			<polygon class="st11" points="69,328 48.1,317.2 48.3,314.1 41.9,317.9 			"/>
		</g>
		<g>
			<polygon class="st11" points="101.9,308.3 70,324.1 48.3,313 80.2,297.2 			"/>
		</g>
	</g>
</g>
<g>
	<g class="st7">
		<g>
			<polygon class="st8" points="97.7,285.6 97,308.5 65.1,324.3 65.8,301.4 			"/>
		</g>
		<g>
			<polygon class="st9" points="65.8,301.4 65.1,324.3 43.3,313.2 44.1,290.3 			"/>
		</g>
		<g>
			<g>
				<polygon class="st10" points="97.7,286.1 97.7,287 65.9,302.6 65.8,302.6 44.1,291.4 44.1,290.6 65.8,301.8 65.8,301.8 				"/>
			</g>
			<g>
				<polygon class="st10" points="97.6,289.9 97.5,290.8 65.7,306.5 65.6,306.5 43.9,295.3 44,294.5 65.6,305.7 65.7,305.6 				"/>
			</g>
			<g>
				<polygon class="st10" points="97.4,293.8 97.4,294.7 65.6,310.4 65.5,310.3 43.8,299.1 43.8,298.3 65.5,309.5 65.5,309.5 				
					"/>
			</g>
			<polygon class="st11" points="76.6,304.5 97.5,293.7 97.6,290.6 103.7,294.4 			"/>
			<g>
				<polygon class="st10" points="97.3,297.7 97.3,298.6 65.4,314.2 65.3,314.2 43.6,303 43.7,302.2 65.3,313.4 65.4,313.4 
					65.4,313.4 				"/>
			</g>
			<g>
				<polygon class="st10" points="97.1,301.5 97.1,302.4 65.3,318.1 65.2,318 43.5,306.9 43.5,306.1 65.2,317.3 65.2,317.2 				"/>
			</g>
			<g>
				<polygon class="st10" points="97,305.4 97,306.3 65.1,322 65,321.9 43.3,310.7 43.4,309.9 65,321.1 65.1,321.1 				"/>
			</g>
			<polygon class="st11" points="59.2,318.1 43.4,309.9 43.4,308.5 40.4,310.2 			"/>
			<polygon class="st11" points="64.8,305.3 44,294.5 44.1,291.4 37.8,295.2 			"/>
		</g>
		<g>
			<polygon class="st11" points="97.7,285.6 65.8,301.4 44.1,290.3 76,274.5 			"/>
		</g>
	</g>
</g>
<g>
	<polygon class="st0" points="395.8,374.5 358.7,392.9 333.5,380 370.6,361.7 	"/>
</g>
<g>
	<polygon class="st8" points="391.4,350.9 390.7,373.8 358.7,389.6 359.5,366.7 	"/>
</g>
<g>
	<polygon class="st9" points="359.5,366.7 358.7,389.6 337,378.5 337.8,355.6 	"/>
</g>
<g>
	<g>
		<polygon class="st10" points="391.4,351.4 391.4,352.3 359.6,368 359.5,367.9 337.8,356.7 337.8,355.9 359.5,367.1 359.5,367.1 		
			"/>
	</g>
	<g>
		<polygon class="st10" points="391.3,355.3 391.2,356.2 359.4,371.8 359.3,371.8 337.6,360.6 337.6,359.8 359.3,371 359.3,371 		
			"/>
	</g>
	<g>
		<polygon class="st10" points="391.1,359.1 391.1,360 359.3,375.7 359.2,375.6 337.5,364.5 337.5,363.7 359.2,374.9 359.2,374.8 		
			"/>
	</g>
	<g>
		<polygon class="st10" points="391,363 390.9,363.9 359.1,379.6 359,379.5 337.3,368.3 337.3,367.5 359,378.7 359,378.7 
			359.1,378.7 		"/>
	</g>
	<g>
		<polygon class="st10" points="390.8,366.9 390.8,367.8 359,383.4 358.9,383.4 337.2,372.2 337.2,371.4 358.9,382.6 358.9,382.6 		
			"/>
	</g>
	<g>
		<polygon class="st10" points="390.7,370.7 390.6,371.6 358.8,387.3 358.7,387.3 337,376.1 337.1,375.3 358.7,386.4 358.8,386.4 		
			"/>
	</g>
	<polygon class="st11" points="352.9,383.4 337.1,375.3 337.1,373.8 334.1,375.6 	"/>
	<polygon class="st11" points="358.5,370.6 337.7,359.8 337.8,356.7 331.4,360.5 	"/>
</g>
<g>
	<polygon class="st11" points="391.4,350.9 359.5,366.7 337.8,355.6 369.7,339.8 	"/>
</g>
<g>
	<polygon class="st0" points="471.6,365.2 434.5,383.6 409.3,370.7 446.4,352.3 	"/>
</g>
<g class="st7">
	<g>
		<polygon class="st8" points="467.3,341.6 466.5,364.5 434.6,380.3 435.3,357.4 		"/>
	</g>
	<g>
		<polygon class="st9" points="435.3,357.4 434.6,380.3 412.9,369.2 413.6,346.3 		"/>
	</g>
	<g>
		<g>
			<polygon class="st10" points="467.3,342.1 467.2,343 435.4,358.6 435.3,358.6 413.6,347.4 413.6,346.6 435.3,357.8 435.3,357.8 
							"/>
		</g>
		<g>
			<polygon class="st10" points="467.1,346 467.1,346.9 435.2,362.5 435.1,362.5 413.5,351.3 413.5,350.5 435.1,361.7 435.2,361.6 
							"/>
		</g>
		<g>
			<polygon class="st10" points="467,349.8 466.9,350.7 435.1,366.4 435,366.3 413.3,355.1 413.3,354.4 435,365.5 435,365.5 			"/>
		</g>
		<g>
			<polygon class="st10" points="466.8,353.7 466.8,354.6 434.9,370.2 434.8,370.2 413.2,359 413.2,358.2 434.8,369.4 434.9,369.4 
				434.9,369.4 			"/>
		</g>
		<g>
			<polygon class="st10" points="466.7,357.5 466.6,358.4 434.8,374.1 434.7,374 413,362.9 413,362.1 434.7,373.3 434.7,373.2 			
				"/>
		</g>
		<g>
			<polygon class="st10" points="466.5,361.4 466.5,362.3 434.6,378 434.6,377.9 412.9,366.7 412.9,365.9 434.5,377.1 434.6,377.1 
							"/>
		</g>
		<polygon class="st11" points="428.7,374.1 412.9,365.9 412.9,364.5 409.9,366.2 		"/>
		<polygon class="st11" points="434.4,361.3 413.5,350.5 413.6,347.4 407.3,351.2 		"/>
	</g>
	<g>
		<polygon class="st11" points="467.3,341.6 435.3,357.4 413.6,346.3 445.6,330.5 		"/>
	</g>
</g>
<g>
	<g class="st7">
		<g>
			<polygon class="st8" points="471.4,318.1 470.7,341 438.8,356.8 439.5,333.9 			"/>
		</g>
		<g>
			<polygon class="st9" points="439.5,333.9 438.8,356.8 417,345.7 417.8,322.8 			"/>
		</g>
		<g>
			<g>
				<polygon class="st10" points="471.4,318.6 471.4,319.5 439.6,335.2 439.5,335.1 417.8,323.9 417.8,323.1 439.5,334.3 
					439.5,334.3 				"/>
			</g>
			<g>
				<polygon class="st10" points="471.3,322.5 471.2,323.4 439.4,339 439.3,339 417.6,327.8 417.7,327 439.3,338.2 439.4,338.2 				
					"/>
			</g>
			<g>
				<polygon class="st10" points="471.1,326.3 471.1,327.2 439.3,342.9 439.2,342.9 417.5,331.7 417.5,330.9 439.2,342.1 439.2,342 
									"/>
			</g>
			<g>
				<polygon class="st10" points="471,330.2 470.9,331.1 439.1,346.8 439,346.7 417.3,335.5 417.4,334.7 439,345.9 439.1,345.9 
					439.1,345.9 				"/>
			</g>
			<g>
				<polygon class="st10" points="470.8,334.1 470.8,335 439,350.6 438.9,350.6 417.2,339.4 417.2,338.6 438.9,349.8 438.9,349.8 
									"/>
			</g>
			<g>
				<polygon class="st10" points="470.7,337.9 470.7,338.8 438.8,354.5 438.7,354.5 417,343.3 417.1,342.5 438.7,353.6 438.8,353.6 
									"/>
			</g>
			<polygon class="st11" points="432.9,350.6 417.1,342.5 417.1,341 414.1,342.8 			"/>
			<polygon class="st11" points="438.5,337.8 417.7,327 417.8,323.9 411.4,327.7 			"/>
		</g>
		<g>
			<polygon class="st11" points="471.4,318.1 439.5,333.9 417.8,322.8 449.7,307 			"/>
		</g>
	</g>
</g>
</svg>
