<?xml version="1.0" encoding="utf-8"?>
<!-- Generator: Adobe Illustrator 24.3.0, SVG Export Plug-In . SVG Version: 6.00 Build 0)  -->
<svg version="1.1" id="Layer_1" xmlns="http://www.w3.org/2000/svg" xmlns:xlink="http://www.w3.org/1999/xlink" x="0px" y="0px"
	 viewBox="0 0 750 500" style="enable-background:new 0 0 750 500;" xml:space="preserve">
<style type="text/css">
	.st0{fill:#9B6A42;}
	.st1{fill:#8FAECC;}
	.st2{fill:#BC8858;}
	.st3{fill:#ACCAEF;}
	.st4{fill:#7297CC;}
	.st5{clip-path:url(#SVGID_2_);}
	.st6{fill:#577DAA;}
	.st7{fill:#DED5D1;}
	.st8{fill:#691C24;}
	.st9{fill:#D1C9C5;}
	.st10{fill:#FFF5F0;}
	.st11{fill:#8A252F;}
	.st12{fill:#F2E9E4;}
	.st13{fill:#FFD85A;}
	.st14{fill:#D1B159;}
	.st15{fill:#2D2A2A;}
	.st16{fill:none;}
	.st17{fill:#3E474F;}
	.st18{fill:#272F35;}
	.st19{fill:#D3A875;}
	.st20{fill:#B78C62;}
	.st21{fill:#FFFFFF;}
	.st22{fill:#BA3B38;}
	.st23{fill:#590F0F;}
	.st24{fill:#FFF8F0;}
	.st25{fill:#71AF91;}
	.st26{fill:#518469;}
	.st27{fill:#B59064;}
	.st28{fill:#F2B6AD;}
	.st29{fill:#422B19;}
	.st30{fill:#FFCDC0;}
	.st31{fill:#A06D44;}
	.st32{fill:#3C547A;}
	.st33{fill:#2C4260;}
	.st34{fill:#E09A8C;}
	.st35{fill:#FFC6A9;}
	.st36{fill:#E09F82;}
	.st37{fill:#C95E39;}
	.st38{fill:#A04830;}
	.st39{fill:#EDAA8C;}
	.st40{fill:#704C2C;}
	.st41{fill:#8E653C;}
	.st42{fill:#986E47;}
	.st43{fill:#5E3F28;}
	.st44{fill:#825737;}
	.st45{fill:#B5B8BC;}
	.st46{fill:#92969B;}
	.st47{fill:#EF7443;}
	.st48{fill:#FFCFDD;}
	.st49{fill:#FFD892;}
	.st50{fill:#B1B0D1;}
</style>
<g>
	<g>
		<g>
			<g>
				<path class="st0" d="M161.5,437.8c-2,2.7-8.3,2.3-11,0.7c0-12.7,0.7-26-1.3-38.3c-2.3-14.7-5.3-26.7-1.3-41.3
					c5-18-1-32.7-2-50.3c10-2,20.7-0.7,30.3-3.3c1,0-0.3,0-0.7-0.3L161.5,437.8z"/>
			</g>
			<g>
				<path class="st1" d="M147.8,318.7c-0.7,2-4.5,2.2-6.3,3c1.5,2.2,5.2,2.5,7.5,1.8c-0.3,1-1.3,2-2.2,2.7c2.3-0.2,5-0.8,6.7-2.7
					c-0.2,1-0.3,1.8-0.7,2.8c1.7,0.2,3.2-0.8,4-2.2c-0.2,1,0,2,0.3,2.8c1.5-0.8,3.2-2.2,4.2-3.7c-0.8,4.5,3.2,1,4.5-0.5
					c0.5,0.8,1,2,1.3,3c1.2-0.8,2-2.2,2.7-3.3c0.5,1.2,1.7,2.2,2.8,2.5c1.3-1.2,1.2-2.7,1.7-4.2c1.2,1,2.3,2.2,4,2.3
					c0-2.2-1-5.7-1.8-7.7L147.8,318.7z"/>
			</g>
			<g>
				<path class="st2" d="M208.7,441.6c-2,0.5-4,3.3-6.3,3.3c-4,0.2-4.8,0.3-5-3.4c0-2.8,0.1-10.5,0.1-13.2c0-11-2.5-21.8-3-32.8
					c-0.2-5.5-1.2-10.8-1-16.2c0.2-5.2,2.2-10.8,2-16c-0.5-11-11.8-23.2-19-30.8c-5.2-5.2-10.5-10-15.2-15.5c-3-3.5-3-4.5,1.8-5.5
					c3.5-1,7.2-1,10.8-1.5c7-1,13-2,19.8-2.8c3.5-0.5,3.8-3,6-0.5c2,2.5,4.2,8.8,5.2,11.8c4.2,11,8.2,22.5,11.5,34
					c3,10.2,1.8,18.5,0.2,28.5c0,0.8-0.2,1.8-0.5,2.5L208.7,441.6z"/>
			</g>
			<g>
				<path class="st3" d="M164.6,320.5c-0.6,3-0.6,4.5-2.4,6.8c1.9,0.9,6.6,0.3,8-1.3c0.1,1.4,2.2,3.8,3,4.9c1.6-1.5,3.5-3,5.2-4.4
					c0.8,1.2,1.9,2.6,3,3.6c0.9-1.1,1.5-2.5,1.9-3.8c0.6,0.8,3.1,3.6,4.2,3c1.9-1-0.8-3.4,2.2-2.5c1.8,0.5,2.8,2.5,4.5,1
					c1.2-1,1.2-3.2,2.2-4.5c1.1,0.5,2.4,3.2,3.2,2.9s1.1-3.6,1.1-4.5c0.9,1,1.9,1.8,3.1,1.5c-0.1-0.9-0.5-1.9-0.8-2.8
					c1.9-0.1,5.9,1,6.4-1.8c-2.8-0.6-5.8-1.1-8-3L164.6,320.5z"/>
			</g>
			<g>
				<path class="st4" d="M144.4,283c-12.5,8.5-0.8,35.8,1.2,37.5l0,0c3.6,0.8,7.2,1,10.9,1.1c2.5,0.1,6.1,0.4,8.1-1.1
					c3.9,4.1,14.5,3,19.6,2.4c6-0.6,12.6-2,18-5.1c1.6-1,1.9-1,1.8-3c-0.2-1.2-0.8-2.6-1.1-3.9c-0.8-2.8-1.6-5.5-2.6-8.2
					c-1.9-5.6-4.6-10.8-6.5-16.4c-0.5-1.2-0.5-2.9-1.1-4L144.4,283z"/>
			</g>
			<g>
				<g>
					<defs>
						<path id="SVGID_1_" d="M144.4,283c-12.5,8.5-0.8,35.8,1.2,37.5l0,0c3.6,0.8,7.2,1,10.9,1.1c2.5,0.1,6.1,0.4,8.1-1.1
							c3.9,4.1,14.5,3,19.6,2.4c6-0.6,12.6-2,18-5.1c1.6-1,1.9-1,1.8-3c-0.2-1.2-0.8-2.6-1.1-3.9c-0.8-2.8-1.6-5.5-2.6-8.2
							c-1.9-5.6-4.6-10.8-6.5-16.4c-0.5-1.2-0.5-2.9-1.1-4L144.4,283z"/>
					</defs>
					<clipPath id="SVGID_2_">
						<use xlink:href="#SVGID_1_"  style="overflow:visible;"/>
					</clipPath>
					<g class="st5">
						<g>
							<path class="st6" d="M184.1,280.7c0.8,3.4,1.4,6.9,2.1,10.4c0.7,3.4,1.4,6.9,2.2,10.3c0.8,3.4,1.7,6.8,2.6,10.2
								c0.5,1.7,0.9,3.4,1.4,5.1c0.6,1.6,1.1,3.3,1.8,4.9l0,0v0c0.2,0.5,0.4,0.9,0.6,1.4l0.3,0.7l0.2,0.4l0.1,0.2c0,0,0,0.1,0,0.1
								c0,0.1-0.1,0-0.1,0c0.1,0.1,0.1,0,0-0.1l-0.1-0.2l-0.2-0.3l-0.4-0.7c-0.3-0.4-0.5-0.9-0.7-1.3l0,0c-1.7-3.2-2.8-6.5-3.8-9.9
								l-1.4-5.1c-0.5-1.7-0.9-3.4-1.3-5.1c-0.7-3.5-1.4-6.9-2-10.4C185,287.7,184.5,284.2,184.1,280.7z"/>
						</g>
						<g>
							<path class="st6" d="M187.6,299.8c0.7-0.1,1.1-0.6,1.5-1.1c0.3-0.5,0.6-1.1,0.8-1.7c0.4-1.2,0.6-2.5,0.6-3.8
								c0.1-2.6-0.7-5.2-1-7.8c1.1,2.4,2,5,2,7.9c0,1.4-0.3,2.8-0.9,4c-0.3,0.6-0.6,1.2-1.1,1.8C189,299.5,188.3,299.9,187.6,299.8z
								"/>
						</g>
						<g>
							<path class="st6" d="M176.6,285.7c-0.3,2.8,0.2,5.5,0.6,8.2l0.4,2c0.1,0.6,0.4,1.3,0.6,2c0.4,1.3,0.9,2.6,1.3,4
								c0.2,0.7,0.4,1.4,0.5,2.1c0.1,0.7,0.2,1.4,0,2.3c-0.2,0.8-0.8,1.4-1.4,1.8c-0.6,0.4-1.3,0.8-1.9,1c-1.3,0.5-2.7,0.8-4.1,1.1
								l-2,0.4c-0.7,0.2-1.4,0.3-2.1,0.4c-1.4,0.2-2.8,0.3-4.3,0.2c-0.7-0.1-1.4-0.2-2.1-0.4c-0.7-0.2-1.4-0.7-1.9-1.2
								c-1.1-1.1-1.8-2.3-2.3-3.7c-0.5-1.3-0.9-2.7-1.2-4.1c-0.5-2.8-0.8-5.6-0.7-8.3c0.1-2.8,0.4-5.6,1-8.3
								c-0.8,5.5-0.8,11.1,0.4,16.5c0.3,1.3,0.7,2.6,1.2,3.9c0.5,1.2,1.2,2.4,2.1,3.3c0.9,0.9,2.2,1.2,3.5,1.3c1.3,0.1,2.7,0,4-0.2
								c0.7-0.1,1.3-0.2,2-0.4l2.1-0.4c1.4-0.2,2.7-0.5,4-1c1.2-0.5,2.5-1.1,2.8-2.3c0.1-0.5,0.1-1.2,0-1.9c-0.1-0.7-0.2-1.3-0.4-2
								C177.1,296.9,175.9,291.2,176.6,285.7z"/>
						</g>
						<g>
							<path class="st6" d="M169.1,322.7c-2-0.6-3.9-1.6-5.7-2.6c-1.8-1.1-3.5-2.3-5.1-3.7c-0.8-0.7-1.6-1.4-2.3-2.2
								c-0.7-0.8-1.2-1.8-1.8-2.7c-1-1.9-1.9-3.8-2.5-5.8c-1.3-4.1-1.7-8.4-1.5-12.6c0.3-4.2,1.1-8.4,2.7-12.3c-0.6,2-1,4.1-1.3,6.1
								c-0.3,2.1-0.5,4.1-0.5,6.2c-0.1,4.2,0.4,8.3,1.6,12.3c0.6,2,1.4,3.9,2.4,5.7c0.5,0.9,1,1.8,1.6,2.6c0.6,0.8,1.4,1.5,2.1,2.3
								c1.5,1.4,3.2,2.7,4.9,3.9C165.4,320.9,167.2,321.9,169.1,322.7z"/>
						</g>
						<g>
							<g>
								<path class="st6" d="M148.8,285.2c-1.4,4.2-1.3,8.7-0.9,13c0.2,2.2,0.7,4.3,1.1,6.5c0.2,1.1,0.3,2.2,0.2,3.4
									c0,0.3-0.1,0.6-0.3,1c-0.1,0.2-0.2,0.3-0.4,0.5c-0.2,0.1-0.4,0.2-0.5,0.2c-0.5,0.1-1.2,0.2-1.8,0.2
									c-0.6-0.1-1.3-0.3-1.8-0.6c-0.5-0.4-0.9-0.9-1.2-1.4c-0.6-1.1-0.8-2.2-1-3.3c-0.4-2.2-0.6-4.4-0.6-6.6
									c0-2.2,0.1-4.4,0.5-6.6c0.4-2.2,1-4.4,2.3-6.2l0-0.1l0.1,0C145.9,285.1,147.3,285.1,148.8,285.2z M148.8,285.2
									c-1.4,0.1-2.8,0.1-4.2,0.2l0.1-0.1c-1.2,1.8-1.6,4-2,6.1c-0.3,2.2-0.3,4.3-0.3,6.5c0.1,2.2,0.3,4.3,0.7,6.5
									c0.2,1.1,0.5,2.1,1,3c0.5,0.9,1.3,1.5,2.2,1.5c0.5,0,1,0,1.5-0.1c0.2,0,0.2,0,0.2-0.1c0,0,0.1-0.1,0.1-0.1
									c0.1-0.1,0.1-0.4,0.2-0.6c0.1-1,0-2.1-0.1-3.2c-0.1-1.1-0.4-2.1-0.5-3.2c-0.2-1.1-0.3-2.2-0.4-3.3
									C146.8,293.8,147,289.3,148.8,285.2z"/>
							</g>
						</g>
					</g>
				</g>
			</g>
			<g>
				<g>
					<g>
						<path class="st7" d="M178.1,447.1c0.2-0.5,0.5-0.9,0.7-1.4c1-1.7,2.1-3.2,3.5-4.5c0.4-0.4,0.2-0.8,0.6-1.1
							c0.2,0.1,1.1,0.3,1.3,0.3c1.3,0.2,2.8,0.2,4.1,0.5c1.2,0.3,2.9,0.5,3.8,1.4c0.5,0.5,0.6,1.5,0.6,2.4
							C189.3,446.4,183.5,447,178.1,447.1z"/>
					</g>
					<g>
						<path class="st8" d="M182,446.7c-0.3,0.4-2.4,0.3-3.9,0.4c-5.8,0.1-11.1-0.2-12.6-0.3c-4.4-0.4-11.1-1-16.5-1.4
							c0-0.8,0.9-9.2,0.5-9.4c1.8,1.1,3.9,1.6,5.9,1.5c1,0,3.8-0.3,4.5-1.1c0.4-0.4,0.4-1,0.5-1.5c0.2-1.3,0.4-2.5,0.5-3.8
							c0.1-0.5,0.2-1.1,0.5-1.5c0.6-0.7,2.6-0.7,3.2,0c0.7,0.8,0.2,1.6,0.7,2.5c0.8,1.4,2.5,2.3,3.9,2.7c3.5,1.2,12.6,5,13.9,5.3
							C184.1,442.5,183.3,444.9,182,446.7z"/>
					</g>
					<g>
						<path class="st9" d="M165.5,446.8c1.4,0.1,6.8,0.5,12.6,0.3c5.4-0.1,11.2-0.7,14.6-2.3c0,0.8-0.1,1.6-0.1,2.1
							c-3,1.8-5.9,1.7-8.1,1.8c-1.9,0.1-3.9,0.3-5.8,0.2c-0.4,0-0.8,0-1.3,0c-7.9-0.1-25.7-0.9-26.7-0.9c-1.4-0.1-1.4-0.2-1.6-1.5
							c-0.1-0.4-0.1-0.7-0.1-1.1C154.4,445.9,161.1,446.4,165.5,446.8z"/>
					</g>
				</g>
				<g>
					<g>
						<g>
							<path class="st7" d="M174.7,437c0.5,1.5,0.2,3.3,0.2,4.9c0,1,1.5,1,1.5,0c0-1.7,0.2-3.6-0.3-5.3
								C175.9,435.7,174.5,436.1,174.7,437L174.7,437z"/>
						</g>
					</g>
					<g>
						<g>
							<path class="st7" d="M171.1,436.1c-0.3,0.9-0.6,1.9-0.6,2.8c0,0.6,0,1.3,0,1.9c0,1,1.5,1,1.5,0c0-0.6,0-1.2,0-1.7
								c0-0.9,0.3-1.8,0.6-2.6C172.9,435.6,171.4,435.2,171.1,436.1L171.1,436.1z"/>
						</g>
					</g>
					<g>
						<g>
							<path class="st7" d="M167.7,434.2c-1.2,1.7-1.1,4-2,5.9c-0.4,0.9,0.9,1.6,1.3,0.8c0.9-1.8,0.8-4.2,2-5.9
								C169.5,434.1,168.2,433.4,167.7,434.2L167.7,434.2z"/>
						</g>
					</g>
				</g>
			</g>
			<g>
				<g>
					<g>
						<path class="st10" d="M226.1,451.8c0.2-0.4,0.5-0.9,0.8-1.3c1-1.6,2.2-3.1,3.7-4.3c0.5-0.4,0.9-0.6,1.3-0.8
							c0.2,0.1,0.4,0.1,0.6,0.2c1.4,0.3,2.9,0.3,4.3,0.7c1.2,0.3,3,0.7,3.9,1.6c0.5,0.5,0.6,1.5,0.6,2.5
							C237.7,451.7,231.7,452,226.1,451.8z"/>
					</g>
					<g>
						<path class="st11" d="M226.9,450.5c-0.3,0.5-0.5,0.9-0.8,1.3c-6-0.2-11.5-0.8-13-1c-4.6-0.6-11.5-1.5-17.1-2.3
							c-0.1-1.4,0.1-2.8,0.4-4.1c0.4-1.6,0.3-1.6,0.4-3.2c0.7,0.3,4.1,0.3,5.6,0.2c1-0.1,2.2-4.4,2.5-5.7c0.4-2.3,3.6-2.1,5.3-2.3
							c0.6,0,1.5-0.2,2,0.4c0.7,0.8,0.2,1.6,0.8,2.6c0.8,1.5,2.6,2.4,4,2.9c3.7,1.4,13.4,5.7,14.8,6.2c-0.4,0.2-0.8,0.5-1.3,0.8
							C229,447.4,227.9,448.8,226.9,450.5z"/>
					</g>
					<g>
						<path class="st12" d="M213.1,450.8c1.5,0.2,7,0.8,13,1c5.6,0.1,11.6-0.1,15.1-1.5c0,0.8-0.1,1.6-0.1,2.1
							c-3.1,1.6-6.1,1.4-8.4,1.4c-2,0-4,0.1-6-0.1c-0.4,0-0.9-0.1-1.4-0.1c-8.2-0.6-26.7-2.2-27.6-2.4c-1.5-0.2-1.4-0.3-1.6-1.6
							c-0.1-0.4-0.1-0.7-0.1-1.1C201.5,449.3,208.5,450.2,213.1,450.8z"/>
					</g>
				</g>
				<g>
					<g>
						<g>
							<path class="st10" d="M224.7,441.7c-2.4,1.1-4.1,2.9-5.6,5c-0.6,0.8,0.7,1.5,1.3,0.8c1.3-1.9,2.9-3.5,5.1-4.5
								C226.3,442.6,225.5,441.3,224.7,441.7L224.7,441.7z"/>
						</g>
					</g>
					<g>
						<g>
							<path class="st10" d="M220.9,440c-2.7,0.5-4.9,2.6-6.5,4.7c-0.6,0.8,0.7,1.5,1.3,0.8c1.4-1.8,3.3-3.6,5.6-4
								C222.2,441.3,221.8,439.8,220.9,440L220.9,440z"/>
						</g>
					</g>
					<g>
						<g>
							<path class="st10" d="M216.8,438.2c-2.2,1-4.1,2.5-5.5,4.4c-0.6,0.8,0.7,1.5,1.3,0.8c1.3-1.7,3-3,5-3.9
								C218.4,439.1,217.7,437.9,216.8,438.2L216.8,438.2z"/>
						</g>
					</g>
				</g>
			</g>
		</g>
		<g>
			<g>
				<path class="st0" d="M143.6,221.4c0,6.5-0.8,12.8-1.4,19.2c-0.4,3.9-0.8,7.6-1.4,11.5c-0.5,2.8-1.9,6.4,0.6,7.9
					c3.9,2.5,11.2,2.8,15.8,2.2L143.6,221.4z"/>
			</g>
			<g>
				<g>
					<path class="st2" d="M172.3,202.5c0-3.8-0.7-7.8-0.5-11.6c0-0.1,0-0.2,0.1-0.3c0.1-0.1,0.2-0.1,0.3-0.1c1-0.1,1.6,0.5,2.5,0.8
						c1.5,0.5,3.6,0.9,5.2,0.4c1.5-0.4,1.7-5.7,1.6-5.7c0.2,0,3,0.2,3,0.1c0,0-0.5-5.2-0.5-5.2c0.5-1.3,3.8-2.7,3-4.3
						c-0.8-1.9-4.1-0.3-4.7-3.1c-0.2-0.9-0.1-1.8,0.1-2.8c0.4-3.5,0.6-7,0.5-10.6c-0.1-1.6-0.1-3.5-1.2-4.6
						c-1.4-1.4-3.6-2.1-5.5-2.4c-4.2-0.8-9-0.8-13,0.2c-5.3,1.3-6.3,3.5-6.8,8.8c-0.3,4.5-0.7,10,1,14.3c1,2.2,2.8,3.3,4,5.2
						c1.5,2.3,0.7,3.7,0,6.3c-1,5-2,10.3-2.8,15.3c0.2-0.3,0.5-0.3,0.8-0.7L172.3,202.5z"/>
				</g>
				<g>
					<g>
						<path class="st13" d="M140.5,284.2c6.3,4,15.5,3.8,22.7,3.7c9.3-0.5,18.3,0,27.5-1.2c1.3-0.3,2.7-0.3,4-0.7
							c-1.5-8-3.3-16-5.8-23.7c-1.2-3.5-2.7-7.5-2.3-11.2c0.3-4.3,4.5-6.3,6-10.5c1.5-4-1.3-7.5-3.3-10.8c-2-3.5-3.5-7.2-4.8-10.8
							c-1.2-3.3-2.3-7.7-4.3-10.7c-1.8-3-6-5.8-8.8-8c-6-4.5-16-2.3-21.3,2.5c-5.3,5-7.7,14.3-6.3,21.3c1.8,9.7,3.5,19.3,5.5,29
							c0.8,3.8,2,7.8,2.7,11.7c0.5,3-0.3,2.5-2.5,4c-2.5,1.8-1.5,2.2-1.8,5c-0.2,1.3-0.7,3.7-1.5,3.8L140.5,284.2z"/>
					</g>
					<g>
						<g>
							<path class="st14" d="M154.5,211.9c-0.1,0.3-0.1,0.6-0.1,0.9c0,0.3,0,0.6,0,0.9c0,0.6,0.1,1.2,0.2,1.7l0,0
								c0.4,1.5,1,3,1.9,4.2c0.9,1.2,2.3,2,3.8,2.6c-0.8,0-1.7-0.2-2.4-0.5c-0.8-0.3-1.5-0.9-2.1-1.5c-1.2-1.3-1.8-3-2-4.6l0,0l0,0
								c0-0.6,0-1.2,0.1-1.8c0-0.3,0.1-0.6,0.2-0.9C154.2,212.5,154.3,212.1,154.5,211.9z"/>
						</g>
						<g>
							<path class="st14" d="M150.5,275.2c2.1,0.5,4.1,0.9,6.2,1.3c2.1,0.3,4.2,0.5,6.3,0.6c2.1,0.1,4.2,0.1,6.3-0.1
								c1.1-0.1,2.1-0.2,3.2-0.3l1.6-0.2c0.5-0.1,1.1-0.1,1.6-0.2c-1,0.3-2.1,0.6-3.1,0.9c-1,0.2-2.1,0.4-3.2,0.5
								c-2.1,0.3-4.3,0.4-6.4,0.3c-2.1-0.1-4.3-0.4-6.4-0.8C154.5,276.7,152.4,276.1,150.5,275.2z"/>
						</g>
					</g>
				</g>
				<g>
					<g>
						<path class="st15" d="M177.4,151.1c-0.9-0.8-3.1-1.7-0.7-3.2c0.5-0.3,1.2-0.5,1.4-1c0.2-0.5-0.2-1.1-0.8-1.3
							c-0.5-0.2-1.1-0.1-1.7,0c0.4-1-0.4-2.2-1.5-2.2c0.4-0.9-0.1-2.2-1.1-2.4s-2.1,0.6-2.1,1.6c-0.2,0-0.5,0-0.7,0
							c-0.1-1-0.1-2.1-0.7-2.9c-0.5-0.7-1.2-1.1-1.8-1.5c-0.5-0.3-1.1-0.6-1.6-1c0.1,1.1,0.2,2.2,0.3,3.3c-0.3,0.1-0.6,0.1-0.9,0.2
							c-0.3-0.9-0.7-1.8-1-2.7c-0.4-0.4-0.9-1.3-1.5-1.3c-0.4,0-0.8,0-1.2,0c-0.5,1.2,0.5,2.8-0.4,3.7c-0.3-1-0.6-1.9-1-2.9
							c-0.2-0.5-0.4-1-0.8-1.2c-0.4-0.3-1.1-0.1-1.2,0.4c-0.4,0-0.7-0.3-1-0.6c-0.4-0.5-0.7-1.1-1.2-1.6c-0.5-0.5-1.2-0.8-1.8-0.6
							c-1.6,0.7-0.5,2.5-0.1,3.4c-0.7,0.2-1.3-0.2-2.1-0.1c0,0,0,0-0.1-0.1c-0.4-0.6-0.6-1.3-1.3-1.5c-0.6-0.2-1.3,0.4-1.2,1
							c-0.6-0.4-5.3-1-5.3,0.6c0-0.6-0.6-1.1-1.2-1.1s-1.2,0.1-1.8,0.3c-0.9,0.3-2,0.5-2.8,0c-0.6-0.4-1.1-1.2-1.9-1.1
							c-0.6,0.1-0.9,0.8-0.9,1.4c0.1,0.6,0.4,1.1,0.6,1.7c0.2,0.6,0.4,1.2,0,1.8c-0.9,0.4-1.8-0.8-2.8-1c-0.6-0.1-1.3,0.2-1.6,0.7
							c-0.6,1.1,0.4,1.5-0.5,2.3c-0.6,0.6-1.8,0.4-2.4,1c-0.8,0.7-0.6,2.3,0.3,2.8c-0.9-0.1-1.8,0.7-2.1,1.6s-0.2,1.9,0,2.8
							c-1,0.2-2,0.6-2.9,1.1c0.3,0.8,0.9,1.4,1.7,1.7c-1.5,0.4-2.9,1-4.2,1.7c-0.4,0.2-0.9,0.5-1.1,1c-0.5,1.3,1.3,3.1,0.2,3.9
							c0.3,0.3,0.7,0.6,1,0.9c-1.4,0.8-2.7,1.6-4.1,2.4c-0.4,0.2-0.8,0.5-1,0.9c-0.2,0.6,0.3,1.3,0.9,1.5c0.4,0.1,0.8,0.2,1.2,0.2
							c-0.9,0.2-1.7,1-2.1,2c-0.4,1.2-0.3,2.4-0.2,3.7c1.4,0.1,2.7-0.3,3.9-1c-0.4,1,0.3,2.3,1.4,2.6c-2.4,0.8-3.9,4-2.5,6.1
							c1.5-0.3,3-0.6,4.6-0.9c0.6,0.3,0.5,1.2,0,1.6s-1.2,0.5-1.8,0.8c-0.6,0.3-1.2,0.8-1,1.5c0.1,0.5,0.8,0.8,1.3,0.9
							c-0.3,1.5,1.4,2.9,2.8,2.3c-0.1,1.5,0.4,3,1.2,4.2c-0.2,0.3-0.4,0.5-0.7,0.8c0.8,1.3,3.1,1.2,3.7-0.2c0.7,0.5,1.6,0.8,2.5,0.7
							c-1.6,1.1-2.7,2.8-3.2,4.6c1,0.4,2.1,0.5,3.2,0.4c-0.3,0.5,0,1.3,0.6,1.4c0.6,0.2,1.2-0.3,1.3-0.9c0.8,0.4,1.8,0.4,2.7,0
							c-0.1,1.1,0,2.3,0.8,3s2.3,0.7,2.7-0.4c0.7,0.6,1.9,0.6,2.6-0.1c-0.2,2.3,2.4,4.4,4.7,3.7c0.1-0.5,0.2-0.9,0.3-1.4
							c1.2,0.1,2.5,0,3.7-0.4c-0.1,1.4,1.3,2.6,2.7,2.4c0.3-0.6,0.5-1.3,0.5-2c1.2-0.2,2.2-1.2,2.5-2.3c1.1-0.3,1.6,1.5,2.7,1.7
							c1.2,0.3,1.9-1.3,1.9-2.6c0-1.2-0.1-2.8,1-3.4c0.8,0.3,1,1.4,1.3,2.3c0.3,0.9,1.1,1.8,1.9,1.4c1.1-0.5,0.2-2.4,0.9-3.4
							c0.7,0.7,1.6,1.4,2.5,1.9c-0.4-1.5,1.6-2.5,2-4c0.3-1.2-0.5-2.4-0.6-3.7c-0.1-1.6,1.1-3.1,2.7-3.3c0.1-1.5-1.5-2.6-2.9-3.2
							c-2.4-1-4.7-2.4-3.5-5c1.4-2.8,2.5-5.7,3.8-8.6c1.1-2.5,2.4-6.4,4.7-8.1c0.6-0.4,0.7-3.8,0.9-4.6
							C177,154.6,178.9,152.6,177.4,151.1z"/>
					</g>
					<g>
						<g>
							<path d="M138.1,150.5c-0.3,0.4-0.4,0.9-0.4,1.4c0,0.5,0.2,0.9,0.5,1.3c0.6,0.7,1.4,1.2,2.3,1.2c0.9,0.1,1.6-0.5,2.5-1
								c0.2-0.1,0.5-0.3,0.8-0.3c0.4-0.1,0.8,0.1,1.1,0.3c0.5,0.4,0.8,0.9,1,1.3l-0.6-0.2c0.5-0.1,0.7-0.5,1-1.1
								c0.1-0.3,0.2-0.6,0.4-0.9c0.2-0.3,0.4-0.6,0.7-0.9c0.3-0.2,0.5-0.6,1.1-0.6c0.3,0,0.6,0.1,0.7,0.2c0.2,0.1,0.3,0.2,0.4,0.2
								c0.2,0.1,0.4,0.1,0.7,0.1c0.2,0,0.4-0.1,0.6-0.3c0.2-0.2,0.4-0.4,0.6-0.7c0.2-0.3,0.5-0.6,1-0.7c0.4-0.1,0.8,0,1.1,0.1
								c0.3,0.1,0.7,0.3,0.9,0.6c1,1,1.1,2.4,2,3.3c-1.1-0.8-1.5-2.2-2.4-2.9c-0.4-0.4-1.1-0.6-1.5-0.4c-0.4,0.1-0.6,0.7-1.1,1.3
								c-0.3,0.3-0.7,0.5-1.1,0.6c-0.4,0.1-0.8,0-1.2-0.1c-0.4-0.2-0.6-0.3-0.7-0.3c-0.1,0-0.3,0.2-0.5,0.4
								c-0.4,0.4-0.6,0.9-0.8,1.5c-0.1,0.3-0.3,0.6-0.6,1c-0.3,0.3-0.6,0.5-1,0.6l0,0c-0.2,0.1-0.5,0-0.6-0.2
								c-0.2-0.4-0.5-0.8-0.8-1c-0.1-0.1-0.2-0.1-0.3-0.1c-0.1,0-0.3,0.1-0.5,0.2c-0.4,0.2-0.9,0.5-1.4,0.7
								c-0.5,0.2-1.1,0.3-1.6,0.2c-1.1-0.1-2.1-0.8-2.6-1.7c-0.3-0.5-0.4-1-0.3-1.5C137.5,151.3,137.7,150.8,138.1,150.5z"/>
						</g>
						<g>
							<path d="M159,144.9c0.5,0,1,0.1,1.5,0.3c0.5,0.2,0.9,0.5,1.3,0.9c0.3,0.4,0.5,1,0.6,1.5c0.1,0.5,0.1,1,0.2,1.5l-0.5-0.5
								c0.6-0.1,1.3,0.1,1.7,0.5c0.5,0.4,0.7,0.9,0.9,1.4c0.4,1,0.5,1.9,1,2.8c-0.8-0.7-1.2-1.7-1.7-2.5c-0.2-0.4-0.5-0.8-0.8-1
								c-0.3-0.2-0.7-0.3-1.1-0.3h0c-0.3,0-0.5-0.2-0.5-0.5v0c-0.1-0.9-0.1-1.9-0.5-2.6C160.8,145.8,159.9,145.3,159,144.9z"/>
						</g>
						<g>
							<path d="M144.2,166.7c1,0.1,1.9,0.3,2.9,0.3c0.5,0,1,0,1.3-0.2c0.3-0.2,0.5-0.6,0.6-1c0.1-0.4,0.2-0.9,0.4-1.5
								c0.1-0.3,0.3-0.5,0.6-0.7c0.2-0.2,0.5-0.3,0.8-0.4c0.3-0.1,0.7,0,1,0c0.3,0.1,0.5,0.2,0.7,0.2c0.3,0.1,1,0.1,1.3,0.1
								c0.2,0,0.6-0.3,1-0.6c0.4-0.3,0.8-0.6,1.4-0.8c0.3-0.1,0.6-0.2,1-0.1c0.4,0.1,0.6,0.4,0.8,0.6c0.3,0.4,0.5,0.8,0.9,1.1
								c0.6,0.5,1.6,1.1,2,0.3c0.4-0.8,0.4-1.8,0.5-2.8c0.1,1,0.3,1.9,0,3c-0.1,0.3-0.3,0.5-0.6,0.7c-0.3,0.2-0.6,0.2-0.9,0.1
								c-0.6-0.1-1-0.4-1.5-0.7c-0.4-0.3-0.8-0.8-1-1.1c-0.3-0.3-0.3-0.3-0.8-0.2c-0.4,0.2-0.8,0.4-1.1,0.7l-0.6,0.4
								c-0.2,0.2-0.6,0.3-0.9,0.4c-0.3,0-0.6,0-0.8,0c-0.2,0-0.5,0-0.8-0.1c-0.6-0.2-1-0.4-1.2-0.3c-0.1,0-0.3,0.1-0.5,0.2
								c-0.1,0.1-0.2,0.2-0.3,0.4c-0.2,0.4-0.3,0.8-0.5,1.3c-0.2,0.5-0.4,1.1-1,1.4c-0.6,0.3-1.1,0.2-1.6,0.1
								C146.1,167.3,145.1,167,144.2,166.7z"/>
						</g>
						<g>
							<path d="M162,171.1c0.2,0.4,0.3,0.8,0.3,1.2c0,0.4-0.1,0.9-0.4,1.3c-0.7,0.7-1.6,0.9-2.3,1.2c-0.4,0.1-0.8,0.3-1,0.5
								c-0.3,0.2-0.3,0.3-0.2,0.6c0.1,0.3,0.3,0.8,0.3,1.3c0,0.3-0.1,0.6-0.1,0.8c-0.1,0.2-0.3,0.5-0.5,0.7c-0.5,0.4-1,0.4-1.4,0.5
								c-0.4,0.1-0.8,0.1-1.2,0.2c-0.3,0.1-0.7,0.2-0.8,0.4c-0.2,0.2-0.4,0.7-0.6,1c-0.4,0.7-0.8,1.5-1.4,2.1
								c-0.2,0.2-0.3,0.3-0.5,0.4c-0.2,0.1-0.5,0.2-0.7,0.1c-0.4-0.3-0.5-0.8-0.5-1.2c0.2,0.4,0.4,0.8,0.7,0.9
								c0.3,0.1,0.6-0.2,0.8-0.6c0.4-0.7,0.8-1.4,1.1-2.2c0.2-0.4,0.3-0.7,0.6-1.2c0.4-0.5,0.8-0.7,1.3-0.8c0.5-0.1,0.9-0.2,1.3-0.2
								c0.4-0.1,0.8-0.2,0.9-0.3c0.1-0.1,0.1-0.2,0.2-0.3c0-0.1,0.1-0.3,0.1-0.4c0-0.3-0.1-0.6-0.2-1.1c0-0.2-0.1-0.6,0.1-0.9
								c0.1-0.3,0.4-0.5,0.6-0.7c0.4-0.3,0.8-0.4,1.3-0.5c0.8-0.2,1.7-0.3,2.2-0.8C162.2,172.8,162.1,171.9,162,171.1z"/>
						</g>
						<g>
							<path d="M162.5,182.1c0.7,0.8,1.5,1.6,2.1,2.6c0.1,0.3,0.3,0.6,0.3,1c0,0.4-0.2,0.7-0.4,1c-0.4,0.5-0.9,0.8-1.3,1.1
								c-0.4,0.3-0.7,0.6-0.8,0.9c-0.1,0.4,0.1,0.9,0.2,1.4c0.1,0.5,0.3,1.1,0.2,1.7c-0.1,0.7-0.7,1.1-1.2,1.2
								c0.5-0.3,0.8-0.8,0.7-1.2c0-0.5-0.2-0.9-0.4-1.4c-0.2-0.5-0.4-1.1-0.4-1.8c0-0.3,0.2-0.7,0.4-1c0.2-0.3,0.5-0.5,0.7-0.6
								c0.5-0.3,0.9-0.6,1.2-0.9c0.3-0.3,0.3-0.6,0.1-1.1C163.6,184.1,162.9,183.1,162.5,182.1z"/>
						</g>
						<g>
							<path d="M146.5,194.9c0.5-0.7,1-1.1,1.5-1.6c0.5-0.5,1-1,1.7-1.4c-0.1,0.8-0.4,1.5-1,2.1
								C148.1,194.5,147.3,194.9,146.5,194.9z"/>
						</g>
						<g>
							<path d="M131.4,175.8c0.4-0.4,0.7-0.7,1.1-1.1c0.2-0.2,0.5-0.3,0.9-0.2c0.3,0,0.6,0.2,0.8,0.3c0.9,0.5,1.8,1.1,2.5,1.9
								c0.4,0.4,0.7,0.8,1,1.2c0.3,0.4,0.7,0.7,1,0.9c0.2,0.1,0.3,0.1,0.3,0.1c0,0,0.2-0.1,0.3-0.3c0.2-0.4,0.3-0.8,0.4-1.3l0,0
								c0.1-0.3,0.3-0.4,0.6-0.4c0.2,0,0.3,0.2,0.4,0.4c0.1,0.5,0.2,0.7,0.6,0.7c0.5,0,1-0.2,1.5-0.4c0.5-0.2,1-0.5,1.6-0.8
								c0.5-0.3,1-0.6,1.6-0.7c-1,0.6-1.8,1.4-2.9,2.1c-0.5,0.3-1.1,0.6-1.8,0.7c-0.3,0.1-0.8,0-1.1-0.4c-0.1-0.2-0.3-0.3-0.3-0.5
								l-0.1-0.5l0.9,0c-0.1,0.5-0.2,1.1-0.4,1.6c-0.1,0.3-0.3,0.6-0.8,0.8c-0.4,0.2-0.9,0-1.2-0.1c-1.1-0.7-1.5-1.6-2.2-2.3
								c-0.6-0.7-1.4-1.4-2.2-2c-0.4-0.3-0.8-0.5-1.2-0.3C132.3,175.2,131.9,175.6,131.4,175.8z"/>
						</g>
						<g>
							<path d="M166.9,144c1,0.2,1.8,0.6,2.6,1.3c0.3,0.4,0.7,0.8,0.7,1.4c0.1,0.5,0,1.1-0.3,1.5c-0.2-1-0.5-1.6-1.1-2.2
								C168.2,145.4,167.4,144.9,166.9,144z"/>
						</g>
						<g>
							<path d="M165.7,182.6c0.6,0.9,1.5,1.5,2.2,2.4c0.3,0.5,0.7,0.9,0.8,1.6c0.1,0.8-0.3,1.3-0.4,1.8c-0.1,0.2-0.1,0.4-0.1,0.5
								c0,0.2,0.1,0.3,0.2,0.4c0.2,0.2,0.9,0.2,1.4,0.8c0.3,0.3,0.4,0.6,0.4,1c0,0.3-0.1,0.6-0.2,0.9c-0.2,0.5-0.5,1-0.4,1.5
								c-0.3-0.5-0.1-1.1-0.1-1.6c0-0.3,0.1-0.5,0-0.7c0-0.2-0.1-0.3-0.3-0.4c-0.3-0.2-0.8-0.2-1.5-0.6c-0.3-0.2-0.6-0.6-0.6-1
								c-0.1-0.4,0.1-0.8,0.2-1c0.2-0.5,0.4-1,0.4-1.3c0-0.4-0.3-0.9-0.5-1.3C166.7,184.6,166,183.7,165.7,182.6z"/>
						</g>
						<g>
							<path d="M161.5,154.7c-0.6-0.1-1.2,0.2-1.7,0.6c-0.2,0.2-0.5,0.4-0.6,0.6c-0.1,0.2-0.1,0.3,0,0.5c0.3,0.4,0.8,0.8,1.3,1.1
								c0.3,0.2,0.5,0.3,0.8,0.4c0.3,0.1,0.5,0.2,0.6,0.1c0.1,0,0.3-0.2,0.7-0.4c0.2-0.1,0.6-0.1,0.6-0.1l0.5,0c0.2,0,0.3,0,0.5,0
								h0.1c0,0,0.1,0,0.2,0c0.1,0,0.2,0.1,0.3,0.1c0.1,0.1,0.2,0.2,0.3,0.3c0.1,0.1,0.2,0.3,0.2,0.3c0,0,0,0,0.1,0
								c0.3,0,0.6-1,1.5-1.2c0.7-0.1,1.3,0.1,2-0.1c-0.5,0.5-1.3,0.4-1.8,0.6c-0.3,0.1-0.4,0.3-0.5,0.6c-0.2,0.2-0.3,0.6-0.7,0.9
								c-0.1,0.1-0.3,0.1-0.4,0.1c-0.2,0-0.3-0.1-0.4-0.1c-0.2-0.2-0.3-0.3-0.4-0.4c0,0-0.1-0.1-0.1-0.1s0,0,0,0c0,0,0,0,0,0l-0.1,0
								c-0.1,0-0.3,0-0.4,0.1c-0.3,0.1-0.8,0.1-0.8,0.1c-0.1,0.1-0.5,0.4-1,0.5c-0.5,0.1-0.9-0.1-1.2-0.2c-0.3-0.1-0.6-0.3-0.9-0.5
								c-0.6-0.4-1.1-0.8-1.5-1.6c-0.1-0.2-0.1-0.4-0.1-0.7c0-0.3,0.2-0.4,0.3-0.6c0.3-0.3,0.6-0.5,0.9-0.6c0.3-0.1,0.6-0.2,1-0.3
								C160.8,154.5,161.2,154.5,161.5,154.7z"/>
						</g>
						<g>
							<path d="M165.5,148.4c0.5,0,1.1,0.2,1.5,0.6c0.4,0.4,0.7,0.8,1,1.3c0.5,0.9,0.7,1.7,1.2,2.7c-0.5-0.2-0.9-0.5-1.3-0.9
								c-0.3-0.4-0.6-0.9-0.8-1.3C166.6,149.8,166.3,149.1,165.5,148.4z"/>
						</g>
						<g>
							<path d="M171.6,144c0,0.5,0,1.1,0.2,1.2c0.1,0.1,0.4,0.4,0.5,0.6c0.1,0.3,0.2,0.5,0.3,0.8c0.3,1,0.2,2,0.2,3
								c-0.4-0.4-0.6-0.9-0.8-1.3c-0.2-0.5-0.3-0.9-0.4-1.4c-0.1-0.2-0.1-0.5-0.2-0.6c-0.1-0.2-0.2-0.3-0.3-0.6
								c-0.2-0.3-0.1-0.7,0-1C171.3,144.4,171.4,144.2,171.6,144z"/>
						</g>
						<g>
							<path d="M174.8,146.5c0.3,0.5,0.3,1,0.3,1.4c-0.1,0.4-0.3,0.9-0.8,1.2c-0.2-0.5-0.2-1-0.2-1.4
								C174.2,147.3,174.3,146.8,174.8,146.5z"/>
						</g>
						<g>
							<path d="M138.6,138.8c-0.2,0.5-0.3,1-0.1,1.4c0.2,0.4,0.7,0.5,1.1,0.5c0.5,0,1-0.1,1.4-0.2c0.2,0,0.4-0.2,0.9-0.2
								c0.4,0.1,0.6,0.2,0.8,0.4c0.9,0.5,1.7,1.2,2.6,1.6c0.9,0.4,1.8,0.7,2.3,0.2c0.2-0.2,0.5-0.2,0.7,0c0,0,0,0,0,0.1
								c0.4,0.6,0.7,1.2,1.1,1.7c0.4,0.5,0.9,0.9,1.5,1.1c0.6,0.3,1.2,0.2,2,0.2c0.4,0,0.8,0.1,1.1,0.3c0.3,0.2,0.5,0.5,0.6,0.9
								c-0.2-0.3-0.4-0.5-0.7-0.7c-0.3-0.1-0.6-0.1-0.9-0.1c-0.6,0.1-1.4,0.3-2.2,0.1c-0.8-0.2-1.4-0.7-1.9-1.2
								c-0.5-0.6-0.9-1.2-1.3-1.7l0.7,0.1c-0.5,0.5-1.2,0.6-1.8,0.5c-0.6-0.1-1.1-0.3-1.6-0.6c-1-0.5-1.8-1.2-2.6-1.7
								c-0.2-0.1-0.4-0.3-0.5-0.3c0,0-0.3,0-0.6,0.1c-0.5,0.1-1.1,0.1-1.6,0.1c-0.3,0-0.6-0.1-0.8-0.2c-0.3-0.1-0.5-0.4-0.6-0.7
								C138,139.7,138.3,139.2,138.6,138.8z"/>
						</g>
						<g>
							<path d="M144.9,180.7c-1.2,0.9-2.6,1.7-3.6,2.7c-0.5,0.5-0.9,1.1-1,1.8c-0.1,0.7,0,1.5-0.3,2.3l-0.2-0.5
								c0.1,0.1,0.3,0.1,0.4,0.1c0.1,0,0.1,0,0.2-0.1c0.2-0.2,0.5-0.6,1-0.8c0.5-0.2,0.9-0.2,1.3-0.3c0.2,0,0.4,0,0.5-0.1
								c0.1,0,0.1,0,0.1-0.1c0.1,0,0.1-0.1,0.1-0.1c0.2-0.1,0.2-0.4,0.3-0.8c0.1-0.4,0.4-1.1,1-1.2c0.3-0.1,0.5-0.1,0.6-0.1
								c0.1,0,0.1,0,0.2-0.2c0.2-0.2,0.4-0.6,0.7-0.9c0.7-0.7,1.2-1,1.7-1.6c0.2-0.3,0.5-0.6,0.5-0.7c0,0,0,0,0-0.1c0,0,0-0.1,0-0.1
								c0-0.1,0-0.2,0.1-0.3c0,0,0.1-0.1,0.1-0.1c0,0,0,0,0.1,0c0.2-0.1,0.2-0.1,0.3-0.1l0.6-0.1c0.4-0.1,0.9-0.1,1.2,0
								c0.3,0,0.6-0.2,0.8-0.5c0.5-0.5,0.6-1.4,1.1-2c-0.4,0.7-0.3,1.5-0.8,2.2c-0.2,0.3-0.5,0.7-1.1,0.8c-0.5,0-0.8,0-1.1,0.1
								l-0.6,0.2c-0.1,0-0.2,0.1-0.2,0.1c0,0,0,0,0,0c0,0,0,0,0.1-0.1c0,0,0.1-0.1,0.1-0.2c0,0,0,0,0-0.1c0,0,0.1,0.1,0.1,0.2
								c0.1,0.4-0.1,0.6-0.1,0.8c-0.1,0.2-0.2,0.4-0.3,0.5c-0.4,0.7-1.1,1.3-1.6,1.7c-0.2,0.2-0.4,0.6-0.6,1
								c-0.1,0.1-0.1,0.2-0.3,0.3c-0.1,0.1-0.3,0.2-0.4,0.2c-0.3,0.1-0.5,0.1-0.6,0.1c-0.1,0-0.3,0.2-0.3,0.5
								c-0.1,0.3-0.1,0.9-0.5,1.3c-0.1,0.1-0.2,0.2-0.3,0.2c-0.1,0.1-0.3,0.2-0.4,0.2c-0.3,0.1-0.5,0.1-0.7,0.1c-0.4,0-0.8,0-1,0.1
								c-0.2,0.1-0.4,0.3-0.8,0.7c-0.2,0.2-0.5,0.3-0.8,0.3c-0.3,0-0.6-0.1-0.8-0.2c-0.2-0.1-0.3-0.3-0.2-0.5
								c0.2-0.6,0.2-1.4,0.4-2.2c0.2-0.8,0.8-1.5,1.4-2C142.1,181.9,143.5,181.4,144.9,180.7z"/>
						</g>
						<g>
							<path d="M153.8,187c-0.2,0.3-0.3,0.6-0.4,1c-0.1,0.3-0.1,0.7-0.1,1c0,0.7,0.3,1.4,0.8,1.5l-0.4,0.2c0.2-0.6,0.8-1,1.2-1.2
								c0.5-0.2,0.8-0.4,0.9-0.8c0.2-0.3,0.2-0.8,0.2-1.2c0-0.4-0.1-0.9-0.3-1.2c-0.1-0.2-0.1-0.5,0.1-0.6c0.7-0.7,1.4-1.3,1.9-2.1
								c0.5-0.8,0.8-1.6,0.8-2.6l0,0c0-0.2,0.1-0.3,0.3-0.3c0.7-0.1,1.2-0.8,1.7-1.6c0.5-0.7,0.9-1.6,1.7-2.1
								c-0.6,0.7-0.9,1.5-1.3,2.3c-0.2,0.4-0.4,0.8-0.7,1.2c-0.3,0.4-0.7,0.7-1.3,0.9l0.3-0.4c0.1,1.1-0.2,2.2-0.8,3.1
								c-0.6,0.9-1.3,1.7-2.1,2.3l0.1-0.6c0.3,0.6,0.4,1.1,0.5,1.7c0,0.6-0.1,1.1-0.4,1.7c-0.3,0.6-0.9,0.9-1.4,1.1
								c-0.5,0.2-0.8,0.4-1,0.8l0,0c-0.1,0.2-0.3,0.2-0.4,0.1c-0.4-0.2-0.7-0.6-0.8-1c-0.1-0.4-0.1-0.8-0.1-1.2
								C153,188.3,153.3,187.5,153.8,187z"/>
						</g>
						<g>
							<path d="M152.4,168.6c0.6,0,1.1,0.4,1.6,0.6c0.3,0.1,0.4,0.2,0.7,0.1c0.2,0,0.5-0.1,0.8-0.1c0.5-0.2,1.1-0.3,1.6-0.5
								c0.6-0.2,1-0.3,1.3-0.6c0.3-0.3,0.7-1,1.3-1.3c0.3-0.2,0.7-0.3,1-0.3c0.4,0,0.7,0.1,1,0.2c0.6,0.2,1.1,0.6,1.5,0.8
								c0.5,0.3,1,0.4,1.6,0.1c-0.2,0.2-0.5,0.4-0.8,0.4c-0.3,0-0.6,0-0.9-0.1c-0.6-0.2-1.1-0.4-1.6-0.5c-0.5-0.1-0.9-0.1-1.3,0.2
								c-0.4,0.2-0.6,0.7-1.1,1.2c-0.5,0.5-1.3,0.7-1.7,0.8c-0.6,0.1-1.1,0.3-1.7,0.4c-0.3,0-0.6,0.1-0.9,0c-0.3,0-0.7-0.2-0.9-0.4
								C153.3,169.3,153,168.8,152.4,168.6z"/>
						</g>
						<g>
							<path d="M135.3,160.3c-1-0.1-2-0.4-3-0.3c-0.5,0-0.9,0.2-1.1,0.6c-0.1,0.2-0.2,0.4-0.2,0.6c0,0.2,0,0.2,0.1,0.3
								c0.3,0.1,0.9,0.3,1.3,0.4c0.4,0,0.7-0.1,1.3-0.4c0.5-0.2,1.3-0.3,1.9,0c0.6,0.3,1,0.7,1.3,0.9c0.4,0.2,0.8,0.3,1.1,0.2
								c0.3-0.1,0.7-0.4,1.1-0.7c0.2-0.2,0.5-0.3,0.8-0.4c0.3-0.1,0.6-0.1,0.9-0.1c0.7,0.1,1.1,0.3,1.5,0.4c0.8,0.2,1.7-0.5,2.9-0.6
								c1.1,0,2.1,0.4,3.1,0.4c-1,0.1-2.1-0.1-3,0.1c-0.5,0.1-0.9,0.3-1.4,0.5c-0.5,0.2-1.1,0.4-1.6,0.4c-0.6,0-1.1-0.3-1.5-0.3
								c-0.2,0-0.4,0-0.6,0.1c-0.2,0.1-0.3,0.1-0.5,0.3c-0.4,0.3-0.8,0.7-1.4,0.9c-0.7,0.2-1.3,0-1.9-0.3c-0.5-0.3-0.9-0.7-1.2-0.8
								c-0.4-0.2-0.7-0.2-1.1,0c-0.4,0.1-1,0.5-1.7,0.4c-0.3,0-0.6-0.1-0.8-0.2c-0.2-0.1-0.5-0.2-0.8-0.4c-0.1-0.1-0.3-0.3-0.4-0.5
								c-0.1-0.2,0-0.4,0-0.6c0.1-0.3,0.2-0.6,0.4-0.8c0.4-0.5,1.1-0.7,1.6-0.7C133.3,159.6,134.3,159.9,135.3,160.3z"/>
						</g>
						<g>
							<path d="M136.1,143.8c0.5-0.4,1.2-0.7,1.9-0.6c0.8,0.2,1.2,0.8,1.6,1.3c0.4,0.5,0.7,1,1.2,1.3c0.1,0.1,0.3,0.1,0.7,0.1
								c0.3,0,0.7,0,1.2,0.2c0.5,0.2,0.6,0.6,0.8,0.8c0.2,0.2,0.3,0.3,0.5,0.3c0.1,0,0.3-0.1,0.7-0.3c0.1,0,0.2-0.1,0.4-0.1
								c0.1,0,0.2,0,0.2,0c0.1,0,0.1,0,0.2,0c0.2,0.1,0.4,0.1,0.5,0.2c1.1,0.6,2.2,1.3,3.3,2.1c-1.3-0.4-2.4-0.8-3.6-1.3
								c-0.1-0.1-0.2-0.1-0.4-0.1c0,0-0.1,0-0.1,0c0,0,0,0,0,0c0,0,0,0-0.1,0c-0.2,0.1-0.5,0.4-1.1,0.4c-0.5,0-0.9-0.4-1.2-0.6
								c-0.2-0.3-0.4-0.5-0.5-0.5c-0.1-0.1-0.4-0.1-0.7-0.1c-0.3,0-0.8,0-1.2-0.3c-0.6-0.5-1-1.1-1.3-1.6c-0.3-0.5-0.6-1.1-1.1-1.3
								C137.4,143.5,136.8,143.6,136.1,143.8z"/>
						</g>
						<g>
							<path d="M152.1,140c0.1-0.2,0.3-0.5,0.6-0.6c0.1-0.1,0.3-0.1,0.5-0.1c0.2,0,0.4,0.1,0.5,0.2c0.5,0.5,0.7,1,0.8,1.5
								c0.1,0.5,0.2,1,0.3,1.5c0.1,0.5,0.1,1,0.3,1.4c-0.5-0.2-0.8-0.8-1-1.2c-0.2-0.5-0.3-1-0.5-1.4c-0.1-0.5-0.2-0.9-0.4-1.2
								c-0.1-0.2-0.1-0.2-0.3-0.2C152.6,139.8,152.3,139.9,152.1,140z"/>
						</g>
						<g>
							<path d="M158.9,138.4c0.5,0.2,0.6,0.4,0.7,0.7c0.1,0.3,0.1,0.6-0.2,1c-0.5-0.2-0.6-0.4-0.7-0.7
								C158.6,139.1,158.6,138.8,158.9,138.4z"/>
						</g>
						<g>
							<path d="M138.2,192.9c-0.1,0.9,0,1.8,0.4,2.5l-0.3-0.2c0.4-0.2,0.7-0.6,1-1.1c0.3-0.5,0.6-1,1.2-1.5c0.3-0.2,0.5-0.3,0.8-0.4
								l0.4-0.2c0.1-0.1,0.2-0.1,0.2-0.2c0.2-0.1,0.3-0.4,0.6-0.6c0.2-0.1,0.3-0.2,0.5-0.3c0.3-0.1,0.4-0.1,0.6-0.1
								c0.3,0,0.6,0.1,0.8,0.1c0,0,0.1,0,0.1,0c0,0,0,0,0,0c0.1-0.1,0.1-0.1,0.2-0.2c0.1-0.1,0.1-0.4,0.2-0.8
								c0.2-0.4,0.4-0.6,0.6-0.8c0.9-0.9,1.8-1.5,2.7-2.2c-0.6,1-1.5,1.8-2.1,2.7c-0.2,0.2-0.4,0.5-0.4,0.6c-0.1,0.2,0,0.5-0.2,0.9
								c-0.1,0.2-0.2,0.4-0.4,0.5c-0.1,0-0.2,0.1-0.3,0.2c-0.1,0-0.2,0-0.3,0.1c-0.4,0-0.7,0-0.9-0.1c-0.4-0.1-0.5,0.2-1.1,0.7
								c-0.1,0.1-0.3,0.3-0.5,0.3l-0.4,0.2c-0.3,0.1-0.5,0.3-0.7,0.4c-0.3,0.2-0.7,0.7-1,1.2c-0.4,0.4-0.7,1-1.5,1.2l0,0
								c-0.1,0-0.3,0-0.3-0.2c-0.2-0.5-0.2-0.9-0.2-1.4C137.9,193.8,138,193.3,138.2,192.9z"/>
						</g>
						<g>
							<path d="M151.7,199.2c0.3-0.2,0.7-0.4,0.7-0.6c0-0.2-0.1-0.5-0.3-0.8c-0.4-0.6-0.9-1.1-1.3-2c0-0.1-0.1-0.3-0.1-0.4
								c0-0.1,0-0.2,0-0.4c0-0.3,0.2-0.6,0.4-0.7c0.4-0.3,0.4-0.3,0.6-0.7c0.1-0.3,0.2-0.7,0.2-1c0-0.4,0-0.7-0.1-1.1
								c0.2,0.3,0.4,0.7,0.5,1.1c0.1,0.4,0.1,0.9,0.1,1.3c0,0.2-0.1,0.5-0.2,0.7c-0.1,0.2-0.3,0.4-0.4,0.5c-0.1,0.1-0.1,0.2-0.1,0.3
								c0,0.1,0,0.1,0,0.2c0,0.1,0,0.1,0,0.1c0.2,0.5,0.7,1.2,1.1,1.9c0.1,0.4,0.3,0.9,0.1,1.4C152.6,199.2,152.1,199.2,151.7,199.2
								z"/>
						</g>
						<g>
							<path d="M157.1,196.8c-0.3-0.5-0.5-1-0.5-1.6c-0.1-0.6,0-1.2,0.2-1.7c0.2-0.5,0.5-1,0.8-1.4c0.3-0.4,0.7-0.8,1.1-1.2
								c-0.1,1.1-0.6,2.1-0.9,3c-0.2,0.4-0.3,0.9-0.4,1.4C157.3,195.7,157.2,196.2,157.1,196.8z"/>
						</g>
						<g>
							<path d="M130,180.5c-0.6-0.1-1.2,0-1.5,0.4c-0.3,0.4-0.2,0.9-0.1,1.4c0.2,0.5,0.5,0.9,0.8,1l0.3,0.1c0.1,0,0.2,0,0.3,0
								l0.3-0.1c0,0,0.1-0.1,0.1-0.1c0.1-0.1,0.2-0.4,0.3-0.7c0.2-0.3,0.5-0.7,0.9-0.8c0.4-0.1,0.8,0,1.1,0c0.3,0.1,0.6,0.1,0.8,0.2
								c0.2,0,0.5,0,0.8-0.1c0.3-0.1,0.6-0.1,0.8-0.2c0.6-0.1,1.1-0.3,1.7-0.4c-0.5,0.3-1,0.6-1.5,0.9c-0.6,0.2-1,0.5-1.8,0.6
								c-0.4,0-0.7,0-0.9-0.1c-0.3,0-0.5-0.1-0.6,0c-0.1,0.1-0.2,0.1-0.3,0.3c-0.1,0.2-0.2,0.5-0.4,0.8c-0.1,0.2-0.3,0.4-0.5,0.5
								c-0.2,0.1-0.4,0.1-0.5,0.2c-0.2,0-0.4,0-0.6,0c-0.2,0-0.4-0.1-0.6-0.2c-0.7-0.4-1.1-1-1.2-1.7c-0.1-0.6-0.1-1.4,0.5-1.9
								C128.8,180.1,129.5,180.3,130,180.5z"/>
						</g>
						<g>
							<path d="M123.4,167.1c0.1,0.4,0.3,0.8,0.5,1.2c0.2,0.3,0.6,0.6,0.9,0.5c0.2,0,0.4,0,0.5-0.1c0.2-0.1,0.4-0.2,0.5-0.3
								c0.2-0.2,0.4-0.6,0.7-1c0.1-0.2,0.3-0.4,0.6-0.6c0.2-0.1,0.4-0.1,0.6-0.1c0.2,0,0.3,0.1,0.4,0.2c0.4,0.3,0.8,0.6,1.1,0.7
								c0.1,0.1,0.3,0,0.5-0.3c0.2-0.3,0.4-0.8,0.9-1.1c0.5-0.4,1.1-0.5,1.6-0.5c0.5,0,0.9,0.1,1.3,0.1c0.1,0,0.3,0,0.4,0
								c0.2,0,0.3,0.1,0.4,0.1c0.2,0.1,0.3,0.1,0.4,0.1c0.1,0,0.4-0.4,0.9-0.7c0.1-0.1,0.3-0.2,0.4-0.2c0.1,0,0.3,0,0.4,0
								c0.3,0,0.5,0.1,0.8,0.2c0.5,0.2,0.8,0.5,1.2,0.7c0.4,0.3,0.7,0.5,1.1,0.6c0.4,0.1,0.8,0.1,1.3,0c-0.4,0.2-0.8,0.4-1.3,0.3
								c-0.5-0.1-0.9-0.3-1.3-0.5c-0.4-0.2-0.8-0.4-1.1-0.5c-0.2,0-0.4-0.1-0.5-0.1l-0.2,0c0,0-0.1,0-0.2,0.1
								c-0.1,0.1-0.2,0.3-0.4,0.4c-0.2,0.2-0.4,0.4-0.8,0.5c-0.3,0.1-0.7,0-0.9-0.1c-0.1,0-0.2-0.1-0.2-0.1c-0.1,0-0.1,0-0.2,0
								c-1,0-1.8-0.2-2.2,0.2c-0.2,0.2-0.4,0.5-0.7,0.9c-0.1,0.2-0.3,0.4-0.6,0.6c-0.2,0.1-0.3,0.1-0.5,0.2c-0.2,0-0.4-0.1-0.5-0.1
								c-0.5-0.3-0.8-0.6-1.1-0.8c-0.1,0-0.1-0.1-0.2-0.1c0,0,0,0-0.1,0c-0.1,0-0.2,0.1-0.3,0.3c-0.2,0.3-0.4,0.7-0.9,1.1
								c-0.2,0.2-0.5,0.2-0.7,0.3c-0.2,0.1-0.5,0.1-0.8,0c-0.5-0.1-0.9-0.5-1.1-0.9C123.5,168,123.4,167.5,123.4,167.1z"/>
						</g>
						<g>
							<path d="M129,170.4c-1.1,0.3-2.2,0.5-3.2,1c-0.5,0.2-0.9,0.5-1.1,0.9c-0.2,0.4,0,0.8,0.3,1.2c0.5,0.5,2,0.6,2.5,0.2
								c0.1-0.1,0.2-0.2,0.3-0.5c0.1-0.2,0.2-0.7,0.7-0.9c0.5-0.2,0.9-0.1,1.1-0.1c0.3,0.1,0.5,0.1,0.7,0.1c0.4,0,0.8-0.2,1.3-0.5
								c0.4-0.3,1-0.7,1.6-0.8c0.7-0.2,1.2-0.1,1.8,0c0.6,0.1,1.1,0.1,1.7,0.3c0.6,0.2,1.1,0.5,1.6,0.7c0.5,0.2,1,0.3,1.4,0.2
								c0.9-0.3,1.8-1.4,2.9-1.4c-0.6,0.1-1,0.5-1.4,0.8c-0.4,0.4-0.8,0.8-1.4,1.1c-0.6,0.3-1.3,0.1-1.8-0.1
								c-0.6-0.2-1.1-0.4-1.5-0.5c-1-0.1-2.2-0.3-3.1-0.1c-0.4,0.1-0.8,0.4-1.3,0.7c-0.5,0.3-1.1,0.6-1.8,0.7
								c-0.4,0-0.7-0.1-0.9-0.2c-0.2-0.1-0.4-0.1-0.5,0c-0.1,0-0.1,0.1-0.2,0.4c-0.1,0.3-0.3,0.6-0.6,0.9c-0.7,0.4-1.3,0.4-1.9,0.3
								c-0.6-0.1-1.3-0.2-1.8-0.8c-0.2-0.3-0.3-0.5-0.4-0.9c-0.1-0.3,0-0.7,0.1-1c0.4-0.6,1-0.9,1.5-1.1
								C126.8,170.6,127.9,170.4,129,170.4z"/>
						</g>
						<g>
							<path d="M148.7,172.7c0.6-0.7,1.4-1.1,2.4-1.1c0.5,0,1,0.2,1.4,0.5c0.4,0.3,0.7,0.7,0.7,1.2c-0.8-0.4-1.4-0.7-2.1-0.7
								C150.4,172.5,149.7,172.7,148.7,172.7z"/>
						</g>
						<g>
							<path d="M128.3,153.3c0.2-0.4,0.4-0.8,0.7-1.1c0.3-0.3,0.7-0.7,1.2-0.8c0.6-0.1,1.1,0.2,1.5,0.5c0.4,0.3,0.6,0.7,0.8,1.1
								c0.4,0.7,0.8,1.5,1.3,1.6c0.6,0.2,1.5,0,2.4,0.1c-0.4,0.2-0.8,0.3-1.2,0.5c-0.4,0.1-0.8,0.3-1.3,0.2c-0.6,0-1-0.5-1.3-0.8
								c-0.3-0.3-0.5-0.7-0.7-1.1c-0.4-0.7-0.9-1.3-1.4-1.3C129.6,152.2,128.9,152.8,128.3,153.3z"/>
						</g>
						<g>
							<path d="M125.1,157.8c0.6-0.2,1-0.2,1.5-0.1c0.5,0.1,0.9,0.3,1.3,0.8c-0.6,0.3-1,0.3-1.5,0.2
								C126,158.5,125.5,158.3,125.1,157.8z"/>
						</g>
						<g>
							<path d="M140.5,159.2c1.1-0.7,2.5-0.7,3.8-0.7c0.6,0,1.2,0,1.8-0.2c0.6-0.1,1.2-0.3,1.9-0.4c0.4,0,0.7-0.1,1.1,0
								c0.5,0.1,0.8,0.3,1,0.4c0.1,0,0.2,0.1,0.2,0.1c0,0,0.1,0,0.1,0c0,0,0,0,0,0c0.1-0.1,0.2-0.5,0.5-0.8c0.3-0.3,0.8-0.5,1.2-0.3
								c0.4,0.1,0.6,0.3,0.9,0.5c0.5,0.4,1,0.8,1.5,1.2c-0.6-0.1-1.2-0.5-1.7-0.8c-0.3-0.1-0.6-0.3-0.8-0.3c-0.2,0-0.4,0-0.5,0.2
								c-0.1,0.2-0.2,0.4-0.4,0.8c-0.1,0.1-0.2,0.2-0.4,0.3c-0.1,0-0.2,0.1-0.3,0.1c-0.2,0-0.5,0-0.7-0.1c-0.4-0.2-0.6-0.3-0.8-0.3
								c-0.2,0-0.5,0-0.8,0c-0.6,0.1-1.2,0.2-1.8,0.3c-0.7,0.1-1.3,0.1-2,0C143,159.2,141.8,158.9,140.5,159.2z"/>
						</g>
						<g>
							<path d="M134.4,145.9c0.6-0.3,1.1-0.2,1.5,0c0.5,0.2,0.9,0.5,1.1,1.1c-0.6,0.1-1,0-1.5-0.1
								C135.1,146.6,134.8,146.4,134.4,145.9z"/>
						</g>
						<g>
							<path d="M132.5,190.1c-0.1-0.2-0.1-0.5-0.1-0.8c0.1-0.3,0.3-0.5,0.5-0.7c0.2-0.2,0.5-0.3,0.7-0.4c0.2-0.1,0.4-0.2,0.7-0.3
								c0.3-0.1,0.6-0.2,0.8-0.2c0.1,0,0.2-0.1,0.1,0c-0.1,0.1,0,0,0-0.1c0-0.2,0.1-0.5,0.1-0.7c0-0.2,0-0.4,0-0.6
								c0-0.2-0.1-0.4-0.1-0.7c-0.1-0.3,0-0.7,0.1-1c0.2-0.3,0.4-0.5,0.6-0.7c0.2-0.2,0.5-0.4,0.7-0.5c1-0.4,2-0.5,2.9-0.8
								c-0.8,0.7-1.8,1-2.6,1.5c-0.2,0.1-0.4,0.3-0.5,0.4c-0.1,0.2-0.3,0.3-0.3,0.5c-0.1,0.2-0.1,0.2,0,0.4c0,0.2,0.1,0.5,0.1,0.7
								c0,0.3,0,0.6,0,0.9c0,0.3-0.1,0.5-0.1,0.8c-0.1,0.1-0.1,0.3-0.3,0.6c-0.3,0.2-0.5,0.1-0.6,0.2c-0.2,0-0.4,0-0.6,0.1
								C133.6,188.9,132.5,189,132.5,190.1z"/>
						</g>
						<g>
							<path class="st16" d="M127.9,186.8"/>
						</g>
						<g>
							<path d="M127.9,187.3c0.1,0.1,0.1,0.2,0.1,0.3c0,0,0,0,0,0c0,0,0-0.1-0.1-0.1c-0.1,0,0,0,0-0.1l-0.1,0.1
								c0.2-0.3,0.4-0.6,0.7-0.8c0.3-0.2,0.6-0.4,0.9-0.5c0.3-0.1,0.6-0.2,1-0.3c0.3,0,0.7-0.1,1,0c-0.2,0.3-0.5,0.5-0.8,0.7
								c-0.3,0.2-0.5,0.3-0.8,0.5c-0.3,0.2-0.5,0.3-0.8,0.4c-0.3,0.1-0.6,0.3-0.9,0.4l-0.1,0.1c-0.1,0-0.1,0-0.2-0.1
								c-0.1,0-0.1-0.2-0.1-0.2c0,0,0-0.1,0-0.1C127.8,187.5,127.9,187.4,127.9,187.3z"/>
						</g>
						<g>
							<path d="M143.8,172.5c0.4-0.7,0.8-1.1,1.4-1.5c0.5-0.4,1.2-0.7,1.9-0.7c-0.4,0.7-0.8,1.1-1.4,1.5
								C145.2,172.1,144.6,172.5,143.8,172.5z"/>
						</g>
						<g>
							<path d="M165,162.7c0.3-0.3,0.4-0.3,0.6-0.3c0.1,0.1,0.2,0.2,0.1,0.6c-0.3,0.3-0.4,0.3-0.6,0.3
								C165,163.3,164.9,163.1,165,162.7z"/>
						</g>
						<g>
							<path d="M157.8,147.3c0.8,0.4,1.3,0.9,1.8,1.6c0.2,0.3,0.4,0.7,0.6,1.1c0.1,0.4,0.2,0.8,0.1,1.2c-0.6-0.6-1.1-1.1-1.5-1.7
								C158.4,148.8,157.9,148.2,157.8,147.3z"/>
						</g>
					</g>
				</g>
				<g>
					<path class="st13" d="M172.4,174.8c0-3,0.7-5.9,1.8-8.7c1.2-2.9,4.7-9.4,8.3-9.5c-2-2.7-3.2-5.5-6.4-6.9
						c-3.8,2.8-5.8,8.1-6.9,12.4c-0.9,3.3-1.8,8.2-0.7,11.5c0.2,0.1,0.1-0.1,0.2-0.2L172.4,174.8z"/>
				</g>
				<g>
					<path class="st2" d="M172.8,175c0.1-2.5-3.5-4.2-5.6-3.4c-5.2,1.9-3.1,9.5,2.1,9.4c1,0,2.2-0.5,2.9-0.7"/>
				</g>
				<g>
					<g>
						<path class="st0" d="M184.5,186.2c-0.7,0.2-1.5,0.2-2.3,0.2c-0.8-0.1-1.5-0.3-2.3-0.6c-1.4-0.6-2.8-1.7-3.4-3.1
							c1.2,0.9,2.5,1.6,3.8,2.2c0.7,0.3,1.3,0.5,2,0.7C183,185.8,183.8,186,184.5,186.2z"/>
					</g>
					<g>
						<g>
							<path d="M176.5,167.2c0.2-1,0.6-2,1.4-2.7c0.7-0.7,1.7-1.3,2.7-1.4c-0.7,0.8-1.4,1.4-2,2
								C177.9,165.8,177.3,166.6,176.5,167.2z"/>
						</g>
						<g>
							<path d="M176.6,174.1c0.3-0.4,0.6-0.7,1.1-0.9c0.4-0.2,1-0.3,1.5-0.1c0.5,0.2,1,0.5,1.2,1c0.3,0.4,0.4,0.9,0.4,1.4
								c-0.7-0.6-1.2-1.2-1.9-1.4C178.4,173.7,177.6,173.9,176.6,174.1z"/>
						</g>
					</g>
				</g>
			</g>
			<g>
				<g>
					<path class="st2" d="M197,259.9c-1.5,3.3-1.7,5.2,2.5,6.6c2.9,1.1,5.1,1.5,7-1.3c1.5-2.5,2.9-5,4.2-7.5
						c0.4-0.7,0.8-1.5,1.1-2.2c0.7,2,1.1,4.2,2,6.1c1.4,2.9,2.7,1.5,2.6-1.1c0-2-0.5-4-0.8-6c-0.4-2.4-0.6-3.5-3.3-2.5
						c0.1-1.3,0.6-2.2-0.7-2.8c-0.8-0.4-2.8,0-3.5,0.2c1.4-2.5,6.5-8.8,8.3-11.1c0.9-1.1,1.8-2.2,0-3.4c-1.8-1.2-7.3,9.4-10.1,12.9
						c0-4.5,4-8.8,4.5-13.3c0.1-0.9,0.2-2.2-1.3-2.1c-1.2,0.1-1.3,1.9-1.7,2.8c-0.7,1.9-1.3,3.9-2.1,5.8L197,259.9z"/>
				</g>
				<g>
					<path class="st2" d="M170.3,255c0.1-2.1,5.1-17.6,8.3-27.9c-1.2-6.4-6-13.2-13.1-9c-3.3,1.9-1.7,0.2-6.8,5.1
						c-1.5,9.4-3.5,21.8-4.1,24.9c-0.6,3.6-3.9,15.8,0.9,17.6c2.6,1,41.9,0.6,45.6,0.8c0.1-2-1.9-5-1.6-6.9
						C194.6,258.8,175.6,256.7,170.3,255z"/>
				</g>
				<g>
					<g>
						<path class="st13" d="M164.6,219.2c8.2-3.7,12.8,1.6,13.9,8c1-3.2,1.8-5.8,2.2-7.2c1.2-4.1,4.4-12.2,1-15.6
							c-3.9-4.1-7.6-4.3-12.8-5.4c-2.4-0.5-6.5,2.6-7.5,4.7c0,0-1.2,7.9-3.1,20.6C160.9,221.2,161.2,220.7,164.6,219.2z"/>
					</g>
					<g>
						<g>
							<path class="st14" d="M170.5,199.6c-1.1,0.4-2.3,0.8-3.3,1.4c-1.1,0.5-2.1,1.1-2.9,1.9c-0.4,0.4-0.8,0.8-1.1,1.3l-0.5,0.7
								l-0.4,0.8c-0.5,1-0.9,2.2-1.3,3.3c-0.7,2.3-1.1,4.6-1.5,7c-0.4,2.4-0.5,4.8-1.2,7.1c0.2-1.2,0.2-2.4,0.2-3.6
								c0.1-1.2,0.1-2.4,0.2-3.6c0.2-2.4,0.6-4.8,1.3-7.2c0.4-1.2,0.8-2.3,1.4-3.4l0.5-0.8l0.5-0.8c0.3-0.5,0.8-1,1.3-1.4
								C165.8,200.8,168.1,200,170.5,199.6z"/>
						</g>
						<g>
							<path class="st14" d="M181.8,214.6c0.2,0.9,0.2,1.9,0.1,2.8c-0.1,0.9-0.3,1.8-0.5,2.7c-0.5,1.8-1.1,3.5-1.9,5.1
								c0-1.9,0.5-3.7,0.9-5.4C180.9,218.1,181.4,216.4,181.8,214.6z"/>
						</g>
					</g>
				</g>
			</g>
		</g>
	</g>
	<g>
		<g>
			<g>
				<g>
					<path class="st3" d="M418.7,449.5c-11,1.2-23.4,4.9-34.3,2c-0.1,0.5-0.2,1-0.2,1.4c0.2,2,1.7,2.3,3.7,2.7
						c6.7,1.3,13.3,0.5,19.8-1.5c6.3-2,13,0.3,19.7-0.7c0.1-1.2,0-2.4,0-3.5C424.5,449.2,421.1,449.2,418.7,449.5z"/>
				</g>
				<g>
					<path d="M418.7,449.5c2.4-0.2,5.8-0.3,8.6,0.3c-0.1-2.1-0.4-4.1-0.6-6.1c-0.2-2.3,0.2-5.8-0.8-7.7l-16.8-3
						c-0.7,4.7-7.7,9.3-11.7,10.8c-3.2,1.3-8.3,0.5-10.7,3c-0.8,0.8-1.9,3-2.3,4.6C395.3,454.4,407.7,450.7,418.7,449.5z"/>
				</g>
			</g>
			<g>
				<g>
					<path class="st3" d="M450.8,449.8c-1.8,0-3.8-0.2-5.5-0.9c0.1,0.3,0.1,0.6,0.2,0.9c0.8,2.5,2.7,2.3,5.3,2.5
						c0,0.5,0,0.9,0.1,1.3C450.8,452.4,450.7,451.1,450.8,449.8z"/>
				</g>
				<g>
					<g>
						<path d="M474.8,452.1c-0.6-4.3-2.2-5.6-6.3-6.8c-3.8-1.2-4.7-5.8-6.5-9.3c-0.7-1.5-1.7-3.8-3.2-4.7c-1.2-0.7-2.8-0.3-4.2-0.8
							l-9.5,6.2c-1.5,1.3-0.5,4.8-0.3,6.7c0.1,1.7,0.2,3.9,0.5,5.6c1.8,0.7,3.7,0.9,5.5,0.9c-0.1,1.3,0,2.5,0.1,3.8
							c0,0.2,0,0.3,0.1,0.4C458.8,456.5,467.4,455.2,474.8,452.1z"/>
					</g>
					<g>
						<path class="st3" d="M474.8,452.1c-7.4,3.1-16,4.4-23.8,2c0.6,3.3,3.1,3.5,6.7,3.8c3.5,0.3,7.8,0,11.3-0.5
							c4-0.7,6.2-0.3,5.8-4.8C474.8,452.4,474.8,452.2,474.8,452.1z"/>
					</g>
				</g>
			</g>
			<g>
				<path class="st17" d="M407.8,436.2c-2.4-4.2-1-6,0.5-8.5c-5-3.5-0.2-8.8-0.2-14c0-6.2-0.5-12.5-1-18.8
					c-1.2-13.2-0.8-26.8-1.5-40c-0.8-10.8-1.5-21.5-1.8-32.5c-0.5-10.8-2-23.8-0.2-34.5c5.5,0,11-1.2,16.5-1.8
					c5.8-0.5,11.8,0.5,17.5,0.5c11,0,22.2,0.8,33-0.5c0.5,6.8-1,14.5-1.5,21.2c-0.2,5.8-3.5,81.3-3.5,93.8c0,6,1,13.4,0.2,19.4
					c-0.2,2.2-1.8,5.2-1.8,7.5c0,2.8,1.5,4.2,1,7.5c-0.2,1.5-0.2,3-1.2,4.5c-3.2-6.5-15.4-6.2-19.4-0.4c0-2.5-0.2-5.3-0.2-7.6
					c0-3.5-1.9-4.2-2.7-7.8c-0.8-2.2,0.5-5.2,0.2-7.8c0-2.8-0.2-5.5-0.8-8.2c-1.8-11.8-3.8-95.8-6.4-94.5c-1.1,10-1.1,36.3-1.6,48.5
					c-0.8,11.8-1,23.5-1.5,35.2c-0.2,8.2-1,16-2.2,24c-0.2,2,0,3.5,0,5.2c0,0.8,0.5,1.8,0.5,2.8c0,0.8-1.5,1.5-1.5,2.5
					c0,1.8,1.5,3.2,1.2,5.5c-0.2,2-1.5,3.5-2.8,5c-0.3,0.1-2.3-1.2-2.6-1.3c-3.3-1.7-6.6-3.2-10.1-4.5c-0.6-0.2-1.2-0.4-1.9-0.6
					c-0.7-0.2-1.5-0.5-2.2-0.5C409.6,435.7,407.9,436.3,407.8,436.2z"/>
			</g>
			<g>
				<g>
					<path class="st18" d="M426,435.9c-2-1.8-4.5-2.6-7.1-2.9l-3.9-0.4c-0.7-0.1-1.3-0.2-2-0.3c-0.7-0.2-1.3-0.3-2-0.7
						c-0.2-0.1-0.3-0.2-0.5-0.4c-0.2-0.2-0.3-0.5-0.3-0.8c0-0.3,0.2-0.6,0.4-0.8c0.2-0.2,0.3-0.3,0.5-0.4c0.7-0.4,1.4-0.5,2.1-0.6
						c1.4-0.2,2.7-0.1,4,0c1.3,0.1,2.7,0.3,4,0.7c1.3,0.4,2.6,1,3.4,2.1c-1-0.9-2.2-1.4-3.5-1.6c-1.3-0.3-2.6-0.4-3.9-0.4
						c-1.3,0-2.6-0.1-3.9,0.1c-0.6,0.1-1.2,0.2-1.7,0.5c-0.2,0.1-0.4,0.3-0.4,0.3c0,0,0.1,0.2,0.3,0.3c1,0.6,2.3,0.8,3.6,1
						c1.3,0.2,2.6,0.3,3.9,0.6c1.3,0.3,2.6,0.6,3.9,1.2C424.1,434,425.2,434.9,426,435.9z"/>
				</g>
				<g>
					<path class="st18" d="M463,433.9c-0.1-0.7-0.3-1.4-0.8-1.9c-0.4-0.5-1-0.8-1.6-1c-1.3-0.4-2.7-0.3-4-0.2
						c-1.4,0.1-2.8,0.4-4.1,0.6c-1.4,0.3-2.8,0.6-4.1,0.9c1.2-0.7,2.6-1.3,3.9-1.7c1.4-0.4,2.8-0.7,4.2-0.8c1.4-0.1,3-0.1,4.4,0.5
						c0.7,0.3,1.4,0.8,1.8,1.4C463,432.4,463.1,433.2,463,433.9z"/>
				</g>
				<g>
					<g>
						<path class="st18" d="M418.8,425.4c-1-0.1-1.9-0.2-2.9-0.4c-0.5-0.1-1-0.3-1.4-0.6c-0.4-0.3-0.9-0.7-1-1.2c-0.3-1-0.2-2-0.2-3
							c0.1-1,0.2-2,0.3-2.9c0.3-1.9,0.7-3.9,0.9-5.7c0.1-1.9,0-3.9-0.1-5.8c-0.1-3.9-0.4-7.8-0.6-11.7c-0.1-1.9-0.1-3.9-0.2-5.9
							c0-2,0-3.9,0.1-5.9c0.2,3.9,0.5,7.8,0.8,11.7c0.3,3.9,0.6,7.8,0.8,11.7c0,2,0.1,3.9,0,5.9c-0.3,2-0.7,3.9-1,5.8
							c-0.2,1-0.4,1.9-0.5,2.9c-0.1,0.9-0.2,1.9,0,2.8c0.2,0.9,1.1,1.4,2,1.7C416.8,425.1,417.8,425.2,418.8,425.4z"/>
					</g>
					<g>
						<path class="st18" d="M414,369.7l-1.2-29.1c-0.1-4.9-0.3-9.7-0.4-14.6l0-7.3c0-2.4,0.1-4.9,0.2-7.3l1.2,29.1
							c0.1,4.9,0.3,9.7,0.4,14.6C414.2,359.9,414.2,364.8,414,369.7z"/>
					</g>
					<g>
						<path class="st18" d="M460.5,427.4c-1.6-0.4-3.3-0.3-5-0.1l-0.2,0l0-0.2l-0.4-11.5c-0.1-3.8-0.3-7.7-0.5-11.5
							c-0.1-3.8-0.4-7.7-0.6-11.5l-0.6-11.5c0.6,3.8,1,7.6,1.3,11.4c0.4,3.8,0.6,7.7,0.8,11.5c0.2,3.8,0.3,7.7,0.4,11.5
							c0.1,3.8,0,7.7-0.1,11.5l-0.2-0.2C457.2,426.8,458.9,426.8,460.5,427.4z"/>
					</g>
					<g>
						<path class="st18" d="M453.5,363.9c-0.2-4.4-0.3-8.8-0.5-13.2l-0.4-13.2c-0.1-4.4-0.2-8.8-0.1-13.2l0.1-6.6
							c0.1-2.2,0.1-4.4,0.2-6.6l0.3,6.6l0.2,6.6l0.4,13.2c0.1,4.4,0.2,8.8,0.1,13.2C453.8,355.1,453.7,359.5,453.5,363.9z"/>
					</g>
				</g>
				<g>
					<path class="st18" d="M429.8,268.2c0.5,2.7,0.5,5.5,0.7,8.3c0.1,2.8,0.2,5.5,0.2,8.3c0.1,2.8,0,5.5,0.2,8.2
						c0.1,1.4,0.4,2.7,0.9,3.9c0.3,0.6,0.6,1.2,1,1.7c0.5,0.5,1,0.9,1.7,1.1c-0.7-0.1-1.3-0.4-1.9-0.9c-0.5-0.5-0.9-1.1-1.3-1.7
						c-0.6-1.3-1-2.7-1.2-4.1c-0.4-2.8-0.4-5.6-0.5-8.3c0-2.8-0.1-5.5,0-8.3l0.1-4.1C429.8,271,429.9,269.6,429.8,268.2z"/>
				</g>
				<g>
					<path class="st18" d="M434.6,267.8c0.3,3.8,0.5,7.6,0.6,11.4c0.1,3.8,0.1,7.6,0.2,11.4l0,11.4l0,5.7c0,1.9,0,3.8-0.1,5.7
						c-0.2-1.9-0.3-3.8-0.4-5.7l-0.2-5.7c-0.1-3.8-0.1-7.6-0.2-11.4l0-11.4C434.5,275.4,434.5,271.6,434.6,267.8z"/>
				</g>
				<g>
					<path class="st18" d="M423.6,309.1c3,0.5,5.8,1.5,8.6,2.6c1.4,0.6,2.8,1.2,4.1,1.8c1.3,0.7,2.7,1.4,3.9,2.3l-4.2-1.6
						c-1.4-0.5-2.8-1.1-4.2-1.6c-1.4-0.6-2.8-1.1-4.1-1.7C426.3,310.3,424.9,309.7,423.6,309.1z"/>
				</g>
			</g>
		</g>
		<g>
			<g>
				<path class="st19" d="M418.2,186c1.3-0.3,3.2-1.4,4.7-1.7c0.2-3-3.2-16.6-4.3-19.9c5.7,0,13-1.2,18.3-2.7
					c0.3,4.7,1.3,9.3,2.2,14c1,5.3,2.8,7.3,8.5,8c-0.2,3.2-0.8,5.8-2,8.8c-1.5,3.2-2.2,6.8-4.8,9.7c-2.7,2.7-11,5.5-14.5,2.5
					L418.2,186z"/>
			</g>
			<g>
				<path class="st20" d="M424,170.3c0,0,4.2,13.1,15.7,8c0,0-1-3.4-1.4-7L424,170.3z"/>
			</g>
			<g>
				<path d="M443.7,140.5c0.4,0.9,0.8,1.9,0.6,2.8c-0.2,1.1-1,1.6-1.6,2.4c-0.5,0.6-0.4,1.2-0.3,1.9c0.1,1.3,0.4,4-0.6,5
					c-2.6,0.9-5.3,1.8-7.9,2.7c-1.2,0.4-2.4,0.8-3.6,1.2c-1,0.3-2.4,0.6-3.3,1.2c-1.6,1.1-1.8,3.3-1.7,5c0,1.8,0.1,3.8-1.2,5.1
					c-1.4,1.4-3.9,1.2-5.6,0.1c-1.1-0.7-1.9-1.6-2.8-2.5c-1.2-1.3-2.6-2.7-2.7-4.5c-0.1-0.8,0.1-1.6-0.1-2.4c-0.2-0.6-0.6-1.1-1-1.5
					c-2.2-2.5-4.6-5-5.4-8.3c-0.4-1.6-0.3-3.2-0.1-4.8c0.3-2,0.8-4,1.8-5.7c1.1-1.7,2.7-3.2,4.7-3.6c0.4-0.1,0.7-0.1,1-0.4
					c0.3-0.3,0.4-0.7,0.5-1c0.9-3.3,4.3-4.6,7.3-5.6c1.4-0.4,2.8-0.8,4.3-0.9c2.6-0.1,5.2,0.7,7.8-0.3c1.5-0.6,2.6-1.9,4.1-2.4
					c1.9-0.6,4-0.3,5.7,0.6c0.9,0.5,1.6,1.2,2.1,2c0.6,0.9,0.3,1.8-0.1,2.8c1,0.4,1.4,1.6,1.3,2.7c-0.1,1.3-0.9,2.3-1.1,3.5
					C445.3,137.3,442.9,138.8,443.7,140.5z"/>
			</g>
			<g>
				<path class="st19" d="M443.9,155c-0.5-2.4-0.9-4.7-1.2-7.1c-0.2-1.4-0.3-2.9-0.6-4.3c-0.2-1-0.5-2-0.7-3
					c-0.7-2.6-2.2-5.3-5.2-5.4c-1.9-0.1-3.1,0.7-4.2,2.1c-0.3,0.4-1.2,1.9-1.6,2.6c-1.4-1.5-4.3-2.5-6.3-2.4c-1.9,0.1-4.1,1-5.3,2.5
					c-1.1,1.3-1.3,3.2-1.2,5c0.2,1.8,0.7,3.5,0.8,5.2c0,0.3,0,0.7-0.1,0.9s-0.4,0.5-0.6,0.7c-0.9,1-1,2.4-0.7,3.7s0.7,2.5,0.8,3.9
					c0,0.5-0.2,1.2-0.7,1.1c-0.2-0.1,0.3,2.1,0.3,2.3c0.4,1.4,0.9,2.5,1.8,3.7c0.9,1.1,1.5,2.3,2.6,3.3c2.1,1.8,5.1,3.4,7.8,4
					c3.3,0.7,6.9,0.2,10.1-1.3c4.1-1.9,6-6.1,5.6-10.5c-0.1-0.9-0.3-1.7-0.4-2.6C444.5,158,444.2,156.5,443.9,155z"/>
			</g>
			<g>
				<path class="st19" d="M415.8,157.1c-2.8-1.6-6.3,0.6-7,3.5c-0.9,4.4,2.7,8.1,7,7.6c0.9-0.1,3.7-1,3.7-1.8L415.8,157.1z"/>
			</g>
			<g>
				<g>
					<g>
						<path class="st21" d="M439.1,162.5c0-0.1,0-0.6-0.1-1.1l-10.9,2.3c0.1,0.5,0.4,1,0.7,1.4c3.9-0.3,8.3-1.5,9.3-1.7
							C438.6,163.2,439,163,439.1,162.5z"/>
					</g>
					<g>
						<g>
							<path class="st22" d="M438.1,163.4c-0.9,0.3-5.3,1.5-9.3,1.7c1.2,1.7,3.7,2.5,5.7,2.5c2.1,0,4.2-1.4,5.3-3.2
								C439.2,164,438.7,163.7,438.1,163.4C438.1,163.4,438.1,163.4,438.1,163.4z"/>
						</g>
						<g>
							<path class="st23" d="M440.3,161L440.3,161l-1.3,0.3c0.1,0.6,0.2,1,0.1,1.1c-0.1,0.5-0.5,0.8-1,0.9c0.6,0.3,1.1,0.7,1.7,1.1
								C440.4,163.4,440.6,162.2,440.3,161z"/>
						</g>
					</g>
				</g>
				<g>
					<path class="st20" d="M431.8,146.3c0.7,1.4,1,3,1.5,4.3c0.5,1.4,1.4,2.6,2.6,3.3c0.6,0.4,1.4,0.6,2.1,1.2
						c0.7,0.6,1,1.7,0.7,2.6c-0.3,0.9-1,1.4-1.7,1.8c-0.7,0.4-1.5,0.6-2.3,0.6c0.7-0.2,1.4-0.6,2-1c0.6-0.4,1.1-1,1.2-1.6
						c0.1-0.6,0-1.3-0.5-1.6c-0.5-0.4-1.2-0.6-2-1c-1.5-0.9-2.4-2.4-2.8-3.9C432.2,149.3,432.1,147.8,431.8,146.3z"/>
				</g>
				<g>
					<g>
						<path d="M420.6,146.7c0.2-0.6,0.4-1.2,0.8-1.7c0.3-0.5,0.8-1,1.4-1.4c0.6-0.4,1.2-0.6,1.9-0.7c0.7-0.1,1.3,0,1.9,0.2
							c-1.2,0.4-2.3,0.6-3.2,1.3C422.4,145,421.7,145.9,420.6,146.7z"/>
					</g>
					<g>
						<path d="M435,141.5c0.8-0.8,2-1.1,3.1-0.9c1.1,0.2,2.1,1,2.6,2c-1-0.4-1.9-0.8-2.8-1C437,141.4,436.1,141.4,435,141.5z"/>
					</g>
				</g>
				<g>
					<g>
						<path class="st15" d="M424.9,151.8c-0.2,0.5-0.1,1.2,0,1.7c0.1,0.7,0.6,1.5,1.4,1.1c0.8-0.3,0.7-1.4,0.4-2.1
							c-0.2-0.5-0.4-1.1-0.9-1.2c-0.3-0.1-0.6-0.1-0.8,0.2C425,151.7,425,151.7,424.9,151.8z"/>
					</g>
					<g>
						<path class="st15" d="M438.1,149.2c-0.3,0.3-0.4,0.8-0.3,1.2c0.1,0.8,0.6,2.6,1.6,1.8c0.6-0.4,0.5-1.2,0.3-1.8
							c-0.1-0.5-0.3-1.3-0.8-1.4C438.6,149,438.3,149.1,438.1,149.2z"/>
					</g>
				</g>
			</g>
		</g>
		<g>
			<path class="st24" d="M412.2,289.5c-0.3-3.6,36.6,3.2,46.3-3.3c2.4-1.6-4.5-5.9-4.5-8.5c-0.3-11.5-1.3-22.8-2-34.3
				c-1.2-20.4,1.4-39.3-3.3-59.5c-3.8,1.5-5.7,2.5-9.7,3.7c-3.3,1-8,1.4-11.5,1.4c-2,0-9.7-0.9-9.8-1.3c-0.5-2.1-1.4,4.6-1.5,6.6
				c-0.8,16.2-1.5,32.3-2.2,48.5C413.4,258.1,411.1,274.2,412.2,289.5z"/>
		</g>
		<g>
			<path class="st25" d="M420.5,317.4c-4,4-14.2,0.2-18.5-1.8c-2.1-1-5.2-2.8-5.9-4.1c-1.6-2.8,2.4-71,0.7-81.8
				c-0.5-3.2-5.3-36.4-2.8-38.7c2.6-2.3,4.6-1.8,7.9-2.4c4.1-0.8,8-2.7,12.2-3.4c0.5-0.1,1-0.2,1.4-0.4c0.3-0.2,0.5-0.4,0.7-0.7
				c1.7-1.7,4.1-2.7,6.5-2.6c0.2,1.3,0.2,2.6,0.2,3.9c0.3,13.6-0.4,27.3-0.7,41c-0.4,20-0.8,40-1.1,60.1
				C420.9,296.8,420.7,307.1,420.5,317.4z"/>
		</g>
		<g>
			<path class="st25" d="M415.2,185.5c-2.8,6-4.3,11.7-6.5,17.9c4.2,0,6.4-0.3,10.6,0.2c-2.9,2.8-10,7.8-10.5,8.4s-0.5,1.6-0.2,3.8
				c0.8,6.5,9.5,51.1,11.1,55.1"/>
			<path class="st26" d="M415.2,185.5c-1.3,2.9-2.3,5.9-3.3,9c-1,3-1.9,6.1-2.9,9.1l-0.3-0.4l5.3-0.1c1.8,0,3.6,0.1,5.3,0.3l0.9,0.1
				l-0.7,0.6c-2.3,2.1-4.8,4-7.2,5.8l-1.8,1.4l-0.9,0.7c-0.1,0.1-0.3,0.2-0.4,0.4c-0.1,0.1-0.2,0.2-0.2,0.3c-0.2,0.5-0.2,1.3-0.1,2
				c0.1,0.8,0.1,1.5,0.3,2.3c1,6,2.1,12.1,3.2,18.1l3.4,18.1l1.8,9l0.9,4.5c0.3,1.5,0.6,3,1.1,4.5c-1-2.9-1.6-5.9-2.4-8.9
				c-0.7-3-1.4-6-2-9c-1.3-6-2.6-12-3.7-18c-1.2-6-2.4-12-3.3-18.1c-0.1-0.8-0.2-1.5-0.3-2.3c0-0.8-0.2-1.6,0.2-2.5
				c0.1-0.2,0.2-0.4,0.4-0.6c0.2-0.1,0.3-0.3,0.5-0.4l0.9-0.7l1.8-1.4c2.4-1.9,4.9-3.7,7.1-5.7l0.2,0.7c-1.7-0.2-3.5-0.3-5.2-0.4
				l-5.3,0h-0.5l0.2-0.4C410.6,197.4,412.4,191.2,415.2,185.5z"/>
		</g>
		<g>
			<g>
				<path class="st26" d="M416.9,247.3c-0.3,4-0.4,16-4.7,17.7c-5.7,2.5-5.7-14.6-5.5-17.7L416.9,247.3z"/>
				<g>
					<path class="st26" d="M416.4,247.3c-0.3,4.8-0.2,10.1-2.1,14.6c-0.9,2.2-3.3,4.4-5,1.6c-1.1-1.7-1.4-4-1.7-6
						c-0.3-2.1-0.4-4.3-0.5-6.4c0-0.9,0-1.7,0-2.6c0-0.3,0-0.6,0-0.9c0.1-0.5-0.8,0.1-0.2-0.1c0.5-0.2,1.7,0,2.2,0
						c1.1,0,2.2,0,3.3,0c1.5,0,2.9,0,4.4,0c0.6,0,0.6-0.4,0-0.4c-3.4,0-6.8,0-10.2,0c-0.1,0-0.5,0-0.5,0.2c-0.2,3.5,0,7.1,0.5,10.5
						c0.3,2.3,0.9,6.9,3.7,7.6c7.1,1.9,6.8-14.4,7-18.1C417.4,247,416.4,247,416.4,247.3z"/>
				</g>
			</g>
			<g>
				<path class="st19" d="M409.8,240.7c2.2,0.2,4.5,0.5,6.8,0.6c0.9-4.9,1.8-10.4,3.7-15c2-4.8,8.4-7.6,13.4-8.3
					c1.2-0.1,3.5,0.2,2.2,1.9c-0.6,0.9-3.5,1.3-4.4,1.8c-2.8,1.2-6.2,2.2-6.5,5.5c1.4-0.6,13.7-4.8,13.5-1.4
					c-0.1,1.6-5.9,2.4-7.3,2.8c-1.5,0.5-6,1.2-6.5,2.9c2.6-0.2,5.4-0.8,8-1c1.2-0.1,6-1.4,4.9,1.1c-0.9,1.5-5.3,1.9-6.9,2.2
					c-1.7,0.3-6.1,0.7-6.4,2.8c1.4,0.3,10.1-0.9,9.7,0.8c-0.4,2.1-8.5,2.2-10,2c-1.1,4.5-1.4,9.1-6.7,8.3c-3.7-0.6-7.7,2.6-11.1,3.6
					L409.8,240.7z"/>
			</g>
			<g>
				<path class="st25" d="M395.2,190.2c-4.1,1.6-6.6,11-6.4,15.8c0.1,4-1.7,7.6-1.1,11.6c0.7,4.6-0.2,7.7-0.7,12.1
					c-0.9,8.6-0.7,17.8-0.4,26.2c0.1,5.2,2.4,4.7,6.6,5.6c3.5,0.7,7.1,1.8,10.5,2.5c2.5,0.5,5.1,0.8,7.6,0.9
					c-2.8-8.4-2-16.5,1.9-24.5c-6-0.4-8.7-0.8-10.6-1.4c1.5-2.1,2.1-5.2,1.4-7.3c-0.4-1.2-0.8-0.9-0.9-2.1c0-0.5,0.6-1.6,0.7-2.3
					c0-0.9-0.5-7.3-1.1-14"/>
				<g>
					<g>
						<path class="st26" d="M413.3,240.4c-0.9,0.1-1.8,0.2-2.7,0.1c-0.9,0-1.8,0-2.7-0.1c-1.8-0.2-3.6-0.4-5.3-1.1l0,0
							c-0.2-0.1-0.3-0.3-0.2-0.5c0,0,0,0,0-0.1c0.9-1.3,1.5-2.9,1.6-4.4c0.1-0.8,0.1-1.6-0.2-2.3c-0.1-0.4-0.2-0.7-0.5-1
							c-0.1-0.2-0.3-0.4-0.3-0.6c-0.1-0.2-0.1-0.5-0.1-0.7l0,0l0,0c0-0.3,0.1-0.5,0.2-0.7l0.2-0.6c0.1-0.4,0.3-0.7,0.3-1.1v0
							c-0.1-2.3-0.2-4.7-0.4-7l-0.5-7c0.3,2.3,0.5,4.6,0.8,7c0.2,2.3,0.5,4.6,0.6,7v0c0,0.5-0.2,0.8-0.3,1.2
							c-0.1,0.4-0.3,0.8-0.3,1.1v0c0,0.2,0,0.4,0.1,0.5c0,0.2,0.1,0.3,0.3,0.4c0.3,0.4,0.5,0.8,0.6,1.2c0.3,0.9,0.3,1.7,0.2,2.6
							c-0.2,1.7-0.7,3.4-1.7,4.8l-0.2-0.5c1.7,0.4,3.5,0.6,5.2,0.9c0.9,0.1,1.8,0.2,2.7,0.4C411.5,240.1,412.4,240.2,413.3,240.4z"
							/>
					</g>
					<g>
						<path class="st26" d="M391.3,261.2c1.7,0.1,3.4,0.4,5.1,0.7c1.7,0.3,3.3,0.8,5,1.1c3.3,0.8,6.6,1.5,10,1.9
							c-1.7,0.2-3.4,0.2-5.1,0c-1.7-0.2-3.4-0.5-5.1-0.9c-1.7-0.4-3.3-0.9-4.9-1.4L391.3,261.2z"/>
					</g>
					<g>
						<g>
							<path class="st26" d="M403.9,239.3c-0.7-0.1-1.3-0.1-2,0c-0.6,0.1-1.4,0.2-2,0.3c-1.3,0.2-2.6,0.5-3.8,1.1
								c-1.2,0.5-2.3,1.2-3.4,2c-1.1,0.8-2.1,1.7-3.1,2.6c0.8-1.1,1.6-2.2,2.6-3.2c1-1,2.2-1.8,3.5-2.4c1.3-0.6,2.7-0.9,4.1-0.9
								c0.7,0,1.3,0,2.1,0C402.6,238.9,403.3,239,403.9,239.3z"/>
						</g>
						<g>
							<path class="st26" d="M388.8,243c0.4-1.1,1-2.2,1.7-3.1c0.7-0.9,1.7-1.8,2.7-2.4c1.1-0.6,2.2-1,3.4-1.3
								c1.2-0.3,2.3-0.5,3.5-0.6l-0.4,0.7c-0.4-0.8-0.9-1.4-1.6-1.7c-0.8-0.3-1.7-0.2-2.5-0.1c-1.8,0.4-3.4,1.2-5.1,2.1
								c0.7-0.6,1.5-1.1,2.3-1.6c0.8-0.5,1.7-0.9,2.6-1.2c0.9-0.3,2-0.4,3-0.1c1,0.3,1.8,1.2,2.2,2.1l0.3,0.6l-0.6,0.1
								c-2.3,0.4-4.6,0.7-6.6,1.7c-1,0.5-1.9,1.1-2.7,2C390.1,241,389.4,242,388.8,243z"/>
						</g>
					</g>
					<g>
						<path class="st26" d="M400,191c1.2,2.3,1.7,4.8,1.9,7.3c0.2,2.5,0.2,5-0.1,7.5c-0.4-2.5-0.6-5-0.9-7.4
							C400.7,195.9,400.4,193.5,400,191z"/>
					</g>
				</g>
			</g>
		</g>
		<g>
			<path class="st25" d="M442.8,184.5c-0.2-2-0.3-3.5-0.4-3.5c2.9-0.3,5.9,1,7.8,3.2c0.4-0.2,0.9-0.1,1.4,0
				c3.1,0.5,15.9,3.1,19.4,4.1c0.9,0.2,1.7,0.5,2.5,0.9c3.9,2.1,4.2,6.9,4.2,10.8c0,4.1-0.1,8.3-0.3,12.4
				c-0.4,11.1-0.9,22.1-1.4,33.2c-0.9,17.5,0.7,37.5,0.7,55.1c0,6-2.2,8.1-7.4,12.1c-3.2,2.5-12.8,6.8-17,5.5
				c-0.7-0.2-1.2-0.5-1.6-0.9c-1.2-1.4-4.8-78.7-5.8-98.2c-0.4-7.8-0.8-15.5-1.2-23.3C443.6,195.1,443.2,188.6,442.8,184.5z"/>
		</g>
		<g>
			<path class="st25" d="M450.8,184.8c2.3,3.5,6.6,11.9,8.9,18.2c-4.2,0-7.9-0.8-12.2-0.3c1,2.8,4.8,4.8,7.2,6.2
				c3.5,2.2,4,1.5,3.5,6c-0.8,6.5-1.5,13-2,19.5c-0.8,10.8-6.1,35.1-6.1,36.6"/>
			<path class="st26" d="M450.8,184.8c1.9,2.8,3.5,5.8,5,8.8c1.5,3,2.9,6.1,4.1,9.3l0.2,0.4l-0.5,0c-2.1,0-4.1-0.2-6.1-0.3
				c-2-0.1-4-0.1-6,0.1l0.4-0.6c0.5,1.3,1.6,2.4,2.8,3.3c1.2,0.9,2.5,1.7,3.9,2.5c0.7,0.4,1.3,0.8,2,1.2c0.3,0.2,0.7,0.4,1,0.6
				c0.3,0.2,0.7,0.5,1,1c0.4,0.9,0.3,1.8,0.3,2.5c-0.1,0.8-0.1,1.6-0.2,2.3c-0.7,6.2-1.4,12.3-1.9,18.5c-0.5,6.2-1.7,12.3-2.9,18.4
				c-0.6,3-1.2,6.1-1.9,9.1c-0.6,3-1.4,6-1.9,9.1c0.4-3.1,1-6.1,1.5-9.2l1.6-9.1c0.5-3,1-6.1,1.5-9.2c0.5-3.1,0.9-6.1,1.1-9.2
				c0.5-6.2,1.1-12.4,1.9-18.5c0.1-0.8,0.2-1.5,0.2-2.3c0.1-0.7,0.1-1.5-0.2-2c-0.2-0.5-1-0.9-1.6-1.2c-0.7-0.4-1.3-0.8-2-1.2
				c-1.3-0.8-2.7-1.6-3.9-2.5c-1.2-1-2.5-2.1-3.1-3.7l-0.2-0.5l0.5-0.1c2.1-0.2,4.1-0.2,6.2,0c2,0.2,4,0.4,6.1,0.4l-0.3,0.4
				c-1.1-3.2-2.5-6.3-3.9-9.3c-0.7-1.5-1.4-3-2.2-4.5C452.5,187.7,451.7,186.2,450.8,184.8z"/>
		</g>
		<g>
			<g>
				<g>
					<path class="st19" d="M472.4,288.6c0.4,1.3,0.6,3.1,0.4,4.6c-0.4,3.7-4.4,3.4-4.3,7.1c0.1,3.3,0.4,6.2,0.4,9.5
						c0,1-0.7,3.5-0.4,4.4c0.7,1.9,2.4,0.9,3.3-0.7c1.3-2.8-0.1-6.8,1-9.8c1-2.7,1.5-0.6,1.6,1.3c0.1,1.6,0.1,3.2,0.1,5
						c0,3.4,0.1,6.6-0.7,9.9c-0.4,1.5-3.1,9.2,1,5.6c1-0.9,2.1-3.8,2.1-5.2c3.3-0.7,3.5-1.5,4.1-4.7c2.8-0.7,2.8-2.1,2.5-4.9
						c3.5,0.3,1.5-3.8,1.2-5.9c-0.3-2.4-0.6-4.7-0.9-7.2c-0.3-2.2-0.9-12.3-2.4-13.1L472.4,288.6z"/>
				</g>
				<g>
					<g>
						<path class="st27" d="M475.9,323.8c0.7-3,1.4-6,2-8.9c0.6-3,1-6,1.4-9c0.4,3.1,0.2,6.2-0.4,9.2
							C478.2,318.1,477.3,321,475.9,323.8z"/>
					</g>
					<g>
						<path class="st27" d="M480.1,318.7c0.6-1.2,0.7-2.4,0.7-3.7c0-1.3,0-2.5,0.1-3.8c0.2-2.6,0.4-5,0.3-7.6
							c0.5,1.2,0.7,2.5,0.7,3.8c0.1,1.3,0,2.6,0,3.9c-0.1,1.3-0.1,2.5-0.3,3.8C481.4,316.4,481,317.8,480.1,318.7z"/>
					</g>
					<g>
						<path class="st27" d="M483.5,314c0-2.2-0.1-4.2-0.3-6.4c-0.2-2.1-0.5-4.2-0.7-6.3c1,1.9,1.5,4.1,1.7,6.3
							c0.1,1.1,0.1,2.2,0,3.3C484.1,311.9,483.9,313,483.5,314z"/>
					</g>
				</g>
			</g>
			<g>
				<path class="st25" d="M471,194.7c-9.7,15.2-2.7,35.6-3.6,52.2c-0.2,2.9-0.5,5.1,0,7.5c0.5,3.1,0,4.8-0.2,8.2
					c-0.2,4.8,0.7,10.4,1.2,15.2c0.5,5.1,1,15.7,1,15.7c0.7,2.9,13.4-0.1,15.6-1c0,0,0.1-4.3-0.3-10.1c-0.2-5.1-0.2-10.4-0.2-15.5
					c0-10.4-0.7-20.8-0.7-31.2c0-8-1.5-16-1.9-23.9c-0.2-6-0.5-21.3-8.2-23"/>
				<g>
					<g>
						<path class="st25" d="M462.6,216.9c2.4,4.1,2,4.1,3.9,7.3"/>
						<path class="st26" d="M462.6,216.9c1,1,1.8,2.2,2.4,3.4c0.3,0.6,0.6,1.3,0.8,1.9c0.2,0.6,0.5,1.3,0.6,2c-1-1-1.7-2.2-2.3-3.4
							C463.5,219.5,462.9,218.3,462.6,216.9z"/>
					</g>
					<g>
						<path class="st26" d="M471.1,192.6c-2.1,3.7-3.4,7.8-3.9,12c-0.7,4.2-0.9,8.4-0.8,12.6c0.2,8.5,1.4,16.9,1.5,25.5
							c0,2.1-0.1,4.3-0.3,6.4c-0.1,1.1-0.1,2.1-0.1,3.1c0,1,0.3,2,0.4,3.1c0.3,2.2-0.1,4.4-0.3,6.5c-0.2,2.1-0.1,4.2,0.1,6.3
							c0.3,4.2,1.1,8.4,1.3,12.7c0.1,2.1,0.3,4.3,0.4,6.4l0.1,6.4l0,0c0.1,0.4,0.4,0.6,0.8,0.8c0.4,0.2,0.9,0.3,1.3,0.3
							c0.9,0.1,1.9,0.1,2.8,0.1c-0.9,0.1-1.9,0.2-2.8,0.1c-0.5,0-1-0.1-1.4-0.2c-0.5-0.1-1-0.4-1.2-1l0,0l0,0l-0.6-6.4
							c-0.2-2.1-0.3-4.2-0.4-6.4c-0.2-4.2-1-8.4-1.3-12.7c-0.2-2.1-0.3-4.3-0.1-6.5c0.2-2.1,0.5-4.2,0.3-6.3c-0.1-1-0.4-2.1-0.4-3.2
							c0-1.1,0-2.2,0.1-3.2c0.2-2.1,0.3-4.2,0.3-6.3c-0.1-8.5-1.3-16.9-1.5-25.5c-0.1-4.3,0-8.6,0.8-12.8
							C467.1,200.2,468.7,196.1,471.1,192.6z"/>
					</g>
					<g>
						<path class="st26" d="M470,289.3c2.3-0.2,4.6-0.3,6.9-0.5c2.3-0.2,4.5-0.6,6.8-1c-2,1.2-4.4,1.8-6.7,2
							C474.7,290,472.3,289.9,470,289.3z"/>
					</g>
					<g>
						<path class="st26" d="M470.7,258.2c1.8,0.9,3.5,1.9,5.3,2.6c1.8,0.7,3.7,1.2,5.7,1.5c-2,0.5-4.1,0.2-6.1-0.6
							C473.7,260.9,472,259.7,470.7,258.2z"/>
					</g>
				</g>
			</g>
		</g>
	</g>
	<g>
		<g>
			<path class="st28" d="M613.8,245.4c1,7,2.2,16.3,1.8,23.5c-1,9.2-16.5,7-23.8,6.8c0-2.8-0.5-7.2,0.5-9.5l8.8-3.3l-0.9-16.3
				L613.8,245.4z"/>
		</g>
		<g>
			<g>
				<g>
					<path class="st29" d="M582.2,449.2c-0.8-0.2-1.6-0.6-1.9-1.5c-0.1-0.4-0.2-0.8-0.2-1.3c0-1.3,0.4-2.7,1-3.8
						c-2.5,0.8-5,1.7-7.4,2.6c-1.7,0.6-3.7,1.2-4.9,2.7c-0.7,0.9-2.4,3.4-0.8,4c1.7,0.6,4,1,5.7,1c1.7,0,3.5-0.1,5.2-0.1
						c3.8,0,7.5,0,11.3-0.2c0.1,0,0.1,0,0.2,0c2.5,0,7,0.1,9.5-0.1c4-0.5,3.3-0.2,3.2-3.7c0-0.1-0.2-0.5-0.2-0.7
						c-3.9,1.1-8.1,1.3-12.1,1.2c-2.1,0-4.2-0.1-6.2-0.1C584,449.3,583,449.4,582.2,449.2z"/>
				</g>
				<g>
					<path class="st28" d="M604.3,413.6c2.7-10.8,6.8-21,3.8-32.2c-2-7.2-1.5-13.5,0.8-20.5l-20.2-6.2c0,14.8,1.5,29,1.5,43.8
						c0,11.2,1.2,23.4,0,34.6c-0.8,6.5-3.2,7.7-9.7,10c-0.1,0-0.9,0.3-1,0.3c-0.1,1.5-0.6,5.2,2.8,6.1c6.9,0,14.2,0.7,20.9-1.1
						C602.5,434.8,599.9,430.9,604.3,413.6z"/>
				</g>
			</g>
			<g>
				<g>
					<path class="st29" d="M522,453.9c0-2.2-0.3-4.6-1.8-5.9c-4.8,1.7-12.7,2.8-12.9,9.2c2.4,0.5,17.8,1,23.1,0.8
						c2.5,0,5.6,0.2,8.1,0c4.1-0.5,5.5-0.3,4.5-4.7c0-0.1,0-0.2,0-0.3C536,454.6,528.9,453.9,522,453.9z"/>
				</g>
				<g>
					<path class="st30" d="M550.6,418.1c5-10.7,10.6-21,9.6-32.2c-0.7-7.2,1-13.5,4.5-20.5l-19.1-6.2c-2.7,14.8-3.8,29-6.4,43.8
						c-2,11.2-3,23.4-6.3,34.6c-1.9,6.5-5.5,8.1-12.4,10.4c-0.1,0-0.2,0.1-0.3,0.1c1.5,1.3,1.8,3.7,1.8,5.9c6.9,0,14.1,0.7,21.1-1.1
						C544.9,439.4,540.4,439.9,550.6,418.1z"/>
				</g>
			</g>
		</g>
		<g>
			<g>
				<path class="st2" d="M562.8,224.9c-4.5,7.2-13.8,14.2-9.2,23.2c5.2,10.5,13.4,13.8,6.5,23.1c-6.6,8.9-8.6,23.3-11.3,33.8
					c-2,7.6-15.9,53.2-16,53.2c-0.5-0.9,2,0.7,2.4,1.6c0.3,0.7-0.2,1.6,0.1,2.4c0.2,0.5,0.8,0.8,1.3,1.1c6.1,3.1,13.7,5.6,20.6,5.9
					c8,0.3,15.6-1.4,23.7,0.2c3.6,0.7,7.3,1.9,11,1.7c4-0.2,7.8-2.1,11.8-2.6c2-0.3,4-0.2,5.9-0.9c2.7-1,5.2-3.4,8-2.6
					c-0.8-0.2-8.3-53.7-9-60.6c-0.6-6.3-2-11.2-3.6-17.1c-1.1-4.1-4.2-6.1-5.9-9.9c-2-4.5-0.2-12.5,0.2-17c1.5-11,3.2-22,5.2-32.8
					c0.8-4.2,2.2-7-1.5-9.8c-3.8-2.5-8.2-3.8-12.8-4c-4-0.2-17.5-2.2-20,1.5L562.8,224.9z"/>
			</g>
			<g>
				<g>
					<path class="st31" d="M580.1,279.2c2.4,0.6,4.7,1.5,7,2.1c1.2,0.3,2.3,0.5,3.5,0.5c1.2,0,2.3-0.2,3.5-0.7
						c-0.9,0.9-2.2,1.4-3.4,1.5c-1.3,0.1-2.6,0-3.8-0.3C584.5,281.6,582.2,280.5,580.1,279.2z"/>
				</g>
				<g>
					<path class="st31" d="M587.1,276.4c0.9-0.5,1.6-1,2.3-1.5c0.7-0.5,1.4-1.2,2.3-1.7c-0.3,1-0.9,1.8-1.7,2.5
						c-0.4,0.3-0.9,0.6-1.4,0.7C588.2,276.5,587.7,276.5,587.1,276.4z"/>
				</g>
				<g>
					<path class="st31" d="M558.4,287.3c-0.9,5.6-2.2,11.2-3.5,16.8c-1.3,5.6-2.7,11.1-4.1,16.7c-1.5,5.5-2.9,11.1-4.5,16.6
						c-1.6,5.5-3.2,11-5.1,16.4c0.7-2.8,1.5-5.5,2.2-8.3l2.2-8.3l4.3-16.6l4.3-16.6l2.1-8.3C557,292.9,557.7,290.1,558.4,287.3z"/>
				</g>
				<g>
					<path class="st31" d="M585.6,320.2c0.1,4,0.1,7.9,0,11.9c0,4-0.2,7.9-0.2,11.9c-0.2,4-0.3,7.9-0.5,11.9c-0.3,3.9,0,8-1.1,11.8
						c0.4-2,0.4-3.9,0.4-5.9c0-2-0.1-4,0-6c0-4,0.2-7.9,0.2-11.9c0.2-4,0.3-7.9,0.5-11.9C585.1,328.1,585.3,324.1,585.6,320.2z"/>
				</g>
				<g>
					<path class="st31" d="M601.7,320.2c0.8,3.6,1.5,7.2,2.3,10.8c0.7,3.6,1.3,7.2,1.9,10.9c0.6,3.6,1.1,7.3,1.5,11
						c0.2,1.8,0.4,3.7,0.6,5.5c0.1,1.8,0.3,3.7,0.4,5.5l-1.7-10.9l-1.7-10.9c-0.6-3.6-1.2-7.3-1.7-10.9
						C602.7,327.5,602.1,323.8,601.7,320.2z"/>
				</g>
				<g>
					<path class="st31" d="M574.4,252.7c0.2,0,0.5,0.1,0.7,0.1c0.2,0,0.4,0,0.6-0.1l-0.2,0.3c0-1.1,0.1-2.2,0.3-3.3
						c0.2-1.1,0.5-2.2,1.1-3.2c0,1.2,0,2.3-0.2,3.4c-0.1,1.1-0.3,2.2-0.6,3.3l-0.1,0.2l-0.2,0c-0.3,0-0.6,0-0.8-0.1
						C574.8,253,574.6,252.9,574.4,252.7z"/>
				</g>
			</g>
		</g>
		<g>
			<g>
				<path class="st30" d="M575.5,207.1c-0.8-2.8-1.6-5.7-2.3-8.4c-1.8,0.1-3.7,0.6-5.5,0.8c-2.2,0.2-2.1-2.1-3.4-5.8
					c0,0-1.4-0.1-2.3-0.1c0,0,0.6-2.1,0.5-3.3c-0.1-1.4-1.2-2.5-1.7-4c-1.6-3.9,0.4-3.1,3.4-3.9c1.8-0.5,1.6-0.6,1.4-2.4
					c-0.1-1.3-0.2-2.7-0.4-4c-0.1-2.8,0.2-5.5,1.6-8c3.9-6.7,13.5-7.1,19.6-4.1c8,3.6,11.1,9.8,11.6,18.2c0.5,6.6-4.9,9.2-9.4,12.7
					c-1.3,1-1.2,0.7-0.6,2.7c0.5,1.3,1,2.5,1.3,3.7c0.6,1.7,1.2,4,2,5.2L575.5,207.1z"/>
			</g>
			<g>
				<path class="st2" d="M573.7,214.3c0-2.8-1.1-5.5-1.4-8.2l0,0c4.1-0.6,9.4-1.6,13.5-1.4c0.5,3.4,1.6,7.9,1.9,10.8L573.7,214.3z"
					/>
			</g>
			<g>
				<g>
					<path class="st32" d="M571.5,183c-2-2.3,0.2-5.5,1.5-7.5c-3.2-1-7.3-5.2-8.5-8.3c-1.8-5,2.2-7,6.5-8.2c4.2-1.2,8.5-1,12.8-1.2
						c3.8-0.2,7.8-0.7,11.5,0.5c8.2,2.8,12.8,7.3,13.2,16.5c0.2,6.8-0.3,13.4,2.4,19.8c2.6,5.9,7.1,11.7,6.4,18.5
						c-0.3,2.9-1.5,5.7-1.2,8.6c0.4,3,2.3,5.4,3.9,8c1.6,2.5,2.8,5.7,1.6,8.5c-0.5,1.2-1.5,2.2-1.9,3.4c-0.4,1.2-0.2,2.5-0.1,3.8
						c0.2,4.5-1.5,9-4.7,12.1c-0.1-0.3-0.2-0.8-0.4-1.2c-3,1.6-7.4,3.9-10.2,6c-0.6-1.1-1.5-1.8-2.8-2.1c-1.2-0.2-2.5,0-3.7-0.1
						c-2.5-0.1-5-1.2-6.5-3.2c-1.3-1.7-1.8-4.1-3.7-5.1c-1.8-1-4.3-0.4-5.9-1.7c-2.6-2.1-0.4-6.5-1.7-9.6c-0.7-1.5-2.2-2.5-3.3-3.8
						c-3.6-4.2-0.9-8.9-0.1-13.5c1.1-6.2,1.8-12.8,1.8-19.1c0-3.7,0.3-7.2,0.2-10.7c-0.2-3.2-0.8-6.7-0.7-9.7L571.5,183z"/>
				</g>
				<g>
					<g>
						<path class="st33" d="M570.8,164.5c0.1,0.8,0.2,1.5,0.6,2.1c0.3,0.6,0.8,1.1,1.3,1.6c0.5,0.5,1.1,1,1.7,1.5
							c0.6,0.5,1.1,1.1,1.6,1.7c-1.4-0.7-2.8-1.4-3.9-2.5c-0.6-0.6-1.1-1.2-1.3-2.1C570.4,166.1,570.5,165.2,570.8,164.5z"/>
					</g>
					<g>
						<path class="st33" d="M585.3,189.7c0,2.9,0.6,5.7,1,8.6c0.2,1.4,0.3,2.9,0.2,4.4c-0.1,1.5-0.4,2.9-0.8,4.3
							c-0.8,2.8-2,5.5-2.7,8.2c-0.4,1.4-0.6,2.8-0.5,4.1c0.1,1.4,0.6,2.7,1.3,3.9c0.6,1.3,1.4,2.6,1.8,4c0.2,0.7,0.4,1.4,0.5,2.2
							c0.1,0.7,0.2,1.5,0,2.3c-0.4,3-1.6,5.6-2.1,8.4c-0.2,1.4-0.3,2.9,0.8,3.7c1,0.9,2.4,1.4,3.6,2.3c0.6,0.4,1.1,1,1.5,1.6
							c0.4,0.6,0.6,1.4,0.7,2.1c0.1,0.7,0.1,1.4,0.3,2.1c0.2,0.7,0.5,1.4,0.9,1.9c-0.5-0.5-0.8-1.2-1-1.9s-0.3-1.4-0.4-2.1
							c-0.2-1.4-1-2.7-2.2-3.4c-1.2-0.8-2.6-1.2-3.8-2.2c-0.6-0.5-1-1.3-1.1-2c-0.1-0.8-0.1-1.5,0-2.3c0.4-2.9,1.6-5.6,2-8.4
							c0.2-1.3-0.1-2.8-0.5-4.1c-0.4-1.3-1.1-2.6-1.8-3.8c-0.7-1.3-1.2-2.8-1.3-4.3c-0.1-1.5,0.2-3,0.6-4.4c0.8-2.8,2-5.5,2.8-8.2
							c0.4-1.4,0.8-2.8,0.9-4.2c0.1-1.4,0.1-2.8,0-4.3C585.6,195.5,585.1,192.6,585.3,189.7z"/>
					</g>
					<g>
						<path class="st33" d="M594.1,165c1.7,3.1,3.3,6.3,4.3,9.7c1,3.4,1.3,7,1.2,10.6c0,0.9-0.1,1.8-0.1,2.7
							c-0.1,0.9-0.2,1.8-0.4,2.7c-0.3,1.7-0.7,3.5-0.9,5.2c-0.2,1.7-0.1,3.4,0.6,5c0.6,1.6,1.7,3,2.5,4.6c1.5,3.3,2.4,6.8,2.6,10.4
							c0,0.9,0.1,1.8,0,2.7c-0.1,0.9-0.3,1.8-0.5,2.7c-0.4,1.7-1,3.4-1.3,5.1c-0.3,1.7-0.3,3.5,0.5,4.9c0.4,0.7,1,1.4,1.4,2.2
							c0.5,0.8,0.8,1.6,1.1,2.5c0.4,1.8,0.3,3.6,0.2,5.3c-0.1,1.8-0.4,3.5-0.4,5.3c0-1.8,0.1-3.5,0.2-5.3c0-1.8,0.1-3.5-0.4-5.2
							c-0.2-0.8-0.6-1.6-1.1-2.3c-0.5-0.7-1-1.4-1.5-2.2c-1-1.6-1-3.6-0.7-5.4c0.3-1.8,0.9-3.5,1.3-5.2c0.2-0.8,0.4-1.7,0.4-2.5
							c0.1-0.8,0-1.7,0-2.6c-0.3-3.5-1.1-6.9-2.6-10c-0.8-1.5-1.8-3-2.5-4.7c-0.7-1.7-0.8-3.7-0.6-5.4c0.2-1.8,0.6-3.5,0.9-5.3
							c0.4-1.7,0.5-3.4,0.6-5.2c0.2-3.5,0-7-0.9-10.4C597.1,171.4,595.7,168.2,594.1,165z"/>
					</g>
					<g>
						<path class="st33" d="M608.1,199.5c0,2.5,0.9,4.8,1.9,7.1c0.5,1.1,1,2.3,1.3,3.6c0.3,1.2,0.5,2.6,0.4,3.9
							c-0.1,1.3-0.4,2.6-0.6,3.7c-0.2,1.2-0.1,2.3,0.3,3.4c0.4,1.1,1,2.2,1.5,3.4c0.4,1.2,0.5,2.5,0.2,3.8c0-0.6,0-1.2-0.1-1.9
							c-0.1-0.6-0.3-1.2-0.6-1.7c-0.5-1.1-1.2-2.1-1.7-3.3c-0.6-1.1-0.8-2.6-0.6-3.9c0.2-1.3,0.5-2.4,0.6-3.7
							c0.2-2.4-0.6-4.7-1.5-7.1c-0.4-1.2-0.9-2.4-1.1-3.6C608,202,607.9,200.7,608.1,199.5z"/>
					</g>
					<g>
						<path class="st33" d="M611.8,238.1c0.4,1.9,0.8,3.7,0.9,5.6c0.1,0.9,0.1,1.9-0.1,2.9c-0.1,1-0.4,1.9-0.9,2.7
							c0.2-1.9,0.1-3.7-0.1-5.5C611.7,242,611.5,240,611.8,238.1z"/>
					</g>
					<g>
						<path class="st33" d="M593.7,217.6c0.1,1.5,0,2.9-0.2,4.4c-0.2,1.5-0.4,2.9-0.5,4.3c-0.1,1.4-0.1,2.9,0.1,4.2
							c0.3,1.4,0.9,2.6,1.7,3.9c0.3,0.7,0.7,1.3,0.9,2.1c0.3,0.7,0.4,1.5,0.4,2.3c0,1.5-0.2,2.9-0.2,4.4c-0.1,1.4,0,2.9,0.4,4.2
							c0.3,1.4,1.1,2.6,2.1,3.7c-1.1-0.9-2-2.2-2.5-3.6c-0.5-1.4-0.6-2.9-0.7-4.4c-0.1-1.5,0.1-3,0.1-4.4c0-1.4-0.6-2.6-1.3-3.9
							c-0.7-1.2-1.5-2.7-1.7-4.2c-0.3-1.5-0.2-3,0-4.5C592.6,223.3,593.5,220.6,593.7,217.6z"/>
					</g>
					<g>
						<path class="st33" d="M588.5,217.2c0.2,1.4,0.1,2.8,0.2,4.1c0,0.7,0.1,1.3,0.3,1.9c0.2,0.6,0.5,1.2,0.8,1.9
							c-0.7-0.3-1.2-0.9-1.6-1.5c-0.4-0.7-0.5-1.4-0.6-2.2C587.7,219.9,588,218.5,588.5,217.2z"/>
					</g>
					<g>
						<path class="st33" d="M604.4,180.4c0.4,1.6,0.5,3.1,0.5,4.7c0,1.6-0.1,3.1-0.5,4.7c-0.4-1.6-0.5-3.1-0.5-4.7
							C603.9,183.5,604,181.9,604.4,180.4z"/>
					</g>
					<g>
						<path class="st33" d="M583.4,165.4c1.9,0.8,3.4,2.2,4.6,3.9c1.2,1.7,1.9,3.6,2.5,5.6c1.1,3.9,1.3,8,0.9,12
							c-0.2-2-0.4-4-0.7-5.9c-0.3-2-0.6-3.9-1.2-5.8c-0.5-1.9-1.2-3.7-2.2-5.4C586.4,168.1,585.1,166.6,583.4,165.4z"/>
					</g>
					<g>
						<path class="st33" d="M592.7,197.1c0.8,1.6,1,3.4,1.1,5.1c0.1,1.7,0,3.4-0.1,5.2c-0.6-1.7-0.8-3.4-0.9-5.1
							C592.7,200.6,592.7,198.9,592.7,197.1z"/>
					</g>
				</g>
			</g>
			<g>
				<path class="st30" d="M572.2,184.2c0-3.5,2.2-9.5,6.7-6.8c4.7,2.7,0.8,12.3-3.7,10.8"/>
			</g>
			<g>
				<g>
					<path class="st34" d="M562.1,193.6c0.6,0,1.2-0.1,1.7-0.3c0.5-0.1,1.1-0.3,1.6-0.5c0.5-0.2,1-0.5,1.4-0.8
						c0.4-0.3,0.8-0.7,1.2-1.2c0,0.6-0.2,1.3-0.7,1.8c-0.4,0.5-1,0.9-1.6,1.1c-0.6,0.2-1.2,0.4-1.9,0.4
						C563.3,194.1,562.6,193.9,562.1,193.6z"/>
				</g>
				<g>
					<path class="st15" d="M566.9,179.9c-0.2,0.4-0.2,1-0.2,1.4c0,0.6,0.2,1.3,0.7,1c0.5-0.2,0.5-1.1,0.4-1.7
						c-0.1-0.4-0.1-0.9-0.4-1.1c-0.2-0.1-0.3-0.1-0.5,0.1C567,179.8,567,179.9,566.9,179.9z"/>
				</g>
				<g>
					<path class="st33" d="M566.6,173.7c0.9,0,1.6,0.5,2.1,1.1c0.5,0.6,0.8,1.4,0.8,2.3c-0.7-0.5-1.1-1.1-1.6-1.6
						C567.6,174.9,567.1,174.4,566.6,173.7z"/>
				</g>
			</g>
		</g>
		<g>
			<g>
				<g>
					<g>
						<path class="st30" d="M540.8,240.5c-1.5-1.5-3.5-1.2-3.5,1.5c-1.3-2.3-3.3-0.7-3.3,1.3c-7.5-4.5-2,14.7,2.3,11.5
							c0.7,4.5,2,6.8,6.8,6.5c3.7-0.2,6.8-1.5,6.5-5.8c-0.5-7.2-4.2-14.8-6.2-21.8c-0.8-3.3-1.8-6.8-1.7-10.2
							c-4.8-1.3-2.2,12.5-1.5,14.8L540.8,240.5z"/>
					</g>
					<g>
						<path class="st34" d="M534.3,246.7c0.8,2,1.3,3.9,1.8,5.9c0.5,2,0.9,4,1.2,6.1c-1-1.8-1.7-3.8-2.2-5.8
							C534.6,250.8,534.3,248.8,534.3,246.7z"/>
					</g>
					<g>
						<path class="st34" d="M532.1,247.8c0.6,0.5,1,1,1.5,1.5c0.4,0.5,0.7,1,1.2,1.7c-0.4,0.1-0.8-0.1-1.1-0.3
							c-0.3-0.2-0.6-0.5-0.9-0.8c-0.2-0.3-0.4-0.6-0.5-1C532.2,248.6,532.1,248.2,532.1,247.8z"/>
					</g>
				</g>
				<g>
					<path class="st30" d="M560.2,246.9c0.4,4,0.8,8.1,0.9,12.1c-5.2,0-13.8-4-13.8-4l-4.2,4.2c0.2,2,24.4,18.8,27.2,17
						c1.1-0.7,2.1-13,3.3-24.6C569.6,248.8,563.5,245.9,560.2,246.9z"/>
				</g>
				<g>
					<path class="st2" d="M573,213.5c-3,0.2-7.2,0.5-10.2,1.3c-4.7,1.5-4.8,3.5-4.7,8c0.2,3.5,0.3,7.2,0.7,10.7
						c0.4,4.5,1,8.9,1.4,13.4c3.3-1,9.4,1.9,13.4,4.7c1.2-11.6,0.5-19.8,0.9-24.6C574.9,223.3,577.8,213.5,573,213.5z"/>
				</g>
			</g>
			<g>
				<g>
					<path class="st31" d="M558.2,233c0.3,2.4,0.8,4.8,1.2,7.1c0.4,2.4,0.7,4.9,0.2,7.3c-0.3-2.4-0.8-4.7-1.2-7.1
						C558.1,237.9,557.8,235.4,558.2,233z"/>
				</g>
				<g>
					<path class="st31" d="M560.1,243.7c1.4-0.2,2.8-0.2,4.3,0c1.4,0.2,2.8,0.6,4.2,1.1c2.7,1,5.1,2.5,7.4,4.1
						c-2.7-0.9-5.2-2.2-7.8-3.2C565.6,244.7,562.9,244.1,560.1,243.7z"/>
				</g>
				<g>
					<path class="st31" d="M572.7,213.9c0.9-0.2,1.8,0,2.5,0.4c0.8,0.4,1.4,1.1,1.7,1.9c-0.8-0.3-1.5-0.7-2.1-1.1
						C574.1,214.8,573.4,214.5,572.7,213.9z"/>
				</g>
			</g>
		</g>
	</g>
	<g>
		<g>
			<g>
				<g>
					<path class="st35" d="M276.8,251c0.3,3.5,0.5,6.2-0.3,9.7c-2.5-0.5-6.2-1.5-8.5-2.7c-3,3.5-5.2,3.3-9.7,3.7
						c-3.8,0.2-8.3,1.3-9.7-3c-1-2.8,2.6-8.4,1.1-9.9c-2.5-2.3-10.3-1.3-12.3-4.5c-2.8-4.2,4-2.2,5.8-1.7c3.2,0.8,6.3,1.5,9.7,2.3
						c5.7,1.3,10.7,4.5,16.2,5.3L276.8,251z"/>
				</g>
				<g>
					<path class="st35" d="M255.2,259.5c3.3,7.8-12.7,0.8-7.2-2.3L255.2,259.5z"/>
					<path class="st36" d="M255.2,259.5c0.3,0.6,0.6,1.2,0.6,1.9c0,0.3,0,0.7-0.2,1.1c-0.2,0.4-0.5,0.6-0.8,0.7
						c-0.7,0.3-1.4,0.3-2.1,0.2c-0.7-0.1-1.3-0.3-2-0.5c-1.3-0.5-2.5-1.1-3.4-2.2c-0.5-0.5-0.9-1.2-0.9-2.1c0-0.4,0.3-0.8,0.5-1.1
						c0.3-0.3,0.6-0.5,0.9-0.7l0.2-0.1l0.2,0.1C250.6,257.6,253,258.5,255.2,259.5z M255.2,259.5c-2.6-0.6-5-1.2-7.3-1.9l0.4,0
						c-0.5,0.3-0.9,0.7-0.9,1.1c0,0.4,0.2,0.9,0.6,1.4c0.8,0.9,1.9,1.5,3,2c1.1,0.5,2.4,0.8,3.5,0.6c0.5-0.2,0.9-0.6,0.9-1.2
						C255.5,260.8,255.3,260.1,255.2,259.5z"/>
				</g>
				<g>
					<path class="st35" d="M256.2,255.3c0.5,2.5-0.3,4.2-3.2,4.2c-2.2,0-5.8-1.2-6.8-3c-1-1.7-0.8-4.8,1.8-4.3L256.2,255.3z"/>
					<path class="st36" d="M256.2,255.3c0.2,0.8,0.4,1.7,0.1,2.5c-0.1,0.4-0.4,0.8-0.7,1.1c-0.4,0.3-0.8,0.5-1.2,0.6
						c-0.9,0.2-1.8,0.2-2.6,0.1c-0.9-0.1-1.7-0.3-2.5-0.6c-0.8-0.3-1.6-0.7-2.3-1.2c-0.7-0.5-1.3-1.4-1.6-2.3
						c-0.2-0.9-0.3-1.9,0.2-2.8c0.2-0.5,0.6-0.9,1.1-1.1c0.5-0.2,1-0.1,1.5-0.1l0,0l0,0c1.4,0.6,2.7,1.2,4.1,1.8
						C253.6,254.1,254.9,254.7,256.2,255.3z M256.2,255.3c-1.5-0.4-2.9-0.9-4.2-1.4c-1.4-0.5-2.7-0.9-4.1-1.4l0.1,0
						c-0.4,0-0.7,0-1,0.1c-0.3,0.1-0.5,0.3-0.6,0.6c-0.3,0.6-0.3,1.4-0.1,2.1c0.3,1.5,1.8,2.3,3.3,2.9c0.7,0.3,1.5,0.5,2.3,0.7
						c0.8,0.2,1.6,0.2,2.4,0.1c0.8-0.1,1.4-0.6,1.7-1.3C256.3,257,256.3,256.2,256.2,255.3z"/>
				</g>
				<g>
					<path class="st35" d="M257.2,251.5c2,4.3-1.7,4.3-4.8,3.2c-2.3-0.8-6.8-1.5-6.8-4.5c0-3.3,4-2,6.2-1.5L257.2,251.5z"/>
					<path class="st36" d="M257.2,251.5l0.4,0.7c0.1,0.2,0.2,0.5,0.3,0.8c0.1,0.5,0.2,1.1-0.1,1.6c-0.3,0.5-0.9,0.8-1.4,0.9
						c-0.6,0.1-1.1,0.1-1.6,0.1c-1.1-0.1-2.1-0.4-3.1-0.7c-1-0.3-2-0.5-3-0.9c-1-0.4-2-0.9-2.8-1.8c-0.4-0.5-0.6-1.1-0.7-1.7
						c0-0.6,0-1.2,0.4-1.8c0.3-0.6,1-0.9,1.6-1c0.6-0.1,1.2-0.1,1.7,0c1.1,0.1,2.1,0.5,3.1,0.7l0.1,0l0,0c0.9,0.5,1.8,1,2.7,1.5
						C255.4,250.5,256.3,251,257.2,251.5z M257.2,251.5c-1-0.4-1.9-0.8-2.9-1.3c-0.9-0.4-1.9-0.9-2.8-1.3l0.1,0c-1-0.2-2-0.4-3-0.5
						c-1-0.1-2,0-2.3,0.7c-0.2,0.3-0.2,0.8-0.2,1.2c0,0.4,0.2,0.8,0.5,1.2c0.5,0.7,1.5,1.2,2.4,1.5c0.9,0.4,1.9,0.7,2.9,1
						c0.5,0.2,1,0.4,1.5,0.5c0.5,0.2,1,0.3,1.5,0.4c0.9,0.2,2.1,0.2,2.6-0.6c0.3-0.4,0.3-0.9,0.2-1.4c0-0.2-0.1-0.5-0.2-0.8
						L257.2,251.5z"/>
				</g>
				<g>
					<path class="st35" d="M263.5,255c-2.7-1.2-4-2.8-4.2-5.8l0,0c0,1.8-0.2,8.2-2.8,8.3c-3,0.2-2-8-1.5-9.7c1.3-5.2,4.3-5,7.8-1.5
						c2.3,2.3,4.8,5.7,4.2,8.8"/>
					<path class="st36" d="M263.5,255c-1.2-0.4-2.3-1.1-3.2-2.1c-0.8-1-1.2-2.4-1.3-3.7l0.6,0c0,1.7,0,3.5-0.4,5.2
						c-0.2,0.9-0.4,1.7-1,2.5c-0.3,0.4-0.7,0.8-1.2,0.9c-0.5,0.2-1.1,0.2-1.6-0.2c-0.5-0.3-0.7-0.8-0.9-1.2
						c-0.2-0.4-0.3-0.9-0.4-1.3c-0.1-0.9-0.2-1.8-0.2-2.6c0-0.9,0.1-1.7,0.2-2.6c0.1-0.9,0.3-1.8,0.5-2.6c0.3-0.8,0.6-1.7,1.2-2.5
						c0.3-0.4,0.6-0.7,1.1-1c0.4-0.2,0.9-0.4,1.4-0.4c1,0,1.9,0.4,2.6,0.9c0.7,0.5,1.4,1.1,2,1.7c1.2,1.3,2.3,2.6,3.1,4.1
						c0.8,1.5,1.3,3.3,0.9,5c0.3-1.7-0.4-3.4-1.2-4.8c-0.9-1.4-2-2.7-3.3-3.9c-0.6-0.6-1.3-1.1-2-1.5c-0.7-0.4-1.5-0.7-2.2-0.7
						c-0.7,0-1.4,0.4-1.8,1.1c-0.5,0.6-0.8,1.4-1,2.2c-0.5,1.6-0.6,3.3-0.7,4.9c0,0.8,0,1.7,0.1,2.5c0.1,0.8,0.4,1.6,0.9,2
						c0.2,0.2,0.5,0.2,0.8,0.1c0.3-0.1,0.6-0.3,0.8-0.6c0.4-0.6,0.7-1.4,0.9-2.2c0.4-1.6,0.5-3.3,0.6-5l0.6,0c0,1.2,0.3,2.5,1,3.5
						C261.3,253.7,262.4,254.4,263.5,255z"/>
				</g>
			</g>
			<g>
				<path class="st37" d="M275.5,248.2c0,5.7,0.7,11.5,0.3,17c3.8-1.5,5.2,0.3,8.5,0.7c3,0.3,7.2,0.8,10.2,0.2
					c2.3-0.5,2.2-0.3,2.3-2.7c0.2-2,0-4,0-5.8c0-3.3,0.5-7.3-0.2-10.7c-2.8,2.2-7.7,2.2-11.2,2.5L275.5,248.2z"/>
				<g>
					<path class="st38" d="M279.5,263.2c-0.4-1.7-0.5-3.3-0.5-5c0-1.7,0.1-3.3,0.5-5c0.4,1.7,0.5,3.3,0.5,5
						C280,259.8,279.9,261.5,279.5,263.2z"/>
				</g>
				<g>
					<path class="st38" d="M281.5,252.7c0.3,1.9,0.6,3.7,1.1,5.5c0.5,1.8,1,3.6,1.9,5.1l-0.8-0.1c0.5-0.7,0.9-1.7,1.1-2.8
						c0.2-1,0.3-2.1,0.4-3.1l0.3-3.2c0.1-1.1,0.2-2.2,0.4-3.2c0,1.1,0.1,2.2,0.1,3.2c0,1.1,0.1,2.2,0,3.3c0,1.1-0.1,2.2-0.3,3.3
						c-0.2,1.1-0.5,2.2-1.3,3.2l-0.4,0.6l-0.4-0.6c-1-1.7-1.4-3.6-1.7-5.5c-0.2-0.9-0.2-1.9-0.3-2.8
						C281.5,254.5,281.5,253.6,281.5,252.7z"/>
				</g>
			</g>
		</g>
		<g>
			<path class="st35" d="M300.5,194.2c3.6-1.5,7-4.5,10.4-6.6c2.2-1.5,5-3.8,7.9-3.5c3.1,0.4,5.8,2.7,8.6,4c2.2,1,5.4,1.5,4.8,4.5
				c-0.8,3.6-5.1,7.4-7.2,10.2c-4.2,5.8-12.1,12-19.9,9.5L300.5,194.2z"/>
		</g>
		<g>
			<g>
				<path class="st35" d="M307.6,192.5c-1.4-3.9-8.1-13.9-8.2-15c0-1.1,1.5-2.4,2.5-3.2c2.4-2,3.3-4.9,5.6-6.7
					c3.9,3.1,12.1,14.6,21,22L307.6,192.5z"/>
			</g>
			<g>
				<path class="st39" d="M302.3,182.8l3.7-2.7c0,0,0.5,4.9-1.2,6.9L302.3,182.8z"/>
			</g>
			<g>
				<path class="st35" d="M307.3,169.3c0.1,1.2,0.2,2.5,0.4,3.8c0.2,1.8,0.8,4.4-0.2,5.9c-1.7,2.2-10.9,7.5-13,8
					c-1.2,0.3-4.1-2.1-5.4-3.5c0,0,2.1-2.8,2.7-3.5c0.6-0.9,1.5-2.1,1.8-3.1c-0.1,0.2-6.7,2.8-8,3.2c-0.4-1.8-0.1-3.3-1.9-4.3
					c-2.2-1.2-4.4-1.4-4.8-4.4c-0.1-0.4-0.1-0.8,0.2-1c0.2-0.3,0.7-0.4,1-0.5c3.4-0.9,3.2-4.3,2.4-6.9c-0.9-3.1-1.2-6.5-0.5-9.6
					c1.2-5.3,6.9-7.5,11.7-8.6c4.5-1,10.7-2.1,14.9,0c4.3,2.1,5.1,6.9,4.6,11.2c-0.2,1.5-0.4,2.9-0.9,4.4c-0.4,1.2-0.8,3.6-1.8,4.3
					L307.3,169.3z"/>
			</g>
			<g>
				<g>
					<path class="st40" d="M284.2,157.8c0.4-0.6,1.1-0.9,1.8-1c0.7-0.2,1.4-0.1,2.1,0c0.7,0.1,1.4,0.4,2,0.7
						c0.6,0.4,1.2,0.9,1.5,1.5c-0.6-0.3-1.2-0.6-1.8-0.8c-0.6-0.2-1.2-0.4-1.8-0.5c-0.6-0.1-1.2-0.2-1.9-0.2
						C285.5,157.5,284.9,157.5,284.2,157.8z"/>
				</g>
				<g>
					<path class="st15" d="M287.7,163.8c-0.9,0.3,0,2.6,0.4,3c0.3,0.3,0.8,0.2,0.9-0.1c0.1-0.3,0.1-0.9,0-1.3
						c-0.1-0.6-0.4-1.6-1.1-1.6C287.8,163.8,287.8,163.8,287.7,163.8z"/>
				</g>
			</g>
			<g>
				<g>
					<path class="st41" d="M310,165.8c0.1-0.4,0.2-0.7,0.4-1.1c0.7-1.4,1.9-1.6,1.4-3.5c-0.3-1.1-1-2.2-2.1-2.6s-2.5-0.1-3,0.9
						c-0.7,1.3,0.1,3.1-0.6,4.4c-0.9,0.5-2,0.1-2.7-0.5c-0.7-0.7-1.1-1.6-1.5-2.5c-1.1-2.7-2.2-5.3-3.3-8c-0.3,0.8-1.2,1.4-2,1.3
						s-1.7-0.7-1.9-1.5c-0.1-0.3-0.2-0.8-0.5-0.8c-0.2,0-0.3,0.1-0.4,0.3c-0.8,0.8-1.7,1.9-2.9,1.9c-1.4,0-2.1-1.5-1.8-2.7
						c-3.8,0.8-7.9,5.5-12,1.9c-0.8-0.7-1.2-2-0.8-3.1c-1.2,0.4-2.3-1-2.1-2.2c0.2-1.2,1.2-2.1,2.2-2.9c-1.3-0.5-3.1,0.5-3.9-0.6
						c-0.6-0.9,0.4-2.1,1.4-2.4c1-0.3,2.2-0.3,3.1-0.9c1.4-1,1.4-3.4,2.9-4.3c1.8-1.2,4.4,0.6,6.4-0.4c-0.7-0.5-0.4-1.7,0.3-2.1
						c0.7-0.4,1.7-0.2,2.4,0.2c0.7,0.4,1.4,1,2.1,1.4c1.2,0.6,2.6,0.7,3.9,0.8c5.2,0.3,15.3-1,17.6,5.5c1.6-0.4,3.3,0.4,4.4,1.6
						s2.6,3.1,3,4.7c0.9,3.5,0.6,7.3,0,10.9c-0.5,3.1-2,6-2.5,9.1c-0.6,3.4-0.3,6.8,0,10.1c-0.1-0.7-3.5-3.6-4.1-4.4
						c-1-1.4-1.7-2.2-3.2-3.3c-0.2-0.1-0.3-0.2-0.4-0.4c-0.2-0.3-0.2-0.7-0.1-1.1C309.5,168.1,309.6,167,310,165.8z"/>
				</g>
				<g>
					<g>
						<path class="st40" d="M279.6,143.5c0.5,0.2,0.9,0.4,1.4,0.4c0.5,0,0.9-0.2,1.3-0.5c0.7-0.6,1.2-1.5,2.2-2.2
							c0.4-0.3,1-0.6,1.7-0.5c0.6,0,1.2,0.3,1.6,0.5c0.5,0.2,0.9,0.5,1.3,0.6c0.4,0.1,0.8,0,1.1-0.1c0.3-0.2,0.4-0.6,0.7-1.1
							c0.1-0.3,0.5-0.6,0.8-0.7c0.3-0.1,0.5-0.2,0.9-0.2c0.7-0.1,1.3,0.3,1.7,0.5c0.4,0.2,0.8,0.4,1.3,0.6c0.9,0.3,1.9,0.4,2.8,0.1
							c0.9-0.3,1.9-0.7,2.8-1c-0.9,0.5-1.7,1.1-2.7,1.5c-1,0.4-2.2,0.4-3.2,0.2c-0.5-0.1-1-0.3-1.5-0.5c-0.5-0.2-0.8-0.4-1.2-0.3
							c-0.2,0-0.4,0.1-0.6,0.2c-0.2,0.1-0.2,0.1-0.3,0.3c-0.2,0.3-0.4,0.9-0.9,1.4c-0.6,0.4-1.3,0.4-1.9,0.3
							c-0.6-0.1-1.1-0.4-1.5-0.7c-0.4-0.2-0.8-0.5-1.2-0.5c-0.4,0-0.8,0.1-1.2,0.3c-0.8,0.5-1.4,1.3-2.3,1.9c-0.5,0.3-1,0.5-1.6,0.4
							C280.4,144.1,280,143.9,279.6,143.5z"/>
					</g>
					<g>
						<path class="st40" d="M290.3,148.9c0.4-0.3,0.7-0.6,0.9-1c0.2-0.4,0.3-0.8,0.4-1.2c0.1-0.4,0.4-0.9,0.8-1.3
							c0.4-0.4,0.9-0.6,1.4-0.7c1-0.3,1.9-0.2,2.7-0.3c0.8-0.1,1.4-0.7,1.9-1.5c-0.1,0.5-0.2,0.9-0.5,1.3c-0.3,0.4-0.7,0.7-1.2,0.9
							c-1,0.3-1.9,0.3-2.7,0.6c-0.8,0.2-1.4,0.6-1.7,1.4c-0.2,0.4-0.4,0.8-0.8,1.2C291.2,148.6,290.7,148.8,290.3,148.9z"/>
					</g>
					<g>
						<path class="st40" d="M313.4,144.2c0.8,0.4,1.5,0.9,2.1,1.5c0.6,0.6,1.2,1.2,1.7,2c0.5,0.8,0.8,1.6,0.9,2.5
							c0.1,0.9,0,1.8-0.3,2.6c-0.1-0.9-0.3-1.7-0.5-2.4c-0.2-0.8-0.5-1.5-1-2.2C315.5,146.9,314.3,145.7,313.4,144.2z"/>
					</g>
					<g>
						<path class="st40" d="M305.2,157.5c-0.1-0.7-0.4-1.1-0.8-1.6c-0.2-0.3-0.4-0.6-0.5-1c-0.1-0.4-0.1-0.8,0-1.1
							c0.1-0.7,0.5-1.3,0.5-1.7c0-0.4-0.4-1-0.8-1.5c0.3,0.1,0.6,0.2,0.9,0.5c0.3,0.2,0.6,0.5,0.7,1c0.1,0.9-0.3,1.5-0.3,2
							c-0.1,0.6-0.1,0.9,0.2,1.6C305.3,156.1,305.6,156.9,305.2,157.5z"/>
					</g>
					<g>
						<path class="st40" d="M297.3,149.8c0.4,0,0.8-0.2,1.1-0.4c0.3-0.2,0.5-0.5,0.7-0.8c0.3-0.7,0.2-1.5-0.1-2.1l-0.3-0.6l0.7,0
							c1,0,2.1,0,2.7-0.6c0.6-0.5,0.8-1.6,1-2.6c0.1-0.5,0.2-1.1,0.5-1.6c0.3-0.5,0.8-1.1,1.4-1.2c0.6-0.2,1.1-0.1,1.7-0.1
							c0.5,0.1,1.1,0.1,1.6,0.2c-1,0.2-2.2,0.1-3.1,0.5c-0.8,0.3-1,1.4-1.1,2.4c-0.1,0.5-0.1,1.1-0.3,1.6c-0.2,0.5-0.4,1.2-1,1.6
							c-0.5,0.4-1.1,0.6-1.7,0.7c-0.6,0.1-1.1,0-1.7,0l0.4-0.6c0.3,0.9,0.3,1.9-0.2,2.7c-0.2,0.4-0.6,0.7-1,0.9
							C298.1,149.9,297.7,149.9,297.3,149.8z"/>
					</g>
					<g>
						<path class="st40" d="M277.9,149.6c0.4,0.1,0.8,0.1,1.2,0c0.3-0.1,0.5-0.4,0.6-0.7c0.3-0.7,0.4-1.5,0.8-2.3l0.1-0.3l0.3,0
							c0.6,0.1,1.1,0.3,1.6,0.5c0.5,0.2,1,0.4,1.4,0.5c0.5,0.1,0.9,0.2,1.1-0.1c0.3-0.3,0.3-0.9,0.4-1.4c0.1,0.5,0.3,1.1,0,1.7
							c-0.1,0.3-0.5,0.5-0.8,0.6c-0.3,0.1-0.6,0-0.9,0c-0.6-0.1-1.1-0.2-1.6-0.4c-0.5-0.2-1-0.3-1.4-0.4l0.5-0.2
							c-0.4,0.6-0.6,1.4-1.1,2.2c-0.2,0.4-0.7,0.8-1.2,0.8C278.7,150.1,278.3,149.8,277.9,149.6z"/>
					</g>
					<g>
						<path class="st40" d="M284.9,137.7c0.5-0.1,1.1-0.1,1.6-0.1c0.5,0,1-0.1,1.3-0.3c0.3-0.3,0.6-0.7,1.1-1.1
							c0.6-0.4,1.3-0.4,1.9-0.2c0.6,0.2,1.1,0.5,1.5,1c0.4,0.5,0.5,1,0.8,1.2c0.2,0.2,0.7,0.2,1.2,0.2c0.3,0,0.5-0.1,0.8,0
							c0.3,0,0.6,0.2,0.7,0.4c-0.9-0.6-1.8,0.8-3.2,0.1c-0.6-0.4-0.8-0.9-1.1-1.2c-0.3-0.3-0.6-0.5-1-0.6c-0.4-0.1-0.8-0.1-1.1,0.1
							c-0.3,0.2-0.6,0.6-1.2,0.9c-0.6,0.4-1.2,0.3-1.7,0.2C285.9,138,285.4,137.8,284.9,137.7z"/>
					</g>
					<g>
						<path class="st40" d="M311.7,145.4c0.9,0.5,1.5,1.3,2,2.1c0.5,0.9,0.8,1.8,1.1,2.8c0.2,1,0.4,1.9,0.4,2.9c0,1-0.1,2-0.5,2.9
							c0-1-0.2-1.9-0.3-2.8c-0.2-0.9-0.3-1.8-0.6-2.7c-0.2-0.9-0.5-1.8-0.8-2.7C312.7,147,312.3,146.2,311.7,145.4z"/>
					</g>
					<g>
						<path class="st40" d="M309.4,143.8c-0.2,1.4-0.2,2.7-0.2,4c0,1.3,0,2.8-0.5,4.1c-0.3-1.4-0.5-2.7-0.5-4.1
							C308.2,146.4,308.5,144.9,309.4,143.8z"/>
					</g>
					<g>
						<path class="st40" d="M281.7,151c0.6-0.1,1.1,0,1.4-0.1c0.4,0,0.7,0,1.3-0.2c0,0.3-0.2,0.6-0.4,0.8c-0.2,0.2-0.6,0.3-0.9,0.3
							C282.5,151.9,281.9,151.6,281.7,151z"/>
					</g>
					<g>
						<path class="st40" d="M281,140.5c0.2-0.8,0.9-1.5,1.7-1.7c0.4-0.1,0.9-0.1,1.3,0c0.4,0.1,0.8,0.4,1,0.8c-0.8,0-1.4,0-2,0.2
							C282.3,139.9,281.7,140.2,281,140.5z"/>
					</g>
					<g>
						<path class="st40" d="M306.6,144c0,0.7,0.1,1.2,0,1.9c-0.1,0.6-0.1,1.2-0.5,1.9c-0.4-0.6-0.5-1.3-0.5-1.9c0-0.3,0.1-0.7,0.2-1
							C306,144.5,306.2,144.2,306.6,144z"/>
					</g>
					<g>
						<path class="st40" d="M301.9,137.7c0.6-0.3,1.2-0.4,1.7-0.3c0.6,0.1,1.2,0.4,1.5,1c-0.7,0.1-1.1,0.1-1.7,0
							C303,138.3,302.5,138.2,301.9,137.7z"/>
					</g>
					<g>
						<path class="st40" d="M313.4,170.8c0.3,0.3,0.4,0.5,0.5,0.8c0,0.2,0,0.4-0.2,0.9c-0.5-0.1-0.7-0.4-0.8-0.7
							C312.8,171.4,312.9,171,313.4,170.8z"/>
					</g>
					<g>
						<path class="st40" d="M311.7,152.2c0.4,0.6,0.5,1.2,0.5,1.7c0,0.6,0,1.1-0.3,1.8c-0.5-0.5-0.7-1.1-0.7-1.7
							C311.2,153.3,311.3,152.7,311.7,152.2z"/>
					</g>
				</g>
			</g>
			<g>
				<path class="st35" d="M305.7,159.2c2.9-2.7,8.3-1.6,8.8,2.8c0.5,4.8-2.8,7.6-7.2,7.6"/>
			</g>
		</g>
		<g>
			<g>
				<path class="st42" d="M303.1,441c4.2-0.2,7-1.4,11-1.6c2.9-0.3,5.4,0.5,7.8,0.3c0-1.2,0.1-2.5-0.1-3.8
					c-0.2-3.5-0.8-8.5-0.5-11.5l-15-2c-2,4.2-5.5,6.2-10,8c-3.5,1-7,0.5-9.5,3c-1.8,1.8-2.5,4.5-2.7,7.1
					C289.7,441.7,298.6,441.3,303.1,441z"/>
			</g>
			<g>
				<path class="st43" d="M314.1,439.4c-4,0.2-6.8,1.4-11,1.6c-4.4,0.2-13.3,0.7-19-0.5c-0.1,1.1-0.1,2.2,0,3.2
					c5,0.5,9.5,0.8,14.5,1c5.5,0.3,10-1,15.2-1.8c1.8-0.2,6.4,0.4,7.9-0.6c0,0,0.1-1.1,0.2-2.6C319.5,439.9,316.9,439.1,314.1,439.4
					z"/>
			</g>
			<g>
				<g>
					<path class="st2" d="M320.5,450.7c4.6-0.3,7.6-1.5,12-1.8c3.1-0.3,5.9,0.5,8.5,0.3c0.1-1.3,0.1-2.8-0.1-4.1
						c-0.3-3.8-0.8-9.3-0.5-12.5l-16.3-2.2c-2.2,4.6-6,6.8-10.9,8.7c-3.8,1.1-7.6,0.5-10.4,3.3c-1.9,1.9-2.7,4.9-3,7.7
						C306,451.5,315.7,450.9,320.5,450.7z"/>
				</g>
				<g>
					<path class="st44" d="M332.5,448.9c-4.4,0.3-7.4,1.5-12,1.8c-4.8,0.2-14.5,0.7-20.7-0.6c-0.1,1.2-0.1,2.4,0,3.4
						c5.4,0.5,10.4,0.8,15.8,1.1c6,0.3,10.9-1.1,16.6-1.9c1.9-0.3,6.9,0.4,8.6-0.7c0,0,0.1-1.2,0.2-2.9
						C338.4,449.5,335.6,448.6,332.5,448.9z"/>
				</g>
			</g>
			<g>
				<g>
					<path class="st45" d="M324.8,426.5c-1.1,0.5-2.4,0.6-3.7,0.7c-6,0.4-12.4,0.8-17.5-2.5c0.3-1,0.9-1.8,1.8-2.3
						c-1-0.4-0.9-1.9-0.2-2.8c0.7-0.9,1.7-1.6,1.9-2.6c0.3-1.3-0.8-2.5-1.4-3.8c-1.1-2.2-0.7-4.8-0.4-7.3c0.6-7.1-1.8-13.3-2.7-20.1
						c-0.6-4.9-1.2-9.7-1.8-14.6c-1.9-16-3.7-32.1-5.4-48.2c-1.1-10.4-3.5-30.7-3.5-41.1c8.2-0.5,17.7-6.3,25.2-6.3
						c0.5,0,3.4,58.3,3.6,60.9c1.2,16.8,2.3,33.5,3.5,50.3c0.5,7.3,1,14.7,1.5,22C325.8,412.6,328.4,424.8,324.8,426.5z"/>
				</g>
				<g>
					<path class="st45" d="M306.3,280.3c5.3-1.8,10.8-2.6,16.4-2.6c2.2,0,5.3,1,7.3,0.6c2.3-0.4-0.8-4.7,1.5-5.3
						c19.9-5.5,12.3,34.1,11.5,41.9c-2,20.1-0.3,110.5-1.9,109.9c-1.5,1.5,2.1,3.4,1.9,5.5c-0.1,1.5-2.1,2.3-2.5,3.8
						c-0.3,1.5,1.3,3.1,0.8,4.6c-0.4,1.2-1.9,1.6-3.2,1.7c-6,0.5-12.1-0.4-17.8-2.4c-0.9-0.3-1.9-0.7-2.5-1.5
						c-2.2-2.9,0.1-10.2,0.1-13.6c-0.2-2.2-0.5-1.8-1.5-3.5c-2.8-6.2-1-10.3-2-16.2c-3-17.6-15.8-110.6-14.8-117.6
						c0.6-3.9-0.3-0.3,2.9-3.4C303.7,281.2,305,280.7,306.3,280.3z"/>
				</g>
				<g>
					<g>
						<path class="st46" d="M322.4,277.2c0.1,2.5,0.1,5,0.3,7.5c0.2,2.5,0.6,4.9,1.4,7.2c0.8,2.3,1.9,4.5,3.5,6.4
							c1.6,1.9,3.5,3.4,5.6,4.8c-1.1-0.5-2.3-1.1-3.3-1.8l-0.8-0.5c-0.3-0.2-0.5-0.4-0.7-0.6c-0.5-0.4-1-0.8-1.4-1.3
							c-1.8-1.9-3.1-4.1-3.9-6.6c-0.8-2.4-1.2-5-1.2-7.5c0-1.3,0-2.5,0.1-3.8C322.2,279.7,322.3,278.4,322.4,277.2z"/>
					</g>
					<g>
						<path class="st46" d="M336.4,287c-0.6,5.9-1,11.9-1.3,17.8c-0.3,5.9-0.5,11.9-0.6,17.8c-0.2,11.9-0.2,23.8-0.1,35.7
							c0.1,11.9,0.2,23.8,0.8,35.6c0.3,5.9,0.6,11.9,1.2,17.8c0.5,5.9,0.9,11.9,0.4,17.8l0,0.1l-0.1,0c-0.8,0.2-1.1,1-1.1,1.8
							c0,0.8,0.1,1.6,0.3,2.4c0.2,0.8,0.4,1.6,0.5,2.4c0.2,0.8,0.4,1.6,0.3,2.4c0-0.8-0.2-1.6-0.4-2.4c-0.2-0.8-0.4-1.6-0.6-2.4
							c-0.2-0.8-0.3-1.6-0.3-2.4c0-0.4,0.1-0.8,0.3-1.2c0.2-0.4,0.6-0.7,1-0.8l-0.1,0.1c0.2-5.9-0.2-11.9-0.8-17.8
							c-0.6-5.9-1.1-11.9-1.4-17.8c-0.6-11.9-0.8-23.8-0.9-35.7c0-11.9,0-23.8,0.3-35.7c0.2-5.9,0.4-11.9,0.9-17.8
							C335.1,298.8,335.7,292.9,336.4,287z"/>
					</g>
					<g>
						<path class="st46" d="M321.7,429.2c3.4,0.5,6.7,1.1,10,1.4c1.7,0.1,3.3,0.2,5,0.1c1.7-0.1,3.3-0.4,4.9-1.1
							c-1.4,1.1-3.1,1.6-4.8,1.9c-1.7,0.3-3.5,0.3-5.2,0.1C328.3,431.3,324.9,430.5,321.7,429.2z"/>
					</g>
					<g>
						<path class="st46" d="M323.1,433.8c1.3-0.1,2.7-0.1,4-0.1c1.3,0,2.6-0.1,3.9-0.1c2.6-0.1,5.2-0.3,7.9-0.4
							c-1.3,0.4-2.5,0.8-3.9,1c-1.3,0.2-2.6,0.4-4,0.4c-1.3,0.1-2.7,0-4-0.1C325.7,434.3,324.4,434,323.1,433.8z"/>
					</g>
					<g>
						<path class="st46" d="M299,262.1c0.5,3.3,0.7,6.6,1,9.9c0.3,3.3,0.4,6.6,0.7,9.9c0.2,3.3,0.4,6.6,1,9.8
							c0.3,1.6,0.6,3.2,1.1,4.8c0.4,1.6,1.2,3.1,2.5,4.2c-1.4-0.9-2.4-2.4-3-4c-0.6-1.6-1-3.2-1.4-4.8c-0.7-3.3-0.9-6.6-1.2-9.9
							c-0.2-3.3-0.3-6.6-0.4-9.9L299,262.1z"/>
					</g>
					<g>
						<path class="st46" d="M304.6,262.8c0.4,7.1,0.5,14.3,0.8,21.4l0.3,10.7c0.1,3.6,0.2,7.1,0.5,10.7l3.4,42.7
							c1.1,14.2,2.3,28.5,3.7,42.7c0.4,3.5,0.7,7.1,1.2,10.6c0.2,1.8,0.5,3.5,0.7,5.3c0.2,1.8,0.5,3.5,1,5.2c0.5,1.7,1,3.5,1,5.3
							c0,0.9-0.2,1.8-0.5,2.7c-0.3,0.8-0.5,1.7,0,2.4c0.2,0.4,0.6,0.7,0.8,1.1c0.1,0.2,0.2,0.4,0.2,0.7c0,0.3-0.1,0.5-0.3,0.7
							c-0.6,0.6-0.7,1.6-0.5,2.5c0.2,0.9,0.5,1.7,0.7,2.6c0.2,0.8,0.3,1.9-0.4,2.5c0.7-0.7,0.6-1.7,0.4-2.5
							c-0.2-0.9-0.6-1.7-0.8-2.6c-0.1-0.4-0.2-0.9-0.1-1.4c0-0.5,0.3-0.9,0.6-1.2c0.3-0.3,0.3-0.8,0.1-1.1c-0.2-0.4-0.5-0.7-0.8-1
							c-0.3-0.4-0.4-0.9-0.4-1.3c0-0.5,0.1-0.9,0.3-1.3c0.3-0.9,0.4-1.7,0.4-2.6c0-1.8-0.6-3.5-1.1-5.2c-0.5-1.7-0.8-3.5-1.1-5.3
							c-0.2-1.8-0.5-3.5-0.8-5.3c-0.5-3.5-0.9-7.1-1.3-10.6c-1.5-14.2-2.7-28.4-3.9-42.7c-1.1-14.2-2.2-28.5-3.1-42.7
							C304.7,291.4,305,277.1,304.6,262.8z"/>
					</g>
					<g>
						<path class="st46" d="M298.3,300.9c0.6-0.4,1.3-0.5,2-0.5c0.7,0,1.4,0.1,2,0.4c0.6,0.2,1.2,0.6,1.8,1c0.5,0.4,1,1,1.2,1.6
							c-1.2-0.7-2.2-1.3-3.4-1.7C300.8,301.3,299.7,301,298.3,300.9z"/>
					</g>
				</g>
			</g>
		</g>
		<g>
			<g>
				<path class="st47" d="M302.9,191.2c-3.6,0.9-11.3,2.3-13.6,5.7c-0.4,0.6-0.6,1.4-0.8,2.2c-1.1,5.7-0.5,11.8,1.7,17.2
					c3.5,8.7,2.4,19.7,2.4,29c0,7.1,1.2,16.6-1.3,23.4c-0.9,2.5-2.2,5.2-1.3,7.7c0.3,0.9,0.8,2,0.1,2.7c-0.2,0.2-0.5,0.3-0.8,0.5
					c-1.3,0.9-0.5,2.7-0.5,4.2c0,1.3-0.6,2.5-0.5,3.7c0.3,4,39.2,5.2,49.5,5.2c0.7,0,8.9-0.4,9-0.1c-0.6-2.7-1.1-5.2-1.3-7.9
					c-0.2-2.4,1.5-6.1,0.1-8.2c-0.2-0.4-0.6-0.7-0.6-1.1c-0.1-0.8,0.8-1.4,0.9-2.1c0.1-0.6-0.3-1.1-0.5-1.7
					c-0.5-1.2-0.5-2.5-0.5-3.8c0-10.1,0-20.1,0.1-30.2c0-3.9-1-7.8-0.8-11.6c0.3-4.5,1.3-9.1,2.2-13.6c0.8-3.8,2.7-7.3,3.9-11.2
					c1.5-4-1-7.7-5-9.4c-5-2.1-10-2.2-15.3-3.7c-0.3-0.1-0.9-0.4-1.2-0.3c-0.3,0.1-0.6,0.8-0.9,1.2c-2.2,3.9-6.3,7.1-11.1,7.6
					c-4.8,0.5-10-2-11.5-6.2C304.4,190.5,303.8,191,302.9,191.2z"/>
			</g>
			<g>
				<g>
					<path class="st37" d="M294.2,282.6c1.4,1,3.1,1.6,4.8,2c1.7,0.4,3.4,0.6,5.1,0.8c1.7,0.2,3.4,0.3,5.2,0.6l5.2,0.7
						c3.4,0.4,6.9,0.7,10.3,0.7c3.4,0,6.9-0.6,10.1-1.8c-1.5,0.8-3.2,1.4-4.9,1.8c-1.7,0.4-3.5,0.6-5.2,0.7c-3.5,0.2-7-0.1-10.5-0.5
						c-1.7-0.2-3.5-0.5-5.2-0.7c-1.7-0.3-3.4-0.4-5.2-0.7c-1.7-0.3-3.4-0.6-5.1-1.1C297.1,284.5,295.5,283.8,294.2,282.6z"/>
				</g>
				<g>
					<path class="st37" d="M300.5,271.5c5.3,0.6,10.5,1.3,15.8,2.1l3.9,0.6l3.9,0.5c1.3,0.2,2.7,0.4,4,0.7c0.7,0.2,1.3,0.3,2,0.6
						c0.6,0.3,1.3,0.5,1.9,1.1c0.3,0.3,0.5,0.8,0.5,1.2c0,0.5-0.2,0.9-0.4,1.2c-0.5,0.6-1.2,1.1-1.9,1.2c-1.4,0.4-2.7,0.6-4,0.6
						c-2.7,0.1-5.4,0.1-8-0.1c-2.7-0.1-5.3-0.4-8-0.8c-2.6-0.4-5.2-0.9-7.8-1.4c5.3,0.7,10.5,1.4,15.8,1.5c2.6,0.1,5.3,0.2,7.9,0
						c1.3-0.1,2.6-0.2,3.8-0.6c0.6-0.2,1.1-0.5,1.4-0.9c0.3-0.5,0.3-0.8,0-1.2c-0.4-0.4-0.9-0.7-1.5-0.9c-0.6-0.2-1.2-0.4-1.8-0.6
						c-1.3-0.3-2.6-0.5-3.9-0.7l-4-0.5c-1.3-0.2-2.6-0.4-3.9-0.7C310.9,273.5,305.7,272.6,300.5,271.5z"/>
				</g>
				<g>
					<path class="st37" d="M303.6,191.9c0.7,2.8,2.8,5.2,5.4,6.2c1.3,0.5,2.7,0.6,4.1,0.6c1.4,0,2.9-0.1,4.3-0.3
						c2.8-0.4,5.6-1.2,7.9-2.9c2.3-1.6,4-4,5.4-6.6c-0.5,1.4-1.1,2.7-1.9,3.9c-0.8,1.2-1.8,2.3-3,3.3c-2.3,1.9-5.3,2.9-8.2,3.3
						c-1.5,0.2-2.9,0.3-4.4,0.2c-1.4,0-3-0.2-4.4-0.8c-1.4-0.6-2.6-1.6-3.5-2.8C304.4,194.8,303.8,193.4,303.6,191.9z"/>
				</g>
				<g>
					<path class="st37" d="M290.9,202.4c0.5,2.4,0.8,4.8,1,7.3c0.1,2.4,0.2,4.9,0,7.3c-0.6-2.4-0.8-4.8-1-7.3
						C290.7,207.3,290.6,204.9,290.9,202.4z"/>
				</g>
			</g>
		</g>
		<g>
			<g>
				<path class="st47" d="M340.1,191.4c-2-0.3-3.8,0.2-5.1,2.2c-2,3.1-2.3,7.7-2.4,11.2c-0.2,4.7,0.3,9.2,1.3,13.8
					c0.8,4.3,0.3,8.2,0.5,12.7c0.1,3.3,2.7,6.9,3.6,10.1c1.3,4.3,2.8,8.5,4.6,12.6c0.2,0.4,0.4,0.8,0.4,1.3c0,2-2.9,2.2-4.4,3.4
					c-2.1,1.6-1.6,4.8-0.3,7.1c3.9,6.9,13.5,9.9,20.6,6.4c1.3-0.6,2.6-1.5,3.3-2.8c0.9-1.6,0.6-3.6,0.4-5.4
					c-1.8-13.3-4.3-26.6-7.4-39.7c-0.7-2.7-3-14.1-3.4-16.8c-0.7-5-0.4-9.1-4.5-12.4C345.5,193.5,342.7,191.8,340.1,191.4z"/>
			</g>
			<g>
				<path class="st35" d="M333.4,262.7c-3.7-0.6-6.7-1.9-10.4-2c-4-0.1-5.7-2.3-8.4-4.6c-2.7-2.3-6.8-1.7-10.2-2.4
					c-1.1-0.2-2.3-0.3-2.1-1.8c0.2-0.8,2.9-0.4,4.3-0.6c1.9-0.2,3.8,0.9,5.5,0.5c-0.2-1.5-4.9-3.1-6.4-3.7c-1.8-0.8-6.5-2.1-6.2-3.1
					c0.1-3.5,10,3.4,13.2,3.4c-2.9-4.8-13.3-7.1-12.8-9.4c0.8-3.7,11.7,5.5,14,5.6c-0.4-1.3-4.2-4.7-6.4-5.8c-0.9-0.6-3.7-1.5-4-2.5
					c-0.6-2.2,2-1.1,3.1-0.5c6.6,3.1,10.3,7.7,14.9,13.2c1.6,1.9,3.4,4.9,5.6,5.6c2.2,0.7,6.8,0,6.8,0L333.4,262.7z"/>
			</g>
			<g>
				<g>
					<path class="st37" d="M354.8,253.1c-1.8,0.3-3.6,0.4-5.4,0.3c-0.9,0-1.8-0.1-2.7-0.2c-0.5,0-0.9-0.1-1.4-0.2
						c-0.5-0.1-1-0.2-1.5-0.6c-0.1-0.1-0.2-0.3-0.3-0.5c0-0.2,0-0.4,0-0.6c0.1-0.2,0.1-0.3,0.2-0.4c0.1-0.1,0.2-0.2,0.3-0.3
						c0.1-0.1,0.2-0.2,0.3-0.3c0.1-0.1,0.3-0.2,0.4-0.2c0.3-0.1,0.5-0.2,0.8-0.2c1-0.1,1.9,0,2.8,0c1.8,0,3.7,0.3,5.3,1.1
						c-1.8-0.4-3.6-0.4-5.3-0.3c-0.9,0.1-1.8,0-2.6,0.2c-0.2,0-0.4,0.1-0.5,0.1c-0.1,0-0.1,0.1-0.2,0.1l-0.2,0.2
						c-0.1,0.1-0.1,0.1-0.2,0.2c-0.1,0.1-0.1,0.1-0.1,0.2c0,0.1,0,0,0,0.1c0.1,0.1,0.6,0.3,1,0.4c0.4,0.1,0.8,0.1,1.3,0.2l2.7,0.3
						C351.2,252.8,353,253,354.8,253.1z"/>
				</g>
				<g>
					<path class="st37" d="M352.4,247.9c-1.6,0.4-3.2,0.5-4.7,0.7c-1.6,0.2-3.1,0.3-4.8,0.3c1.5-0.8,3-1.1,4.6-1.3
						C349.2,247.5,350.8,247.5,352.4,247.9z"/>
				</g>
				<g>
					<path class="st47" d="M350.6,255.2c-7.7-0.2-11.9-0.7-18-1.3c-1.1-0.1-2.2-0.2-3.2-0.7c-0.9,4.8-2.8,9.2-3.8,13.9
						c1.2,0,2.3,0,3.4,0.6c1.1,0.6,1.6,1.8,2.6,2.6c2.2,1.8,4.1-0.4,6.5-0.1c1.3,0.2,2.4,1.2,3.6,1.8c1.2,0.5,2.4,1.1,3.6,1.4
						c1.7,0.4,8.7,0.4,10.4,0.2c4.6-0.6,7.9-2.6,6.8-7.7"/>
				</g>
				<g>
					<path class="st37" d="M344.5,273.1c-0.8-0.3-1.7-0.6-2.5-0.8c-0.9-0.2-1.6-0.8-2.4-1.2c-0.7-0.4-1.5-0.6-2.3-0.5
						c-0.8,0.1-1.6,0.4-2.5,0.7c-0.8,0.3-2,0.4-2.9-0.2c-0.9-0.5-1.5-1.3-2-1.9c-0.5-0.7-1.1-1.1-1.8-1.4c-0.8-0.2-1.6-0.3-2.5-0.3
						l-0.5,0l0.1-0.5l1.1-3.6c0.4-1.2,0.8-2.4,1.2-3.6c-0.2,1.2-0.5,2.5-0.7,3.7l-0.8,3.7l-0.4-0.5c0.9,0,1.8,0,2.7,0.2
						c0.5,0.1,0.9,0.3,1.3,0.6c0.4,0.3,0.7,0.7,1,1c0.6,0.7,1.1,1.3,1.7,1.7c0.6,0.4,1.4,0.3,2.2,0.1c0.8-0.2,1.7-0.5,2.6-0.6
						c0.5,0,1,0,1.4,0.2c0.5,0.1,0.9,0.4,1.3,0.6c0.8,0.5,1.4,1,2.2,1.4C343,272.3,343.7,272.7,344.5,273.1z"/>
				</g>
				<g>
					<path class="st37" d="M350.9,255.4l-10.8-0.5c-1.8-0.1-3.6-0.2-5.4-0.3c-0.9-0.1-1.8-0.2-2.7-0.3c-0.9-0.1-1.8-0.4-2.7-0.8
						l0.4-0.2c-0.2,0.5-0.4,1-0.6,1.5c0-0.5,0-1.1,0.1-1.6l0-0.3l0.3,0.1c0.8,0.2,1.7,0.3,2.6,0.4l2.7,0.2l5.4,0.4
						c1.8,0.1,3.6,0.3,5.4,0.5C347.3,254.8,349.1,255,350.9,255.4z"/>
				</g>
				<g>
					<path class="st37" d="M333.6,219.6c1,2.9,2.1,5.7,3.1,8.6c1,2.9,1.8,5.9,2.2,8.8c1.1,5.9,2.5,11.8,4,17.7
						c-1.1-2.8-2-5.7-2.8-8.7c-0.8-2.9-1.5-5.9-2.2-8.9c-0.5-3-1.3-5.9-2.1-8.8C335,225.5,334.1,222.6,333.6,219.6z"/>
				</g>
				<g>
					<path class="st37" d="M332.5,207.6c-0.5-1.5-0.3-3.2,0.1-4.7c0.4-1.6,1.1-3,2-4.4c0.9-1.3,2-2.6,3.3-3.5
						c1.3-0.9,2.9-1.6,4.5-1.6c-1.5,0.4-2.8,1.2-4,2.2c-1.1,1-2.1,2.2-2.9,3.4c-0.8,1.3-1.5,2.6-2,4.1
						C332.8,204.5,332.4,206,332.5,207.6z"/>
				</g>
			</g>
		</g>
	</g>
	<g>
		<path class="st3" d="M257.1,91.8c0-22.5-18.1-40.7-40.4-40.7s-40.4,18.2-40.4,40.7c0,18.7,12.5,34.4,29.6,39.2v25.8l13-24.4
			C240.2,131.3,257.1,113.6,257.1,91.8z"/>
		<path class="st48" d="M365.2,37.5h-66.6c-6.4,0-11.5,5.2-11.5,11.5V108c0,6.4,5.2,11.5,11.5,11.5h40.8v15.3l12.6-15.3h13.3
			c6.4,0,11.5-5.2,11.5-11.5V49C376.7,42.7,371.6,37.5,365.2,37.5z"/>
		<path class="st49" d="M520,66.2c0-20.6-27.6-37.3-61.7-37.3c-34.1,0-61.7,16.7-61.7,37.3c0,19.9,25.7,36.2,58.2,37.3v19.4
			l13.7-19.8C497.8,100,520,84.7,520,66.2z"/>
		<path class="st50" d="M593.1,110.8H487.6c-1.3,0-2.3,1.3-2.3,3v31.3c0,1.7,1,3,2.3,3h36.7l12.5,18.2v-18.2h56.2
			c1.3,0,2.3-1.3,2.3-3v-31.3C595.4,112.2,594.3,110.8,593.1,110.8z"/>
	</g>
</g>
</svg>
