<?xml version="1.0" encoding="utf-8"?>
<!-- Generator: Adobe Illustrator 24.3.0, SVG Export Plug-In . SVG Version: 6.00 Build 0)  -->
<!DOCTYPE svg PUBLIC "-//W3C//DTD SVG 1.1//EN" "http://www.w3.org/Graphics/SVG/1.1/DTD/svg11.dtd" [
	<!ENTITY ns_extend "http://ns.adobe.com/Extensibility/1.0/">
	<!ENTITY ns_ai "http://ns.adobe.com/AdobeIllustrator/10.0/">
	<!ENTITY ns_graphs "http://ns.adobe.com/Graphs/1.0/">
	<!ENTITY ns_vars "http://ns.adobe.com/Variables/1.0/">
	<!ENTITY ns_imrep "http://ns.adobe.com/ImageReplacement/1.0/">
	<!ENTITY ns_sfw "http://ns.adobe.com/SaveForWeb/1.0/">
	<!ENTITY ns_custom "http://ns.adobe.com/GenericCustomNamespace/1.0/">
	<!ENTITY ns_adobe_xpath "http://ns.adobe.com/XPath/1.0/">
]>
<svg version="1.1" id="Layer_1" xmlns:x="&ns_extend;" xmlns:i="&ns_ai;" xmlns:graph="&ns_graphs;"
	 xmlns="http://www.w3.org/2000/svg" xmlns:xlink="http://www.w3.org/1999/xlink" x="0px" y="0px" viewBox="0 0 500 500"
	 style="enable-background:new 0 0 500 500;" xml:space="preserve">
<style type="text/css">
	.st0{fill:#FAF2E4;}
	.st1{fill:#ECE5D8;}
	.st2{fill:#FFFFFF;}
	.st3{fill:#CB545F;}
	.st4{fill:#E8B23F;}
	.st5{fill:#65AFAA;}
	.st6{fill:#697FD0;}
	.st7{fill:#98A7D3;}
	.st8{fill:#8493C2;}
	.st9{fill:none;stroke:#646F9C;stroke-width:1.3878;stroke-miterlimit:10;}
	.st10{fill:#E8B3A0;}
	.st11{fill:#D49684;}
	.st12{fill:#E7B2A1;}
	.st13{fill:#2A2D33;}
	.st14{fill:#302426;}
	.st15{fill:#BD8675;}
	.st16{fill:#E69362;}
	.st17{fill:#CF774E;}
	.st18{fill:none;stroke:#CF774E;stroke-width:1.4687;stroke-miterlimit:10;}
	.st19{fill:#4A3227;}
</style>
<metadata>
	<sfw  xmlns="&ns_sfw;">
		<slices></slices>
		<sliceSourceBounds  bottomLeftOrigin="true" height="458.3" width="401.5" x="51" y="0"></sliceSourceBounds>
	</sfw>
</metadata>
<g id="OBJECTS">
	<path class="st0" d="M102.6,51c-28.6,9.3-49.3,28.1-50,63.9c-1.5,69.4-3,138.9,1.3,208.4c1.1,17.7,2.7,35.7,9.7,52.3
		c16.3,38.2,60.1,47.2,97.8,51.9c45.6,5.8,91.6,2.7,136.9-0.7c23.6-1.7,47.1-3.5,70.7-5.3c49.6-3.9,61.4-48.4,68.2-88.5
		c10.6-62.2,18.1-125.6,14.4-189.3c-2.7-47.5-23.7-84.3-76.9-88.7c-43.1-3.6-86.2-6.5-129.3-9.2C198.3,42.8,147.7,36.3,102.6,51z"/>
	<g>
		<path class="st1" d="M412.5,172.6c-25.9-2.1-51.7-4.1-77.6-6.2c9.6-22,13.1-69.1,13.9-105c25.9,2.1,51.7,4.1,77.6,6.2
			C425.7,103.5,420.8,159,412.5,172.6z"/>
		<path class="st2" d="M402.5,166.1c-25.9-2.1-51.7-4.1-77.6-6.2c9.5-20.8,23.3-64.5,24-98.5c25.9,2.1,51.7,4.1,77.6,6.2
			C425.8,101.6,410.7,153.3,402.5,166.1z"/>
		<g>
			<path class="st3" d="M368.1,141.1c-1.4,7.4,11.3,8.4,12.7,1C382.2,134.6,369.5,133.6,368.1,141.1z"/>
			<path class="st3" d="M394.5,84.7c-9.4-8.1-29.2-8.5-33.8,5c-0.8,2.5,1.2,5.5,3.9,5.7c1.2,0.1,1.9,0.1,3.1,0.2
				c1.8,0.1,3.4-1,4-2.7c2.8-7.9,18.6-4.8,16.8,5c-2,10.5-14.9,14.9-17.1,25.6c-0.4,1.7,0.9,3.5,2.7,3.6c1.8,0.1,2.7,0.2,4.4,0.4
				c1.6,0.1,3.1-0.9,3.5-2.5c1.4-5.8,5.7-9.1,10-12.3C400.1,106.6,402.3,91.4,394.5,84.7z"/>
		</g>
	</g>
	<g>
		<path class="st1" d="M159.6,386.1c-24.3,0-48.6,0-72.9,0c7.3-21.3,7.1-65.5,5.2-99.1c24.3,0,48.6,0,72.9,0
			C166.7,320.6,166.3,372.8,159.6,386.1z"/>
		<path class="st2" d="M149.7,380.7c-24.3,0-48.6,0-72.9,0c7.3-20.1,17-62,15.1-93.7c24.3,0,48.6,0,72.9,0
			C166.7,318.7,156.4,368.1,149.7,380.7z"/>
		<g>
			<path class="st4" d="M115.7,360c-0.8,7.1,11.2,7,11.9,0C128.4,352.8,116.5,352.8,115.7,360z"/>
			<path class="st4" d="M136.2,305.3c-9.4-6.9-27.9-5.8-31.2,7.2c-0.6,2.4,1.5,5,4.1,5c1.2,0,1.7,0,2.9,0c1.7,0,3.1-1.2,3.5-2.8
				c2-7.6,17-5.9,16.1,3.4c-1.1,9.9-12.8,15-14.1,25.2c-0.2,1.6,1.1,3.2,2.8,3.2c1.7,0,2.5,0,4.2,0c1.5,0,2.8-1.1,3.1-2.6
				c0.9-5.5,4.7-8.9,8.4-12.3C143.1,325.3,144,311,136.2,305.3z"/>
		</g>
	</g>
	<g>
		<polygon class="st1" points="430.9,305 361.5,297 371.8,207.8 438.7,210.8 		"/>
		
			<rect x="352.3" y="216.2" transform="matrix(0.1149 -0.9934 0.9934 0.1149 102.0445 616.8251)" class="st2" width="89.8" height="69.9"/>
		<g>
			<path class="st5" d="M393.6,265c-1.6-0.2-2.7-1.7-2.5-3.3c1.7-10.7,14.4-12.8,16.4-22.3c2.1-9.3-11.4-11.9-14.7-5
				c-0.7,1.5-2.2,2.5-3.9,2.3l-2.8-0.3c-2.5-0.3-4-2.9-3-5.2c4.7-11.3,23.4-11.9,31.1-3.3c6.1,7.4,3.9,18.4-4.5,24.8
				c-4,3-7.9,5.5-9.2,10.7c-0.3,1.4-1.7,2.3-3.1,2.1L393.6,265z M388.7,277.4c0.4-7.3,12.5-5.8,11.3,1.3
				C399.6,285.8,387.5,284.4,388.7,277.4z"/>
		</g>
	</g>
	<g>
		<polygon class="st1" points="157.7,191.3 85,197.4 77.1,104.1 146.2,93.2 		"/>
		
			<rect x="75.6" y="96.3" transform="matrix(0.9964 -8.450197e-02 8.450197e-02 0.9964 -11.6948 9.9774)" class="st2" width="72.9" height="93.7"/>
		<g>
			<path class="st6" d="M111.2,158.1c-1.7,0.1-3.2-1.2-3.2-2.9c-0.4-11.3,12-16,12.2-26.2c0.3-9.9-14.1-9.8-16.1-2
				c-0.4,1.7-1.8,3-3.5,3.1l-2.9,0.2c-2.6,0.2-4.7-2.1-4.1-4.7c2.5-12.5,21.4-17.1,31.1-9.8c7.8,6.3,7.8,18.1,0.5,26.3
				c-3.5,3.8-7,7.3-7.1,12.9c0,1.5-1.2,2.7-2.7,2.8L111.2,158.1z M108.8,171.8c-1-7.5,11.6-8.5,11.9-1
				C121.7,178.1,109.1,179.2,108.8,171.8z"/>
		</g>
	</g>
	<g>
		<g>
			<g>
				<path class="st7" d="M199.4,349.9c-5,22.3-7.4,42.8-13.5,76.7c-5.8,32.1-9.8,73.4-9.8,73.4h62.2l6.4-44.4l5.8,44.4h71.8
					c0,0-2.4-5.6-2.8-73c-0.3-55.5-4.3-89.9-4.3-89.9L199.4,349.9z"/>
				<path class="st8" d="M226.6,404.3c12.5-1.3,25-3.4,37.4-5.7c11.5-2.1,31.4-6.5,42-11.4c5.9-2.7,12-5.5,17.2-9.1
					c-2.7-27.9-8.1-42.9-8.1-42.9l-115.7,14.7c-3.4,15.2-7.2,31.6-9.3,52.3C202.5,405.3,213.3,405.7,226.6,404.3z"/>
				<line class="st9" x1="246.2" y1="431.1" x2="249.1" y2="381.2"/>
				<path class="st9" d="M192.4,407.5c0,0,13.4-5.1,14.8-31.3"/>
				<path class="st9" d="M287.1,365.8c0,0,1.9,31.2,22.8,32.2"/>
			</g>
			<path class="st9" d="M240.2,380.5c-0.5,15.9-3.1,29,0.5,33.3c3.6,4.4,6.5,4.7,6.5,4.7"/>
			<polygon class="st8" points="238.4,500 235.2,500 247.2,427.4 257.9,500 250.6,500 243.8,474.8 			"/>
		</g>
		<path class="st10" d="M261.5,109.5c-1,4.3,1.9,36.9,5.7,43.8c1.6,2.9,19.8,11.2,19.8,11.2s-13.7,57.9-25.9,60
			c-12.1,2.1-48.3-50.2-48.3-50.2s17.5-9.3,18.5-11.3c2.7-5.6-1.9-40.8-1.9-40.8L261.5,109.5z"/>
		<path class="st11" d="M232.1,157.2c2.9,2.2,27.1-0.1,35.3-3.4c0,0,0,0,0,0c-0.1-0.2-0.3-0.3-0.3-0.4c-3.8-6.8-6.6-39.4-5.7-43.8
			l-32.1,12.7C229.4,122.2,231.8,144.9,232.1,157.2z"/>
		<path class="st12" d="M262.3,131.2c-2,4.6-4.8,14.6-15.1,21.8c-3.9,2.8-11,4.2-14.5,3.1c-6.8-2.1-19.7-11.9-22.4-19.5
			c-1.4-4.1-4.4-9-5.8-14.1c-1.3-4.4-4.1-9.6-4.7-12.5c-2-9.5-1.5-20.8,5.1-25.7c17.8-13.4,53-6.3,55,0.2c1.8,6.1,3,17.5,5.1,25.6
			C266.5,116.4,265.8,123.4,262.3,131.2z"/>
		<path class="st11" d="M216.8,98.2l7-2.9l4.9-13.5l3.4,11.3l3.6-1c0,0-1.8-6.1,0.1-13.1l4.8,11.3c0,0,6.8,1.3,11.5,0.9
			c4.8-0.5,6.2,0.1,6.2,0.1l-16.4-19.2l-16.3-0.2l-16.3,9.6l-2.5,13.2L216.8,98.2z"/>
		<g>
			<path class="st13" d="M200.8,109.3l0.1-16.7l-3.2-0.2c-5.2-0.3-3.4,5.7-4,11.7l8.2,13.1C201.4,113,200.8,109.3,200.8,109.3z"/>
			<path class="st13" d="M242.3,80.2c4.1,3.9,7.1,2.3,12,4.2c4.9,1.8,12.3,22.9,12.3,22.9s3.1-7.1,2.7-15.3
				c-0.1-2.2,0.8-8.2-0.7-13.9c-3-11.6-6.8-13.7-11.3-14.5c-4.7-0.9-8.9,2.3-8.9,2.3L242.3,80.2z"/>
		</g>
		<path class="st12" d="M261.9,100.9c0.8-2.1,3.4-6.7,5.9-5.5c2.5,1.2,6.2,11.6,4.4,17.5c-1.7,5.5-7,6.4-7,6.4l-4.2-14.1
			L261.9,100.9z"/>
		<path class="st13" d="M249.6,80.6c0,0,2.4,10.8,5,13.3c4.7,4.7,8.7,16.9,8.7,16.9l0-12.3l-0.1-10.4L249.6,80.6z"/>
		<path class="st11" d="M264.3,102.9c0.4-3.3,2.9-4.8,4-3c1.1,1.8,0.3,2.7,0.3,2.7s-1.4-2.2-2.4-1.1c-1,1.1-0.5,4.1,0.2,4.1
			c0.7,0,3.1,0.1,2.8,1.5c-0.3,1.4-1.6,0.6-1.4,2.8s0.8,4,0.8,4s-1.7-1.5-3.2-4.6C263.9,106.2,264.1,104.2,264.3,102.9z"/>
		<path class="st13" d="M232.5,77.8c4.1,1.8,6.5,11.6,5.8,13.7c0,0,14.2-1.1,17.7-5.2c3.1-3.6,1.9-9.9,1.9-9.9l-8.8-7.3l-12.6,2
			L232.5,77.8z"/>
		<path class="st13" d="M245.7,58.5c-2.2-1.4-12.2-5-27.9,2.4c-11.4,5.4-18.9,13.2-21.5,18.4c-4.5,9.1-4.1,16.8-2.7,24.8
			c0,0,5.7-0.4,5.7-0.4c0.1-0.3,5.2-0.2,17.5-5.4c0.6-4.7,4.1-11.3,4.1-11.3c-0.7,3.9-0.4,7.1,0.2,9.6c4.2-1.4,11.1-3.4,11.1-3.4
			c-0.8-6.2,2.9-14.5,3.7-14.1l14.8-5.7l2.6-4.7C253.3,68.7,251.4,62.3,245.7,58.5z"/>
		<g>
			<path class="st14" d="M228.1,104.9c0,0-0.7-2.4,0.5-4.5c0,0,8.3-4.3,18.1-0.2c0,0-1.5,0.6-2.1,0.8
				C242.9,101.4,233.2,101.3,228.1,104.9z"/>
			<path class="st14" d="M217.3,107.7c0,0-0.6-2.1-2.6-3c0,0-5.2,0.8-10.3,9.3c0,0,0.9,0.8,2.2-0.3
				C207.8,112.5,212.3,107.2,217.3,107.7z"/>
			<path class="st11" d="M224.8,115.8c-0.5,1.7-0.9,3.3-1.3,5c-0.4,1.7-0.7,3.4-1,5.1l-0.2,1.3l-0.1,0.6c0,0.3,0,0.5,0,0.8
				c0.1,0.3,0.1,0.5,0.2,0.8c0.1,0.2,0.3,0.5,0.5,0.6c0.4,0.4,0.8,0.6,1.2,0.7c1.7,0.4,2.6,0.4,4.2-0.1c0,0,0.9-0.6,0.1-0.7
				c-0.8,0-3.3,0.2-4,0c-0.7-0.3-1.2-0.7-1.2-1.4c0-0.2,0-0.3,0-0.5l0.1-0.6l0.2-1.3c0.3-1.7,0.6-3.4,0.8-5.1
				C224.5,119.3,224.7,117.6,224.8,115.8z"/>
		</g>
		<g>
			<path class="st15" d="M225,140.3c0.6-1.4,1.7-2.7,3-3.6c1.3-1,2.8-1.7,4.4-2c1.6-0.3,3.3-0.3,4.8,0.1c0.8,0.1,1.5,0.5,2.2,0.8
				c0.7,0.4,1.4,0.8,2,1.2c-0.8-0.1-1.5-0.2-2.3-0.3l-1.1-0.1c-0.4-0.1-0.7-0.1-1.1-0.1c-1.4-0.1-2.8,0.1-4.2,0.3
				c-1.4,0.3-2.7,0.7-4,1.3C227.5,138.6,226.2,139.4,225,140.3z"/>
		</g>
		<g>
			<path class="st11" d="M218.9,96c-6-2.4-17.3,2.3-17.3,2.3s-7.5,2.7-12.6,7.4c5.4,0.5,10.8,1.4,16,2.5c2.6,0.6,5.2,1.2,7.8,1.7
				c2.2,0.5,4.4,0.8,6.5,1.3c0.3-0.3,1-1.1,1.2-1.3c0.8-1.2-1.6-2.3-3.1-2.7c1,0.2,1.6,1.1,3.2-0.2c2.2-1.7,2.3-3,1.5-3.6
				c-1.3-1.1-7-0.9-7-0.9s7.1,0.1,8.2-0.9C224.6,100.8,224.9,98.4,218.9,96z"/>
			<path class="st12" d="M223.3,101.1c-1,0.5-2.8,0.6-4.2,0.4c-2.1-0.3-3.7-0.4-3.7-0.4s5.2,1.3,6.6,2.2c0.1,0.1,0.2,0.2,0.3,0.3
				c0.6,0.8-0.5,2-1.8,2.5h0c-0.3,0.1-0.6,0.2-0.9,0.3c-1.7,0.3-4.2,0.1-4.2,0.1s4.2,2.2,4.7,3.1c0.1,0.1,0.1,0.2,0.1,0.3
				c0,1.1-2.1,3.2-3.6,2.9c-1.7-0.3-3.2-1.8-4-1.2c-0.8,0.6-5.9,4.4-7.3,4.7s-3.4,8.8-8.3,14.1c-5,5.3-8.8,6.9-11.6,11.2
				c-2.8,4.3-9.4,23.8-9.4,23.8l-15.6-7.3c0-0.2,3.7-8.8,7-16.6c2.4-5.6,4.7-10.9,5.3-12.2c1.4-3.3,6.6-16.2,8.1-19.3
				c1.5-3.1,6.8-11.1,9.2-13.9c2.3-2.8,8.2-8.2,11-9.3s12.8-3.4,14.8-3.3c0.5,0,0.9,0.1,1.1,0.3l0.1,0.2l0,0c0,0,0,0,0,0
				c0.2,0.6-0.6,1.7-2.3,2.9c-2.7,1.7-8.2,3.1-9.3,3.9c-1.1,0.7-3.9,2.6-5,3.8c-0.9,1.1-4.4,4.5-4.7,4.8c0,0,0.1,0,0.3-0.1
				c1.9-0.8,11.8-5.2,13.7-5c2,0.2,7.3,0.9,8.8,1.4c1,0.3,3.2,1.8,4.5,3.1c0.5,0.5,0.9,1.1,1,1.5
				C224.1,100.5,223.8,100.8,223.3,101.1z"/>
			<path class="st11" d="M205.4,108.3c-0.8,0.6-4.5,2.4-5,2.7c0.4-0.4,4.2-3.4,5.3-4c1.2-0.6,6-2.6,7.3-2.4c1.3,0.2,5.6,1.6,7.6,1.6
				c-0.3,0.1-0.6,0.2-0.9,0.3c-1.7,0.3-4.2,0.1-4.2,0.1c-1-0.1-2.7-0.8-3.6-0.7C211.1,105.9,206.3,107.7,205.4,108.3z"/>
			<path class="st11" d="M220.3,109.9c0,1.1-2.1,3.2-3.6,2.9c-1.7-0.3-3.2-1.8-4-1.2c-0.8,0.6-5.9,4.4-7.3,4.7s-3.4,8.8-8.3,14.1
				c-5,5.3-8.8,6.9-11.6,11.2c-2.8,4.3-9.4,23.8-9.4,23.8l-15.6-7.3c0-0.2,3.7-8.8,7-16.6c5.8,2.4,11.5,1.8,14.8-1.5
				c4.4-4.3,4.5-5.8,8.3-7.9c3.9-2.1,7.9-8,10.5-12.3c3-5.1,5.3-5.9,8.2-7.6c3.1-1.8,4.5-1.9,5.4-1.6c1.2,0.4,2.3,1,3.6,0.9
				C219.6,111.3,219.7,110.6,220.3,109.9z"/>
			<path class="st11" d="M219.1,101.4c-2.1-0.3-3.7-0.4-3.7-0.4s5.2,1.3,6.6,2.2c0.1,0.1,0.2,0.2,0.3,0.3c-1.1-0.2-9.8-2.7-10.6-2.7
				c-0.8,0-5.7,1.3-6.7,1.6c-1,0.3-7.7,2.7-8.5,3l7.6-4c0,0,7.4-2.5,9.9-1.9c2.5,0.6,6.7,1.2,9.3,1.6
				C222.3,101.6,220.5,101.7,219.1,101.4z"/>
			<path class="st11" d="M200.5,94.4c-0.9,1.1-4.4,4.5-4.7,4.8c0,0,0,0,0,0s0.5-2.4,2.1-4c1.6-1.6,5.6-5,7.8-6.3
				c2.3-1.3,6.5-1.6,8.5-2.7c1.9-1,2.8-2.3,2.9-2.4c0.2,0.6-0.6,1.7-2.3,2.9c-2.7,1.7-8.2,3.1-9.3,3.9
				C204.4,91.3,201.6,93.2,200.5,94.4z"/>
			<path class="st11" d="M223,98.6c-1.5-0.5-3.1-1.1-4.4-1.7c-3-1.4-7.5-2.1-9.4-2c-1.8,0-11.4,3.7-13.1,4.3
				c1.9-0.8,11.8-5.2,13.7-5c2,0.2,7.3,0.9,8.8,1.4C219.5,95.8,221.7,97.2,223,98.6z"/>
		</g>
		<path class="st16" d="M329.9,270.4c-2.4,15-3.8,35.6-1.5,44.9c2.3,9.3-2.8,22.2-8.7,25.5c0,0,0.7,4.2-3.2,8.4S294.1,379.3,264,385
			c-30.1,5.6-61-3.3-68.9-9.4s-2.5-15.9-2.5-15.9c-0.1,0-0.1,0-0.2,0c-0.2,0-0.3,0-0.4,0c-0.9-0.2-2.8-0.9-4.7-3.5
			c-1.8-2.5-3.5-6.8-4.2-14.2c-1.7-18,6.2-51.5,9.1-68.8c2.9-17.3,1.3-68-1.1-72c-2.4-4-5.2-8.1-5.2-8.1s22.1-20.3,42.9-28.1
			c0,0,2.2,10.1,14.7,8.2c13.4-2.1,21.4-8,27.4-17.1c0,0,6.4,2.5,17.5,5.1c11,2.6,34.5,15.4,38.7,18.9c1.6,1.3,2.7,12.3,3.4,26.3
			C331.6,229.6,331.4,261,329.9,270.4z"/>
		<path class="st17" d="M326.6,331.7c-6.6,1.7-13.2,3.6-19.7,6.1c-8.2,3.1-16.1,6.9-24.1,10.5c-4,1.8-8,3.6-12.1,5.2
			c-4.1,1.7-8.3,3.1-12.6,4.4c-8.5,2.6-17.2,4.6-25.9,5.2c-7.7,0.5-15.2-0.5-22.7-1.7c-7.6-1.3-15.3-3.1-22.6-5.6
			c0.1,0.2,0.2,0.4,0.3,0.5c1.8,2.6,3.7,3.3,4.7,3.5c0.1,0,0.3,0,0.4,0c0.1,0,0.1,0,0.2,0c0,0-5.5,9.8,2.5,15.9
			c8,6,38.8,15,68.9,9.4c30.1-5.7,48.6-31.6,52.5-35.8c3.9-4.2,3.2-8.4,3.2-8.4C322.4,339.3,324.9,335.9,326.6,331.7z"/>
		<path class="st17" d="M281,159.2c-6.4-1.8-10.1-3.2-10.1-3.2c-6.1,9.1-14,15-27.4,17.1c-12.5,1.9-14.7-8.2-14.7-8.2
			c-2.8,1-5.6,2.3-8.4,3.7c2.1,4.7,4.9,9.2,9.4,11.7c5,2.7,11,2.5,16.7,1.7C253.9,181,270.5,177.1,281,159.2z"/>
		<path class="st16" d="M204.7,177.9c-3,0.9-21.9,12.2-25.1,14c-3.1,1.8-24.6,15.5-32.2,19c-7.6,3.4-14.1,10.3-11.6,14
			s18.3,20.9,23.9,22.8c5.6,1.9,14-1.3,22-3.1s21.3-8,21.3-8l11.6-52.2L204.7,177.9z"/>
		<path class="st16" d="M182.8,156.1c-0.7,1.2-1.2,2.2-1.6,3.2c-0.5,1.1-0.9,2.2-1.3,3.3c-0.7,2.1,0.8,4.6,0.7,8.6
			c-0.1,3.1-3.5,11.7-6,17.4c0,0,0,0,0,0c-1.4,3.2-2.4,5.5-2.4,5.5s2.2,22.2,3.1,22.8l5.1,28.5c0,0-15.8,4.3-24.9,5.1
			c-9.1,0.8-20.6,1.4-26.9-3c-6.2-4.4-5.2-24.4-2.9-34.9c2-9.1,8.6-28,13-36.1c4.2-7.8,8.6-19.1,13-22.8c2.6-2.2,4.4-1.1,5.2-3.1
			c0.5-1.2,1.7-7.8,3.5-9.7c1.7-1.9,1.7-2.8,5.5-0.9c3.8,1.9,13,8.2,16.1,9.6C185.1,150.8,184.2,153.5,182.8,156.1z"/>
		<path class="st17" d="M180.5,171.2c-0.1,3.1-3.5,11.7-6,17.4c0.1-0.6,1.5-10.1,1.2-15.4c-0.3-5.5-0.9-10.8-7.1-13.7
			c-10-4.7-11.7-9-11.7-9c0,0,6.4,4.1,13.6,7.4c7,3.2,7.6,2.2,10.6,1.5c-0.5,1.1-0.9,2.2-1.3,3.3
			C179.2,164.6,180.7,167.2,180.5,171.2z"/>
		<path class="st18" d="M165.1,232c0,0,4.1-19.5,7.1-38"/>
		<path class="st17" d="M173.1,247.2c0,0,16.2-13.9,20.6-22.8c4.4-8.9,10.7-24,10.7-24s-8.3,33.4-10.7,40.1
			C193.7,240.5,184,245.1,173.1,247.2z"/>
		<path class="st17" d="M187.3,356.2c4.8,0.8,11.9,2,22.1,3.7c28.1,4.7,47.1,0.7,77.6-14.8c30.5-15.5,21.6-54.2,30.2-83.2
			c5.2-17.4,10.1-40.1,13.3-55.5c1.1,23.2,1,54.6-0.5,64c-2.4,15-3.8,35.6-1.5,44.9c2.3,9.3-2.8,22.2-8.7,25.5
			c-5.6-1.5-16,1.8-29.6,9.3c-13.6,7.6-31.8,18.2-53,18c-21.2-0.2-30.5-7-44.5-8.3c-0.1,0-0.1,0-0.2,0c-0.2,0-0.3,0-0.4,0l-2-0.8
			l0,0L187.3,356.2z"/>
		<path class="st18" d="M319.8,252.4c-8.2-14.6-17.3-29.6-19.4-49.7"/>
		<g>
			<path class="st12" d="M353.2,337c-8.2,7.8-14.9,14.7-15.8,17.8c-2.1,7.2-11,14.8-12.3,19.1s-6.4,10.6-9.1,13
				c-1.3,1.2-2.4,1.1-3.2,0.7c-0.8-0.4-1.2-1.1-1.2-1.1s-3.5,4.2-5.7,4.7c-1,0.2-1.5,0-1.6-0.9c0,0,0,0,0,0c-0.1-1,0.4-2.7,1.6-5.5
				c2.2-5.2,1-8.8,1-8.8s0,0.1-0.1,0.2c0,0,0,0,0,0.1c-0.4,0.5-1.3,1.9-2.3,3.7c-0.1,0.1-0.1,0.3-0.2,0.5c-0.7,1.3-1.2,2.8-1.6,4.3
				c-1,4.5-5.2,9.9-7.4,8.4c-1.1-0.7-0.8-3.4,0-6.4c0,0,0-0.1,0-0.1c0.7-3.1,1.9-6.6,2.6-8.6c1.2-4.1,2.5-7.5,2.5-7.5
				s-2.4-1.9-4.8-0.1c-2.5,1.8-10.1,7.7-12.7,9.8c-2.6,2.1-5.3,4.5-7.1,3.1c-0.1-0.1-0.2-0.2-0.3-0.4c-0.9-1.6,2.9-5.2,6.9-9.6
				c4.3-4.7,8.5-9.3,17.5-13.3c9-4,25.2-15.9,30.3-21.4c2.2-2.4,5.2-6.4,8.4-11.1c2.4,2,5.1,3.8,7.7,5.4
				C348.4,334.6,350.8,335.9,353.2,337z"/>
			<path class="st11" d="M304.1,365.8c-0.2,0.4-3.1,7.1-4.9,11.4c-1.1,2.5-2.7,6.6-3.9,9.7c0.7-3.1,1.9-6.6,2.6-8.6
				c1.2-4.1,2.5-7.5,2.5-7.5s-2.4-1.9-4.8-0.1c-2.5,1.8-10.1,7.7-12.7,9.8c-2.6,2.1-5.3,4.5-7.1,3.1c-0.1-0.1-0.2-0.2-0.3-0.4
				c4.7-2,13.4-7.6,15.7-10c2.6-2.7,5.7-4.4,8.1-5.3C301.6,367,303.8,365.9,304.1,365.8z"/>
			<path class="st11" d="M311.3,366.6c-0.2,1-2.5,11.9-3.1,13.8c-0.6,2-1.1,3.2-2.5,6.4c-0.5,1.1-1,2.4-1.4,3.7
				c-0.1-1,0.4-2.7,1.6-5.5c2.2-5.2,1-8.8,1-8.8s0,0.1-0.1,0.2c0.4-0.8,0.9-1.6,1.3-2.6C308.9,371.3,311,367.2,311.3,366.6z"/>
			<path class="st11" d="M318.6,373.5c-0.1,0.6-1.1,6.5-2.6,8.8c-0.6,1-1.9,3.2-3.2,5.4c-0.8-0.4-1.2-1.1-1.2-1.1s3-5.3,4.1-7.5
				C316.8,377.1,318.4,373.9,318.6,373.5z"/>
		</g>
		<g>
			<path class="st16" d="M295.1,163.3c12.4,3.7,32.4,10.5,41.6,24.4c9.3,13.9,45.1,71.6,52.3,83.7c7.2,12.1,7.7,29.4-7.2,49.4
				c-10.2,13.7-24.3,34.6-31,38.7s-12.2,1.4-12.2,1.4s-3.9,5.2-8.6,7.7s-19.8-8-17.3-14.7c2.5-6.8,5.1-10.8,5.1-10.8
				s-5-1.4,5.3-21.2c10.3-19.7,20.1-34.1,20.1-34.1s-22.8-33.6-29.5-52.5C306.9,216.4,295.1,163.3,295.1,163.3z"/>
			<path class="st17" d="M374.3,326c-3.4,4.4-13.7,20.8-17.9,23.6c-4.4,2.9-7.9,4.8-13,4.9c-4.8,0.1-9.2-1.2-13.5-3
				c-4.4-1.8-9.1-4.3-12.4-8c-0.2,0.4-0.6,1-1.1,1.9c0.9,1.9,2,3.7,3.1,5.3c1.9,2.7,5.1,5.2,4.9,8.9c-0.2,2.6-1.9,4.7-3.9,6.3
				c3.6,2.4,7.5,3.7,9.5,2.6c4.7-2.6,8.6-7.7,8.6-7.7s5.5,2.8,12.2-1.4c6.7-4.1,21.8-25.9,31.7-39.7c5.1-7.2,9.2-13.4,10.4-21.9
				C386.8,307.4,381.2,317.2,374.3,326z"/>
			<path class="st18" d="M343.2,287.8c0,0,1.1-5.3,10.8-11.5"/>
		</g>
		<g>
			<g>
				<path class="st19" d="M232.2,112.3c0,0,2.9,0.7,6.1-0.7c5-2.1,6-6.3,6-6.3S240.2,110.8,232.2,112.3z"/>
			</g>
			<g>
				<path class="st19" d="M220,116.9c0,0-1.9,2.4-5,3.4c-4.9,1.5-7.8-1.2-7.8-1.2S213.1,120.9,220,116.9z"/>
			</g>
		</g>
	</g>
</g>
</svg>
