<?xml version="1.0" encoding="UTF-8"?>
<!-- Uploaded to: SVG Find, www.svgfind.com, Generator: SVG Find Mixer Tools -->
<svg fill="#000000" width="800px" height="800px" version="1.1" viewBox="144 144 512 512" xmlns="http://www.w3.org/2000/svg">
 <path d="m480.66 221.72c1.4258 2.6953 2.3047 5.6914 2.6016 8.7773l0.10938 2.3242 0.007812 98.953c30.07 4.1484 45.574 25.223 45.574 56.23 0 31.004-15.504 52.082-45.574 56.227l-0.007812 98.957c0 11.668-8.2969 21.75-19.492 21.75-4.0586 0-7.9688-1.3984-11.035-3.7969l-13.207-9.7227c-67.422-49.277-110.63-74.965-125.99-76.016l-0.5625-0.027344 0.007813 91.344c0 17.855-11.414 30.09-31.223 31.004l-2.418 0.054688c-19.504 0-29.562-11.152-36.078-29.855-1.7773-5.0977-5.8242-22.711-12.312-53.516l-8.082-39.098c-32.398-1.418-58.477-26.844-59.828-58.59l-0.054687-2.5938v-52.246c0-33.012 26.719-59.836 60.086-61.188l2.6484-0.054687h80.609c20 0 69.914-28.793 146.23-85.633 9.4609-7.3906 22.332-3.9883 27.996 6.7148zm-185.57 253.65h-53.75l3.4219 16.629c8.2656 39.883 13.488 63.367 15.41 69.438l0.1875 0.56641c4.2852 12.289 9.2383 17.785 19.09 17.785 11.312 0 15.648-4.3906 15.648-13.066zm230.86 36.438c3.7031-3.3125 9.3906-2.9961 12.703 0.70703l28.121 31.43 0.8125 1.0586c2.4141 3.6602 1.8477 8.6367-1.5195 11.648-3.7031 3.3125-9.3906 2.9961-12.703-0.70703l-28.121-31.434-0.8125-1.0547c-2.4141-3.6602-1.8477-8.6367 1.5195-11.648zm-62.375-282.5-9.9062 7.332c-65.023 47.832-109.92 74.598-136.65 80.656l-1.5898 0.32812v104.49c0 4.5547-3.3828 8.3203-7.7734 8.918l-1.2227 0.082031c-4.5547 0-8.3203-3.3867-8.9141-7.7773l-0.082031-1.2227v-103.5l-71.613 0.011718c-23.969 0-43.449 18.188-44.68 40.957l-0.0625 2.293v52.246c0 23.062 18.707 41.996 42.359 43.191l2.3828 0.058594h86.871c20.82 0 68.07 28.184 146.31 85.949l4.8711 3.6172c0.33203 0 1.1523-0.92578 1.4141-2.6367l0.085938-1.1172v-310.37c0-0.99609-0.23047-1.9453-0.625-2.6875-0.60547-1.1484-0.71875-1.1797-1.1758-0.82422zm103.89 231.05c2.5469-4.2656 8.0703-5.6602 12.336-3.1172l36.812 21.969 1.0039 0.69531c3.4648 2.7617 4.4453 7.7266 2.1094 11.641-2.5469 4.2656-8.0664 5.6602-12.336 3.1133l-36.809-21.965-1.0078-0.69531c-3.4648-2.7617-4.4414-7.7305-2.1094-11.641zm-84.082-110.38v76.039c19.004-3.5273 27.57-16.633 27.57-38.02 0-21.387-8.5664-34.492-27.57-38.02zm147.96 29.789 1.2188 0.082031c4.3906 0.59766 7.7773 4.3633 7.7773 8.918 0 4.9648-4.0312 8.9961-8.9961 8.9961h-39.426l-1.2188-0.082031c-4.3945-0.59766-7.7773-4.3633-7.7773-8.9141 0-4.9688 4.0273-9 8.9961-9zm-10.809-82.75c2.3359 3.9102 1.3555 8.8789-2.1094 11.641l-1.0039 0.69531-36.812 21.965c-4.2656 2.5469-9.7891 1.1523-12.336-3.1133-2.332-3.9141-1.3555-8.8789 2.1094-11.641l1.0078-0.69531 36.809-21.969c4.2695-2.543 9.7891-1.1484 12.336 3.1172zm-54.477-65.668c3.3672 3.0117 3.9336 7.9844 1.5195 11.648l-0.8125 1.0547-28.121 31.43c-3.3125 3.7031-9 4.0195-12.703 0.70703-3.3672-3.0117-3.9336-7.9844-1.5195-11.648l0.8125-1.0547 28.121-31.43c3.3125-3.7031 9-4.0195 12.703-0.70703z"/>
</svg>