<?xml version="1.0" encoding="utf-8"?>
<!-- Generator: Adobe Illustrator 24.3.0, SVG Export Plug-In . SVG Version: 6.00 Build 0)  -->
<!DOCTYPE svg PUBLIC "-//W3C//DTD SVG 1.1//EN" "http://www.w3.org/Graphics/SVG/1.1/DTD/svg11.dtd" [
	<!ENTITY ns_extend "http://ns.adobe.com/Extensibility/1.0/">
	<!ENTITY ns_ai "http://ns.adobe.com/AdobeIllustrator/10.0/">
	<!ENTITY ns_graphs "http://ns.adobe.com/Graphs/1.0/">
	<!ENTITY ns_vars "http://ns.adobe.com/Variables/1.0/">
	<!ENTITY ns_imrep "http://ns.adobe.com/ImageReplacement/1.0/">
	<!ENTITY ns_sfw "http://ns.adobe.com/SaveForWeb/1.0/">
	<!ENTITY ns_custom "http://ns.adobe.com/GenericCustomNamespace/1.0/">
	<!ENTITY ns_adobe_xpath "http://ns.adobe.com/XPath/1.0/">
]>
<svg version="1.1" id="_x3C_Layer_x3E_" xmlns:x="&ns_extend;" xmlns:i="&ns_ai;" xmlns:graph="&ns_graphs;"
	 xmlns="http://www.w3.org/2000/svg" xmlns:xlink="http://www.w3.org/1999/xlink" x="0px" y="0px" viewBox="0 0 2415 2100"
	 style="enable-background:new 0 0 2415 2100;" xml:space="preserve">
<style type="text/css">
	.st0{fill:#2C2759;}
	.st1{fill:#FF6A51;}
	.st2{fill:#DB4031;}
	.st3{fill:#8A80EE;}
	.st4{fill:#FBC7B1;}
	.st5{fill:#FC9171;}
	.st6{fill:#BC613F;}
	.st7{fill:#353659;}
	.st8{fill:#FFFFFF;}
</style>
<metadata>
	<sfw  xmlns="&ns_sfw;">
		<slices></slices>
		<sliceSourceBounds  bottomLeftOrigin="true" height="1200.3" width="751.4" x="795" y="143.3"></sliceSourceBounds>
	</sfw>
</metadata>
<g>
	<g>
		<path class="st0" d="M1384.1,1762.2c0,0.2,0,0.3-0.1,0.5c-0.4,3.6-0.9,7.2-1.5,10.7c0,0.3-0.1,0.6-0.1,0.9s-0.1,0.5-0.1,0.7
			c0,0.1,0,0.2,0,0.2c0,0.3-0.1,0.4-0.1,0.4c-1.1,6.8-11.6,130.5-18.9,181.1H868.2c14.5-41.4,30.8-78.6,47.2-111.1
			c0.2-0.4,0.4-0.7,0.5-1.1c5-9.9,10-19.4,14.9-28.5c0.3-0.5,0.5-1,0.8-1.5c9.3-16.9,18.4-32.1,26.9-45.7
			c8.8-14.1,17.1-26.2,24.3-36.5l0,0c6.6-9.3,12.3-17,16.9-23c0.6-0.8,1.2-1.5,1.7-2.2c0.6-0.8,1.2-1.5,1.7-2.2
			c5.4-6.9,8.6-10.4,8.6-10.4l160.5-44.8l0,0l192.2-53.6l0,0l12.4-3.5c0,0,0.4,2.4,1.1,6.7c0.2,1.3,0.4,2.7,0.7,4.4
			c0.2,1.4,0.4,2.8,0.6,4.4c0.2,1.4,0.4,2.9,0.6,4.5C1384.2,1644,1390.7,1706.3,1384.1,1762.2z"/>
	</g>
	<g>
		<path class="st1" d="M1130.7,855.5c-4.3,4.7-1.5,12.2,1.4,17.9c6.3,12.1,12.5,24.4,18.4,36.7c25.4,52.8,47.1,107.5,64.7,163.4
			c1.4,4.3,2.7,9.2,0.6,13.3c-1.5,3.1-4.6,4.9-7.6,6.7c-89.5,51.6-189.1,85.5-291.4,99.3c-0.8,0.1-1.5,0.2-2.3,0.3
			c-5.1,0.7-10.2,1.3-15.3,1.9c-0.8,0.1-1.6,0.2-2.4,0.2c-5.8,0.6-11.6,1.2-17.4,1.7c-2.6,0.2-5.3,0.4-7.8-0.3
			c-3.1-1-5.6-3.3-7.9-5.7c-39.1-40.7-48.3-107.1-21.6-156.9c13.8-25.7,35.5-46.3,49.5-71.8c10.5-19.1,15.7-43.6,9.2-63.5
			c-2.2-6.6-5.6-12.8-10.6-18l57.9-6.3l26-2.8l48.6-5.3C1058.8,862.7,1094.7,859.1,1130.7,855.5z"/>
	</g>
	<g>
		<g>
			<path class="st2" d="M915.9,905.1L915.9,905.1c9.6,18.4,16.7,39.4,13.1,60.2c-4.3,25.1-25.3,44-38,65.1
				c-16.1,27-22.6,56.2-18,87.3c4.1,27,14.5,52.6,26.2,77.2c-0.8,0.1-1.6,0.2-2.4,0.2c-21.1-44.9-38.7-96.1-18.6-144.6
				c5.2-12.7,12.4-24.4,20.2-35.7c8.2-11.8,18.2-22.8,24.1-36.1c11.3-25.4,2.1-53.3-10.6-76.4c-0.4-0.7-0.8-1.4-1.2-2.1
				c-0.2-0.3-0.3-0.6-0.5-1c-0.1-0.1-0.1-0.3-0.1-0.4c-0.2-1.1,1.5-1.9,2.2-0.7c0.4,0.7,0.9,1.5,1.3,2.3c0,0,0.1,0.1,0.1,0.2
				C914.4,902.2,915.1,903.6,915.9,905.1z"/>
		</g>
	</g>
	<path class="st3" d="M1459.5,1349.8c-40.4-133.1-127.3-220.8-276-240.9c-120.3-16.2-271.6,36.7-255.7,113.1
		c75.6,364.6-13.5,515.1-13.5,515.1s-24.6,91.3,62.8,90s340.8-71.4,405.2-51.5c0,0,25.9-172.8,22.5-377.2
		C1454.3,1377.7,1459.5,1349.8,1459.5,1349.8z"/>
	<g>
		<g>
			<path class="st2" d="M953.7,961.8c3.4,24.2-5.1,47.4-15.3,68.9c-12.9,27-28,52.7-32.1,82.9c-3.6,26.9,0.2,54.3,10.6,79.2
				c-0.8,0.1-1.5,0.2-2.3,0.3c-8.6-20.6-12.7-42.8-11.8-65.2c1-25.5,9.1-48.9,20.3-71.6c12.1-24.5,27-49.3,28.9-77.3
				c2-29.3-12.4-57.3-36.1-73.8c-1.3-0.9-2.7-1.8-4-2.6c-0.7-0.5-1.4-0.9-2.2-1.3c-0.4-0.2-0.6-0.6-0.5-0.9c0-0.5,0.4-1,0.9-1.1
				c0.2-0.1,0.5,0,0.8,0.1c0.8,0.5,1.6,0.9,2.4,1.4c0.1,0.1,0.2,0.1,0.3,0.2C935,914.2,950.1,936.5,953.7,961.8z"/>
		</g>
	</g>
	<path class="st4" d="M849.8,1264.9c0,0-119.1,426.8,6.3,468.5c125.4,41.7,114.7-328.2,114.7-328.2L849.8,1264.9z"/>
	<g>
		<path class="st3" d="M798.7,1346c-10.8,19.1,3.8,20.6,21.3,33.8c36.7,27.8,218.6,75.6,272,53.8l-8.4-146.9l29.2-184.3
			c0,0-142.1,8-219.4,97.8C858.9,1240.4,816.6,1314.2,798.7,1346z"/>
	</g>
	<g>
		<path class="st1" d="M996.9,795.8l-22.7,75.8l-0.9,3c-5.2,8.5-13.8,15.4-24.1,19.9c-7.2,3.2-15.2,5.3-23.6,6
			c-1.7,0.1-3.3,0.3-4.9,0.3c-2.4,0.1-4.8,0-7.2-0.1c-0.1,0-0.1,0-0.2,0c-0.8-0.1-1.7-0.1-2.5-0.2c-0.5-0.1-1.1-0.1-1.6-0.2
			c-0.7-0.1-1.3-0.2-2-0.3c-2.1-0.3-4.2-0.8-6.2-1.2c-24.1-5.9-44.3-23.5-49.2-43.2c-0.2-0.9-0.4-1.7-0.6-2.6
			c-0.2-0.9-0.3-1.8-0.4-2.6c-1.2-9.5,0.5-19,3.4-28.1c0-0.1,0-0.1,0-0.1c0.6-2,1.4-4.1,2.1-6c0-0.1,0-0.2,0.1-0.2
			c0.5-1.2,0.9-2.4,1.4-3.6c0.3-0.6,0.5-1.2,0.8-1.9l0,0c0.7-1.4,1.3-2.9,2.1-4.3c5.8-11.3,13.9-21.8,24.9-30
			c16.1-12,38.9-18.8,61.6-15.6c16.3,2.3,32.1,10.3,41.6,21.4c1.1,1.3,2.2,2.7,3.1,4.2c0.6,0.8,1.1,1.7,1.6,2.6
			C995.1,790.8,996.1,793.3,996.9,795.8z"/>
	</g>
	<g>
		<path class="st1" d="M991.1,790.1c-9.2,6.1-18.1,13-25,21.7c-6.1,7.7-11.6,16.3-13.7,26c-24.8,116.2,64.9,159.1,81.3,162.4
			c14.7,2.9,30.1,5.4,44.4,0.9c14.8-4.6,26.4-16.2,36.2-28.3c17-21,30.3-45,39.1-70.6l40.9-106.6c-9-16.7-27.2-26.5-45.4-32
			C1096.3,747.4,1037.1,759.6,991.1,790.1z"/>
	</g>
	<g>
		<path class="st4" d="M1183.5,1108.9c-0.4,4.6-0.6,8.5-0.6,11.5c0,22.6,33.2,67.4-31.9,60.9c-76.3-7.6-96.7-48.5-88.3-71.4
			c33-90.1,41.8-160.4,41.8-160.6l31.1,19.4l6.4,4l55.7,34.8c0,0-0.6,4.1-1.4,10.6c-0.6,4.8-3.9,24.5-7,45.8
			C1186.9,1079.9,1184.6,1096.7,1183.5,1108.9z"/>
	</g>
	<g>
		<path class="st5" d="M1189.2,1064c-2.4,15.9-4.7,32.6-5.7,44.9c-20.8-14.8-51.3-44.2-51.5-89.4c0-0.7,0-1.4,0-2.1
			c0,0,2.6,2.3,6.8,5.9C1150.3,1033.2,1173.6,1053,1189.2,1064z"/>
	</g>
	<g>
		<path class="st4" d="M1074.9,983.8c0,0,70,106.7,165.8,92.3c95.8-14.5,48.8-170.1-4-220.2C1183.9,805.8,994.7,782.8,1074.9,983.8z
			"/>
	</g>
	<g>
		<g>
			<path class="st5" d="M1103.6,1019.9c21.2,23.8,47.7,41.7,77.8,52.5c1.5,0.5,2.3-1.9,0.7-2.4c-29.6-10.6-55.7-28.3-76.7-51.8
				C1104.3,1017,1102.5,1018.7,1103.6,1019.9z"/>
		</g>
	</g>
	<g>
		<g>
			<path class="st6" d="M1234.6,906.2c1.6,0,1.7-2.5,0.1-2.5c-9.4,0.2-17.1,6.8-16.8,16.6c0.3,7.7,5.4,14.8,9.5,20.9
				c5,7.3,19.9,20.6,7.9,28.1c-1.4,0.8-0.2,3.1,1.2,2.2c9-5.6,10-7.1,3.7-16.8c-3.9-6.1-8.6-11.6-12.5-17.7
				c-1.8-2.8-3.7-5.8-5.1-8.9C1218.2,917.8,1222.2,906.4,1234.6,906.2z"/>
		</g>
	</g>
	<g>
		<path class="st1" d="M1163.9,897.3c-6.3,4.7-8.4,12.7-5.7,16.3c2.7,3.7,8.4,0.7,14.8-4s10.9-9.2,8.2-12.9
			C1178.5,893.2,1170.3,892.7,1163.9,897.3z"/>
	</g>
	<g>
		<path class="st2" d="M1217.8,895.7c1.2,4.4,7.6,3.7,15.2,1.7s13.5-4.6,12.4-9s-8.7-7.9-16.3-5.9
			C1221.5,884.6,1216.7,891.3,1217.8,895.7z"/>
	</g>
	<g>
		<path class="st7" d="M1190.6,949.4c2.1,4.9,6.6,7.7,10,6.2s4.5-6.6,2.4-11.5s-6.6-7.7-10-6.2S1188.5,944.5,1190.6,949.4z"/>
	</g>
	<g>
		<path class="st7" d="M1241.6,927.1c2.1,4.9,6.6,7.7,10,6.2s4.5-6.6,2.4-11.5s-6.6-7.7-10-6.2S1239.5,922.2,1241.6,927.1z"/>
	</g>
	<g>
		<path class="st1" d="M1316.6,808.4c0.9,1.9,1.7,3.8,2.4,5.8c7.3,22.1-1.9,47.5-12.7,58.5c-14.8,15-38,18.5-59.1,17.5
			c-21-1-41.5-6.9-62.1-11c-19.5-3.9-42-5.6-56.9,7.6l-2.5-54.4l-0.1-1.6l-0.9-19.4c19.5-18.2,45.6-27.7,71.9-32
			C1271.8,767.1,1305.1,784.8,1316.6,808.4z"/>
	</g>
	<g>
		<path class="st1" d="M1043,1001.8c58.3,18.2,82.2-34.5,82.2-34.5c-24.5-59.2,3-80.6,3-80.6l2.1-68l-67.9,9.9c0,0-28,38.6-29.3,40
			C1031.7,870,984.7,983.6,1043,1001.8z"/>
	</g>
	<g>
		
			<ellipse transform="matrix(0.3039 -0.9527 0.9527 0.3039 -164.08 1731.1243)" class="st4" cx="1102.6" cy="977.8" rx="29.5" ry="37.1"/>
	</g>
	<g>
		<g>
			<path class="st2" d="M948.8,899.8c9.1,37,13.1,76.6,47.7,99.2c25.7,16.8,59.8,21.7,87,5.5c1.3-0.8,0.2-2.8-1.1-2
				c-27.3,16.3-61.8,10.7-87.1-7.1c-32.1-22.5-35.6-61.1-44.3-96.1C950.7,897.9,948.5,898.4,948.8,899.8z"/>
		</g>
	</g>
	<g>
		<g>
			<path class="st5" d="M1066.6,983.5c4.9,10.7,12,19.8,23.7,23.1c12.5,3.5,26.4,3.4,38.6-1.2c1.5-0.6,0.3-2.8-1.2-2.2
				c-11.3,4.3-25,4.4-36.7,1c-11.1-3.2-17.6-11.8-22.2-21.9C1068.1,980.8,1065.9,982,1066.6,983.5z"/>
		</g>
	</g>
	<g>
		<g>
			<path class="st2" d="M966.1,800.8c0,0.8-1,1.8-2,1.2c-5.6-2.9-11.6-4.9-17.7-6.2h-0.1c-15.8-3.2-32.7-1.7-48.3,0.8
				c-1.3,0.2-2.7,0.4-4,0.7c-0.1,0-0.2,0-0.3,0.1c-12.1,2.2-24.8,6-35.1,12.9c0.7-1.4,1.3-2.9,2.1-4.3c11.1-6.4,24.4-9.9,36.7-11.8
				c16.1-2.5,33.4-4.1,49.6-0.7c0,0,0,0,0.1,0c6.3,1.3,12.5,3.4,18.3,6.4C965.9,800,966.1,800.4,966.1,800.8z"/>
		</g>
	</g>
	<g>
		<g>
			<path class="st2" d="M856.4,815.7c0.5-1.2,0.9-2.4,1.4-3.6c2.3-1.3,4.8-2.4,7.3-3.4l0,0c3.5-1.4,7.1-2.4,10.7-2.9l0,0
				c3.8-0.5,7.6-0.5,11.2,0.3c9.6,2.1,20.5,11.5,18.9,22.1c-1.9,12-14.1,19.6-24.8,22.8c-9.7,2.9-19.9,3.1-30,1.9
				c-0.2-0.9-0.3-1.8-0.4-2.6c16.2,2,33.6,0.9,45.6-10.3c2.4-2.2,4.4-4.9,5.7-7.9c2.3-5.6,1.8-8.5-1.9-13.2
				c-5.3-6.7-10.7-10.5-19.7-10.3c-5,0.1-10,1.2-14.7,3c-3.3,1.2-6.4,2.7-9.4,4.5L856.4,815.7z"/>
		</g>
	</g>
	<g>
		<g>
			<path class="st2" d="M1316.6,808.4c0.9,1.9,1.7,3.8,2.4,5.8c-0.3,2.5-1,5-2,7.5c-4.6,11.1-15.6,17.1-26.6,20.3
				c-28.6,8.3-60.4,3.3-89.2-1.3c-22.7-3.7-50.8-11.1-75.5-8.3c-8.3,0.9-16.2,3-23.5,6.8c-17.2,9-25.3,26.6-20.1,45.4
				c4.9,17.7,19,30.7,32,42.7c1.1,1-0.6,2.6-1.7,1.6c-18-16.7-40.8-39.7-32.9-66.9c6-20.8,26.2-29.1,46.1-31.1
				c5.5-0.6,11-0.7,16.2-0.4c31,1.5,61.3,9.6,92.1,12.4c16.2,1.5,32.8,1.8,48.8-1.4c10.9-2.1,22.8-6.2,29.5-15.8
				C1315.9,820.5,1317.4,814.2,1316.6,808.4z"/>
		</g>
	</g>
	<g>
		<g>
			<path class="st4" d="M1279.8,1493.3c0,0-99.5,20.9-197.7,36.4s-204.8,28.5-224.5,66c-112.3,213.1,134.2,140.6,183.1,116.9
				c66.7-32.2,179.7-89.3,283-123.1L1279.8,1493.3z"/>
		</g>
		<g>
			<g>
				<path class="st4" d="M1323.7,1600.8c35-12.4,49.7-43.9,66-77.3l60.7-17.9c19-7.4,36.1-19.4,49.4-34.8c3.5-4,6.9-8.9,6.1-14.2
					c-0.6-3.6-3-6.6-5.6-9.2c-14-14.1-33.5-21.9-53.3-24s-39.8,1.1-58.9,6.4c-49.2,13.7-94.6,42.3-125.7,82.8
					c-9,11.7-17,24.8-19.5,39.4s1.5,31,13,40.4C1270.1,1604.1,1306.3,1607,1323.7,1600.8z"/>
			</g>
			<g>
				<path class="st4" d="M1546.3,1453.9c2.3-14.7-48.5-26.6-82.1-31.8s-44.8,1.7-46.4,12.1s7,20.3,40.7,25.5
					C1492,1464.8,1543.6,1471,1546.3,1453.9z"/>
			</g>
			<g>
				<path class="st4" d="M1540.7,1514c9.5-11.4-27.9-47.8-54-69.5c-26.2-21.7-39.3-21.6-46-13.5s-4.4,21,21.8,42.7
					C1488.6,1495.5,1529.7,1527.3,1540.7,1514z"/>
			</g>
			<g>
				<path class="st4" d="M1499.4,1536.4c9.6-11.3-27.2-48.2-53-70.3s-39-22.1-45.8-14.2s-4.7,21,21.2,43
					C1447.6,1517.1,1488.2,1549.5,1499.4,1536.4z"/>
			</g>
			<g>
				<path class="st4" d="M1452,1540.3c4.6-11.8-35.5-31-62.6-41.4s-37.7-6.7-40.9,1.6c-3.2,8.3,2.2,18.2,29.2,28.6
					C1404.9,1539.4,1446.7,1554,1452,1540.3z"/>
			</g>
			<g>
				<g>
					<path class="st5" d="M1387.2,1531.6c-13.5-4-25.4-10.6-35.9-19.9c-1.2-1.1-2.9,0.7-1.7,1.8c10.8,9.6,23.2,16.4,37,20.5
						C1388.1,1534.5,1388.7,1532.1,1387.2,1531.6z"/>
				</g>
			</g>
			<g>
				<g>
					<path class="st5" d="M1362.7,1523.6c1.4-0.8,0.1-3-1.3-2.2c-6.5,3.8-13.9,4.9-21.2,3.4c-1.6-0.3-2.2,2.1-0.6,2.4
						C1347.6,1529,1355.6,1527.7,1362.7,1523.6z"/>
				</g>
			</g>
			<g>
				<g>
					<path class="st5" d="M1477.2,1493.8c-10.6-11.4-30-15.5-44.3-19.9c-1.5-0.5-2.1,2-0.6,2.4c14,4.3,32.9,8.2,43.2,19.3
						C1476.6,1496.8,1478.3,1495,1477.2,1493.8z"/>
				</g>
			</g>
			<g>
				<g>
					<path class="st5" d="M1442.9,1513.1c1.2,1.1,2.9-0.7,1.7-1.8c-8-7.7-18.9-7.9-29.4-7.6c-1.6,0-1.6,2.6,0.1,2.5
						C1425.1,1505.9,1435.4,1505.9,1442.9,1513.1z"/>
				</g>
			</g>
			<g>
				<g>
					<path class="st5" d="M1512,1462.8c-15.5-9.8-33-14.5-51.3-13.9c-1.6,0.1-1.6,2.6,0.1,2.5c18-0.6,34.9,4,50.1,13.6
						C1512.2,1465.8,1513.4,1463.6,1512,1462.8z"/>
				</g>
			</g>
		</g>
	</g>
	<g>
		<g>
			<path class="st4" d="M1255.7,1235.2c0,0,54.1,333.6,129,380.9c141.8,89.5,138.1-115.4,94.8-185.2
				c-33.6-54.2-86.9-130.7-130-258.8L1255.7,1235.2z"/>
		</g>
	</g>
	<g>
		<g>
			<g>
				<g>
					<g>
						<path class="st4" d="M1297.4,1141.2c-17.5-41.1-40.4-105.1-26.8-109.9c15.9-5.6,42.2,57.5,61.7,97.6
							c29,59.7,14.9,55.9,5.2,59.3C1327.9,1191.6,1314.9,1182.3,1297.4,1141.2z"/>
					</g>
				</g>
			</g>
			<g>
				<g>
					<g>
						<path class="st4" d="M1255.7,1235.2l-34.2-55.1c-4.9-10.2,7.2-29.5,18.1-34.7l40-38.7c10.9-5.2,23.8-1.2,28.8,9.1l30.6,49.5
							C1344.9,1176.3,1267.7,1260.1,1255.7,1235.2z"/>
					</g>
				</g>
			</g>
			<g>
				<path class="st4" d="M1207,1154.2c-12-24.7-6-29.6,2.4-33.7s16-5.7,27.9,19c12,24.7,23.3,54.6,10.7,60.7
					C1236.3,1205.8,1218.9,1178.9,1207,1154.2z"/>
			</g>
			<g>
				<path class="st4" d="M1231.7,1134.5c-12-24.7-6-29.6,2.4-33.7s16-5.7,27.9,19c12,24.7,23.3,54.6,10.7,60.7
					C1261,1186.2,1243.7,1159.2,1231.7,1134.5z"/>
			</g>
			<g>
				<path class="st4" d="M1253.8,1122.3c-12-24.7-6-29.6,2.4-33.7s21.8-5.1,33.7,19.6s17.5,53.9,4.9,60.1
					C1283.1,1174,1265.8,1147,1253.8,1122.3z"/>
			</g>
		</g>
	</g>
	<g>
		<path class="st6" d="M1222.1,1007c7-12.5,17.8-22,31.2-27.1c2.4-0.9,1.4-4.9-1.1-3.9c-14.4,5.5-26.2,15.5-33.7,29
			C1217.3,1007.2,1220.8,1009.3,1222.1,1007L1222.1,1007z"/>
	</g>
	<g>
		<path class="st5" d="M836.6,1619.1c15.2-19.3,36.9-33.2,58.5-44.3c22-11.4,45.7-20.6,70.2-25.1c0.9-0.2,0.5-1.5-0.4-1.3
			c-24.5,4.6-48.4,13.8-70.5,25.2c-21.7,11.2-43.5,25.2-58.8,44.6C835.1,1618.8,836,1619.8,836.6,1619.1L836.6,1619.1z"/>
	</g>
	<g>
		<path class="st5" d="M1304.9,1457.2c13.8,44.1,30.1,87.5,51.4,128.5c0.4,0.8,1.6,0.1,1.2-0.7c-21.3-40.9-37.6-84.2-51.3-128.2
			C1305.9,1456,1304.6,1456.3,1304.9,1457.2L1304.9,1457.2z"/>
	</g>
	<g>
		<path class="st5" d="M1269.4,1594.1c9.7,9.3,23.3,13,36.4,9.8c0.9-0.2,0.5-1.5-0.4-1.3c-12.6,3-25.7-0.5-35-9.5
			C1269.7,1592.5,1268.7,1593.5,1269.4,1594.1L1269.4,1594.1z"/>
	</g>
	<g>
		<path class="st5" d="M1286.9,1041.3c-2.4-6.7-14.1-14.2-20.8-9c-3.4,2.7-4,8.3-3.5,12.2c0.8,6.7,3.5,13.5,5.3,20.1
			c0.2,0.8,1.6,0.5,1.3-0.4c-1.9-6.9-5.6-15.1-5.4-22.3c0.1-6.8,4.8-10.9,11.5-8.9c4.5,1.3,8.7,4.1,10.3,8.7
			C1285.8,1042.5,1287.2,1042.1,1286.9,1041.3L1286.9,1041.3z"/>
	</g>
	<g>
		<path class="st5" d="M1249.7,1228.7c5.5,6.4,13,10.2,21.3,11c0.9,0.1,0.9-1.3,0-1.4c-8-0.8-15.1-4.5-20.4-10.6
			C1250.1,1227.1,1249.1,1228,1249.7,1228.7L1249.7,1228.7z"/>
	</g>
	<g>
		<path class="st5" d="M1347.4,1164.4c3.5,14.9,3.4,30.1-0.3,45c-0.2,0.9,1.1,1.2,1.3,0.4c3.7-15.1,3.8-30.6,0.3-45.8
			C1348.5,1163.2,1347.2,1163.6,1347.4,1164.4L1347.4,1164.4z"/>
	</g>
	<g>
		<path class="st5" d="M1473,1422.9c8.1,15.3,15.1,31.1,20.7,47.5c2.6,7.6,4.9,15.2,7,23c1,3.9,2,7.8,2.9,11.7
			c0.5,2.4,0.4,6,2.4,7.7c0.3,0.2,0.5,0.3,0.8,0.1c0.7-0.3,0.8-0.4,0.9-1.2c0.1-0.3-0.1-0.6-0.3-0.8c-0.1-0.1-0.2-0.2-0.3-0.2
			c-0.7-0.5-1.4,0.7-0.7,1.2c-1.3-0.9-2-9.4-2.4-11c-0.9-3.9-1.9-7.8-3-11.6c-2.2-8-4.8-16-7.6-23.8c-5.4-14.8-11.8-29.2-19.2-43.1
			C1473.8,1421.4,1472.6,1422.1,1473,1422.9L1473,1422.9z"/>
	</g>
	<g>
		<path class="st8" d="M809.7,1377.2c30,15.2,61.2,27.9,93.4,37.8c16.2,5,32.6,9.2,49.1,12.7c8.4,1.8,16.9,3.4,25.4,4.8
			c3.9,0.7,7.9,1.3,11.8,1.8c2.3,0.3,4.9,1,7.1,0.2c2.5-0.9,3.5-2.9,4.6-5.2c2.1-4.6,3.9-9.3,5.8-13.9c4.1-9.9,8.3-19.8,12.4-29.7
			c0.7-1.6-2-2.3-2.6-0.7c-4.1,9.9-8.3,19.8-12.4,29.7c-1.1,2.6-2.2,5.3-3.3,7.9c-0.8,1.9-1.8,5.5-3,7c-3.7,4.7-14.6,1-19.6,0.2
			c-19-3.2-37.8-7.3-56.3-12.3c-38.3-10.4-75.5-24.8-110.9-42.7C809.5,1374.1,808.1,1376.4,809.7,1377.2L809.7,1377.2z"/>
	</g>
</g>
</svg>
