<?xml version="1.0" encoding="utf-8"?>
<!-- Generator: Adobe Illustrator 24.3.0, SVG Export Plug-In . SVG Version: 6.00 Build 0)  -->
<svg version="1.1" xmlns="http://www.w3.org/2000/svg" xmlns:xlink="http://www.w3.org/1999/xlink" x="0px" y="0px"
	 viewBox="0 0 500 500" style="enable-background:new 0 0 500 500;" xml:space="preserve">
<style type="text/css">
	.st0{fill:#E9C1D9;}
	.st1{clip-path:url(#SVGID_2_);}
	.st2{fill:#E19E2C;}
	.st3{fill:#D38A20;}
	.st4{fill:#D8A178;}
	.st5{fill:#EBBC8E;}
	.st6{fill:#683935;}
	.st7{fill:#D99E2E;}
	.st8{fill:#CC555F;}
	.st9{fill:#42354C;}
	.st10{fill:#2F2537;}
	.st11{fill:#7671AF;}
	.st12{fill:#4D4B82;}
	.st13{fill:#3B3843;}
	.st14{fill:#E28279;}
	.st15{fill:#FFFFFF;}
	.st16{fill:#BBDBEF;}
	.st17{clip-path:url(#SVGID_4_);}
	.st18{fill:#E6A07E;}
	.st19{fill:#DC8765;}
	.st20{fill:none;stroke:#683935;stroke-width:0.6422;stroke-miterlimit:10;}
	.st21{fill:#050504;}
	.st22{fill:#486F6C;}
	.st23{fill:#634927;}
	.st24{fill:#E09F25;}
	.st25{fill:#1C1D27;}
	.st26{fill:#7CACDE;}
	.st27{fill:#6FA1CD;}
	.st28{fill:#5C89B3;}
	.st29{fill:#3A71A1;}
	.st30{fill:#2F658E;}
	.st31{clip-path:url(#SVGID_6_);fill:#B16860;}
	.st32{clip-path:url(#SVGID_6_);fill:#B57567;}
	.st33{clip-path:url(#SVGID_6_);}
	.st34{fill:#B57567;}
	.st35{fill:#503A33;}
	.st36{fill:#E3ABA3;}
	.st37{fill:#D49A2C;}
	.st38{fill:#AF3C2A;}
	.st39{fill:none;stroke:#503A33;stroke-width:0.4378;stroke-linecap:round;stroke-linejoin:round;stroke-miterlimit:10;}
	.st40{fill:#B16860;}
	.st41{fill:#7C3645;}
	.st42{fill:none;stroke:#000000;stroke-width:0.6358;stroke-linecap:round;stroke-linejoin:round;stroke-miterlimit:10;}
	.st43{fill:none;stroke:#000000;stroke-width:0.7518;stroke-linecap:round;stroke-linejoin:round;stroke-miterlimit:10;}
	.st44{clip-path:url(#SVGID_8_);}
	.st45{fill:#E7A17E;}
	.st46{fill:#DD8865;}
	.st47{fill:#E4BB5B;}
	.st48{fill:none;stroke:#57687E;stroke-width:0.5381;stroke-linecap:round;stroke-linejoin:round;stroke-miterlimit:10;}
	.st49{fill:#2E2646;}
	.st50{fill:#1A162B;}
	.st51{fill:#282822;}
	.st52{fill:none;stroke:#63453C;stroke-width:1.0082;stroke-miterlimit:10;}
	.st53{fill:#795948;}
	.st54{fill:#63453C;}
	.st55{fill:none;stroke:#634927;stroke-width:0.5289;stroke-miterlimit:10;}
</style>
<g id="BACKGROUND">
</g>
<g id="OBJECTS">
	<g>
		<path class="st0" d="M35.2,516.6c-1.7,0-132.4,0-141.1,0s-17.9,0.6-17.9,17.9c0,17.3-2,125.3-0.2,141.7c1.4,13.6,6.6,20.2,28,20.8
			s117.9-0.4,128.9,0c6.9,0.3,19.9,0.3,20.8-20.2c0.9-20.9,0.6-120.5,0.6-139.3C54.4,515.2,35.2,516.6,35.2,516.6z"/>
		<g>
			<defs>
				<path id="SVGID_1_" d="M49.1,516.7c-1.7,0-146.3-0.1-155-0.1s-17.9,0.6-17.9,17.9c0,17.3-2,125.3-0.2,141.7
					c1.4,13.6,6.6,20.2,28,20.8s131.8-0.3,142.8,0.1c6.9,0.3,19.9,0.3,20.8-20.2c0.9-20.9,0.6-120.5,0.6-139.3
					C68.3,515.2,49.1,516.7,49.1,516.7z"/>
			</defs>
			<clipPath id="SVGID_2_">
				<use xlink:href="#SVGID_1_"  style="overflow:visible;"/>
			</clipPath>
			<g class="st1">
				<g>
					<g>
						<path class="st2" d="M39,679.9l-0.3-0.5c4.8-2.7,6.5-8.8,6-13.6c-0.5-5.5-3.3-10.5-5.7-14.9c-2.6-4.8-5.2-9.7-5.9-15.1
							c-0.6-4.8,0.4-9.6,1.4-14.2c0.5-2.2,1-4.5,1.3-6.7c1.6-11.7-1.6-23.8-8.9-33.1c-1.4-1.8-3-3.6-4.6-5.4
							c-4.8-5.3-9.7-10.8-10.1-17.9l0.6,0c0.4,6.9,5.2,12.3,9.9,17.5c1.6,1.8,3.2,3.6,4.6,5.4c7.4,9.5,10.6,21.7,9,33.6
							c-0.3,2.3-0.8,4.6-1.3,6.8c-1,4.6-2,9.3-1.4,14c0.6,5.3,3.3,10.1,5.8,14.8c2.4,4.5,5.2,9.6,5.7,15.1
							C45.8,670.7,44.1,677.1,39,679.9z"/>
					</g>
					<path class="st2" d="M39.5,651.2c-4.7-7.8-8-17.2-8.1-22.9c-0.2-10.5,10.2-23.3-3.7-42.8c-10.1-14.1-9.2-19.1-9.2-19.1
						l-98.1-6.8c0,0-3.1,15.4-9.2,23.4c-6.1,8-16.1,13.9-11,31.2c4.2,14.2-5.5,27.9-10.7,35.6c-5.2,7.6-3,15.7,3.1,34.4
						c0,0,4.3,2.7,7.8,4.6l1.4-8c1.3,0.6,2.5,9.8,4.1,10.3c1.6,0.5,3.3,0.9,5.1,1.2c-2.4-6.3-3-12.8-0.5-18
						c9.2-21.4,15.6-42.7,8.6-65.7c-5-17.3,8.1-31,22.4-34.1c20-4.2,36.4,7.2,53.7,14.6c5.8,1.8,13.4,3.7,16.4,9.4
						c5.9,10.5-4.4,23.2,0.5,34.7c3,7.7,10.7,14.3,13.7,22.9c3.4,8.6,3.7,17.8,1.7,26.8l0.3,0.6c0,0,9.1,2.2,16.3-5.2
						C45.6,676.6,47.7,664.9,39.5,651.2z"/>
					<path class="st3" d="M25.6,656.1c-3-8.6-10.7-15.3-13.7-22.9c-5-11.5,5.4-24.2-0.5-34.7c-3-5.7-10.6-7.6-16.4-9.4
						c-17.3-7.5-33.7-18.8-53.7-14.6c-14.3,3.1-27.4,16.8-22.4,34.1c7,23,0.7,44.3-8.6,65.7c-2.5,5.2-1.9,11.7,0.5,18
						c3,0.5,6.2,0.8,9.8,0.5l2.5-17.3l4.6,17.2c0,0,9.9,5.5,45.1-2.4c35.2-7.8,41.4-2.1,44.1-8.1c2.7-6-3.9-27.7-3.9-27.7l14.4,28.3
						C29.3,673.9,29.1,664.8,25.6,656.1z"/>
					<path class="st4" d="M-13.5,626.1l-0.4-8.5l-24.9,1.3l-0.4,7.7C-30.7,628.1-22.1,627.7-13.5,626.1z"/>
					<path class="st5" d="M5.4,634.5l-18.3-2.4l-0.6-6.1c-8.6,1.6-17.1,2.1-25.7,0.5l-0.3,5.3c0,0-8.3,3.5-11.2,4.2
						c0.1,13.5-2.3,50.4-0.8,63.9l58.7-0.2c0,0,1.7-16,2.4-21.8C11.7,659.7,5.4,634.5,5.4,634.5z"/>
					<path class="st5" d="M-50.8,602.8l-5.8-14.5c0,0-14.2-3.6-13.5,10.6C-69.3,613-54.5,612.2-50.8,602.8z"/>
					<path class="st4" d="M1,600l1.8-15.5c0,0,12.8-7.2,15.8,6.6C21.6,604.9,7.1,608,1,600z"/>
					<g>
						<path class="st6" d="M5.9,600c0,0,0.1,0,0.1,0c0.1-0.1,0.2-0.3,0.1-0.4c0-0.1-4.1-6.3,0-10.2c1.5-1.4,3-2,4.6-1.9
							c2.8,0.1,4.8,2.4,4.8,2.5c0.1,0.1,0.3,0.1,0.4,0c0.1-0.1,0.1-0.3,0-0.4c-0.1-0.1-2.2-2.5-5.2-2.6c-1.8-0.1-3.5,0.6-5,2.1
							c-4.5,4.2-0.1,10.8-0.1,10.9C5.7,600,5.8,600,5.9,600z"/>
					</g>
					<g>
						<path class="st6" d="M11.9,593.4c0.1,0,0.2-0.1,0.2-0.1c0.1-0.1,0-0.3-0.1-0.4c-0.1,0-5.3-2.7-8.2,1.4
							c-0.1,0.1-0.1,0.3,0.1,0.4c0.1,0.1,0.3,0.1,0.4-0.1c2.6-3.7,7.4-1.3,7.5-1.2C11.7,593.4,11.8,593.4,11.9,593.4z"/>
					</g>
					<path class="st5" d="M3.4,551.3c0,0,6.8,13.4,8.9,33.8c1.7,15.9-9.4,32.8-28.8,36.1c-18.2,3.1-37.9-2.3-46.2-27.3
						c-8.4-25-2.4-46.3,20.3-54.4C-19.8,531.3-3,535.8,3.4,551.3z"/>
					<path class="st4" d="M-32,600.4c-0.5,2.7-5,4.1-10.1,3.1c-5-1-8.7-4-8.2-6.7c0.5-2.7,5-4.1,10.1-3.1
						C-35.1,594.8-31.4,597.7-32,600.4z"/>
					<path class="st4" d="M7.7,595.7c0.6,2.7-3,5.7-7.9,6.8c-5,1.1-9.5-0.2-10.1-2.8c-0.6-2.7,3-5.7,7.9-6.8
						C2.6,591.8,7.2,593,7.7,595.7z"/>
					<path class="st7" d="M-45.7,576.5c0,0-2.8-2.5,3.1-5.6c5.9-3.2,8-2.5,9-0.9c0.9,1.4-0.5,3.6-3.8,5.3
						C-41.4,577.3-44.1,578-45.7,576.5z"/>
					<path class="st7" d="M3.9,575.5c0,0,2.1-2.9-4.5-5c-6.6-2.1-8.4-1.1-9,0.5c-0.5,1.5,1.4,3.4,5.1,4.5
						C0,576.9,2.8,577.2,3.9,575.5z"/>
					<path d="M-2.2,586c0,1.9-1.3,3.5-2.8,3.5c-1.6,0-2.8-1.5-2.9-3.5c0-1.9,1.3-3.5,2.8-3.5C-3.5,582.6-2.3,584.1-2.2,586z"/>
					<path d="M-33.6,586c0,1.9-1.3,3.5-2.8,3.5c-1.6,0-2.8-1.5-2.9-3.5c0-1.9,1.3-3.5,2.8-3.5C-34.9,582.6-33.6,584.1-33.6,586z"/>
					<g>
						<path class="st6" d="M-55.5,604.1c0,0-0.1,0-0.1,0c-0.1,0-0.2-0.2-0.2-0.4c0-0.1,2.3-7.1-2.7-9.8c-1.8-0.9-3.4-1.2-5-0.6
							c-2.6,0.9-4,3.6-4,3.7c-0.1,0.1-0.2,0.2-0.4,0.1c-0.1-0.1-0.2-0.2-0.1-0.4c0.1-0.1,1.5-3,4.4-3.9c1.7-0.6,3.5-0.3,5.4,0.7
							c5.5,2.9,3,10.4,3,10.5C-55.3,604-55.4,604.1-55.5,604.1z"/>
					</g>
					<g>
						<path class="st6" d="M-63,599.3c-0.1,0-0.2,0-0.2-0.1c-0.1-0.1-0.1-0.3,0-0.4c0,0,4.4-4,8.3-0.8c0.1,0.1,0.1,0.3,0,0.4
							c-0.1,0.1-0.3,0.1-0.4,0c-3.5-2.8-7.5,0.8-7.5,0.8C-62.9,599.3-63,599.3-63,599.3z"/>
					</g>
					<g>
						<path class="st6" d="M-16.7,593.9c-0.1,0-0.2-0.1-0.3-0.2c-0.1-0.1,0-0.3,0.1-0.4c0,0,2.3-1.1,3.3-3.1c0.8-1.6,0.5-4-0.5-5
							c-0.6-0.6-1.5-0.7-2.5-0.1c0,0-0.1,0-0.1,0.1c-3.5,2-5,1.1-5.7,0c-1.3-2-0.2-18.1-0.1-20c0-0.2,0.1-0.3,0.3-0.3
							c0.2,0,0.3,0.1,0.3,0.3c-0.3,4.9-1,18,0,19.6c0.8,1.3,2.5,1.2,5-0.2c0.1,0,0.1-0.1,0.2-0.1c1.2-0.6,2.3-0.6,3.1,0.2
							c1.2,1.2,1.5,3.8,0.6,5.6c-1.1,2.2-3.4,3.3-3.5,3.3C-16.6,593.9-16.7,593.9-16.7,593.9z"/>
					</g>
					<g>
						<path class="st8" d="M-21.3,603.8c1.8,0.6,3.3-0.4,4.3-1.6c-2.4-1.6-5.4-2.6-8-3.2C-24.6,600.7-23.6,603-21.3,603.8z"/>
						<path d="M-25.4,596.9c0,0,0,0.9,0.3,2.1c2.7,0.6,5.6,1.6,8,3.2c1.1-1.3,1.7-2.9,1.7-2.9C-18.7,596.9-25.4,596.9-25.4,596.9z"
							/>
					</g>
					<path class="st2" d="M-65.7,589.1c0,0,35.9-10.6,42.7-40.1c0,0,31.3,40.5,42.6,28.6c0,0,4.1-35.7-20.1-45.5
						c-13.3-5.4-23.5-2.6-23.5-2.6c-17.8-2.5-28.6-4.6-47.3,12C-90.6,558.7-85.4,598.2-65.7,589.1z"/>
					<g>
						<path class="st2" d="M-107.4,682.8c-6.9-9.9-8.5-23-4.2-34.3c1.1-3,2.7-5.9,4.2-8.6c2.5-4.6,5-9.3,5.7-14.5
							c0.6-4.3-0.2-8.8-0.9-13.1c-1-5.9-1.9-11.9,0.3-17.5c1.9-4.6,5.6-7.9,9.3-11.1c2-1.8,4.2-3.7,5.9-5.8
							c4.9-5.7,7.3-13.6,6.6-21.1l0.6-0.1c0.8,7.6-1.8,15.7-6.7,21.5c-1.8,2.1-3.9,4-6,5.8c-3.8,3.3-7.3,6.5-9.1,10.9
							c-2.2,5.4-1.3,11.1-0.3,17.1c0.7,4.4,1.5,8.9,0.9,13.3c-0.7,5.3-3.3,10.1-5.7,14.7c-1.5,2.8-3,5.6-4.1,8.6
							c-4.2,11.1-2.6,24,4.1,33.7L-107.4,682.8z"/>
					</g>
					<g>
						<path class="st2" d="M-82.7,593.5c-0.6,0-1.1,0-1.7,0l0-0.6c15,0.4,30.1-4.9,41.5-14.5c11.4-9.7,19.1-23.7,21.1-38.5l0.6,0.1
							c-2,15-9.8,29.1-21.3,38.9C-53.6,588.2-68.2,593.5-82.7,593.5z"/>
					</g>
					<g>
						<path class="st2" d="M16.9,576.6C-5.7,571.6-25,554-32.2,532l0.6-0.2c7.1,21.9,26.2,39.3,48.7,44.3L16.9,576.6z"/>
					</g>
					<g>
						<g>
							<path class="st5" d="M-2.9,885.6l-16.2-134.9l31.2-9.1c0,0,10.6,101,4.5,139.5c0,0,30,11.2,29.9,16.9c-0.2,5.7-34.8,1-34.8,1
								S-9.6,904.1-2.9,885.6z"/>
						</g>
						<g>
							<path class="st5" d="M-64.3,889.1c0,0-3.4-66.8-4.1-143.3c-0.1-11.4,42-0.7,42-0.7s-12.2,100.9-18.3,139.4
								c0,0,29,11,28.9,16.7c-0.2,5.7-33.8,1.3-33.8,1.3S-71,907.5-64.3,889.1z"/>
						</g>
						<g>
							<path class="st9" d="M7.7,700.1c0,0,12.1,43.9,10.6,67.7c-0.6,9.2,0.5,107.8,0.5,107.8s-8,2.3-25.4-0.8L-21,752.4l0,0
								l-20.5,125.5c0,0-17.2,2.9-24.2-2c0,0-4.7-66.5-2.7-130.1c0.7-20.5,11.5-39.2,17.5-45.9L7.7,700.1z"/>
							<g>
								<path class="st10" d="M-40.3,755.1c-0.2,0-0.3-0.1-0.3-0.3c0-0.2,0.1-0.3,0.3-0.3c14.2-0.3,34.5-4.2,34.7-4.3
									c0.2,0,0.3,0.1,0.4,0.2c0,0.2-0.1,0.3-0.2,0.4C-5.7,750.9-26,754.8-40.3,755.1C-40.3,755.1-40.3,755.1-40.3,755.1z"/>
							</g>
							<g>
								<path class="st10" d="M-64.3,878.2c0,0,0.2-3.5,0.2-3.5c-0.4,0-0.9,3.5-1.1-18.3c-0.2-20.6-0.4-55-0.4-102.4
									c0-0.3-1.7-29.5,16.7-54c0.1-0.1,0.3-0.2,0.4-0.1c0.1,0.1,0.2,0.3,0.1,0.4C-66.7,724.7-65,753.7-65,754
									c0,84.7,0.4,112.6,0.7,120.8c0.1,0,0.1-0.1,0.2-0.1c0.2,0,0.3,0.1,0.3,0.3C-63.9,878.1-64,878.2-64.3,878.2z"/>
							</g>
							<g>
								<path class="st10" d="M-4,873.7c-0.2,0-0.3-0.1-0.3-0.3l-15.2-120.6c0-0.2,0.1-0.3,0.3-0.3c0.2,0,0.3,0.1,0.3,0.3
									l15.2,120.6C-3.7,873.6-3.8,873.7-4,873.7C-4,873.7-4,873.7-4,873.7z"/>
							</g>
							<g>
								<path class="st10" d="M-19.5,742.6C-19.5,742.6-19.5,742.6-19.5,742.6c-0.2,0-0.3-0.1-0.3-0.3l1.3-41.1
									c0-0.2,0.1-0.3,0.3-0.3c0.2,0,0.3,0.1,0.3,0.3l-1.3,41.1C-19.2,742.5-19.4,742.6-19.5,742.6z"/>
							</g>
							<g>
								<path class="st10" d="M-60.9,728.5c-0.1,0-0.2-0.1-0.3-0.2c-0.1-0.1,0-0.3,0.1-0.4c5.7-3.2,15-13.5,15.6-27.7
									c0-0.2,0.2-0.3,0.3-0.3c0.2,0,0.3,0.2,0.3,0.3c-0.7,14.4-10.1,24.9-15.9,28.2C-60.8,728.5-60.8,728.5-60.9,728.5z"/>
							</g>
							<g>
								<path class="st10" d="M14.2,725.8C14.2,725.8,14.2,725.8,14.2,725.8c-1.9-0.3-4-2.1-6-4.9C4.8,716,1.7,707.7,3,700.8
									c0-0.2,0.2-0.3,0.4-0.2c0.2,0,0.3,0.2,0.2,0.4c-1.2,6.7,1.8,14.8,5.2,19.6c1.9,2.7,3,4.6,4.6,4.8c0.2,0,1.2,0,1.2,0.2
									C14.5,725.7,14.4,725.8,14.2,725.8z"/>
							</g>
							<g>
								<path class="st10" d="M-19.4,738C-19.4,738-19.4,738-19.4,738c-0.2,0-4.2-0.2-4.9-8.3c-0.7-7.9-0.2-28.5-0.2-28.7
									c0-0.2,0.1-0.3,0.3-0.3c0,0,0,0,0,0c0.2,0,0.3,0.1,0.3,0.3c0,0.2-0.5,20.8,0.2,28.6c0.7,7.5,4.3,7.8,4.3,7.8
									c0.2,0,0.3,0.1,0.3,0.3C-19.1,737.8-19.2,738-19.4,738z"/>
							</g>
							<g>
								<path class="st10" d="M-21.6,706.5c-9.4,0-20.6-0.5-32.7-2c-0.2,0-0.3-0.2-0.3-0.3c0-0.2,0.2-0.3,0.3-0.3
									c35.1,4.4,62.2,0.2,62.5,0.2c0.2,0,0.3,0.1,0.3,0.3c0,0.2-0.1,0.3-0.3,0.3C8.2,704.7-3.6,706.5-21.6,706.5z"/>
							</g>
							<path class="st10" d="M-23.2,702.9c0,1.1,0.8,1.9,1.8,2c1.1,0,1.9-0.8,2-1.8c0-1.1-0.8-1.9-1.8-2
								C-22.3,701-23.1,701.8-23.2,702.9z"/>
						</g>
					</g>
					<path class="st5" d="M-8.3,634.1c8.6,1.6,17.1,4.7,21.9,10.9c7.1,11.4,16.5,24.4,16.5,24.4l9.8-29.9c0,0,5.3-10.9,7.9-11.1
						c2.6-0.2,0,4.9,0,4.9s8.9-9.1,10.2-7.3c1.3,1.7-5.7,8.6-5.7,8.6s9.6-7.4,10.7-4.6c0.5,1.7-8.3,7.1-8.3,7.1s9.2-4.8,9.9-3.1
						c0.7,1.7-8.3,6-8.3,6s7.7-2.9,8.3-1.1c0.5,1.5-8,6.3-13.2,8.5c-0.9,9.9-4.7,37.6-17.9,43.9c-13.9,6.7-27.9-21.4-31.3-29"/>
					<g>
						<path class="st6" d="M28.6,673.1C28.5,673.1,28.5,673.1,28.6,673.1c-0.2-0.1-0.3-0.2-0.2-0.3c0-0.1,2.4-6.1,3.5-9.4
							c0-0.1,0.2-0.2,0.3-0.1c0.1,0,0.2,0.2,0.1,0.3c-1.1,3.3-3.5,9.4-3.5,9.4C28.7,673,28.7,673.1,28.6,673.1z"/>
					</g>
					<path class="st11" d="M-0.3,633.6c0,0,4.1-4.3,6.4-4.3c2.3,0-0.9,5.5,0.2,7.5c1.1,2,4.3,0.7,4.5,3.6c0.2,3-3.4,4.5-0.7,7.3
						c2.7,2.7,5.7,3.9,4.1,6.4c-1.6,2.5-2.7,6.6-2.7,6.6L-0.3,633.6z"/>
					<path class="st5" d="M-47.3,641.2l8,12.6c0,0-11.8,11.8-25.7,49.2c-5.2,14.1-10.9,34.3-10.9,34.3s5.3,9.7,3.7,12.2
						c-1.6,2.5-4.5-3.3-4.5-3.3s2.1,14.1-0.3,14.1c-2.4,0-3.8-10.9-3.8-10.9s0.1,13.6-3,12.7c-1.9-0.6-0.8-12.2-0.8-12.2
						s-1.9,11.5-3.9,11c-2-0.5,0.3-11.5,0.3-11.5s-2.6,8.9-4.6,8.2c-2-0.7,0.4-15.8,2.1-20.3c0,0,4.6-55.3,24.6-92.3
						c4-7,10-8.9,13.8-7.7l0,0C-50.3,637.9-48.5,639.3-47.3,641.2z"/>
					<path class="st11" d="M-39.5,631.9c0,0,12.1,4.3,28,0.4c0,0,9.4,0.4,11.9,0.6c2.5,0.2,11.9,19.1,12.1,34
						c0.2,10.1-5.4,33-5.4,33s-40.7,4.6-58.7,0.2l-7.9-33.7c0,0,9.8-0.8,10.2-13.7c0.5-12.9-6.2-19.5-6.2-19.5
						S-48.5,630.9-39.5,631.9z"/>
					<g>
						<path class="st12" d="M-29.7,686.2c-0.1,0-0.2,0-0.2-0.1c-0.1-0.1,0-0.3,0.1-0.4c9.3-5.3,16.6-13.7,20.6-23.7
							c0.1-0.1,0.2-0.2,0.3-0.2c0.1,0.1,0.2,0.2,0.2,0.4c-4,10.1-11.4,18.6-20.8,23.9C-29.6,686.2-29.7,686.2-29.7,686.2z"/>
					</g>
					<g>
						<path class="st12" d="M-20.3,695.7c-0.1,0-0.1,0-0.2-0.1c-0.1-0.1-0.1-0.3,0-0.4c5.7-6,9.9-13.3,12.2-21.2
							c0-0.1,0.2-0.2,0.3-0.2c0.1,0,0.2,0.2,0.2,0.3c-2.3,8-6.6,15.4-12.3,21.4C-20.1,695.6-20.2,695.7-20.3,695.7z"/>
					</g>
					<path class="st11" d="M-55.5,633.1c0,0-4.2-2.9-5.6-0.8c-1.4,2,4.1,5.7,5.2,7c1.1,1.4-4.1,3.2-3.4,5.7c0.7,2.5,5.2,3.9,4.8,7
						c-0.5,3.2-5,5-5,7.3c0,2.3,0,7,0,7s10,0.2,10.4-12.7C-48.6,640.7-55.5,633.1-55.5,633.1z"/>
					<g>
						<path class="st6" d="M48.3,645.9C48.3,645.9,48.3,645.9,48.3,645.9c-0.2,0-0.2-0.1-0.2-0.3c0.5-3.1,0.1-6.4-1-9.3
							c0-0.1,0-0.2,0.1-0.3c0.1,0,0.2,0,0.3,0.1c1.2,3,1.6,6.3,1.1,9.5C48.5,645.9,48.4,645.9,48.3,645.9z"/>
					</g>
				</g>
				<g>
					<g>
						<path class="st13" d="M-8.6,802.9c0.1,0.9,0.2,1.9,0.4,2.9c0,0,5.4,1.9,20.1,1.9c16.5,0,18.6-2.1,18.6-2.1s0.1-0.8-0.2-2
							C12.8,807-1.2,804.8-8.6,802.9z"/>
					</g>
					<path class="st13" d="M4.7,806.1c0,0,2.6-8.9,6.3-12.2l3.8,1.5c0,0-4.3,5.9-4.7,10.9L4.7,806.1z"/>
					<path class="st13" d="M13.8,806.1c0,0,1.1-6,4.8-9.3l3.5,1.5c0,0-2.5,3.1-2.9,8L13.8,806.1z"/>
				</g>
				<g>
					<g>
						<path class="st13" d="M-55.1,805.5c0.1,0.9,0.2,1.9,0.4,2.9c0,0,5.4,1.9,20.1,1.9c16.5,0,18.6-2.1,18.6-2.1s0.1-0.8-0.2-2
							C-33.7,809.5-47.7,807.3-55.1,805.5z"/>
					</g>
					<path class="st13" d="M-41.8,808.6c0,0,2.6-8.9,6.3-12.2l3.8,1.5c0,0-4.3,5.9-4.7,10.9L-41.8,808.6z"/>
					<path class="st13" d="M-32.7,808.6c0,0,1.1-6,4.8-9.3l3.5,1.5c0,0-2.5,3.1-2.9,8L-32.7,808.6z"/>
				</g>
			</g>
		</g>
		<g>
			<path class="st14" d="M85.2,536c-0.6,0-44.3,0-47.2,0c-2.9,0-6,0.1-6,4.4c0,4.2-0.7,30.5-0.1,34.5c0.5,3.3,2.2,4.9,9.4,5.1
				c7.2,0.1,39.5-0.1,43.1,0c2.3,0.1,6.7,0.1,7-4.9c0.3-5.1,0.2-29.4,0.2-33.9C91.6,535.7,85.2,536,85.2,536z"/>
			<path class="st14" d="M62.6,577.5c0,0-0.4,7.5-3.4,13.2c0,0,9.6-1.7,12.6-14.5L62.6,577.5z"/>
			<g>
				<path class="st15" d="M82.1,546.5c-0.1,0-40.7,0-41,0c-0.3,0-0.6,0-0.6,0.3c0,0.3-0.1,2,0,2.3c0,0.2,0.2,0.3,0.9,0.3
					c0.7,0,40.2,0,40.6,0c0.2,0,0.6,0,0.7-0.3c0-0.3,0-1.9,0-2.2C82.8,546.5,82.1,546.5,82.1,546.5z"/>
				<path class="st15" d="M82.1,557.4c-0.1,0-40.7,0-41,0c-0.3,0-0.6,0-0.6,0.3c0,0.3-0.1,2,0,2.3c0,0.2,0.2,0.3,0.9,0.3
					c0.7,0,40.2,0,40.6,0c0.2,0,0.6,0,0.7-0.3c0-0.3,0-1.9,0-2.2C82.8,557.4,82.1,557.4,82.1,557.4z"/>
				<path class="st15" d="M82.1,568.9c-0.1,0-40.7,0-41,0c-0.3,0-0.6,0-0.6,0.3c0,0.3-0.1,2,0,2.3c0,0.2,0.2,0.3,0.9,0.3
					c0.7,0,40.2,0,40.6,0c0.2,0,0.6,0,0.7-0.3c0-0.3,0-1.9,0-2.2C82.8,568.8,82.1,568.9,82.1,568.9z"/>
			</g>
		</g>
	</g>
	<g>
		<path class="st16" d="M328.8,153.4c-1.7,0-132.4,0-141.1,0c-8.7,0-17.9,0.6-17.9,17.9c0,17.3-2,125.3-0.2,141.7
			c1.4,13.6,6.6,20.2,28,20.8c21.4,0.6,117.9-0.4,128.9,0c6.9,0.3,19.9,0.3,20.8-20.2c0.9-20.9,0.6-120.5,0.6-139.3
			C347.9,151.9,328.8,153.4,328.8,153.4z"/>
		<g>
			<path class="st2" d="M158.5,194.5c0.6,0,44.3,0,47.2,0c2.9,0,6,0.1,6,4.4s0.7,30.5,0.1,34.5c-0.5,3.3-2.2,4.9-9.4,5.1
				c-7.2,0.1-39.5-0.1-43.1,0c-2.3,0.1-6.7,0.1-7-4.9c-0.3-5.1-0.2-29.4-0.2-33.9C152.1,194.2,158.5,194.5,158.5,194.5z"/>
			<path class="st2" d="M198.4,236c0,0,0.4,7.5,3.4,13.2c0,0-9.6-1.7-12.6-14.5L198.4,236z"/>
			<g>
				<path class="st15" d="M165.8,231.4c0.5,0,3.9,0.1,4.5,0c0.4,0,0.6-0.2,0.7-0.9c0-0.7,0-3.7,0-4c0-0.2,0-0.6-0.6-0.7
					c-0.7,0-3.8,0-4.4,0c-0.7,0-0.7,0.6-0.7,0.6c0,0.1,0,4.2,0,4.4S165.3,231.4,165.8,231.4"/>
				<path class="st15" d="M179.4,226.4c0,0.1,0,4.2,0,4.4s0,0.6,0.6,0.6c0.5,0,3.9,0.1,4.5,0c0.4,0,0.6-0.2,0.7-0.9c0-0.7,0-3.7,0-4
					c0-0.2,0-0.6-0.6-0.7c-0.7,0-3.8,0-4.4,0C179.3,225.8,179.4,226.4,179.4,226.4z"/>
				<path class="st15" d="M193.5,226.4c0,0.1,0,4.2,0,4.4s0,0.6,0.6,0.6c0.5,0,3.9,0.1,4.5,0c0.4,0,0.6-0.2,0.7-0.9c0-0.7,0-3.7,0-4
					c0-0.2,0-0.6-0.6-0.7c-0.7,0-3.8,0-4.4,0C193.4,225.8,193.5,226.4,193.5,226.4z"/>
			</g>
			<g>
				<path class="st15" d="M165.8,222.1c0.5,0,3.9,0.1,4.5,0c0.4,0,0.6-0.2,0.7-0.9c0-0.7,0-18.1,0-18.5c0-0.2,0-0.6-0.6-0.7
					c-0.7,0-3.8,0-4.4,0c-0.7,0-0.7,0.6-0.7,0.6c0,0.1,0,18.6,0,18.9S165.3,222.1,165.8,222.1"/>
				<path class="st15" d="M179.4,202.7c0,0.1,0,18.6,0,18.9s0,0.6,0.6,0.6c0.5,0,3.9,0.1,4.5,0c0.4,0,0.6-0.2,0.7-0.9
					c0-0.7,0-18.1,0-18.5c0-0.2,0-0.6-0.6-0.7c-0.7,0-3.8,0-4.4,0C179.3,202.1,179.4,202.7,179.4,202.7z"/>
				<path class="st15" d="M193.5,202.7c0,0.1,0,18.6,0,18.9s0,0.6,0.6,0.6c0.5,0,3.9,0.1,4.5,0c0.4,0,0.6-0.2,0.7-0.9
					c0-0.7,0-18.1,0-18.5c0-0.2,0-0.6-0.6-0.7c-0.7,0-3.8,0-4.4,0C193.4,202.1,193.5,202.7,193.5,202.7z"/>
			</g>
		</g>
		<g>
			<defs>
				<path id="SVGID_3_" d="M328.8,153.4c-1.7,0-147.5,0-156.2,0c-8.7,0-17.9,0.6-17.9,17.9c0,17.3-2,125.3-0.2,141.7
					c1.4,13.6,37.9,54.2,72.1,20.8c21.4,0.6,88.9-0.4,99.9,0c6.9,0.3,19.9,0.3,20.8-20.2c0.9-20.9,0.6-120.5,0.6-139.3
					C347.9,151.9,328.8,153.4,328.8,153.4z"/>
			</defs>
			<clipPath id="SVGID_4_">
				<use xlink:href="#SVGID_3_"  style="overflow:visible;"/>
			</clipPath>
			<g class="st17">
				<path class="st18" d="M202.4,308.9c-0.7,1.2-1.2,1.8-1.2,1.8l-6.4-17.1l-1-3.7c0,0-3.6-9.8-4-12.5c-0.5-3.2,2.3-12.4,2-16
					c-0.3-3.3-4.6,0.5-6.4,2.2c-4.2-2.4-18.3-6.7-19.5-4.7c-1.1,1.8,7.1,5.1,10,6.2c0,0,0,0,0,0c-3.4-1.2-14.6-4.8-15.2-2.2
					c-0.2,1.3,7.2,3.9,11.1,5.1c0,0.1-0.1,0.1-0.1,0.2c-4.1-0.9-12.2-2.5-12.6-1.1c-0.4,1.5,8.1,3.7,11.8,4.6c0,0,0,0.1,0,0.1
					c-3.9-0.7-12.8-2.2-12.8-0.6c0,2.1,9.1,4.4,12.7,5.3l0.3-0.2c0.3,2.6,1,5.8,2.1,9.8c0,0,0.8,23,8.4,43
					c5.8,15.4,30.5,18.7,47.1-0.6C217.8,324.9,207.9,318.9,202.4,308.9z"/>
				<path class="st19" d="M228.7,328.4c2.8-3.3,5.4-7.1,7.6-11.7l-3.5-42.9c-6.8,2.7-12.7,7.6-16.8,14c-5.2,8.1-11,17.3-13.5,21.2
					C207.9,318.9,217.8,324.9,228.7,328.4z"/>
				<path class="st20" d="M175.9,271.9c0,0,7.9-0.2,8.5,5.2"/>
				<g>
					<path class="st21" d="M315.6,189c0,0,3.1,28.4-6.4,40.4c-9.5,12-16.5,15.6-28.9,17.7c-12.3,2.1-47-4.2-51-11.7
						c-4-7.5-10.5-30.5-6.2-45.7C227.4,174.4,315.6,189,315.6,189z"/>
					<path class="st22" d="M250.4,258.8c0,0,4.4-2.5,18.1-2.1c13.7,0.4,15.6,0.5,15.6,0.5l-10.5,17.4l-18.8-6L250.4,258.8z"/>
					<path class="st19" d="M280.9,255.9l0.2-13.3l-28.1,3.7l0.3,12.7C262.8,260.5,272.1,259.1,280.9,255.9z"/>
					<path class="st18" d="M280.9,255.9c-8.8,3.1-18.1,4.6-27.6,3.1l0,1.9c0,0-0.9,20.6,13.6,22c14.5,1.4,13.9-22.2,13.9-22.2
						L280.9,255.9z"/>
					<path class="st19" d="M238.1,229.6l0-15.2c0,0-11.6-8.4-16,4.7C217.6,232.1,231.4,236.7,238.1,229.6z"/>
					<g>
						<path class="st23" d="M233.4,229.1c0,0-0.1,0-0.1-0.1c-0.1-0.1-0.1-0.3,0-0.4c0-0.1,4.7-5.6,1.1-9.8c-1.3-1.5-2.7-2.3-4.3-2.4
							c-2.7-0.2-4.9,1.8-5,1.9c-0.1,0.1-0.3,0.1-0.4,0c-0.1-0.1-0.1-0.3,0-0.4c0.1-0.1,2.4-2.2,5.4-2c1.7,0.1,3.3,1,4.7,2.6
							c3.9,4.6-1,10.5-1.1,10.6C233.6,229.1,233.5,229.1,233.4,229.1z"/>
					</g>
					<g>
						<path class="st23" d="M228.3,222c-0.1,0-0.2-0.1-0.2-0.2c-0.1-0.1,0-0.3,0.2-0.4c0.1,0,5.4-2,7.8,2.2c0.1,0.1,0,0.3-0.1,0.4
							c-0.1,0.1-0.3,0-0.4-0.1c-2.1-3.8-7.1-2-7.1-2C228.4,222,228.3,222,228.3,222z"/>
					</g>
					<path class="st18" d="M230.1,185.7c0,0-0.6,16.3-0.4,35.5c0.1,15.6,12.7,30.7,31.8,31.8c17.9,1,36.4-6.4,41.8-31.5
						c5.4-25.1,1.2-45.7-21.6-51C258.8,165.1,236.1,166.3,230.1,185.7z"/>
					<g>
						<path class="st24" d="M256.5,180.1c0.1-0.1,0.2-0.2,0.2-0.2S256.6,180,256.5,180.1z"/>
					</g>
					<path class="st21" d="M290.8,206.4c0,0,3-3.5-3.5-7.8c-6.5-4.3-8.7-3.3-9.8-1.1c-0.9,2,0.6,5,4.2,7.3
						C286.2,207.6,289.1,208.5,290.8,206.4z"/>
					<path class="st21" d="M237.6,203.6c0,0-2.4-4,4.8-7.1c7.1-3.1,9.2-1.7,9.8,0.6c0.6,2.1-1.4,4.8-5.5,6.4
						C241.9,205.5,238.8,205.9,237.6,203.6z"/>
					<path d="M275.8,217c0,1.9,1.3,3.4,2.8,3.4c1.5,0,2.8-1.5,2.8-3.4c0-1.9-1.3-3.4-2.8-3.4C277,213.6,275.8,215.1,275.8,217z"/>
					<path d="M241.9,216.4c0,1.9,1.3,3.4,2.8,3.4c1.5,0,2.8-1.5,2.8-3.4c0-1.9-1.3-3.4-2.8-3.4C243.1,213,241.9,214.5,241.9,216.4z"
						/>
					<g>
						<path class="st23" d="M258.1,224c0.1,0,0.2-0.1,0.2-0.2c0.1-0.1,0-0.3-0.1-0.4c0,0-2.2-1-3.2-3c-0.8-1.5-0.6-3.9,0.5-4.9
							c0.6-0.6,1.5-0.7,2.4-0.2c0,0,0.1,0,0.1,0.1c3.4,1.9,4.9,1,5.6-0.1c1.2-2,0-17.8-0.1-19.6c0-0.2-0.1-0.3-0.3-0.3
							c-0.2,0-0.3,0.1-0.3,0.3c0.4,4.8,1.2,17.7,0.2,19.3c-0.8,1.3-2.4,1.3-4.9-0.1c-0.1,0-0.1-0.1-0.2-0.1
							c-1.2-0.6-2.3-0.5-3.1,0.3c-1.2,1.2-1.5,3.8-0.6,5.5c1.1,2.1,3.4,3.2,3.5,3.2C258,224,258,224,258.1,224z"/>
					</g>
					<path class="st19" d="M273,231.4c0.5,2.6,5,3.9,9.9,2.9c4.9-1,8.4-4,7.9-6.6c-0.5-2.6-5-3.9-9.9-2.9
						C276,225.8,272.4,228.8,273,231.4z"/>
					<path class="st19" d="M250.4,231.1c-0.6,2.6-5.1,3.8-9.9,2.6c-4.9-1.1-8.3-4.2-7.7-6.8c0.6-2.6,5.1-3.8,9.9-2.6
						C247.6,225.4,251,228.5,250.4,231.1z"/>
					<path class="st21" d="M247.5,158.3c17.8-3.4,34.7,3.6,41,6.6c-0.5-3.7,1.3-8,2.5-8c1.7,0,1.2,7.3,1,9.5c0.1,0,0.1,0,0.2,0
						c0.7-1.6,2.9-6,5.1-4.4c1.5,1.1-0.4,3.4-2.3,5.2c5.7,1.9,19.1,5.7,20.5,21.7c1.6,18.9-6.7,27.7-6.7,27.7s-2.4,0.6-11.4-2.9
						c-2.7-1.1-10-38.3-20-28.8c-21.2,20.3-31.6,18-49.7,21.4c-6.4,1.2-4,5.4-6.4-6.8C218.9,187.5,224.9,162.6,247.5,158.3z"/>
					<path class="st18" d="M292.9,226l4.1-14.7c0,0,13.4-5,14.2,8.8C312,233.8,297.5,234.7,292.9,226z"/>
					<g>
						<path class="st23" d="M297.6,226.7c0,0,0.1,0,0.1,0c0.1-0.1,0.2-0.2,0.1-0.4c0-0.1-3-6.7,1.6-9.8c1.6-1.1,3.2-1.5,4.8-1.1
							c2.7,0.6,4.2,3.1,4.3,3.1c0.1,0.1,0.3,0.2,0.4,0.1c0.1-0.1,0.2-0.2,0.1-0.4c-0.1-0.1-1.7-2.8-4.6-3.4c-1.7-0.4-3.4,0-5.2,1.2
							c-5,3.3-1.9,10.4-1.8,10.5C297.4,226.6,297.5,226.7,297.6,226.7z"/>
					</g>
					<g>
						<path class="st23" d="M304.4,221.3c0.1,0,0.2,0,0.2-0.1c0.1-0.1,0.1-0.3-0.1-0.4c0,0-4.7-3.4-8.1,0c-0.1,0.1-0.1,0.3,0,0.4
							c0.1,0.1,0.3,0.1,0.4,0c3.1-3.1,7.3,0,7.4,0C304.3,221.3,304.3,221.3,304.4,221.3z"/>
					</g>
					<g>
						<g>
							<path class="st25" d="M236.4,234.9c-9.2-0.3-16.5-8-16.2-17.2c0.3-9.2,8-16.5,17.2-16.2c9.2,0.3,16.5,8,16.2,17.2
								C253.3,227.9,245.6,235.2,236.4,234.9z M237.3,202.4c-8.7-0.2-16,6.6-16.2,15.3c-0.2,8.7,6.6,16,15.3,16.2
								c8.7,0.2,16-6.6,16.2-15.3C252.9,210,246,202.7,237.3,202.4z"/>
						</g>
						<g>
							<path class="st25" d="M282,236.2c-9.2-0.3-16.5-8-16.2-17.2c0.3-9.2,8-16.5,17.2-16.2c9.2,0.3,16.5,8,16.2,17.2
								C298.9,229.2,291.2,236.5,282,236.2z M282.9,203.7c-8.7-0.3-16,6.6-16.2,15.3c-0.2,8.7,6.6,16,15.3,16.2
								c8.7,0.3,16-6.6,16.2-15.3C298.5,211.3,291.6,204,282.9,203.7z"/>
						</g>
						<g>
							<path class="st25" d="M266.3,217.2c-0.1,0-0.2,0-0.2-0.1c-6.2-3.9-12.8-0.4-12.8-0.4c-0.2,0.1-0.5,0-0.6-0.2
								c-0.1-0.2,0-0.5,0.2-0.6c0.1,0,7.1-3.8,13.7,0.4c0.2,0.1,0.3,0.4,0.1,0.6C266.6,217.1,266.4,217.2,266.3,217.2z"/>
						</g>
					</g>
					<g>
						<path class="st8" d="M262.8,235.1c-1.9,0.6-3.4-0.4-4.4-1.6c2.5-1.7,5.5-2.7,8.2-3.3C266.1,231.9,265.1,234.3,262.8,235.1z"/>
						<path d="M266.9,228c0,0,0,0.9-0.3,2.1c-2.7,0.6-5.7,1.6-8.2,3.3c-1.1-1.3-1.7-2.9-1.7-2.9C260.2,228,266.9,228,266.9,228z"/>
					</g>
				</g>
				<path class="st26" d="M228.7,401.9c-1.8,14.7-3.6,30-3.4,33l41.9,0.5l0.3-5.5c0,0,11-0.4,12.4-0.7l0.4,6.1
					c0,0,37.9,0.4,49.2,0.1c0,0-3.2-26.4-7.3-47.2C293.1,401.8,259.7,407,228.7,401.9z"/>
				<path class="st27" d="M232.4,372.9c0,0-1.9,14.2-3.7,29.1c31,5,64.4-0.1,93.6-13.7c-1.4-7-2.9-13.3-4.4-17.9L232.4,372.9z"/>
				<g>
					<path class="st28" d="M327,435.6c-0.1,0-0.2-0.1-0.2-0.2c-3.7-35.2-10-60.7-10.1-61c0-0.1,0-0.2,0.2-0.3c0.1,0,0.2,0,0.3,0.2
						c0.1,0.3,6.4,25.8,10.1,61C327.3,435.5,327.2,435.6,327,435.6C327.1,435.6,327,435.6,327,435.6z"/>
				</g>
				<path class="st18" d="M321.5,365.2c0,0-6.1,17.2-22.1,26.1c0,0,6.7,9.9,19.5,14.5c0,0,15.6-14.5,22-29.4
					c5.1-12,1.8-40.6-1.2-56.5c-7,5.8-14.9,9.1-23.2,11.5L321.5,365.2z"/>
				<path class="st19" d="M315.2,323.2l1.2,8.2c8.4-2.4,16.2-5.7,23.2-11.5c-0.7-3.8-1.4-6.9-2-8.8L315.2,323.2z"/>
				<g>
					<g>
						<path class="st28" d="M271.9,421.6c-0.1,0-0.2-0.1-0.2-0.2l-1.2-34.9c0-0.1,0.1-0.2,0.2-0.2c0.1,0,0.2,0.1,0.2,0.2l1.2,34.9
							C272.1,421.5,272,421.6,271.9,421.6C271.9,421.6,271.9,421.6,271.9,421.6z"/>
					</g>
					<g>
						<path class="st28" d="M272.1,418.4c-0.1,0-0.2-0.1-0.2-0.2c0-0.1,0.1-0.2,0.2-0.2c0.3,0,6.2-0.1,6.5-6.4
							c0.3-6.5-0.2-17.6-0.2-17.7c0-0.1,0.1-0.2,0.2-0.2c0.1,0,0.2,0.1,0.2,0.2c0,0.1,0.5,11.3,0.2,17.8
							C278.7,418.4,272.1,418.4,272.1,418.4z"/>
					</g>
					<g>
						<path class="st28" d="M301.2,390.8"/>
					</g>
					<g>
						<path class="st28" d="M322.6,408C322.6,408,322.6,408,322.6,408c-0.2-0.1-15.7-6-26.4-19.6c-0.1-0.1-0.1-0.2,0-0.3
							c0.1-0.1,0.2-0.1,0.3,0c10.7,13.4,26,19.4,26.1,19.4c0.1,0,0.2,0.2,0.1,0.3C322.8,407.9,322.7,408,322.6,408z"/>
					</g>
					<g>
						<path class="st28" d="M227.9,407.5c-0.1,0-0.2-0.1-0.2-0.2c0-0.2,0.2-0.3,1.1-0.8c3.1-1.6,12.3-6.4,18.8-20
							c0.1-0.1,0.2-0.2,0.3-0.1c0.1,0,0.2,0.2,0.1,0.3c-6.5,13.7-15.9,18.6-19,20.2c-0.4,0.2-0.8,0.4-0.9,0.5
							C228.1,407.4,228,407.5,227.9,407.5z"/>
					</g>
					<g>
						<path class="st28" d="M264.5,430.2c-2.4,0-3.7-0.1-3.8-0.1c-0.1,0-0.2-0.1-0.2-0.2c0-0.1,0.1-0.2,0.2-0.2
							c0.1,0,13.8,0.7,30.3-2.3c0.1,0,0.2,0.1,0.2,0.2c0,0.1-0.1,0.2-0.2,0.2C279.7,429.9,269.7,430.2,264.5,430.2z"/>
					</g>
					<g>
						<path class="st28" d="M285.2,432.6c0,0-0.1,0-0.1,0l-5.3-3.2c-0.1-0.1-0.1-0.2-0.1-0.3c0.1-0.1,0.2-0.1,0.3-0.1l5.3,3.2
							c0.1,0.1,0.1,0.2,0.1,0.3C285.3,432.6,285.3,432.6,285.2,432.6z"/>
					</g>
				</g>
				<path class="st29" d="M272.3,265.4l-2.3,9c0,0-3.2-8.3-3.5-9.2c-0.4-0.9-22.6,0-22.6,0s-12.9,0.2-18.6,4.3
					c-7.1,4.4-15.8,21.3-20.1,26.1c0,0-2.2,12.5,26.6,20.6c0,0,1,19.5,0.3,27.3c-0.7,7.8-3.5,35.1-3.5,35.1s12.4,14.2,33.7,16.7
					c0,0,6-3.2,8.5-8.9c0,0,6,8.9,13.8,10.6c7.8,1.8,23.4-11.3,29.8-19.1s7.1-12.8,7.1-12.8l-6.4-45.7c0,0,13.1-3.2,22.7-18.8
					c0,0-12.1-26.2-17.4-29.1c-5.3-2.8-30.8-7.1-30.8-7.1L272.3,265.4z"/>
				<path class="st30" d="M315.1,319.5l0.3,3.7c0,0,16.8-4.4,25.7-15.1c0,0-0.4-6-3.3-7.5C337.8,300.7,329.7,311.1,315.1,319.5z"/>
				<path class="st30" d="M232.5,316.3v5.8c0,0-17.1-3.5-29.9-19c0,0,0.4-6,3.3-7.5C205.8,295.7,217.8,308,232.5,316.3z"/>
				<path class="st30" d="M266.5,265.2c0,0-14.9-5.5-16.1-6.4c0,0-3.4,3.4-7.3,8.9c0,0,12.1,11.7,16,12.6L266.5,265.2z"/>
				<path class="st30" d="M272.3,265.1c0,0,10.5-6.9,11.7-7.8c0,0,5.9,4.1,9.8,9.6c0,0-10.1,12.4-14,13.3L272.3,265.1z"/>
				<g>
					<path class="st30" d="M270.8,386.7c-0.1,0-0.2-0.1-0.2-0.2l-0.7-112c0-0.1,0.1-0.2,0.2-0.2c0,0,0,0,0,0c0.1,0,0.2,0.1,0.2,0.2
						l0.7,112C271,386.6,270.9,386.7,270.8,386.7C270.8,386.7,270.8,386.7,270.8,386.7z"/>
				</g>
				<path class="st30" d="M280.4,296.8l21.1-1.2c1.3-0.1,2.4,0.8,2.5,2.1l2.3,16.7c0.1,0.8-0.2,1.7-0.9,2.2l-9.7,8
					c-0.8,0.6-1.8,0.7-2.7,0.2l-14-7.7c-0.8-0.4-1.3-1.3-1.2-2.2l0.3-15.8C278.1,298,279.1,296.9,280.4,296.8z"/>
				<g>
					
						<rect x="278.1" y="299.7" transform="matrix(0.9996 -2.730249e-02 2.730249e-02 0.9996 -8.0868 8.0583)" class="st29" width="25.9" height="0.8"/>
				</g>
				<g>
					<path class="st30" d="M276.1,392c-0.1,0-0.2-0.1-0.2-0.2l-2.1-116.2c0,0,0-0.1,0-0.1l1.6-4.5c0-0.1,0.2-0.2,0.3-0.1
						c0.1,0,0.2,0.2,0.1,0.3l-1.6,4.5l2.1,116.2C276.3,391.9,276.2,392,276.1,392C276.1,392,276.1,392,276.1,392z"/>
				</g>
				<g>
					<path class="st22" d="M269.3,274.4c-4.5,0-6.7-1.6-6.9-1.7c-0.1-0.1-0.1-0.2,0-0.3c0.1-0.1,0.2-0.1,0.3,0c0,0,4.6,3.3,13.5,0.5
						c0.1,0,0.2,0,0.3,0.1c0,0.1,0,0.2-0.1,0.3C273.5,274.1,271.2,274.4,269.3,274.4z"/>
				</g>
				<path class="st30" d="M273.4,277.8c0,0.7-0.6,1.3-1.3,1.3c-0.7,0-1.3-0.6-1.3-1.3c0-0.7,0.6-1.3,1.3-1.3
					C272.8,276.5,273.4,277.1,273.4,277.8z"/>
				<path class="st30" d="M273.4,293.4c0,0.7-0.6,1.3-1.3,1.3c-0.7,0-1.3-0.6-1.3-1.3c0-0.7,0.6-1.3,1.3-1.3
					C272.8,292.1,273.4,292.7,273.4,293.4z"/>
				<path class="st30" d="M273.2,309.9c-0.5,0.5-1.3,0.6-1.9,0.1c-0.5-0.5-0.6-1.3-0.1-1.9c0.5-0.5,1.3-0.6,1.9-0.1
					C273.6,308.5,273.7,309.4,273.2,309.9z"/>
				<path class="st30" d="M273.6,328.2c-0.5,0.5-1.3,0.6-1.9,0.1c-0.5-0.5-0.6-1.3-0.1-1.9c0.5-0.5,1.3-0.6,1.9-0.1
					C274.1,326.8,274.1,327.6,273.6,328.2z"/>
				<path class="st30" d="M273.9,361.6c-0.5,0.5-1.3,0.6-1.9,0.1c-0.5-0.5-0.6-1.3-0.1-1.9c0.5-0.5,1.3-0.6,1.9-0.1
					C274.3,360.2,274.4,361.1,273.9,361.6z"/>
				<path class="st30" d="M273.8,345.9c-0.5,0.5-1.3,0.6-1.9,0.1c-0.5-0.5-0.6-1.3-0.1-1.9c0.5-0.5,1.3-0.6,1.9-0.1
					C274.2,344.5,274.3,345.4,273.8,345.9z"/>
				<path class="st30" d="M274,381.4c-0.5,0.5-1.3,0.6-1.9,0.1c-0.5-0.5-0.6-1.3-0.1-1.9c0.5-0.5,1.3-0.6,1.9-0.1
					C274.5,380,274.5,380.8,274,381.4z"/>
			</g>
		</g>
	</g>
	<g>
		<path class="st11" d="M1054.8,135.3c0-1.7,0-132.4,0-141.1c0-8.7-0.6-17.9-17.9-17.9s-125.3-2-141.7-0.2
			c-13.6,1.4-20.2,6.6-20.8,28c-0.6,21.4,0.4,117.9,0,128.9c-0.3,6.9-0.3,19.9,20.2,20.8c20.9,0.9,120.5,0.6,139.3,0.6
			C1056.3,154.4,1054.8,135.3,1054.8,135.3z"/>
		<g>
			<defs>
				<path id="SVGID_5_" d="M1054.8,135.3c0-1.7-3.6-161.1-3.6-169.7s-0.6-17.9-17.9-17.9s-125.3-2-141.7-0.2
					c-13.6,1.4-20.2,6.6-20.8,28C870.3-3.2,857.4,122,857,133c-0.3,6.9,32.8,54.2,65.8,21.2c44.1,1.5,92.4,0.3,111.2,0.2
					C1056.3,154.4,1054.8,135.3,1054.8,135.3z"/>
			</defs>
			<clipPath id="SVGID_6_">
				<use xlink:href="#SVGID_5_"  style="overflow:visible;"/>
			</clipPath>
			<path class="st31" d="M1040.8,137c-1.9-6.1-4.2-12-6.8-17.6c-3.6-7.3-9.4-9.5-13.3-8.5h0c-2.1,0.5-4,1.8-5.3,3.6l-8.7,12.1
				c0,0,2.4,3.2,7.8,17.9C1024.2,145.4,1033,142.3,1040.8,137z"/>
			<path class="st32" d="M1040.8,137c-7.8,5.2-16.5,8.4-26.4,7.5c0.5,1.3,0.9,2.6,1.4,4c1.1-0.1,2.1-0.3,3-0.9
				c-0.9,0.6-1.9,0.8-3,0.9c2.1,6,4.6,13.5,7.5,23c4.4,14.4,14.9,40.7,14.9,40.7s-5.9,9.4-4.4,12c1.5,2.6,4.6-3,4.6-3
				s-3,14-0.5,14.1c2.4,0.1,4.5-10.7,4.5-10.7s-0.9,13.6,2.3,12.9c1.9-0.5,1.5-12.1,1.5-12.1s1.2,11.6,3.3,11.2
				c2-0.4,0.4-11.5,0.4-11.5s2,9,4.1,8.5c2.1-0.6,0.6-15.7-0.9-20.4C1053.1,213,1052.1,172.5,1040.8,137z"/>
			<g class="st33">
				<path class="st34" d="M880.8,97.9c-0.8-5.2-2.2-7.6-2.2-7.6c-0.4-2-1.3-3.1-1.3-6.9c0-1.5,0.1-3.3,0.9-4.5
					c4.8-6.6,12.4,0.6,12.4,0.6s-1.4-11.9,1.1-11.5c2.5,0.4,2.6,15.4,2.6,15.4c0.3,4.6,0,11.2,0,11.2l1.1,4"/>
				<g>
					<path class="st35" d="M893,93.4c-0.1,0-0.1,0-0.2-0.1c-0.3-0.4-8.4-9.4-7.6-12.4c0.1-0.6,0.5-1,0.9-1.1
						c1.7-0.5,4.7,2.6,4.9,2.7c0.1,0.1,0.1,0.2,0,0.3c-0.1,0.1-0.2,0.1-0.3,0c-0.8-0.8-3.3-2.9-4.4-2.6c-0.3,0.1-0.5,0.3-0.6,0.8
						c-0.7,2.8,7.4,11.9,7.5,12c0.1,0.1,0.1,0.2,0,0.3C893.1,93.4,893.1,93.4,893,93.4z"/>
				</g>
				<g>
					<path class="st35" d="M882.3,88.4c0,0-0.1,0-0.1,0c-0.1-0.1-0.1-0.2-0.1-0.3c1.6-2.6,4.4-3.6,4.5-3.6c0.1,0,0.2,0,0.3,0.1
						c0,0.1,0,0.2-0.1,0.3c0,0-2.7,1-4.3,3.5C882.4,88.4,882.4,88.4,882.3,88.4z"/>
				</g>
				<g>
					<path class="st35" d="M882,85.4c-0.7,0-1.5-0.6-1.9-1.6c-1.8-3.8,0.8-7.1,0.8-7.1c0.1-0.1,0.2-0.1,0.3,0c0.1,0.1,0.1,0.2,0,0.3
						c0,0-2.4,3.1-0.7,6.7c0.5,1,1.2,1.4,1.6,1.3c0.4-0.1,0.7-0.4,0.8-1c0-0.1,0.1-0.2,0.2-0.2c0.1,0,0.2,0.1,0.2,0.2
						c-0.1,0.7-0.6,1.2-1.2,1.3C882.1,85.4,882,85.4,882,85.4z"/>
				</g>
				<g>
					<path class="st35" d="M883.7,84.2c-0.6,0-1.3-0.4-1.8-1.5c-1.8-4.4,1.9-6.5,1.9-6.6c0.1-0.1,0.2,0,0.3,0.1
						c0.1,0.1,0,0.2-0.1,0.3c-0.1,0.1-3.4,2-1.7,6c0.4,1.1,1.2,1.4,1.7,1.2c0.6-0.2,0.9-1.2,0.4-2.6c-0.9-2.1,1.3-4.2,1.4-4.3
						c0.1-0.1,0.2-0.1,0.3,0c0.1,0.1,0.1,0.2,0,0.3c0,0-2,2-1.3,3.9c0.7,1.7,0.2,2.8-0.6,3.1C884.1,84.2,883.9,84.2,883.7,84.2z"/>
				</g>
				<g>
					<path class="st35" d="M879.7,86.3c-0.4,0-0.8-0.2-1.1-0.6c-0.7-0.8-1.3-2.4-1-4.3c0-0.1,0.1-0.2,0.2-0.2c0.1,0,0.2,0.1,0.2,0.2
						c-0.2,1.8,0.3,3.3,0.9,4c0.2,0.2,0.5,0.4,0.8,0.5c0.9,0,0.9-1.1,0.9-1.1c0-0.1,0.1-0.2,0.2-0.2c0.1,0,0.2,0.1,0.2,0.2
						C881,85.2,880.7,86.2,879.7,86.3C879.7,86.3,879.7,86.3,879.7,86.3z"/>
				</g>
			</g>
			<path class="st32" d="M907.6,124.9c-1.3,2.1-2.1,3.4-2.1,3.4l-11.3-34.7l0.1-2.2c-4.7,0.6-9.3,1.3-13.7,2.4
				c-0.4,9.6-2.2,53.4,10.3,63.7c13.3,11,30.3-5.3,40-17.1C921.7,137.9,913.4,132.8,907.6,124.9z"/>
			<path class="st31" d="M935.5,93.9c-9.7,3.1-22.9,22.9-27.9,31c5.8,7.8,14.1,13,23.3,15.5c4.7-5.8,7.7-10.5,7.7-10.5L935.5,93.9z"
				/>
			<g class="st33">
				<g>
					<path class="st36" d="M990.5,88.3c0,0,18.1,3.4,28.9,8.8c10.7,5.4,17.4,23.5,17.4,23.5s-7.6,11.6-20.7,15.3
						c0,0-0.2,11.2,0.7,19.5c0.9,8.2,3.3,28.2-6.7,30.5c-10,2.3-31.1,1.7-41.8,2.3c-10.7,0.6-24.3-1.5-31.3-4.8
						c-7-3.3-10.2-6.6-10.3-18.4c-0.1-11.8,4.1-35.1,4.1-35.1s-12.9-2.9-20.2-14.9c0,0,13-23.2,28.7-25.6
						C952.6,87.3,967.7,84.7,990.5,88.3z"/>
					<path class="st14" d="M1016,135.8c-0.8,0.3-0.3,4.2-0.3,4.2s13.5,1.3,25.1-14.7c0,0,0.5-4.2-4.8-5.1
						C1036,120.3,1027.7,131.9,1016,135.8z"/>
					<path class="st14" d="M931.1,128.6c0.7,0.2-0.8,4.2-0.8,4.2s-12.8,1.6-24-14.2c0,0-0.6-4.2,4.4-5.2
						C910.8,113.4,920,124.8,931.1,128.6z"/>
					<g>
						<path class="st37" d="M967,169.2c0.1,0,0.1,0,0.2-0.1c0.1-0.1,0-0.2-0.1-0.3c-8.6-5.9-16-13.8-21.5-22.7
							c-0.1-0.1-0.2-0.1-0.3-0.1c-0.1,0.1-0.1,0.2-0.1,0.3c5.5,8.9,13,16.8,21.6,22.8C966.9,169.1,966.9,169.2,967,169.2z"/>
					</g>
					<g>
						<path class="st37" d="M953.8,174.1c0.1,0,0.1,0,0.1-0.1c0.1-0.1,0.1-0.2,0-0.3c-6-6.8-10.7-14.8-13.6-23.4
							c0-0.1-0.2-0.2-0.3-0.1c-0.1,0-0.2,0.2-0.1,0.3c3,8.6,7.7,16.7,13.7,23.5C953.7,174.1,953.8,174.1,953.8,174.1z"/>
					</g>
				</g>
				<g>
					<path class="st14" d="M996.8,93.7c1.6-1.9,0.6-4.8-1.9-5.1c-4.6-0.6-11.6-1.5-17-1.6c-4.9-0.1-10.7-0.1-14.9-0.1
						c-3.3,0-5.4,3.7-3.7,6.5c2.5,4.1,7.3,8.7,16.5,9.2C986.3,103.2,993.2,97.8,996.8,93.7z"/>
					<path class="st8" d="M994.9,88.6c0,0-2.7,18.1-3.1,30.1c0,0-27.5-1.6-36.4-2c0,0,1.4-24.1,2.6-29.7c0,0-4.3,0.1-7.5,0.7
						c0,0-4.3,12-4.9,29.2c0,0-16.1,37-19.3,40.2l-12.3,119.5l111.1,0.2l-7-110.3c0,0-13.3-37-16.5-45c0,0,0.4-25,2.4-31
						C1004,90.5,998.9,88.7,994.9,88.6z"/>
					<g>
						<path class="st14" d="M970.3,153.5c-18.7-1.5-18.6-22.3-18.6-22.5c0-0.1,0-0.1,0.1-0.2c0,0,0.1-0.1,0.2-0.1
							c15.2,0.3,40.4,1.8,40.7,1.8c0.1,0,0.1,0,0.2,0.1c0,0.1,0.1,0.1,0,0.2c0,0.2-3.6,20.8-20.7,20.8
							C971.5,153.6,970.9,153.5,970.3,153.5z M952.2,131.2c0,2.3,1,20.4,18.2,21.8c17.1,1.4,21.5-17.6,22-20
							C989.6,132.8,966.5,131.5,952.2,131.2z"/>
					</g>
					<g>
						<path class="st38" d="M1017.6,190.5c0.1,0,0.2-0.1,0.2-0.2c0-0.1-0.1-0.2-0.2-0.3c-0.7-0.1-66.9-5.7-89.9-0.9
							c-0.1,0-0.2,0.2-0.2,0.3c0,0.1,0.2,0.2,0.3,0.2C950.8,184.9,1016.9,190.5,1017.6,190.5
							C1017.6,190.5,1017.6,190.5,1017.6,190.5z"/>
					</g>
					<g>
						<path class="st38" d="M1016.7,197.8c0.1,0,0.2-0.1,0.2-0.2c0-0.1-0.1-0.2-0.2-0.3c-0.7-0.1-66.9-5.7-89.9-0.9
							c-0.1,0-0.2,0.2-0.2,0.3c0,0.1,0.2,0.2,0.3,0.2C949.9,192.1,1016,197.7,1016.7,197.8C1016.7,197.8,1016.7,197.8,1016.7,197.8z
							"/>
					</g>
					<g>
						<path class="st38" d="M971.8,225.5c0.1,0,0.2-0.1,0.2-0.2l1.5-37.1c0-0.1-0.1-0.2-0.2-0.2c-0.1,0-0.2,0.1-0.2,0.2l-1.5,37.1
							C971.6,225.4,971.7,225.5,971.8,225.5C971.8,225.5,971.8,225.5,971.8,225.5z"/>
					</g>
					<g>
						<path class="st38" d="M971.8,221c0.1,0,0.2-0.1,0.2-0.2c0-0.1-0.1-0.2-0.2-0.2c-0.3,0-6.7-0.1-7-7.9c-0.3-8,0.9-24.5,0.9-24.7
							c0-0.1-0.1-0.2-0.2-0.3c-0.1,0-0.2,0.1-0.3,0.2c0,0.2-1.2,16.7-0.9,24.7C964.6,220.9,971.7,221,971.8,221z"/>
					</g>
					<g>
						<path class="st38" d="M923.3,211.2C923.3,211.2,923.3,211.2,923.3,211.2c8.6-1.1,16.2-7.3,19.1-15.4c0-0.1,0-0.3-0.1-0.3
							c-0.1,0-0.3,0-0.3,0.1c-2.8,7.9-10.3,14-18.7,15.1c-0.1,0-0.2,0.1-0.2,0.3C923.1,211.1,923.2,211.2,923.3,211.2z"/>
					</g>
					<g>
						<path class="st38" d="M1018.3,217.1c0.1,0,0.2,0,0.2-0.1c0.1-0.1,0-0.3-0.1-0.3c-6.3-3.4-10.9-9.9-11.9-17
							c0-0.1-0.1-0.2-0.3-0.2c-0.1,0-0.2,0.1-0.2,0.3c1.1,7.2,5.8,13.9,12.2,17.4C1018.3,217.1,1018.3,217.1,1018.3,217.1z"/>
					</g>
					<g>
						<path class="st14" d="M1001.1,122l-9.9-1.4c-0.7-0.1-1.3-0.5-1.7-1c-0.4-0.6-0.6-1.2-0.5-1.9l0.1-1c0.2-1.4,1.5-2.4,2.9-2.2
							l9.9,1.4c0.7,0.1,1.3,0.5,1.7,1c0.4,0.6,0.6,1.2,0.5,1.9l-0.1,1c-0.1,0.7-0.5,1.3-1,1.7c-0.5,0.3-1,0.5-1.6,0.5
							C1001.3,122.1,1001.2,122.1,1001.1,122z M989.5,116.8l-0.1,1c-0.1,0.6,0.1,1.1,0.4,1.6c0.3,0.5,0.8,0.7,1.4,0.8l0,0l9.9,1.4
							c0.6,0.1,1.1-0.1,1.6-0.4c0.5-0.3,0.7-0.8,0.8-1.4l0.1-1c0.1-0.6-0.1-1.1-0.4-1.6c-0.3-0.5-0.8-0.7-1.4-0.8l-9.9-1.4
							c-0.1,0-0.2,0-0.3,0C990.6,115,989.6,115.8,989.5,116.8z"/>
					</g>
					<path class="st14" d="M991.7,124.6c0,2,1.6,3.6,3.6,3.6c2,0,3.6-1.6,3.6-3.6s-1.6-3.6-3.6-3.6
						C993.3,121,991.7,122.6,991.7,124.6z"/>
					<g>
						<path class="st14" d="M955.9,117.1l-10,0l0,0c-1.4,0-2.6-1.2-2.6-2.6l0-1c0-0.7,0.3-1.4,0.8-1.8c0.5-0.5,1.1-0.8,1.8-0.8
							c0,0,0,0,0,0l10,0c0.7,0,1.4,0.3,1.8,0.8c0.5,0.5,0.8,1.2,0.8,1.9l0,1c0,0.7-0.3,1.4-0.8,1.8
							C957.2,116.8,956.6,117.1,955.9,117.1C955.9,117.1,955.9,117.1,955.9,117.1z M945.9,116.8L945.9,116.8L945.9,116.8z
							 M944.4,111.9c-0.4,0.4-0.6,0.9-0.6,1.5l0,1c0,1.2,1,2.1,2.1,2.1l10,0c0,0,0,0,0,0c0.6,0,1.1-0.2,1.5-0.6
							c0.4-0.4,0.6-0.9,0.6-1.5l0-1c0-0.6-0.2-1.1-0.6-1.5c-0.4-0.4-0.9-0.6-1.5-0.6l-10,0c0,0,0,0,0,0
							C945.3,111.3,944.8,111.5,944.4,111.9z"/>
					</g>
					<path class="st14" d="M947,120.9c0.3,2,2.1,3.4,4.1,3.1c2-0.3,3.4-2.1,3.1-4.1c-0.3-2-2.1-3.4-4.1-3.1
						C948.1,117.1,946.7,118.9,947,120.9z"/>
				</g>
				<g>
					<ellipse class="st35" cx="1010" cy="-18.4" rx="20.2" ry="19.3"/>
					<ellipse class="st39" cx="1011.1" cy="-18.7" rx="20.6" ry="19.6"/>
					<path class="st35" d="M1011.3-13.2c0,0,26.3-0.4,28.6,18.5c2.2,18.9-5.2,21.9-1.5,26.7c3.7,4.8,11.5,10.4,9.3,18.2
						c-2.2,7.8-5.9,9.6-4.1,14.8c1.9,5.2,2.6,7.4,1.1,11.9c0,0-15.9,5.6-25.2,3.7l-1.1-10.8l-3,10.4c0,0-17.8,6.3-38.9,1.1
						c-21.1-5.2-34.1-3-41.5-8.5l3.7-15.2L930.8,71c0,0-2.7,1.9-15.3-3.3c0,0-4.5-7.5-2.2-15.9c2.8-10.4,6.7-8.4,7.8-17
						c1.1-8.5,0.3-19.8,10.5-28.4c9.6-8.2,4.5-13,10.4-21.1c5.9-8.2,34.9-13.4,57.5-1.9"/>
					<g>
						<path class="st34" d="M947.5,54.2l0.4-16.3c0,0-12.1-9.3-17.2,4.6C925.6,56.3,940.1,61.6,947.5,54.2z"/>
						<g>
							<path class="st2" d="M941.8,73.9c-0.1,0-0.3,0-0.4,0c-5.4-0.2-9.6-4.8-9.4-10.2c0.2-3.8,2.4-7.1,5.9-8.6
								c0.3-0.1,0.6,0,0.7,0.3c0.1,0.3,0,0.6-0.3,0.7c-3.1,1.4-5.1,4.3-5.3,7.7c-0.2,4.8,3.6,8.9,8.4,9.1c4.2,0.2,7.9-2.6,8.9-6.7
								c0.1-0.3,0.3-0.4,0.6-0.4c0.3,0.1,0.4,0.3,0.4,0.6C950.3,70.8,946.3,73.9,941.8,73.9z"/>
						</g>
						<path class="st34" d="M1011.5,59.1l4.8-15.6c0,0,14.4-4.9,14.9,9.8C1031.6,68,1016.1,68.5,1011.5,59.1z"/>
						<g>
							<path class="st2" d="M1014.4,77c-2.1,0-4.2-0.7-6-2.1c-3-2.3-4.4-6.1-3.6-9.7c0.1-0.3,0.3-0.5,0.6-0.4
								c0.3,0.1,0.5,0.3,0.4,0.6c-0.7,3.3,0.5,6.7,3.2,8.7c3.8,3,9.4,2.3,12.3-1.5c2.5-3.3,2.4-7.9-0.3-11.1
								c-0.2-0.2-0.2-0.5,0.1-0.7c0.2-0.2,0.5-0.2,0.7,0.1c3,3.5,3.1,8.7,0.3,12.4C1020.2,75.7,1017.3,77,1014.4,77z"/>
						</g>
						<path class="st40" d="M969.6,87.1c-2.1-0.6-4.1-1.4-6-2.2l0.2-10.3l26.3,2l0,10.4C983.3,89,975.9,89.2,969.6,87.1z"/>
						<path class="st34" d="M969.6,87.1c6.3,2,13.7,1.8,20.5-0.1l0,6.4c-9.9,7.4-22.2,4.8-26.6-3.1l0.1-5.5
							C965.5,85.8,967.5,86.5,969.6,87.1z"/>
						<g>
							<path class="st34" d="M943.4,7.4c0,0-1.1,17.4-1.5,37.9c-0.3,16.7,12.7,33.2,33,34.9c19.1,1.6,39.1-5.7,45.6-32.4
								c6.5-26.7,2.7-48.7-21.5-55.1C974.6-13.7,950.3-13.2,943.4,7.4z"/>
						</g>
						<g>
							<path class="st35" d="M971.7,2.3c0.1-0.1,0.2-0.2,0.2-0.2S971.8,2.1,971.7,2.3z"/>
						</g>
						<path class="st35" d="M1006.8,36.2c0,0,3.3-3.7-3.5-8.4c-6.8-4.8-9.2-3.8-10.4-1.5c-1.1,2.1,0.5,5.3,4.3,7.9
							C1001.9,37.2,1005,38.3,1006.8,36.2z"/>
						<path class="st35" d="M949.5,32.2c0,0-2.4-4.3,5.3-7.4c7.7-3.1,9.9-1.6,10.5,0.9c0.5,2.3-1.7,5.1-6,6.7
							C954.1,34.4,950.8,34.7,949.5,32.2z"/>
						<g>
							<path class="st35" d="M1016.5,59.6c0,0,0.1,0,0.1,0c0.1-0.1,0.2-0.2,0.2-0.4c0-0.1-3-7.2,2-10.4c1.8-1.1,3.5-1.5,5.1-1.1
								c2.8,0.7,4.5,3.4,4.5,3.4c0.1,0.1,0.3,0.2,0.4,0.1c0.1-0.1,0.2-0.3,0.1-0.4c-0.1-0.1-1.8-3-4.9-3.7c-1.8-0.4-3.7,0-5.6,1.2
								c-5.4,3.5-2.2,11.1-2.2,11.1C1016.3,59.5,1016.4,59.6,1016.5,59.6z"/>
						</g>
						<g>
							<path class="st35" d="M1023.9,54c0.1,0,0.2,0,0.2-0.1c0.1-0.1,0.1-0.3-0.1-0.4c0,0-4.9-3.7-8.7-0.1c-0.1,0.1-0.1,0.3,0,0.4
								c0.1,0.1,0.3,0.1,0.4,0c3.4-3.3,7.9,0.1,7.9,0.2C1023.8,54,1023.8,54,1023.9,54z"/>
						</g>
						<g>
							<path class="st35" d="M974.2,49.2c0.1,0,0.2-0.1,0.3-0.2c0.1-0.1,0-0.3-0.1-0.4c0,0-2.4-1.1-3.4-3.3
								c-0.8-1.7-0.5-4.2,0.6-5.2c0.7-0.6,1.6-0.7,2.6-0.1c0,0,0.1,0,0.2,0.1c3.6,2.2,5.2,1.3,6,0.1c1.4-2.1,0.5-19,0.4-21
								c0-0.2-0.2-0.3-0.3-0.3c-0.2,0-0.3,0.1-0.3,0.3c0.3,5.2,0.7,18.9-0.3,20.6c-0.9,1.4-2.6,1.3-5.2-0.3c-0.1,0-0.1-0.1-0.2-0.1
								c-1.3-0.7-2.4-0.6-3.3,0.2c-1.3,1.2-1.7,4-0.8,5.9c1.1,2.3,3.5,3.5,3.6,3.6C974.2,49.2,974.2,49.2,974.2,49.2z"/>
						</g>
						<g>
							<path d="M970.7,59.6c-0.6-1.5-0.7-2.8-0.7-2.8c6.4-2.3,13.9-2.2,13.9-2.2s0.1,1.4-0.2,3.2C980.6,57.7,975.8,57.8,970.7,59.6z
								"/>
							<path class="st41" d="M983.7,57.9c-0.5,2.3-1.8,5.1-5.5,5.6c-4.5,0.6-6.5-1.8-7.4-3.8C975.8,57.8,980.6,57.7,983.7,57.9z"/>
						</g>
						<g>
							<path class="st35" d="M942.5,53.5c0,0-0.1,0-0.1-0.1c-0.1-0.1-0.1-0.3,0-0.4c0.1-0.1,5.2-5.9,1.4-10.5
								c-1.3-1.6-2.8-2.5-4.5-2.7c-2.9-0.3-5.3,1.8-5.3,1.8c-0.1,0.1-0.3,0.1-0.4,0c-0.1-0.1-0.1-0.3,0-0.4c0.1-0.1,2.6-2.3,5.8-2
								c1.8,0.2,3.5,1.1,4.9,2.9c4,5-1.4,11.2-1.5,11.2C942.7,53.5,942.6,53.6,942.5,53.5z"/>
						</g>
						<g>
							<path class="st35" d="M937.3,45.8c-0.1,0-0.2-0.1-0.2-0.2c-0.1-0.2,0-0.3,0.2-0.4c0.1,0,5.9-2,8.3,2.6c0.1,0.1,0,0.3-0.1,0.4
								c-0.1,0.1-0.3,0-0.4-0.1c-2.2-4.2-7.5-2.4-7.5-2.3C937.4,45.9,937.3,45.9,937.3,45.8z"/>
						</g>
						<path class="st40" d="M990.1,57.6c0.5,2.8,5.2,4.3,10.4,3.4c5.3-0.9,9.1-4,8.6-6.8c-0.5-2.8-5.2-4.3-10.4-3.4
							C993.4,51.7,989.6,54.8,990.1,57.6z"/>
						<path class="st40" d="M966,56.6c-0.7,2.8-5.5,3.9-10.7,2.5c-5.2-1.4-8.8-4.7-8-7.5c0.7-2.8,5.5-3.9,10.7-2.5
							C963.1,50.5,966.7,53.8,966,56.6z"/>
						<g>
							<path class="st42" d="M998.7,47.6c0,0,0.3-5.9-4.4-6.8c-4.7-0.9-6.4,4.8-6.4,4.8"/>
							<line class="st42" x1="998.6" y1="46.9" x2="1001.8" y2="46"/>
							<line class="st43" x1="998.8" y1="45.4" x2="1000.9" y2="44.7"/>
						</g>
						<g>
							<path class="st42" d="M955.5,44c0,0,1.5-5.7,6.3-5.1c4.8,0.6,4.6,6.5,4.6,6.5"/>
							<line class="st42" x1="955.8" y1="43.3" x2="953" y2="41.4"/>
							<line class="st43" x1="956.1" y1="41.8" x2="954.3" y2="40.5"/>
						</g>
					</g>
					<path class="st35" d="M1004.1-15.7c0,0,27.8,4.5,30.8,20.9c3,16.4-5.6,40.2-5.6,40.2s-11.1-5.8-17.7-7.4
						c-3.6-0.9,3.4-5.9-0.4-18.7c0,0-4.8,11.8-10.4,12.9c-6.6,1.2-22.5-0.8-29.5-5.7c-3.9-2.7-1.6-14.3-2.6-14.9
						c-2-1.1-4,13.5-6.1,13.8c-1.4,0.3-11.1,7.1-13.6,3.4c-2-3-0.2-10.7-1.3-10.5c-2.9,0.6-2.3,15.3-4.6,15.8
						c-5.2,1.2-8.7,1.9-9.6,1.4c-4.6-2.5-2.1-33.1,6.9-43.3C949.3-17.9,979.1-26.7,1004.1-15.7z"/>
					<path class="st39" d="M1046.7,75.1c-2-4.5-2.5-9.7-1.4-14.5c0.8-3.6,2.5-7,3.4-10.5c0.9-3.6,1-7.6-1.1-10.7
						c-2.4-3.5-7.3-5.1-8.6-9.1c-1.4-4.3,2.2-8.5,4.1-12.7c3.2-6.9,1.3-15.7-4.3-20.8c-5.6-5-14.6-5.9-21.1-1.9"/>
					<path class="st39" d="M956.8-21.7c-3.8,0.3-7.8,0.5-11.4,1.9c-3.6,1.3-7,3.9-8.4,7.5c-1.1,3-0.8,6.3-1.5,9.5
						c-1.2,5.1-5,9.1-8.5,13.1c-3.5,3.9-6.9,8.5-7,13.8c0,5.3,3.4,10.9,1.1,15.7c-1.3,2.7-4.2,4.3-6.3,6.4
						c-5.4,5.3-5.9,14.8-1.2,20.6"/>
				</g>
			</g>
			<g class="st33">
				<path class="st35" d="M909.5,138.6c-0.1,0-0.2-0.1-0.2-0.2c-1.4-5-3.9-10-3.9-10c-0.1-0.1,0-0.2,0.1-0.3c0.1-0.1,0.2,0,0.3,0.1
					c0,0,2.6,5,4,10.1C909.7,138.5,909.6,138.6,909.5,138.6C909.5,138.6,909.5,138.6,909.5,138.6z"/>
			</g>
		</g>
		<g>
			<path class="st0" d="M854.5,11.7c0.6,0,44.3,0,47.2,0c2.9,0,6,0.1,6,4.4s0.7,30.5,0.1,34.5c-0.5,3.3-2.2,4.9-9.4,5.1
				c-7.2,0.1-39.5-0.1-43.1,0c-2.3,0.1-6.7,0.1-7-4.9c-0.3-5.1-0.2-29.4-0.2-33.9C848.1,11.3,854.5,11.7,854.5,11.7z"/>
			<path class="st0" d="M877.1,53.1c0,0,0.4,7.5,3.4,13.2c0,0-9.6-1.7-12.6-14.5L877.1,53.1z"/>
			<g>
				<path class="st15" d="M861.7,45c0.5,0,3.9,0.1,4.5,0c0.4,0,0.6-0.2,0.7-0.9c0-0.7,0-3.7,0-4c0-0.2,0-0.6-0.6-0.7
					c-0.7,0-3.8,0-4.4,0c-0.7,0-0.7,0.6-0.7,0.6c0,0.1,0,4.2,0,4.4S861.1,45,861.7,45"/>
				<path class="st15" d="M875.2,40c0,0.1,0,4.2,0,4.4s0,0.6,0.6,0.6c0.5,0,3.9,0.1,4.5,0c0.4,0,0.6-0.2,0.7-0.9c0-0.7,0-3.7,0-4
					c0-0.2,0-0.6-0.6-0.7c-0.7,0-3.8,0-4.4,0C875.1,39.4,875.2,40,875.2,40z"/>
				<path class="st15" d="M889.3,40c0,0.1,0,4.2,0,4.4s0,0.6,0.6,0.6c0.5,0,3.9,0.1,4.5,0c0.4,0,0.6-0.2,0.7-0.9c0-0.7,0-3.7,0-4
					c0-0.2,0-0.6-0.6-0.7c-0.7,0-3.8,0-4.4,0C889.2,39.4,889.3,40,889.3,40z"/>
			</g>
		</g>
	</g>
	<g>
		<path class="st14" d="M598.9,5.8c0,1.7,0,132.4,0,141.1c0,8.7,0.6,17.9,17.9,17.9c17.3,0,125.3,2,141.7,0.2
			c13.6-1.4,20.2-6.6,20.8-28c0.6-21.4-0.4-117.9,0-128.9c0.3-6.9,0.3-19.9-20.2-20.8c-20.9-0.9-120.5-0.6-139.3-0.6
			C597.4-13.3,598.9,5.8,598.9,5.8z"/>
		<g>
			<defs>
				<path id="SVGID_7_" d="M598.9,5.8c0,1.7,0,132.4,0,141.1c0,8.7,0.6,17.9,17.9,17.9c17.3,0,125.3,2,141.7,0.2
					c13.6-1.4,20.2-6.6,20.8-28c0.6-21.4-0.4-117.9,0-128.9c0.3-6.9,0.3-19.9-20.2-20.8c-20.9-0.9-120.5-0.6-139.3-0.6
					C597.4-13.3,598.9,5.8,598.9,5.8z"/>
			</defs>
			<clipPath id="SVGID_8_">
				<use xlink:href="#SVGID_7_"  style="overflow:visible;"/>
			</clipPath>
			<g class="st44">
				<path class="st21" d="M651.5,112.8c0,0,10.7-1.8,22.7-2.5c11.9-0.8,27.7,0.8,27.7,0.8s-10.9,25.2-29.3,20.2
					C654.2,126.3,651.5,112.8,651.5,112.8z"/>
				<g>
					<g>
						<path class="st45" d="M601.5,248c0,0-2.7-37.9,2.5-64.8c7.7-39.2,17.2-51.3,22.1-56.6c6.8-7.5,21.9-11.3,21.9-11.3l11.7-1.5
							l-0.9-15.5l27.1,0.2l1.4,14.1c0,0,9.6,4.7,13.8,6.9c0.6,14.5,10,14.3,11.9,28.4c-0.1,0-0.2,0.1-0.4,0.2l1.4,82.1
							c0,0-28.8,18.4-80.1-1.2l-1.4-72.3c0,0-8.5,33.8-10.4,43c-1.9,9.2-3.1,47.3-3.1,47.3s6.7,11.3,4.9,14.3
							c-1.8,3-5.4-3.7-5.4-3.7s3.1,16.6,0.3,16.7c-2.9,0.1-5-12.8-5-12.8s0.7,16.1-3.1,15.1c-2.2-0.7-1.4-14.4-1.4-14.4
							s-1.8,13.7-4.2,13.1c-2.4-0.6-0.1-13.6-0.1-13.6s-2.7,10.6-5.1,9.9C597.5,270.9,599.9,255.3,601.5,248z"/>
						<g>
							<path class="st46" d="M659.4,107.7l-0.6-9.4l27.1,0.2l1.1,11.3C680,110.3,669.4,110.3,659.4,107.7z"/>
						</g>
						<g>
							<path class="st45" d="M663.7,383.9l9.4-138.7l-41.6-5.1c0,0,10,105.6,15,139.5c0,0-26.6,9.6-26.5,14.6
								c0.1,5,30.7,1.2,30.7,1.2S669.4,400.2,663.7,383.9z"/>
						</g>
						<g>
							<path class="st45" d="M688.3,383.4c0,0-6.9-92.4-11.1-159.7c-0.6-10,37.2,14.7,37.2,14.7s-5.6,105.9-9.2,140
								c0,0,26.1,8.3,26.2,13.3c0.1,5-29.7,2.7-29.7,2.7S683.2,399.9,688.3,383.4z"/>
						</g>
						<g>
							<g>
								<path class="st15" d="M722.3,383.9c8.3,3.6,10.9,7.1,10.9,7.1s-0.4,1.2-11.8,2.7C720.6,390.3,720.9,386.8,722.3,383.9z"/>
								<path class="st47" d="M687.8,381.7c10.8,5.5,23.4-1.5,23.4-1.5c4.5,1.1,8.1,2.4,11.1,3.6c-1.4,2.9-1.7,6.4-0.9,9.7
									c-2.9,0.4-6.6,0.8-11.2,1.2c-22.4,2-23.4-3.8-23.4-3.8C686.5,385.4,687.9,382,687.8,381.7z"/>
							</g>
							<g>
								<path class="st15" d="M686.8,391.1c0.1,1.1,0.3,2.3,0.5,3.5c0,0,6.5,2.1,24.1,1.7c19.6-0.4,22.1-3,22.1-3s0.1-1-0.3-2.3
									C712.4,395.4,695.7,393.1,686.8,391.1z"/>
							</g>
							<path class="st48" d="M717.5,382.1c0,0-3.4,2.1-2.9,6.8"/>
							<path class="st48" d="M713.6,380.8c0,0-2.9,1.8-2.8,6.8"/>
							<path class="st48" d="M712.1,382.4c0,0,2.3-5.7-0.1-5.8C709.5,376.6,712.1,382.4,712.1,382.4z"/>
							<path class="st48" d="M712.1,382.4c0,0-4.1-4.6-5.2-2.5C705.8,382.2,712.1,382.4,712.1,382.4z"/>
						</g>
						<g>
							<path class="st49" d="M630.2,219c0,0,2.8,79.2,9.1,153.9c0.6,7.2,28.7-0.6,28.7-0.6l4.5-118l0,0l11.2,117.4
								c0,0,21.9,3.8,28.1-0.4c0,0,5.1-17.4,2.3-151.2L630.2,219z"/>
							<g>
								<path class="st50" d="M688.1,257c0.1,0,0.3-0.1,0.3-0.3c0-0.1-0.1-0.3-0.3-0.3c-12.5-0.4-30.3-4.1-30.5-4.1
									c-0.1,0-0.3,0.1-0.3,0.2c0,0.1,0.1,0.3,0.2,0.3C657.7,252.9,675.5,256.6,688.1,257C688.1,257,688.1,257,688.1,257z"/>
							</g>
							<g>
								<path class="st50" d="M709.2,369.5c0.1,0,0.3-0.1,0.3-0.3l1.4-142.8c0-0.1-0.1-0.3-0.3-0.3c0,0,0,0,0,0
									c-0.1,0-0.3,0.1-0.3,0.3l-1.4,142.8C708.9,369.4,709,369.5,709.2,369.5C709.2,369.5,709.2,369.5,709.2,369.5z"/>
							</g>
							<g>
								<path class="st50" d="M664.8,370.6c0.1,0,0.3-0.1,0.3-0.3l1.9-115.5c0-0.1-0.1-0.3-0.3-0.3c-0.2,0-0.3,0.1-0.3,0.3
									l-1.9,115.5C664.5,370.4,664.6,370.6,664.8,370.6C664.8,370.6,664.8,370.6,664.8,370.6z"/>
							</g>
							<g>
								<path class="st50" d="M670,246.6c0.1,0,0.3-0.2,0.3-0.4l-0.6-27.3c0-0.2-0.1-0.4-0.3-0.4c-0.1,0-0.3,0.2-0.3,0.4l0.6,27.3
									C669.7,246.4,669.8,246.6,670,246.6z"/>
							</g>
							<g>
								<path class="st50" d="M709.4,249.3c0.1,0,0.1,0,0.2-0.1c0.1-0.1,0.1-0.3,0-0.4c-7.5-7.4-11.6-18-10.9-28.5
									c0-0.1-0.1-0.3-0.3-0.3c-0.2,0-0.3,0.1-0.3,0.3c-0.6,10.6,3.5,21.4,11.1,28.9C709.3,249.3,709.3,249.3,709.4,249.3z"/>
							</g>
							<g>
								<path class="st50" d="M632.2,245C632.2,245,632.2,245,632.2,245c4.3-1.4,7.8-5.4,9.4-10.4c1.5-5.1,0.9-10.5,0.4-14.2
									c0-0.1-0.2-0.2-0.3-0.2c-0.1,0-0.2,0.2-0.2,0.3c0.6,3.6,1.1,9-0.4,14c-1.5,4.8-4.9,8.7-8.9,10c-0.1,0-0.2,0.2-0.2,0.3
									C632,244.9,632.1,245,632.2,245z"/>
							</g>
							<g>
								<path class="st50" d="M669.9,245.6c0.2,0,3.7-0.2,4.4-7.3c0.7-6.9,0.7-16.3,0.7-16.4c0-0.1-0.1-0.3-0.3-0.3c0,0,0,0,0,0
									c-0.1,0-0.3,0.1-0.3,0.3c0,0.1,0,9.4-0.7,16.3c-0.7,6.6-3.9,6.8-3.9,6.8c-0.1,0-0.3,0.1-0.3,0.3
									C669.7,245.5,669.8,245.6,669.9,245.6z"/>
							</g>
							<g>
								<path class="st50" d="M713.2,230.5C713.1,230.5,713.1,230.5,713.2,230.5c-27.8-7.2-64.4-5.7-76.5-5.2
									c-4.4,0.2-4.4,0.2-4.4-0.1c0-0.1,0-0.3,0.2-0.3c0.1,0,0.1,0,0.2,0c0.3,0,2,0,4.1-0.1c12.1-0.5,48.8-2.1,76.6,5.2
									c0.1,0,0.2,0.2,0.2,0.3C713.4,230.4,713.3,230.5,713.2,230.5z"/>
							</g>
							<path class="st50" d="M673.5,220.5c0,1.1-0.6,2-1.5,2.1c-0.8,0-1.5-0.9-1.6-2c0-1.1,0.6-2,1.5-2.1
								C672.7,218.5,673.4,219.4,673.5,220.5z"/>
						</g>
						<g>
							<g>
								<path class="st15" d="M629.5,385.8c-8.1,3.9-10.6,7.5-10.6,7.5s0.4,1.1,11.9,2.2C631.4,392.1,630.9,388.6,629.5,385.8z"/>
								<path class="st47" d="M663.8,382.2c-10.6,6-23.5-0.5-23.5-0.5c-4.5,1.3-8,2.7-10.9,4.1c1.5,2.9,2,6.3,1.3,9.7
									c2.9,0.3,6.6,0.5,11.2,0.7c22.4,1.1,23.2-4.7,23.2-4.7C665.3,385.8,663.8,382.5,663.8,382.2z"/>
							</g>
							<g>
								<path class="st15" d="M665.2,391.5c-0.1,1.1-0.2,2.3-0.4,3.5c0,0-6.4,2.3-24,2.7c-19.6,0.4-22.2-2-22.2-2s-0.1-0.9,0.2-2.3
									C639.8,396.9,656.4,393.9,665.2,391.5z"/>
							</g>
							<path class="st48" d="M634.1,383.8c0,0,3.5,2,3.2,6.7"/>
							<path class="st48" d="M638,382.4c0,0,3,1.7,3.1,6.7"/>
							<path class="st48" d="M639.5,383.9c0,0-2.6-5.6-0.1-5.8C641.9,378,639.5,383.9,639.5,383.9z"/>
							<path class="st48" d="M639.5,383.9c0,0,3.9-4.8,5.1-2.7C645.9,383.4,639.5,383.9,639.5,383.9z"/>
						</g>
					</g>
				</g>
				<g>
					<path class="st21" d="M642.5,115.1c2.6-0.9,5.5-1.6,8.9-2.3c0,0,9.3,4.4,21.9,4c6.4-0.2,13.7-1.6,21.2-5.5c0,0,1.6,8.4,8.7,5.2
						c5.1,17.1,14.4,23.9,19.5,41.2c-0.3,0.2-0.6,0.3-0.9,0.4c0,0-1.1,5.9,0.9,18c2.9,17.1,0.4,43.8-2.1,47.2
						c-2.5,3.4-1.4,3.5-22.1-0.2c-20.7-3.7-55-4.4-64.2,0.9c-9.1,5.3-6.7-13.9-6.3-14.2c0.3-0.3,1.8-11.1,0.1-20.5
						c-0.8-4.2,1.1-7.6,1.1-7.6"/>
					<path class="st21" d="M629.3,181.7c-7.7-1-16.8-9.7-22.8-16.5c2.6-13,7-26.1,14.5-34.5c6.2-6.9,11.1-12.1,21.5-15.6"/>
					<path class="st46" d="M726.9,182.8c0,0,8.8-4.2,5.2-21.3l-15.2,5.7L726.9,182.8z"/>
					<path class="st21" d="M710,178.3c7.7-0.7,17.1-9.1,23.4-15.6c-2.1-13.1-6-26.3-13.2-35c-5.9-7.2-10.6-12.5-20.9-16.4"/>
					<g>
						<path class="st51" d="M673.7,121.5c18.3,0.3,27.2-12.1,27.3-12.3c0.1-0.1,0.1-0.3-0.1-0.4c-0.1-0.1-0.3-0.1-0.4,0.1
							c-0.1,0.1-9.8,13.5-29.5,11.9c-13.5-1.1-22.6-6.5-22.6-6.6c-0.1-0.1-0.3,0-0.3,0.1c-0.1,0.1,0,0.3,0.1,0.3
							c0.1,0.1,9.3,5.5,22.9,6.6C672,121.5,672.9,121.5,673.7,121.5z"/>
					</g>
					<g>
						<path class="st51" d="M629.4,180c0.1,0,0.2-0.1,0.3-0.2c0-0.1-0.1-0.3-0.2-0.3c-14.3-3.1-22-17.5-22.1-17.6
							c-0.1-0.1-0.2-0.2-0.3-0.1c-0.1,0.1-0.2,0.2-0.1,0.3C607,162.3,614.9,176.8,629.4,180C629.4,180,629.4,180,629.4,180z"/>
					</g>
					<g>
						<path class="st51" d="M630.1,187c0,0,0.1,0,0.1,0c0.1-0.1,0.2-0.2,0.1-0.3c0,0-1.9-4.8,0.8-21c0-0.1-0.1-0.3-0.2-0.3
							c-0.1,0-0.3,0.1-0.3,0.2c-2.7,16.3-0.8,21-0.7,21.2C629.9,187,630,187,630.1,187z"/>
					</g>
					<g>
						<path class="st51" d="M631.7,160.1c0.1,0,0.2-0.1,0.3-0.2c3.9-24.2,4.5-39.5,4.5-39.6c0-0.1-0.1-0.3-0.2-0.3
							c-0.1,0-0.3,0.1-0.3,0.2c0,0.2-0.6,15.4-4.5,39.6C631.4,160,631.5,160.1,631.7,160.1C631.7,160.1,631.7,160.1,631.7,160.1z"/>
					</g>
					<g>
						<path class="st51" d="M629.4,178.6"/>
					</g>
					<g>
						<path class="st51" d="M720.6,157.7c0.1,0,0.1,0,0.2-0.1c0.1-0.1,0.1-0.3,0-0.4c-0.1-0.1-11.4-10-14.2-12.9
							c-0.1-0.1-0.3-0.1-0.4,0c-0.1,0.1-0.1,0.3,0,0.4c2.8,2.9,14.1,12.8,14.3,12.9C720.5,157.7,720.6,157.7,720.6,157.7z"/>
					</g>
					<g>
						<path class="st51" d="M630.2,221.3c0.1,0,0.1,0,0.1,0c0.1-0.1,7.9-5.2,25.7-4.9c0.1,0,0.2,0,0.3,0c7.7,0.1,19,1.6,30,3
							c15.2,2,29.5,3.8,33.1,2.1c0.1-0.1,0.2-0.2,0.1-0.3c-0.1-0.1-0.2-0.2-0.3-0.1c-3.5,1.7-17.7-0.2-32.8-2.1
							c-11-1.4-22.4-2.9-30.1-3c-0.1,0-0.2,0-0.3,0c-17.9-0.3-25.9,5-26,5c-0.1,0.1-0.1,0.2-0.1,0.3
							C630.1,221.3,630.1,221.3,630.2,221.3z"/>
					</g>
					<g>
						<path class="st51" d="M689.8,207.3c0,0,0.1,0,0.1,0c10.4-6.2,19.5-14.3,27-23.8c0.1-0.1,0.1-0.3,0-0.4c-0.1-0.1-0.3-0.1-0.4,0
							c-7.5,9.5-16.5,17.5-26.9,23.7c-0.1,0.1-0.2,0.2-0.1,0.3C689.7,207.2,689.7,207.3,689.8,207.3z"/>
					</g>
					<g>
						<path class="st51" d="M702.9,214.2c0.1,0,0.1,0,0.2-0.1c6.2-6.7,10.6-15,12.8-23.8c0-0.1,0-0.3-0.2-0.3c-0.1,0-0.3,0-0.3,0.2
							c-2.2,8.8-6.6,16.9-12.7,23.6c-0.1,0.1-0.1,0.3,0,0.4C702.8,214.2,702.9,214.2,702.9,214.2z"/>
					</g>
				</g>
				<g>
					<path class="st52" d="M629.2,27c-4.2,1-7.8,4.3-9.2,8.5c-1.4,4.1-0.5,9,2.3,12.3c0.4,0.5,0.9,1,1,1.6c0.3,0.9-0.2,1.9-0.6,2.8
						c-1.3,2.8-2.6,5.9-2.2,9c0.3,3.1,2.8,6.2,5.9,6.2"/>
					<path class="st53" d="M706.8,34.1c-1-1-1.8-1.8-2.5-2.5c1.6,3.3,3.7,7.1,4.5,7.8c0,0,3.4,19.2,5.7,22.7c2.3,3.5,4-9.4,1.7-16.9
						c-1.4-4.5-2.6-6.7-3.4-7.7C711.1,36.9,708.4,35.7,706.8,34.1z"/>
					<g>
						<path class="st45" d="M705.6,30.4c0,0,7.2,14.2,9.4,35.9c1.8,16.9-10,34.8-30.5,38.3c-19.2,3.3-40.2-2.4-49-29
							c-8.9-26.5-2.6-49.1,21.5-57.7C681.1,9.3,698.9,14.1,705.6,30.4z"/>
						<path class="st46" d="M671.2,80.4c-0.3,2.9-4.9,4.8-10.3,4.3c-5.4-0.5-9.6-3.3-9.3-6.2c0.3-2.9,4.9-4.8,10.3-4.3
							C667.3,74.8,671.4,77.5,671.2,80.4z"/>
						<path class="st46" d="M712.5,71.8c0.9,2.8-2.5,6.4-7.7,8.1c-5.2,1.7-10.1,0.9-11-1.9c-0.9-2.8,2.5-6.4,7.7-8.1
							C706.7,68.2,711.6,69,712.5,71.8z"/>
						<g>
							<path class="st53" d="M681.1,25.1c-0.1-0.1-0.2-0.2-0.2-0.2S681,25,681.1,25.1z"/>
							<path class="st53" d="M720.1,12.8c1.2-6.4-4.5-3.2-4.5-3.2s1.3-5.4-3-8.2c-4.3-2.8-12.8,1.3-16.2,1.7c0,0,5.2-6.5,0.5-10
								c-4.8-3.5-17.7,5.7-22.1,7.4c-9.5,3.7-11-1.6-27,4.5c-6.9,2.6-9.8,8.8-9.8,8.8s1-12.7-2.8-12.1c-3.8,0.6-2.7,16.4-2.7,16.4
								s-9.7-3.3-10.2,1.1c-0.5,4.3,6.2,7.8,6.2,7.8s-14.5,10.1-4.5,19.8c0,0-6.5,7.2-4,14.9c0,0,0.9,2.7,4,3.3
								c0,0-6.3,8.7,2.1,16.6c8.5,7.9,13.6,20.9,21.6,18.6c8-2.4-4.6-13.4-7.9-17.5c-3.3-4-1.9-9.4-0.9-20.8
								c1-11.4,2.7-26.1,2.7-26.1s25.8,9.1,35.6,2c8.7-6.3,4.8-11.7,3.8-12.7c-0.1-0.1-0.2-0.2-0.2-0.2s0.1,0.1,0.2,0.2
								c1.4,1.4,9.9,9.9,17.8,8.6c6-1,3.1-7,3.1-7s1.1,2.3,2.4,4.9c0.6,0.6,1.5,1.5,2.5,2.5c1.6,1.6,4.3,2.7,6.1,3.4
								c-0.5-0.7-0.9-0.9-0.9-0.9s8.6,2.4,7.4-6.9c-0.5-5.3-5.4-8.4-5.4-8.4S718.9,19.3,720.1,12.8z"/>
						</g>
						<path class="st45" d="M645.6,85.8l-6.2-15.4c0,0-15.1-3.8-14.3,11.2C625.9,96.6,641.6,95.7,645.6,85.8z"/>
						<path class="st53" d="M653.6,60.7c0,0-3.7-3.4,2.8-8.9c6.5-5.4,9-4.7,10.4-2.4c1.3,2,0,5.4-3.7,8.4
							C658.7,61.4,655.6,62.7,653.6,60.7z"/>
						<path class="st53" d="M708,53.2c0,0,2.1-4.6-6-7.1c-8.1-2.5-10.2-0.7-10.5,1.9c-0.4,2.4,2.1,5,6.7,6.3
							C703.6,55.8,707,55.8,708,53.2z"/>
						<path d="M667.2,67.1c0.2,2-1,3.8-2.6,4c-1.7,0.2-3.2-1.3-3.4-3.4c-0.2-2,1-3.8,2.6-4C665.5,63.5,667,65,667.2,67.1z"/>
						<path d="M700.9,62.6c0.2,2-1,3.8-2.6,4c-1.7,0.2-3.2-1.3-3.4-3.4c-0.2-2,1-3.8,2.6-4C699.1,59,700.6,60.5,700.9,62.6z"/>
						<g>
							<path class="st23" d="M640.5,87.2c0,0-0.1,0-0.1,0c-0.2-0.1-0.2-0.2-0.2-0.4c0-0.1,2.5-7.6-2.9-10.4c-1.9-1-3.7-1.2-5.3-0.7
								c-2.8,0.9-4.2,3.8-4.3,3.9c-0.1,0.1-0.3,0.2-0.4,0.1c-0.1-0.1-0.2-0.3-0.1-0.4c0.1-0.1,1.6-3.2,4.6-4.2
								c1.8-0.6,3.7-0.3,5.8,0.7c5.8,3.1,3.2,11,3.2,11.1C640.8,87.1,640.7,87.2,640.5,87.2z"/>
						</g>
						<g>
							<path class="st23" d="M632.6,82.1c-0.1,0-0.2,0-0.3-0.1c-0.1-0.1-0.1-0.3,0-0.4c0,0,4.7-4.2,8.8-0.9c0.1,0.1,0.1,0.3,0,0.4
								c-0.1,0.1-0.3,0.1-0.4,0c-3.7-3-8,0.8-8,0.9C632.7,82.1,632.6,82.1,632.6,82.1z"/>
						</g>
						<g>
							<path class="st23" d="M686.3,72.5c-0.1,0-0.2,0-0.3-0.1c-0.1-0.1,0-0.3,0.1-0.4c0,0,2.3-1.4,3.1-3.6c0.7-1.8,0.1-4.3-1.1-5.2
								c-0.7-0.6-1.7-0.5-2.6,0.1c0,0-0.1,0.1-0.1,0.1c-3.5,2.5-5.2,1.7-6.1,0.6c-1.6-2-2.2-19.3-2.3-21.2c0-0.2,0.1-0.3,0.3-0.3
								c0.2,0,0.3,0.1,0.3,0.3c0.2,5.3,0.9,19.3,2.1,20.9c1,1.3,2.8,1.1,5.3-0.7c0.1-0.1,0.1-0.1,0.2-0.1c1.2-0.8,2.4-0.8,3.4-0.1
								c1.4,1.1,2,3.9,1.3,5.9c-0.9,2.5-3.3,3.9-3.4,3.9C686.4,72.5,686.4,72.5,686.3,72.5z"/>
						</g>
					</g>
					<path class="st54" d="M636.3,31.3c5.5,2.8,11.3,5.1,17.3,6.8c3,0.8,6,1.4,9.1,1.7c3.1,0.3,6.2,0.3,9.2-0.3
						c1.5-0.3,3-0.8,4.3-1.5c1.4-0.7,2.6-1.5,3.7-2.6c1-1.1,1.7-2.4,2.1-3.9c0.3-1.5,0.3-3,0.1-4.5c-0.6-3-2-5.8-3.8-8.3
						c-0.5-0.6-1-1.2-1.5-1.7c-0.5-0.5-1.2-1.1-1.7-1.2c-0.1,0-0.2,0-0.1,0c0,0,0,0.1,0,0.2c0,0.3,0.1,0.6,0.3,1
						c0.3,0.7,0.7,1.3,1.1,2c1.7,2.5,3.9,4.8,6.1,6.9c2.3,2.1,4.7,4,7.4,5.5c1.3,0.7,2.8,1.4,4.2,1.8c1.5,0.4,3,0.6,4.4,0.2
						c1.4-0.3,2.6-1.3,3.2-2.7c0.6-1.3,0.9-2.9,0.9-4.4c0-1.5-0.2-3.1-0.5-4.5c-0.4-1.5-0.9-3-1.6-4.2c-0.2-0.3-0.4-0.6-0.7-0.8
						c-0.1-0.1-0.3-0.2-0.4-0.2c-0.1,0-0.1,0-0.1,0c-0.1,0.1-0.1,0.5-0.1,0.9c0,0.4,0.1,0.7,0.2,1.1c0.3,1.5,0.8,3,1.4,4.4
						c1.1,2.9,2.6,5.7,4.3,8.2c0.9,1.3,1.9,2.5,3,3.4c1.1,1,2.5,1.8,3.9,1.6l0,0c0.2,0,0.5,0.2,0.5,0.4c0,0.2-0.2,0.5-0.4,0.5
						c0,0,0,0,0,0c-1.8,0.2-3.4-0.8-4.6-1.8c-1.2-1.1-2.2-2.3-3.1-3.6c-1.8-2.6-3.2-5.4-4.4-8.4c-0.6-1.5-1.1-3-1.4-4.6
						c-0.1-0.4-0.1-0.8-0.2-1.2c0-0.4-0.1-0.8,0.3-1.4c0.1-0.1,0.3-0.3,0.5-0.3c0.2-0.1,0.4,0,0.5,0c0.3,0.1,0.5,0.2,0.7,0.4
						c0.4,0.3,0.6,0.6,0.8,1c0.9,1.4,1.4,2.9,1.8,4.5c0.4,1.6,0.6,3.1,0.6,4.7c0,1.6-0.2,3.2-1,4.7c-0.7,1.5-2.1,2.8-3.8,3.1
						c-1.6,0.4-3.3,0.2-4.8-0.2c-1.6-0.4-3-1.1-4.4-1.8c-2.8-1.5-5.3-3.5-7.6-5.6c-2.3-2.1-4.5-4.5-6.3-7.1
						c-0.4-0.7-0.9-1.3-1.2-2.1c-0.2-0.4-0.3-0.8-0.4-1.3c0-0.2,0-0.6,0.3-0.9c0.3-0.3,0.7-0.3,1-0.2c0.9,0.3,1.5,0.9,2.1,1.4
						c0.6,0.6,1.1,1.2,1.6,1.8c1.9,2.5,3.4,5.5,4,8.6c0.3,1.6,0.3,3.2-0.1,4.8c-0.4,1.6-1.2,3.1-2.3,4.3c-1.1,1.2-2.5,2.1-3.9,2.8
						c-1.4,0.7-3,1.3-4.5,1.7c-3.1,0.8-6.3,0.9-9.5,0.7c-3.2-0.2-6.3-0.9-9.3-1.7c-6.1-1.7-11.9-4.2-17.4-7.3
						c-0.2-0.1-0.3-0.4-0.2-0.6C635.8,31.2,636.1,31.2,636.3,31.3L636.3,31.3z"/>
				</g>
				<g>
					<g>
						<path class="st45" d="M691.8,117.3l4,29l24.5-5.5l-19.9-38.2c0,0-2.4-11.8-5.2-10.3c-2.7,1.4-2.4,9.3-2.4,9.3
							s-17.8-4.2-18.1-1.6c-0.2,2.5,11,5.1,11,5.1s-8.1-1.6-7.4,1.9c0.5,2,6.6,2.1,6.6,2.1s-6.3,0.1-6,2.3c0.4,2.2,6.2,1.6,6.2,1.6
							s-5.1,0.6-4.6,2.8c0.5,2.2,4.6,2.6,11.1,1.5l0,0"/>
						<path class="st45" d="M720.3,140.7c0,0,19,32.1,6.5,43.4c-12.5,11.2-21.6,2.2-24.5-8.3c-3-10.5-6.5-29.5-6.5-29.5"/>
					</g>
					<path class="st55" d="M708.6,118.3l-8.2-15.8c0,0-2.4-11.8-5.2-10.3c-2.7,1.4-2.4,9.3-2.4,9.3s-17.8-4.2-18.1-1.6
						c-0.2,2.5,11,5.1,11,5.1s-8.1-1.6-7.4,1.9c0.5,2,6.6,2.1,6.6,2.1s-6.3,0.1-6,2.3c0.4,2.2,6.2,1.6,6.2,1.6s-5.1,0.6-4.6,2.8
						c0.5,2.2,4.6,2.6,11.1,1.5l0,0"/>
				</g>
				<path class="st24" d="M717.9,182.5"/>
				<g>
					<path d="M677.2,79.3c0-1.5,0.3-2.6,0.3-2.6c6.3,0.2,12.6,2.8,12.6,2.8s-0.4,1.3-1.3,2.6C686.3,81,682.1,79.5,677.2,79.3z"/>
					<path class="st41" d="M688.9,82.2c-1.2,1.8-3.3,3.8-6.6,2.9c-4.1-1.1-5-3.7-5.1-5.8C682.1,79.5,686.3,81,688.9,82.2z"/>
				</g>
			</g>
		</g>
		<g>
			<path class="st16" d="M781.1,26.4c-0.6,0-44.3,0-47.2,0c-2.9,0-6,0.1-6,4.4c0,4.2-0.7,30.5-0.1,34.5c0.5,3.3,2.2,4.9,9.4,5.1
				s39.5-0.1,43.1,0c2.3,0.1,6.7,0.1,7-4.9c0.3-5.1,0.2-29.4,0.2-33.9C787.5,26.1,781.1,26.4,781.1,26.4z"/>
			<path class="st16" d="M741.5,67.9c0,0-0.4,7.5-3.4,13.2c0,0,9.6-1.7,12.6-14.5L741.5,67.9z"/>
			<g>
				<g>
					<path class="st15" d="M745.7,63.1c0.5,0,3.9,0.1,4.5,0c0.4,0,0.6-0.2,0.7-0.9c0-0.7,0-3.7,0-4c0-0.2,0-0.6-0.6-0.7
						c-0.7,0-3.8,0-4.4,0c-0.7,0-0.7,0.6-0.7,0.6c0,0.1,0,4.2,0,4.4S745.1,63.1,745.7,63.1"/>
				</g>
				<g>
					<path class="st15" d="M745.7,53.7c0.5,0,3.9,0.1,4.5,0c0.4,0,0.6-0.2,0.7-0.9c0-0.7,0-18.1,0-18.5c0-0.2,0-0.6-0.6-0.7
						c-0.7,0-3.8,0-4.4,0c-0.7,0-0.7,0.6-0.7,0.6c0,0.1,0,18.6,0,18.9C745.1,53.4,745.1,53.7,745.7,53.7"/>
				</g>
				<g>
					<path class="st15" d="M762.1,54.3c-0.7,0-1.1-0.4-0.9-1.1c0-0.2,0.1-4.4,0.1-4.6c1-4,4.1-3.7,4.7-6.9c0.2-1-0.3-2.2-1.6-2.2
						c-1.6,0-2.3,0.9-2.6,2.2c-0.1,0.7-0.4,1-1.1,0.8l-3.8-0.8c-0.6-0.1-0.9-0.5-0.9-1.1c0.2-2.4,1.5-6.9,8.4-6.9
						c7.5,0,7.8,5.9,7.7,6.9c0,5.3-3.5,6-4.9,8.4c-0.1,0.1-0.1,4.3-0.2,4.4c-0.2,0.6-0.5,0.8-1.1,0.8H762.1z M762,57.2
						c-0.6,0-1,0.3-1,1V62c0,0.6,0.4,1,1,1h3.8c0.7,0,1-0.4,1-1v-3.8c0-0.7-0.3-1-1-1H762z"/>
				</g>
			</g>
		</g>
	</g>
</g>
</svg>
