<?xml version="1.0" encoding="utf-8"?>
<!-- Generator: Adobe Illustrator 24.3.0, SVG Export Plug-In . SVG Version: 6.00 Build 0)  -->
<svg version="1.1" xmlns="http://www.w3.org/2000/svg" xmlns:xlink="http://www.w3.org/1999/xlink" x="0px" y="0px"
	 viewBox="0 0 500 500" style="enable-background:new 0 0 500 500;" xml:space="preserve">
<style type="text/css">
	.st0{fill:#BBDBEF;}
	.st1{fill:#E19E2C;}
	.st2{fill:#FFFFFF;}
	.st3{clip-path:url(#SVGID_2_);}
	.st4{fill:#E6A07E;}
	.st5{fill:#DC8765;}
	.st6{fill:none;stroke:#683935;stroke-width:0.6422;stroke-miterlimit:10;}
	.st7{fill:#050504;}
	.st8{fill:#486F6C;}
	.st9{fill:#634927;}
	.st10{fill:#E09F25;}
	.st11{fill:#1C1D27;}
	.st12{fill:#CC555F;}
	.st13{fill:#7CACDE;}
	.st14{fill:#6FA1CD;}
	.st15{fill:#5C89B3;}
	.st16{fill:#3A71A1;}
	.st17{fill:#2F658E;}
	.st18{fill:#7671AF;}
	.st19{clip-path:url(#SVGID_4_);fill:#B16860;}
	.st20{clip-path:url(#SVGID_4_);fill:#B57567;}
	.st21{clip-path:url(#SVGID_4_);}
	.st22{fill:#B57567;}
	.st23{fill:#503A33;}
	.st24{fill:#E3ABA3;}
	.st25{fill:#E28279;}
	.st26{fill:#D49A2C;}
	.st27{fill:#AF3C2A;}
	.st28{fill:none;stroke:#503A33;stroke-width:0.4378;stroke-linecap:round;stroke-linejoin:round;stroke-miterlimit:10;}
	.st29{fill:#B16860;}
	.st30{fill:#7C3645;}
	.st31{fill:none;stroke:#000000;stroke-width:0.6358;stroke-linecap:round;stroke-linejoin:round;stroke-miterlimit:10;}
	.st32{fill:none;stroke:#000000;stroke-width:0.7518;stroke-linecap:round;stroke-linejoin:round;stroke-miterlimit:10;}
	.st33{fill:#E9C1D9;}
</style>
<g id="BACKGROUND">
</g>
<g id="OBJECTS">
	<g>
		<path class="st0" d="M839.8,342.8c-1.7,0-132.4,0-141.1,0s-17.9,0.6-17.9,17.9c0,17.3-2,125.3-0.2,141.7
			c1.4,13.6,6.6,20.2,28,20.8c21.4,0.6,117.9-0.4,128.9,0c6.9,0.3,19.9,0.3,20.8-20.2c0.9-20.9,0.6-120.5,0.6-139.3
			C858.9,341.3,839.8,342.8,839.8,342.8z"/>
		<g>
			<path class="st1" d="M669.5,383.9c0.6,0,44.3,0,47.2,0c2.9,0,6,0.1,6,4.4c0,4.2,0.7,30.5,0.1,34.5c-0.5,3.3-2.2,4.9-9.4,5.1
				c-7.2,0.1-39.5-0.1-43.1,0c-2.3,0.1-6.7,0.1-7-4.9c-0.3-5.1-0.2-29.4-0.2-33.9C663,383.6,669.5,383.9,669.5,383.9z"/>
			<path class="st1" d="M709.4,425.4c0,0,0.4,7.5,3.4,13.2c0,0-9.6-1.7-12.6-14.5L709.4,425.4z"/>
			<g>
				<path class="st2" d="M676.8,420.9c0.5,0,3.9,0.1,4.5,0c0.4,0,0.6-0.2,0.7-0.9c0-0.7,0-3.7,0-4c0-0.2,0-0.6-0.6-0.7
					c-0.7,0-3.8,0-4.4,0c-0.7,0-0.7,0.6-0.7,0.6c0,0.1,0,4.2,0,4.4S676.3,420.9,676.8,420.9"/>
				<path class="st2" d="M690.3,415.9c0,0.1,0,4.2,0,4.4s0,0.6,0.6,0.6s3.9,0.1,4.5,0c0.4,0,0.6-0.2,0.7-0.9c0-0.7,0-3.7,0-4
					c0-0.2,0-0.6-0.6-0.7c-0.7,0-3.8,0-4.4,0C690.3,415.3,690.3,415.9,690.3,415.9z"/>
				<path class="st2" d="M704.4,415.9c0,0.1,0,4.2,0,4.4s0,0.6,0.6,0.6c0.5,0,3.9,0.1,4.5,0c0.4,0,0.6-0.2,0.7-0.9c0-0.7,0-3.7,0-4
					c0-0.2,0-0.6-0.6-0.7c-0.7,0-3.8,0-4.4,0C704.4,415.3,704.4,415.9,704.4,415.9z"/>
			</g>
			<g>
				<path class="st2" d="M676.8,411.5c0.5,0,3.9,0.1,4.5,0c0.4,0,0.6-0.2,0.7-0.9c0-0.7,0-18.1,0-18.5c0-0.2,0-0.6-0.6-0.7
					c-0.7,0-3.8,0-4.4,0c-0.7,0-0.7,0.6-0.7,0.6c0,0.1,0,18.6,0,18.9S676.3,411.5,676.8,411.5"/>
				<path class="st2" d="M690.3,392.1c0,0.1,0,18.6,0,18.9s0,0.6,0.6,0.6s3.9,0.1,4.5,0c0.4,0,0.6-0.2,0.7-0.9c0-0.7,0-18.1,0-18.5
					c0-0.2,0-0.6-0.6-0.7c-0.7,0-3.8,0-4.4,0C690.3,391.5,690.3,392.1,690.3,392.1z"/>
				<path class="st2" d="M704.4,392.1c0,0.1,0,18.6,0,18.9s0,0.6,0.6,0.6c0.5,0,3.9,0.1,4.5,0c0.4,0,0.6-0.2,0.7-0.9
					c0-0.7,0-18.1,0-18.5c0-0.2,0-0.6-0.6-0.7c-0.7,0-3.8,0-4.4,0C704.4,391.5,704.4,392.1,704.4,392.1z"/>
			</g>
		</g>
		<g>
			<defs>
				<path id="SVGID_1_" d="M839.8,342.8c-1.7,0-147.5,0-156.2,0c-8.7,0-17.9,0.6-17.9,17.9c0,17.3-2,125.3-0.2,141.7
					c1.4,13.6,37.9,54.2,72.1,20.8c21.4,0.6,88.9-0.4,99.9,0c6.9,0.3,19.9,0.3,20.8-20.2c0.9-20.9,0.6-120.5,0.6-139.3
					C858.9,341.3,839.8,342.8,839.8,342.8z"/>
			</defs>
			<clipPath id="SVGID_2_">
				<use xlink:href="#SVGID_1_"  style="overflow:visible;"/>
			</clipPath>
			<g class="st3">
				<path class="st4" d="M713.4,498.4c-0.7,1.2-1.2,1.8-1.2,1.8l-6.4-17.1l-1-3.7c0,0-3.6-9.8-4-12.5c-0.5-3.2,2.3-12.4,2-16
					c-0.3-3.3-4.6,0.5-6.4,2.2c-4.2-2.4-18.3-6.7-19.5-4.7c-1.1,1.8,7.1,5.1,10,6.2c0,0,0,0,0,0c-3.4-1.2-14.6-4.8-15.2-2.2
					c-0.2,1.3,7.2,3.9,11.1,5.1c0,0.1-0.1,0.1-0.1,0.2c-4.1-0.9-12.2-2.5-12.6-1.1c-0.4,1.5,8.1,3.7,11.8,4.6c0,0,0,0.1,0,0.1
					c-3.9-0.7-12.8-2.2-12.8-0.6c0,2.1,9.1,4.4,12.7,5.3l0.3-0.2c0.3,2.6,1,5.8,2.1,9.8c0,0,0.8,23,8.4,43
					c5.8,15.4,30.5,18.7,47.1-0.6C728.8,514.3,718.9,508.3,713.4,498.4z"/>
				<path class="st5" d="M739.6,517.8c2.8-3.3,5.4-7.1,7.6-11.7l-3.5-42.9c-6.8,2.7-12.7,7.6-16.8,14c-5.2,8.1-11,17.3-13.5,21.2
					C718.9,508.3,728.8,514.3,739.6,517.8z"/>
				<path class="st6" d="M686.9,461.3c0,0,7.9-0.2,8.5,5.2"/>
				<g>
					<path class="st7" d="M826.5,378.4c0,0,3.1,28.4-6.4,40.4c-9.5,12-16.5,15.6-28.9,17.7c-12.3,2.1-47-4.2-51-11.7
						c-4-7.5-10.5-30.5-6.2-45.7C738.4,363.8,826.5,378.4,826.5,378.4z"/>
					<path class="st8" d="M761.3,448.3c0,0,4.4-2.5,18.1-2.1c13.7,0.4,15.6,0.5,15.6,0.5L784.6,464l-18.8-6L761.3,448.3z"/>
					<path class="st5" d="M791.9,445.3l0.2-13.3l-28.1,3.7l0.3,12.7C773.8,449.9,783,448.5,791.9,445.3z"/>
					<path class="st4" d="M791.9,445.3c-8.8,3.1-18.1,4.6-27.6,3.1l0,1.9c0,0-0.9,20.6,13.6,22c14.5,1.4,13.9-22.2,13.9-22.2
						L791.9,445.3z"/>
					<path class="st5" d="M749.1,419l0-15.2c0,0-11.6-8.4-16,4.7C728.6,421.5,742.4,426.2,749.1,419z"/>
					<g>
						<path class="st9" d="M744.3,418.5c0,0-0.1,0-0.1-0.1c-0.1-0.1-0.1-0.3,0-0.4c0-0.1,4.7-5.6,1.1-9.8c-1.3-1.5-2.7-2.3-4.3-2.4
							c-2.7-0.2-4.9,1.8-5,1.9c-0.1,0.1-0.3,0.1-0.4,0c-0.1-0.1-0.1-0.3,0-0.4c0.1-0.1,2.4-2.2,5.4-2c1.7,0.1,3.3,1,4.7,2.6
							c3.9,4.6-1,10.5-1.1,10.6C744.6,418.5,744.4,418.5,744.3,418.5z"/>
					</g>
					<g>
						<path class="st9" d="M739.3,411.4c-0.1,0-0.2-0.1-0.2-0.2c-0.1-0.1,0-0.3,0.2-0.4c0.1,0,5.4-2,7.8,2.2c0.1,0.1,0,0.3-0.1,0.4
							c-0.1,0.1-0.3,0-0.4-0.1c-2.1-3.8-7.1-2-7.1-2C739.4,411.5,739.3,411.5,739.3,411.4z"/>
					</g>
					<path class="st4" d="M741.1,375.1c0,0-0.6,16.3-0.4,35.5c0.1,15.6,12.7,30.7,31.8,31.8c17.9,1,36.4-6.4,41.8-31.5
						c5.4-25.1,1.2-45.7-21.6-51C769.8,354.5,747.1,355.7,741.1,375.1z"/>
					<g>
						<path class="st10" d="M767.5,369.5c0.1-0.1,0.2-0.2,0.2-0.2S767.6,369.4,767.5,369.5z"/>
					</g>
					<path class="st7" d="M801.8,395.8c0,0,3-3.5-3.5-7.8c-6.5-4.3-8.7-3.3-9.8-1.1c-0.9,2,0.6,5,4.2,7.3
						C797.2,397,800.1,397.9,801.8,395.8z"/>
					<path class="st7" d="M748.6,393c0,0-2.4-4,4.8-7.1c7.1-3.1,9.2-1.7,9.8,0.6c0.6,2.1-1.4,4.8-5.5,6.4
						C752.9,394.9,749.8,395.3,748.6,393z"/>
					<path d="M786.8,406.4c0,1.9,1.3,3.4,2.8,3.4c1.5,0,2.8-1.5,2.8-3.4c0-1.9-1.3-3.4-2.8-3.4C788,403,786.8,404.6,786.8,406.4z"/>
					<path d="M752.9,405.8c0,1.9,1.3,3.4,2.8,3.4c1.5,0,2.8-1.5,2.8-3.4c0-1.9-1.3-3.4-2.8-3.4C754.1,402.4,752.8,403.9,752.9,405.8
						z"/>
					<g>
						<path class="st9" d="M769,413.4c0.1,0,0.2-0.1,0.2-0.2c0.1-0.1,0-0.3-0.1-0.4c0,0-2.2-1-3.2-3c-0.8-1.5-0.6-3.9,0.5-4.9
							c0.6-0.6,1.5-0.7,2.4-0.2c0,0,0.1,0,0.1,0.1c3.4,1.9,4.9,1,5.6-0.1c1.2-2,0-17.8-0.1-19.6c0-0.2-0.1-0.3-0.3-0.3
							c-0.2,0-0.3,0.1-0.3,0.3c0.4,4.8,1.2,17.7,0.2,19.3c-0.8,1.3-2.4,1.3-4.9-0.1c-0.1,0-0.1-0.1-0.2-0.1
							c-1.2-0.6-2.3-0.5-3.1,0.3c-1.2,1.2-1.5,3.8-0.6,5.5c1.1,2.1,3.4,3.2,3.5,3.2C769,413.4,769,413.4,769,413.4z"/>
					</g>
					<path class="st5" d="M784,420.8c0.5,2.6,5,3.9,9.9,2.9c4.9-1,8.4-4,7.9-6.6c-0.5-2.6-5-3.9-9.9-2.9
						C786.9,415.2,783.4,418.2,784,420.8z"/>
					<path class="st5" d="M761.4,420.5c-0.6,2.6-5.1,3.8-9.9,2.6c-4.9-1.1-8.3-4.2-7.7-6.8c0.6-2.6,5.1-3.8,9.9-2.6
						C758.6,414.8,762,417.9,761.4,420.5z"/>
					<path class="st7" d="M758.5,347.7c17.8-3.4,34.7,3.6,41,6.6c-0.5-3.7,1.3-8,2.5-8c1.7,0,1.2,7.3,1,9.5c0.1,0,0.1,0,0.2,0
						c0.7-1.6,2.9-6,5.1-4.4c1.5,1.1-0.4,3.4-2.3,5.2c5.7,1.9,19.1,5.7,20.5,21.7c1.6,18.9-6.7,27.7-6.7,27.7s-2.4,0.6-11.4-2.9
						c-2.7-1.1-10-38.3-20-28.8c-21.2,20.3-31.6,18-49.7,21.4c-6.4,1.2-4,5.4-6.4-6.8C729.9,376.9,735.9,352,758.5,347.7z"/>
					<path class="st4" d="M803.9,415.4l4.1-14.7c0,0,13.4-5,14.2,8.8C823,423.2,808.5,424.1,803.9,415.4z"/>
					<g>
						<path class="st9" d="M808.6,416.1c0,0,0.1,0,0.1,0c0.1-0.1,0.2-0.2,0.1-0.4c0-0.1-3-6.7,1.6-9.8c1.6-1.1,3.2-1.5,4.8-1.1
							c2.7,0.6,4.2,3.1,4.3,3.1c0.1,0.1,0.3,0.2,0.4,0.1c0.1-0.1,0.2-0.2,0.1-0.4c-0.1-0.1-1.7-2.8-4.6-3.4c-1.7-0.4-3.4,0-5.2,1.2
							c-5,3.3-1.9,10.4-1.8,10.5C808.3,416,808.4,416.1,808.6,416.1z"/>
					</g>
					<g>
						<path class="st9" d="M815.3,410.7c0.1,0,0.2,0,0.2-0.1c0.1-0.1,0.1-0.3-0.1-0.4c0,0-4.7-3.4-8.1,0c-0.1,0.1-0.1,0.3,0,0.4
							c0.1,0.1,0.3,0.1,0.4,0c3.1-3.1,7.3,0,7.4,0C815.2,410.7,815.3,410.7,815.3,410.7z"/>
					</g>
					<g>
						<g>
							<path class="st11" d="M747.4,424.3c-9.2-0.3-16.5-8-16.2-17.2c0.3-9.2,8-16.5,17.2-16.2c9.2,0.3,16.5,8,16.2,17.2
								C764.3,417.3,756.6,424.6,747.4,424.3z M748.3,391.8c-8.7-0.2-16,6.6-16.2,15.3c-0.2,8.7,6.6,16,15.3,16.2
								c8.7,0.2,16-6.6,16.2-15.3C763.9,399.4,757,392.1,748.3,391.8z"/>
						</g>
						<g>
							<path class="st11" d="M793,425.6c-9.2-0.3-16.5-8-16.2-17.2c0.3-9.2,8-16.5,17.2-16.2c9.2,0.3,16.5,8,16.2,17.2
								C809.9,418.6,802.2,425.9,793,425.6z M793.9,393.2c-8.7-0.3-16,6.6-16.2,15.3c-0.2,8.7,6.6,16,15.3,16.2
								c8.7,0.3,16-6.6,16.2-15.3C809.5,400.7,802.6,393.4,793.9,393.2z"/>
						</g>
						<g>
							<path class="st11" d="M777.3,406.6c-0.1,0-0.2,0-0.2-0.1c-6.2-3.9-12.8-0.4-12.8-0.4c-0.2,0.1-0.5,0-0.6-0.2
								c-0.1-0.2,0-0.5,0.2-0.6c0.1,0,7.1-3.8,13.7,0.4c0.2,0.1,0.3,0.4,0.1,0.6C777.6,406.5,777.4,406.6,777.3,406.6z"/>
						</g>
					</g>
					<g>
						<path class="st12" d="M773.7,424.5c-1.9,0.6-3.4-0.4-4.4-1.6c2.5-1.7,5.5-2.7,8.2-3.3C777.1,421.3,776.1,423.7,773.7,424.5z"
							/>
						<path d="M777.9,417.4c0,0,0,0.9-0.3,2.1c-2.7,0.6-5.7,1.6-8.2,3.3c-1.1-1.3-1.7-2.9-1.7-2.9
							C771.1,417.4,777.9,417.4,777.9,417.4z"/>
					</g>
				</g>
				<path class="st13" d="M739.6,591.3c-1.8,14.7-3.6,30-3.4,33l41.9,0.5l0.3-5.5c0,0,11-0.4,12.4-0.7l0.4,6.1
					c0,0,37.9,0.4,49.2,0.1c0,0-3.2-26.4-7.3-47.2C804.1,591.3,770.6,596.4,739.6,591.3z"/>
				<path class="st14" d="M743.3,562.3c0,0-1.9,14.2-3.7,29.1c31,5,64.4-0.1,93.6-13.7c-1.4-7-2.9-13.3-4.4-17.9L743.3,562.3z"/>
				<g>
					<path class="st15" d="M838,625.1c-0.1,0-0.2-0.1-0.2-0.2c-3.7-35.2-10-60.7-10.1-61c0-0.1,0-0.2,0.2-0.3c0.1,0,0.2,0,0.3,0.2
						c0.1,0.3,6.4,25.8,10.1,61C838.2,624.9,838.2,625,838,625.1C838,625.1,838,625.1,838,625.1z"/>
				</g>
				<path class="st4" d="M832.4,554.6c0,0-6.1,17.2-22.1,26.1c0,0,6.7,9.9,19.5,14.5c0,0,15.6-14.5,22-29.4
					c5.1-12,1.8-40.6-1.2-56.5c-7,5.8-14.9,9.1-23.2,11.5L832.4,554.6z"/>
				<path class="st5" d="M826.2,512.6l1.2,8.2c8.4-2.4,16.2-5.7,23.2-11.5c-0.7-3.8-1.4-6.9-2-8.8L826.2,512.6z"/>
				<g>
					<g>
						<path class="st15" d="M782.9,611.1c-0.1,0-0.2-0.1-0.2-0.2l-1.2-34.9c0-0.1,0.1-0.2,0.2-0.2c0.1,0,0.2,0.1,0.2,0.2l1.2,34.9
							C783.1,611,783,611,782.9,611.1C782.9,611.1,782.9,611.1,782.9,611.1z"/>
					</g>
					<g>
						<path class="st15" d="M783.1,607.9c-0.1,0-0.2-0.1-0.2-0.2c0-0.1,0.1-0.2,0.2-0.2c0.3,0,6.2-0.1,6.5-6.4
							c0.3-6.5-0.2-17.6-0.2-17.7c0-0.1,0.1-0.2,0.2-0.2c0.1,0,0.2,0.1,0.2,0.2c0,0.1,0.5,11.3,0.2,17.8
							C789.6,607.8,783.1,607.9,783.1,607.9z"/>
					</g>
					<g>
						<path class="st15" d="M812.1,580.2"/>
					</g>
					<g>
						<path class="st15" d="M833.6,597.4C833.6,597.4,833.5,597.4,833.6,597.4c-0.2-0.1-15.7-6-26.4-19.6c-0.1-0.1-0.1-0.2,0-0.3
							c0.1-0.1,0.2-0.1,0.3,0c10.7,13.4,26,19.4,26.1,19.4c0.1,0,0.2,0.2,0.1,0.3C833.8,597.3,833.7,597.4,833.6,597.4z"/>
					</g>
					<g>
						<path class="st15" d="M738.9,596.9c-0.1,0-0.2-0.1-0.2-0.2c0-0.2,0.2-0.3,1.1-0.8c3.1-1.6,12.3-6.4,18.8-20
							c0.1-0.1,0.2-0.2,0.3-0.1c0.1,0,0.2,0.2,0.1,0.3c-6.5,13.7-15.9,18.6-19,20.2c-0.4,0.2-0.8,0.4-0.9,0.5
							C739.1,596.8,739,596.9,738.9,596.9z"/>
					</g>
					<g>
						<path class="st15" d="M775.5,619.6c-2.4,0-3.7-0.1-3.8-0.1c-0.1,0-0.2-0.1-0.2-0.2c0-0.1,0.1-0.2,0.2-0.2
							c0.1,0,13.8,0.7,30.3-2.3c0.1,0,0.2,0.1,0.2,0.2c0,0.1-0.1,0.2-0.2,0.2C790.7,619.3,780.7,619.6,775.5,619.6z"/>
					</g>
					<g>
						<path class="st15" d="M796.2,622c0,0-0.1,0-0.1,0l-5.3-3.2c-0.1-0.1-0.1-0.2-0.1-0.3c0.1-0.1,0.2-0.1,0.3-0.1l5.3,3.2
							c0.1,0.1,0.1,0.2,0.1,0.3C796.3,622,796.3,622,796.2,622z"/>
					</g>
				</g>
				<path class="st16" d="M783.3,454.8l-2.3,9c0,0-3.2-8.3-3.5-9.2c-0.4-0.9-22.6,0-22.6,0s-12.9,0.2-18.6,4.3
					c-7.1,4.4-15.8,21.3-20.1,26.1c0,0-2.2,12.5,26.6,20.6c0,0,1,19.5,0.3,27.3c-0.7,7.8-3.5,35.1-3.5,35.1s12.4,14.2,33.7,16.7
					c0,0,6-3.2,8.5-8.9c0,0,6,8.9,13.8,10.6c7.8,1.8,23.4-11.3,29.8-19.1c6.4-7.8,7.1-12.8,7.1-12.8l-6.4-45.7
					c0,0,13.1-3.2,22.7-18.8c0,0-12.1-26.2-17.4-29.1c-5.3-2.8-30.8-7.1-30.8-7.1L783.3,454.8z"/>
				<path class="st17" d="M826.1,508.9l0.3,3.7c0,0,16.8-4.4,25.7-15.1c0,0-0.4-6-3.3-7.5C848.7,490.1,840.7,500.6,826.1,508.9z"/>
				<path class="st17" d="M743.5,505.7v5.8c0,0-17.1-3.5-29.9-19c0,0,0.4-6,3.3-7.5C716.8,485.1,728.8,497.4,743.5,505.7z"/>
				<path class="st17" d="M777.5,454.6c0,0-14.9-5.5-16.1-6.4c0,0-3.4,3.4-7.3,8.9c0,0,12.1,11.7,16,12.6L777.5,454.6z"/>
				<path class="st17" d="M783.3,454.5c0,0,10.5-6.9,11.7-7.8c0,0,5.9,4.1,9.8,9.6c0,0-10.1,12.4-14,13.3L783.3,454.5z"/>
				<g>
					<path class="st17" d="M781.7,576.1c-0.1,0-0.2-0.1-0.2-0.2l-0.7-112c0-0.1,0.1-0.2,0.2-0.2c0,0,0,0,0,0c0.1,0,0.2,0.1,0.2,0.2
						l0.7,112C781.9,576,781.8,576.1,781.7,576.1C781.7,576.1,781.7,576.1,781.7,576.1z"/>
				</g>
				<path class="st17" d="M791.3,486.3l21.1-1.2c1.3-0.1,2.4,0.8,2.5,2.1l2.3,16.7c0.1,0.8-0.2,1.7-0.9,2.2l-9.7,8
					c-0.8,0.6-1.8,0.7-2.7,0.2l-14-7.7c-0.8-0.4-1.3-1.3-1.2-2.2l0.3-15.8C789.1,487.4,790.1,486.3,791.3,486.3z"/>
				<g>
					
						<rect x="789.1" y="489.2" transform="matrix(0.9996 -2.730249e-02 2.730249e-02 0.9996 -13.0677 22.0799)" class="st16" width="25.9" height="0.8"/>
				</g>
				<g>
					<path class="st17" d="M787,581.4c-0.1,0-0.2-0.1-0.2-0.2L784.7,465c0,0,0-0.1,0-0.1l1.6-4.5c0-0.1,0.2-0.2,0.3-0.1
						c0.1,0,0.2,0.2,0.1,0.3l-1.6,4.5l2.1,116.2C787.3,581.3,787.2,581.4,787,581.4C787.1,581.4,787.1,581.4,787,581.4z"/>
				</g>
				<g>
					<path class="st8" d="M780.2,463.8c-4.5,0-6.7-1.6-6.9-1.7c-0.1-0.1-0.1-0.2,0-0.3c0.1-0.1,0.2-0.1,0.3,0c0,0,4.6,3.3,13.5,0.5
						c0.1,0,0.2,0,0.3,0.1c0,0.1,0,0.2-0.1,0.3C784.5,463.5,782.2,463.8,780.2,463.8z"/>
				</g>
				<path class="st17" d="M784.4,467.2c0,0.7-0.6,1.3-1.3,1.3c-0.7,0-1.3-0.6-1.3-1.3c0-0.7,0.6-1.3,1.3-1.3
					C783.8,465.9,784.4,466.5,784.4,467.2z"/>
				<path class="st17" d="M784.4,482.8c0,0.7-0.6,1.3-1.3,1.3c-0.7,0-1.3-0.6-1.3-1.3c0-0.7,0.6-1.3,1.3-1.3
					C783.8,481.5,784.4,482.1,784.4,482.8z"/>
				<path class="st17" d="M784.2,499.3c-0.5,0.5-1.3,0.6-1.9,0.1c-0.5-0.5-0.6-1.3-0.1-1.9c0.5-0.5,1.3-0.6,1.9-0.1
					C784.6,497.9,784.7,498.8,784.2,499.3z"/>
				<path class="st17" d="M784.6,517.6c-0.5,0.5-1.3,0.6-1.9,0.1c-0.5-0.5-0.6-1.3-0.1-1.9s1.3-0.6,1.9-0.1
					C785,516.2,785.1,517.1,784.6,517.6z"/>
				<path class="st17" d="M784.8,551c-0.5,0.5-1.3,0.6-1.9,0.1c-0.5-0.5-0.6-1.3-0.1-1.9s1.3-0.6,1.9-0.1
					C785.3,549.6,785.3,550.5,784.8,551z"/>
				<path class="st17" d="M784.7,535.3c-0.5,0.5-1.3,0.6-1.9,0.1s-0.6-1.3-0.1-1.9c0.5-0.5,1.3-0.6,1.9-0.1
					C785.2,533.9,785.2,534.8,784.7,535.3z"/>
				<path class="st17" d="M785,570.8c-0.5,0.5-1.3,0.6-1.9,0.1c-0.5-0.5-0.6-1.3-0.1-1.9c0.5-0.5,1.3-0.6,1.9-0.1
					C785.5,569.4,785.5,570.3,785,570.8z"/>
			</g>
		</g>
	</g>
	<g>
		<path class="st18" d="M353.4,329.1c0-1.7,0-132.4,0-141.1c0-8.7-0.6-17.9-17.9-17.9c-17.3,0-125.3-2-141.7-0.2
			c-13.6,1.4-20.2,6.6-20.8,28c-0.6,21.4,0.4,117.9,0,128.9c-0.3,6.9-0.3,19.9,20.2,20.8c20.9,0.9,120.5,0.6,139.3,0.6
			C354.8,348.2,353.4,329.1,353.4,329.1z"/>
		<g>
			<defs>
				<path id="SVGID_3_" d="M353.4,329.1c0-1.7-3.6-161.1-3.6-169.7s-0.6-17.9-17.9-17.9s-125.3-2-141.7-0.2
					c-13.6,1.4-20.2,6.6-20.8,28c-0.6,21.4-13.4,146.6-13.8,157.6c-0.3,6.9,32.8,54.2,65.8,21.2c44.1,1.5,92.4,0.3,111.2,0.2
					C354.8,348.2,353.4,329.1,353.4,329.1z"/>
			</defs>
			<clipPath id="SVGID_4_">
				<use xlink:href="#SVGID_3_"  style="overflow:visible;"/>
			</clipPath>
			<path class="st19" d="M339.3,330.8c-1.9-6.1-4.2-12-6.8-17.6c-3.6-7.3-9.4-9.5-13.3-8.5h0c-2.1,0.5-4,1.8-5.3,3.6l-8.7,12.1
				c0,0,2.4,3.2,7.8,17.9C322.8,339.2,331.5,336,339.3,330.8z"/>
			<path class="st20" d="M339.3,330.8c-7.8,5.2-16.5,8.4-26.4,7.5c0.5,1.3,0.9,2.6,1.4,4c1.1-0.1,2.1-0.3,3-0.9
				c-0.9,0.6-1.9,0.8-3,0.9c2.1,6,4.6,13.5,7.5,23c4.4,14.4,14.9,40.7,14.9,40.7s-5.9,9.4-4.4,12c1.5,2.6,4.6-3,4.6-3
				s-3,14-0.5,14.1c2.4,0.1,4.5-10.7,4.5-10.7s-0.9,13.6,2.3,12.9c1.9-0.5,1.5-12.1,1.5-12.1s1.2,11.6,3.3,11.2
				c2-0.4,0.4-11.5,0.4-11.5s2,9,4.1,8.5c2.1-0.6,0.6-15.7-0.9-20.4C351.7,406.7,350.7,366.3,339.3,330.8z"/>
			<g class="st21">
				<path class="st22" d="M179.4,291.7c-0.8-5.2-2.2-7.6-2.2-7.6c-0.4-2-1.3-3.1-1.3-6.9c0-1.5,0.1-3.3,0.9-4.5
					c4.8-6.6,12.4,0.6,12.4,0.6s-1.4-11.9,1.1-11.5c2.5,0.4,2.6,15.4,2.6,15.4c0.3,4.6,0,11.2,0,11.2l1.1,4"/>
				<g>
					<path class="st23" d="M191.6,287.2c-0.1,0-0.1,0-0.2-0.1c-0.3-0.4-8.4-9.4-7.6-12.4c0.1-0.6,0.5-1,0.9-1.1
						c1.7-0.5,4.7,2.6,4.9,2.7c0.1,0.1,0.1,0.2,0,0.3c-0.1,0.1-0.2,0.1-0.3,0c-0.8-0.8-3.3-2.9-4.4-2.6c-0.3,0.1-0.5,0.3-0.6,0.8
						c-0.7,2.8,7.4,11.9,7.5,12c0.1,0.1,0.1,0.2,0,0.3C191.7,287.1,191.6,287.2,191.6,287.2z"/>
				</g>
				<g>
					<path class="st23" d="M180.8,282.2c0,0-0.1,0-0.1,0c-0.1-0.1-0.1-0.2-0.1-0.3c1.6-2.6,4.4-3.6,4.5-3.6c0.1,0,0.2,0,0.3,0.1
						c0,0.1,0,0.2-0.1,0.3c0,0-2.7,1-4.3,3.5C181,282.2,180.9,282.2,180.8,282.2z"/>
				</g>
				<g>
					<path class="st23" d="M180.5,279.1c-0.7,0-1.5-0.6-1.9-1.6c-1.8-3.8,0.8-7.1,0.8-7.1c0.1-0.1,0.2-0.1,0.3,0
						c0.1,0.1,0.1,0.2,0,0.3c0,0-2.4,3.1-0.7,6.7c0.5,1,1.2,1.4,1.6,1.3c0.4-0.1,0.7-0.4,0.8-1c0-0.1,0.1-0.2,0.2-0.2
						c0.1,0,0.2,0.1,0.2,0.2c-0.1,0.7-0.6,1.2-1.2,1.3C180.6,279.1,180.6,279.1,180.5,279.1z"/>
				</g>
				<g>
					<path class="st23" d="M182.3,278c-0.6,0-1.3-0.4-1.8-1.5c-1.8-4.4,1.9-6.5,1.9-6.6c0.1-0.1,0.2,0,0.3,0.1
						c0.1,0.1,0,0.2-0.1,0.3c-0.1,0.1-3.4,2-1.7,6c0.4,1.1,1.2,1.4,1.7,1.2c0.6-0.2,0.9-1.2,0.4-2.6c-0.9-2.1,1.3-4.2,1.4-4.3
						c0.1-0.1,0.2-0.1,0.3,0c0.1,0.1,0.1,0.2,0,0.3c0,0-2,2-1.3,3.9c0.7,1.7,0.2,2.8-0.6,3.1C182.6,277.9,182.4,278,182.3,278z"/>
				</g>
				<g>
					<path class="st23" d="M178.2,280c-0.4,0-0.8-0.2-1.1-0.6c-0.7-0.8-1.3-2.4-1-4.3c0-0.1,0.1-0.2,0.2-0.2c0.1,0,0.2,0.1,0.2,0.2
						c-0.2,1.8,0.3,3.3,0.9,4c0.2,0.2,0.5,0.4,0.8,0.5c0.9,0,0.9-1.1,0.9-1.1c0-0.1,0.1-0.2,0.2-0.2c0.1,0,0.2,0.1,0.2,0.2
						C179.6,279,179.3,280,178.2,280C178.2,280,178.2,280,178.2,280z"/>
				</g>
			</g>
			<path class="st20" d="M206.1,318.7c-1.3,2.1-2.1,3.4-2.1,3.4l-11.3-34.7l0.1-2.2c-4.7,0.6-9.3,1.3-13.7,2.4
				c-0.4,9.6-2.2,53.4,10.3,63.7c13.3,11,30.3-5.3,40-17.1C220.3,331.7,211.9,326.6,206.1,318.7z"/>
			<path class="st19" d="M234.1,287.7c-9.7,3.1-22.9,22.9-27.9,31c5.8,7.8,14.1,13,23.3,15.5c4.7-5.8,7.7-10.5,7.7-10.5L234.1,287.7
				z"/>
			<g class="st21">
				<g>
					<path class="st24" d="M289,282.1c0,0,18.1,3.4,28.9,8.8c10.7,5.4,17.4,23.5,17.4,23.5s-7.6,11.6-20.7,15.3
						c0,0-0.2,11.2,0.7,19.5c0.9,8.2,3.3,28.2-6.7,30.5c-10,2.3-31.1,1.7-41.8,2.3c-10.7,0.6-24.3-1.5-31.3-4.8
						c-7-3.3-10.2-6.6-10.3-18.4c-0.1-11.8,4.1-35.1,4.1-35.1s-12.9-2.9-20.2-14.9c0,0,13-23.2,28.7-25.6
						C251.2,281,266.2,278.4,289,282.1z"/>
					<path class="st25" d="M314.5,329.6c-0.8,0.3-0.3,4.2-0.3,4.2s13.5,1.3,25.1-14.7c0,0,0.5-4.2-4.8-5.1
						C334.5,314.1,326.2,325.7,314.5,329.6z"/>
					<path class="st25" d="M229.7,322.4c0.7,0.2-0.8,4.2-0.8,4.2s-12.8,1.6-24-14.2c0,0-0.6-4.2,4.4-5.2
						C209.3,307.2,218.6,318.6,229.7,322.4z"/>
					<g>
						<path class="st26" d="M265.5,362.9c0.1,0,0.1,0,0.2-0.1c0.1-0.1,0-0.2-0.1-0.3c-8.6-5.9-16-13.8-21.5-22.7
							c-0.1-0.1-0.2-0.1-0.3-0.1c-0.1,0.1-0.1,0.2-0.1,0.3c5.5,8.9,13,16.8,21.6,22.8C265.5,362.9,265.5,362.9,265.5,362.9z"/>
					</g>
					<g>
						<path class="st26" d="M252.4,367.9c0.1,0,0.1,0,0.1-0.1c0.1-0.1,0.1-0.2,0-0.3c-6-6.8-10.7-14.8-13.6-23.4
							c0-0.1-0.2-0.2-0.3-0.1c-0.1,0-0.2,0.2-0.1,0.3c3,8.6,7.7,16.7,13.7,23.5C252.3,367.9,252.3,367.9,252.4,367.9z"/>
					</g>
				</g>
				<g>
					<path class="st25" d="M295.3,287.5c1.6-1.9,0.6-4.8-1.9-5.1c-4.6-0.6-11.6-1.5-17-1.6c-4.9-0.1-10.7-0.1-14.9-0.1
						c-3.3,0-5.4,3.7-3.7,6.5c2.5,4.1,7.3,8.7,16.5,9.2C284.9,297,291.7,291.6,295.3,287.5z"/>
					<path class="st12" d="M293.4,282.4c0,0-2.7,18.1-3.1,30.1c0,0-27.5-1.6-36.4-2c0,0,1.4-24.1,2.6-29.7c0,0-4.3,0.1-7.5,0.7
						c0,0-4.3,12-4.9,29.2c0,0-16.1,37-19.3,40.2l-12.3,119.5l111.1,0.2l-7-110.3c0,0-13.3-37-16.5-45c0,0,0.4-25,2.4-31
						C302.6,284.3,297.5,282.5,293.4,282.4z"/>
					<g>
						<path class="st25" d="M268.8,347.3c-18.7-1.5-18.6-22.3-18.6-22.5c0-0.1,0-0.1,0.1-0.2c0,0,0.1-0.1,0.2-0.1
							c15.2,0.3,40.4,1.8,40.7,1.8c0.1,0,0.1,0,0.2,0.1c0,0.1,0.1,0.1,0,0.2c0,0.2-3.6,20.8-20.7,20.8
							C270.1,347.3,269.4,347.3,268.8,347.3z M250.7,325c0,2.3,1,20.4,18.2,21.8c17.1,1.4,21.5-17.6,22-20
							C288.1,326.6,265.1,325.3,250.7,325z"/>
					</g>
					<g>
						<path class="st27" d="M316.2,384.3c0.1,0,0.2-0.1,0.2-0.2c0-0.1-0.1-0.2-0.2-0.3c-0.7-0.1-66.9-5.7-89.9-0.9
							c-0.1,0-0.2,0.2-0.2,0.3c0,0.1,0.2,0.2,0.3,0.2C249.3,378.7,315.5,384.3,316.2,384.3C316.1,384.3,316.1,384.3,316.2,384.3z"/>
					</g>
					<g>
						<path class="st27" d="M315.2,391.6c0.1,0,0.2-0.1,0.2-0.2c0-0.1-0.1-0.2-0.2-0.3c-0.7-0.1-66.9-5.7-89.9-0.9
							c-0.1,0-0.2,0.2-0.2,0.3c0,0.1,0.2,0.2,0.3,0.2C248.4,385.9,314.6,391.5,315.2,391.6C315.2,391.6,315.2,391.6,315.2,391.6z"/>
					</g>
					<g>
						<path class="st27" d="M270.4,419.3c0.1,0,0.2-0.1,0.2-0.2l1.5-37.1c0-0.1-0.1-0.2-0.2-0.2c-0.1,0-0.2,0.1-0.2,0.2l-1.5,37.1
							C270.1,419.2,270.2,419.3,270.4,419.3C270.3,419.3,270.4,419.3,270.4,419.3z"/>
					</g>
					<g>
						<path class="st27" d="M270.4,414.8c0.1,0,0.2-0.1,0.2-0.2c0-0.1-0.1-0.2-0.2-0.2c-0.3,0-6.7-0.1-7-7.9
							c-0.3-8,0.9-24.5,0.9-24.7c0-0.1-0.1-0.2-0.2-0.3c-0.1,0-0.2,0.1-0.3,0.2c0,0.2-1.2,16.7-0.9,24.7
							C263.2,414.7,270.3,414.8,270.4,414.8z"/>
					</g>
					<g>
						<path class="st27" d="M221.9,404.9C221.9,404.9,221.9,404.9,221.9,404.9c8.6-1.1,16.2-7.3,19.1-15.4c0-0.1,0-0.3-0.1-0.3
							c-0.1,0-0.3,0-0.3,0.1c-2.8,7.9-10.3,14-18.7,15.1c-0.1,0-0.2,0.1-0.2,0.3C221.6,404.8,221.7,404.9,221.9,404.9z"/>
					</g>
					<g>
						<path class="st27" d="M316.9,410.8c0.1,0,0.2,0,0.2-0.1c0.1-0.1,0-0.3-0.1-0.3c-6.3-3.4-10.9-9.9-11.9-17
							c0-0.1-0.1-0.2-0.3-0.2c-0.1,0-0.2,0.1-0.2,0.3c1.1,7.2,5.8,13.9,12.2,17.4C316.8,410.8,316.9,410.8,316.9,410.8z"/>
					</g>
					<g>
						<path class="st25" d="M299.6,315.8l-9.9-1.4c-0.7-0.1-1.3-0.5-1.7-1c-0.4-0.6-0.6-1.2-0.5-1.9l0.1-1c0.2-1.4,1.5-2.4,2.9-2.2
							l9.9,1.4c0.7,0.1,1.3,0.5,1.7,1c0.4,0.6,0.6,1.2,0.5,1.9l-0.1,1c-0.1,0.7-0.5,1.3-1,1.7c-0.5,0.3-1,0.5-1.6,0.5
							C299.8,315.9,299.7,315.8,299.6,315.8z M288,310.6l-0.1,1c-0.1,0.6,0.1,1.1,0.4,1.6c0.3,0.5,0.8,0.7,1.4,0.8l0,0l9.9,1.4
							c0.6,0.1,1.1-0.1,1.6-0.4c0.5-0.3,0.7-0.8,0.8-1.4l0.1-1c0.1-0.6-0.1-1.1-0.4-1.6c-0.3-0.5-0.8-0.7-1.4-0.8l-9.9-1.4
							c-0.1,0-0.2,0-0.3,0C289.1,308.8,288.2,309.6,288,310.6z"/>
					</g>
					<path class="st25" d="M290.2,318.4c0,2,1.6,3.6,3.6,3.6c2,0,3.6-1.6,3.6-3.6c0-2-1.6-3.6-3.6-3.6
						C291.9,314.8,290.2,316.4,290.2,318.4z"/>
					<g>
						<path class="st25" d="M254.4,310.8l-10,0l0,0c-1.4,0-2.6-1.2-2.6-2.6l0-1c0-0.7,0.3-1.4,0.8-1.8c0.5-0.5,1.1-0.8,1.8-0.8
							c0,0,0,0,0,0l10,0c0.7,0,1.4,0.3,1.8,0.8c0.5,0.5,0.8,1.2,0.8,1.9l0,1c0,0.7-0.3,1.4-0.8,1.8
							C255.8,310.6,255.1,310.8,254.4,310.8C254.4,310.8,254.4,310.8,254.4,310.8z M244.4,310.6L244.4,310.6L244.4,310.6z
							 M242.9,305.7c-0.4,0.4-0.6,0.9-0.6,1.5l0,1c0,1.2,1,2.1,2.1,2.1l10,0c0,0,0,0,0,0c0.6,0,1.1-0.2,1.5-0.6
							c0.4-0.4,0.6-0.9,0.6-1.5l0-1c0-0.6-0.2-1.1-0.6-1.5c-0.4-0.4-0.9-0.6-1.5-0.6l-10,0c0,0,0,0,0,0
							C243.9,305.1,243.3,305.3,242.9,305.7z"/>
					</g>
					<path class="st25" d="M245.5,314.7c0.3,2,2.1,3.4,4.1,3.1c2-0.3,3.4-2.1,3.1-4.1c-0.3-2-2.1-3.4-4.1-3.1
						C246.6,310.9,245.2,312.7,245.5,314.7z"/>
				</g>
				<g>
					<ellipse class="st23" cx="308.6" cy="175.4" rx="20.2" ry="19.3"/>
					<ellipse class="st28" cx="309.7" cy="175.1" rx="20.6" ry="19.6"/>
					<path class="st23" d="M309.9,180.6c0,0,26.3-0.4,28.6,18.5c2.2,18.9-5.2,21.9-1.5,26.7c3.7,4.8,11.5,10.4,9.3,18.2
						c-2.2,7.8-5.9,9.6-4.1,14.8c1.9,5.2,2.6,7.4,1.1,11.9c0,0-15.9,5.6-25.2,3.7l-1.1-10.8l-3,10.4c0,0-17.8,6.3-38.9,1.1
						c-21.1-5.2-34.1-3-41.5-8.5l3.7-15.2l-7.8,13.4c0,0-2.7,1.9-15.3-3.3c0,0-4.5-7.5-2.2-15.9c2.8-10.4,6.7-8.4,7.8-17
						c1.1-8.5,0.3-19.8,10.5-28.4c9.6-8.2,4.5-13,10.4-21.1c5.9-8.2,34.9-13.4,57.5-1.9"/>
					<g>
						<path class="st22" d="M246.1,248l0.4-16.3c0,0-12.1-9.3-17.2,4.6C224.2,250.1,238.7,255.4,246.1,248z"/>
						<g>
							<path class="st1" d="M240.4,267.6c-0.1,0-0.3,0-0.4,0c-5.4-0.2-9.6-4.8-9.4-10.2c0.2-3.8,2.4-7.1,5.9-8.6
								c0.3-0.1,0.6,0,0.7,0.3c0.1,0.3,0,0.6-0.3,0.7c-3.1,1.4-5.1,4.3-5.3,7.7c-0.2,4.8,3.6,8.9,8.4,9.1c4.2,0.2,7.9-2.6,8.9-6.7
								c0.1-0.3,0.3-0.4,0.6-0.4c0.3,0.1,0.4,0.3,0.4,0.6C248.8,264.6,244.9,267.6,240.4,267.6z"/>
						</g>
						<path class="st22" d="M310,252.9l4.8-15.6c0,0,14.4-4.9,14.9,9.8C330.2,261.8,314.7,262.3,310,252.9z"/>
						<g>
							<path class="st1" d="M313,270.7c-2.1,0-4.2-0.7-6-2.1c-3-2.3-4.4-6.1-3.6-9.7c0.1-0.3,0.3-0.5,0.6-0.4
								c0.3,0.1,0.5,0.3,0.4,0.6c-0.7,3.3,0.5,6.7,3.2,8.7c3.8,3,9.4,2.3,12.3-1.5c2.5-3.3,2.4-7.9-0.3-11.1
								c-0.2-0.2-0.2-0.5,0.1-0.7c0.2-0.2,0.5-0.2,0.7,0.1c3,3.5,3.1,8.7,0.3,12.4C318.8,269.4,315.9,270.7,313,270.7z"/>
						</g>
						<path class="st29" d="M268.1,280.9c-2.1-0.6-4.1-1.4-6-2.2l0.2-10.3l26.3,2l0,10.4C281.8,282.7,274.4,282.9,268.1,280.9z"/>
						<path class="st22" d="M268.1,280.9c6.3,2,13.7,1.8,20.5-0.1l0,6.4c-9.9,7.4-22.2,4.8-26.6-3.1l0.1-5.5
							C264,279.5,266,280.3,268.1,280.9z"/>
						<g>
							<path class="st22" d="M241.9,201.2c0,0-1.1,17.4-1.5,37.9c-0.3,16.7,12.7,33.2,33,34.9c19.1,1.6,39.1-5.7,45.6-32.4
								c6.5-26.7,2.7-48.7-21.5-55.1C273.2,180.1,248.9,180.6,241.9,201.2z"/>
						</g>
						<g>
							<path class="st23" d="M270.2,196c0.1-0.1,0.2-0.2,0.2-0.2S270.3,195.9,270.2,196z"/>
						</g>
						<path class="st23" d="M305.3,229.9c0,0,3.3-3.7-3.5-8.4c-6.8-4.8-9.2-3.8-10.4-1.5c-1.1,2.1,0.5,5.3,4.3,7.9
							C300.4,231,303.5,232,305.3,229.9z"/>
						<path class="st23" d="M248.1,226c0,0-2.4-4.3,5.3-7.4c7.7-3.1,9.9-1.6,10.5,0.9c0.5,2.3-1.7,5.1-6,6.7
							C252.6,228.2,249.3,228.5,248.1,226z"/>
						<g>
							<path class="st23" d="M315.1,253.4c0,0,0.1,0,0.1,0c0.1-0.1,0.2-0.2,0.2-0.4c0-0.1-3-7.2,2-10.4c1.8-1.1,3.5-1.5,5.1-1.1
								c2.8,0.7,4.5,3.4,4.5,3.4c0.1,0.1,0.3,0.2,0.4,0.1c0.1-0.1,0.2-0.3,0.1-0.4c-0.1-0.1-1.8-3-4.9-3.7c-1.8-0.4-3.7,0-5.6,1.2
								c-5.4,3.5-2.2,11.1-2.2,11.1C314.8,253.3,314.9,253.4,315.1,253.4z"/>
						</g>
						<g>
							<path class="st23" d="M322.4,247.8c0.1,0,0.2,0,0.2-0.1c0.1-0.1,0.1-0.3-0.1-0.4c0,0-4.9-3.7-8.7-0.1c-0.1,0.1-0.1,0.3,0,0.4
								c0.1,0.1,0.3,0.1,0.4,0c3.4-3.3,7.9,0.1,7.9,0.2C322.3,247.7,322.4,247.8,322.4,247.8z"/>
						</g>
						<g>
							<path class="st23" d="M272.8,243c0.1,0,0.2-0.1,0.3-0.2c0.1-0.1,0-0.3-0.1-0.4c0,0-2.4-1.1-3.4-3.3c-0.8-1.7-0.5-4.2,0.6-5.2
								c0.7-0.6,1.6-0.7,2.6-0.1c0,0,0.1,0,0.2,0.1c3.6,2.2,5.2,1.3,6,0.1c1.4-2.1,0.5-19,0.4-21c0-0.2-0.2-0.3-0.3-0.3
								c-0.2,0-0.3,0.1-0.3,0.3c0.3,5.2,0.7,18.9-0.3,20.6c-0.9,1.4-2.6,1.3-5.2-0.3c-0.1,0-0.1-0.1-0.2-0.1
								c-1.3-0.7-2.4-0.6-3.3,0.2c-1.3,1.2-1.7,4-0.8,5.9c1.1,2.3,3.5,3.5,3.6,3.6C272.7,243,272.8,243,272.8,243z"/>
						</g>
						<g>
							<path d="M269.3,253.4c-0.6-1.5-0.7-2.8-0.7-2.8c6.4-2.3,13.9-2.2,13.9-2.2s0.1,1.4-0.2,3.2
								C279.1,251.5,274.3,251.6,269.3,253.4z"/>
							<path class="st30" d="M282.2,251.6c-0.5,2.3-1.8,5.1-5.5,5.6c-4.5,0.6-6.5-1.8-7.4-3.8C274.3,251.6,279.1,251.5,282.2,251.6z
								"/>
						</g>
						<g>
							<path class="st23" d="M241,247.3c0,0-0.1,0-0.1-0.1c-0.1-0.1-0.1-0.3,0-0.4c0.1-0.1,5.2-5.9,1.4-10.5
								c-1.3-1.6-2.8-2.5-4.5-2.7c-2.9-0.3-5.3,1.8-5.3,1.8c-0.1,0.1-0.3,0.1-0.4,0c-0.1-0.1-0.1-0.3,0-0.4c0.1-0.1,2.6-2.3,5.8-2
								c1.8,0.2,3.5,1.1,4.9,2.9c4,5-1.4,11.2-1.5,11.2C241.3,247.3,241.2,247.3,241,247.3z"/>
						</g>
						<g>
							<path class="st23" d="M235.8,239.6c-0.1,0-0.2-0.1-0.2-0.2c-0.1-0.2,0-0.3,0.2-0.4c0.1,0,5.9-2,8.3,2.6
								c0.1,0.1,0,0.3-0.1,0.4c-0.1,0.1-0.3,0-0.4-0.1c-2.2-4.2-7.5-2.4-7.5-2.3C236,239.6,235.9,239.6,235.8,239.6z"/>
						</g>
						<path class="st29" d="M288.6,251.4c0.5,2.8,5.2,4.3,10.4,3.4c5.3-0.9,9.1-4,8.6-6.8c-0.5-2.8-5.2-4.3-10.4-3.4
							C292,245.5,288.1,248.5,288.6,251.4z"/>
						<path class="st29" d="M264.6,250.4c-0.7,2.8-5.5,3.9-10.7,2.5c-5.2-1.4-8.8-4.7-8-7.5c0.7-2.8,5.5-3.9,10.7-2.5
							C261.7,244.3,265.3,247.6,264.6,250.4z"/>
						<g>
							<path class="st31" d="M297.2,241.4c0,0,0.3-5.9-4.4-6.8c-4.7-0.9-6.4,4.8-6.4,4.8"/>
							<line class="st31" x1="297.2" y1="240.7" x2="300.4" y2="239.7"/>
							<line class="st32" x1="297.3" y1="239.2" x2="299.5" y2="238.4"/>
						</g>
						<g>
							<path class="st31" d="M254.1,237.8c0,0,1.5-5.7,6.3-5.1c4.8,0.6,4.6,6.5,4.6,6.5"/>
							<line class="st31" x1="254.3" y1="237.1" x2="251.6" y2="235.2"/>
							<line class="st32" x1="254.7" y1="235.6" x2="252.8" y2="234.3"/>
						</g>
					</g>
					<path class="st23" d="M302.6,178.1c0,0,27.8,4.5,30.8,20.9c3,16.4-5.6,40.2-5.6,40.2s-11.1-5.8-17.7-7.4
						c-3.6-0.9,3.4-5.9-0.4-18.7c0,0-4.8,11.8-10.4,12.9c-6.6,1.2-22.5-0.8-29.5-5.7c-3.9-2.7-1.6-14.3-2.6-14.9
						c-2-1.1-4,13.5-6.1,13.8c-1.4,0.3-11.1,7.1-13.6,3.4c-2-3-0.2-10.7-1.3-10.5c-2.9,0.6-2.3,15.3-4.6,15.8
						c-5.2,1.2-8.7,1.9-9.6,1.4c-4.6-2.5-2.1-33.1,6.9-43.3C247.9,175.9,277.7,167.1,302.6,178.1z"/>
					<path class="st28" d="M345.2,268.9c-2-4.5-2.5-9.7-1.4-14.5c0.8-3.6,2.5-7,3.4-10.5c0.9-3.6,1-7.6-1.1-10.7
						c-2.4-3.5-7.3-5.1-8.6-9.1c-1.4-4.3,2.2-8.5,4.1-12.7c3.2-6.9,1.3-15.7-4.3-20.8c-5.6-5-14.6-5.9-21.1-1.9"/>
					<path class="st28" d="M255.4,172.1c-3.8,0.3-7.8,0.5-11.4,1.9c-3.6,1.3-7,3.9-8.4,7.5c-1.1,3-0.8,6.3-1.5,9.5
						c-1.2,5.1-5,9.1-8.5,13.1c-3.5,3.9-6.9,8.5-7,13.8c0,5.3,3.4,10.9,1.1,15.7c-1.3,2.7-4.2,4.3-6.3,6.4
						c-5.4,5.3-5.9,14.8-1.2,20.6"/>
				</g>
			</g>
			<g class="st21">
				<path class="st23" d="M208,332.4c-0.1,0-0.2-0.1-0.2-0.2c-1.4-5-3.9-10-3.9-10c-0.1-0.1,0-0.2,0.1-0.3c0.1-0.1,0.2,0,0.3,0.1
					c0,0,2.6,5,4,10.1C208.3,332.2,208.2,332.4,208,332.4C208.1,332.4,208,332.4,208,332.4z"/>
			</g>
		</g>
		<g>
			<path class="st33" d="M153,205.4c0.6,0,44.3,0,47.2,0c2.9,0,6,0.1,6,4.4s0.7,30.5,0.1,34.5c-0.5,3.3-2.2,4.9-9.4,5.1
				c-7.2,0.1-39.5-0.1-43.1,0c-2.3,0.1-6.7,0.1-7-4.9c-0.3-5.1-0.2-29.4-0.2-33.9C146.6,205.1,153,205.4,153,205.4z"/>
			<path class="st33" d="M175.7,246.9c0,0,0.4,7.5,3.4,13.2c0,0-9.6-1.7-12.6-14.5L175.7,246.9z"/>
			<g>
				<path class="st2" d="M160.2,238.8c0.5,0,3.9,0.1,4.5,0c0.4,0,0.6-0.2,0.7-0.9c0-0.7,0-3.7,0-4c0-0.2,0-0.6-0.6-0.7
					c-0.7,0-3.8,0-4.4,0c-0.7,0-0.7,0.6-0.7,0.6c0,0.1,0,4.2,0,4.4S159.7,238.8,160.2,238.8"/>
				<path class="st2" d="M173.7,233.8c0,0.1,0,4.2,0,4.4s0,0.6,0.6,0.6s3.9,0.1,4.5,0c0.4,0,0.6-0.2,0.7-0.9c0-0.7,0-3.7,0-4
					c0-0.2,0-0.6-0.6-0.7c-0.7,0-3.8,0-4.4,0C173.7,233.2,173.7,233.8,173.7,233.8z"/>
				<path class="st2" d="M187.8,233.8c0,0.1,0,4.2,0,4.4s0,0.6,0.6,0.6c0.5,0,3.9,0.1,4.5,0c0.4,0,0.6-0.2,0.7-0.9c0-0.7,0-3.7,0-4
					c0-0.2,0-0.6-0.6-0.7c-0.7,0-3.8,0-4.4,0C187.8,233.2,187.8,233.8,187.8,233.8z"/>
			</g>
		</g>
	</g>
</g>
</svg>
