<?xml version="1.0" encoding="utf-8"?>
<!-- Generator: Adobe Illustrator 24.3.0, SVG Export Plug-In . SVG Version: 6.00 Build 0)  -->
<svg version="1.1" xmlns="http://www.w3.org/2000/svg" xmlns:xlink="http://www.w3.org/1999/xlink" x="0px" y="0px"
	 viewBox="0 0 500 500" style="enable-background:new 0 0 500 500;" xml:space="preserve">
<style type="text/css">
	.st0{fill:#E9C1D9;}
	.st1{clip-path:url(#SVGID_2_);}
	.st2{fill:#E19E2C;}
	.st3{fill:#D38A20;}
	.st4{fill:#D8A178;}
	.st5{fill:#EBBC8E;}
	.st6{fill:#683935;}
	.st7{fill:#D99E2E;}
	.st8{fill:#CC555F;}
	.st9{fill:#42354C;}
	.st10{fill:#2F2537;}
	.st11{fill:#7671AF;}
	.st12{fill:#4D4B82;}
	.st13{fill:#3B3843;}
	.st14{fill:#E28279;}
	.st15{fill:#FFFFFF;}
	.st16{fill:#BBDBEF;}
	.st17{clip-path:url(#SVGID_4_);}
	.st18{fill:#E6A07E;}
	.st19{fill:#DC8765;}
	.st20{fill:none;stroke:#683935;stroke-width:0.6422;stroke-miterlimit:10;}
	.st21{fill:#050504;}
	.st22{fill:#486F6C;}
	.st23{fill:#634927;}
	.st24{fill:#E09F25;}
	.st25{fill:#1C1D27;}
	.st26{fill:#7CACDE;}
	.st27{fill:#6FA1CD;}
	.st28{fill:#5C89B3;}
	.st29{fill:#3A71A1;}
	.st30{fill:#2F658E;}
	.st31{clip-path:url(#SVGID_6_);fill:#B16860;}
	.st32{clip-path:url(#SVGID_6_);fill:#B57567;}
	.st33{clip-path:url(#SVGID_6_);}
	.st34{fill:#B57567;}
	.st35{fill:#503A33;}
	.st36{fill:#E3ABA3;}
	.st37{fill:#D49A2C;}
	.st38{fill:#AF3C2A;}
	.st39{fill:none;stroke:#503A33;stroke-width:0.4378;stroke-linecap:round;stroke-linejoin:round;stroke-miterlimit:10;}
	.st40{fill:#B16860;}
	.st41{fill:#7C3645;}
	.st42{fill:none;stroke:#000000;stroke-width:0.6358;stroke-linecap:round;stroke-linejoin:round;stroke-miterlimit:10;}
	.st43{fill:none;stroke:#000000;stroke-width:0.7518;stroke-linecap:round;stroke-linejoin:round;stroke-miterlimit:10;}
	.st44{clip-path:url(#SVGID_8_);}
	.st45{fill:#E7A17E;}
	.st46{fill:#DD8865;}
	.st47{fill:#E4BB5B;}
	.st48{fill:none;stroke:#57687E;stroke-width:0.5381;stroke-linecap:round;stroke-linejoin:round;stroke-miterlimit:10;}
	.st49{fill:#2E2646;}
	.st50{fill:#1A162B;}
	.st51{fill:#282822;}
	.st52{fill:none;stroke:#63453C;stroke-width:1.0082;stroke-miterlimit:10;}
	.st53{fill:#795948;}
	.st54{fill:#63453C;}
	.st55{fill:none;stroke:#634927;stroke-width:0.5289;stroke-miterlimit:10;}
</style>
<g id="BACKGROUND">
</g>
<g id="OBJECTS">
	<g>
		<path class="st0" d="M-84.2,445.8c-1.7,0-132.4,0-141.1,0c-8.7,0-17.9,0.6-17.9,17.9c0,17.3-2,125.3-0.2,141.7
			c1.4,13.6,6.6,20.2,28,20.8c21.4,0.6,117.9-0.4,128.9,0c6.9,0.3,19.9,0.3,20.8-20.2c0.9-20.9,0.6-120.5,0.6-139.3
			C-65.1,444.3-84.2,445.8-84.2,445.8z"/>
		<g>
			<defs>
				<path id="SVGID_1_" d="M-70.3,445.8c-1.7,0-146.3-0.1-155-0.1c-8.7,0-17.9,0.6-17.9,17.9c0,17.3-2,125.3-0.2,141.7
					c1.4,13.6,6.6,20.2,28,20.8c21.4,0.6,131.8-0.3,142.8,0.1c6.9,0.3,19.9,0.3,20.8-20.2c0.9-20.9,0.6-120.5,0.6-139.3
					C-51.2,444.4-70.3,445.8-70.3,445.8z"/>
			</defs>
			<clipPath id="SVGID_2_">
				<use xlink:href="#SVGID_1_"  style="overflow:visible;"/>
			</clipPath>
			<g class="st1">
				<g>
					<g>
						<path class="st2" d="M-80.5,609l-0.3-0.5c4.8-2.7,6.5-8.8,6-13.6c-0.5-5.5-3.3-10.5-5.7-14.9c-2.6-4.8-5.2-9.7-5.9-15.1
							c-0.6-4.8,0.4-9.6,1.4-14.2c0.5-2.2,1-4.5,1.3-6.7c1.6-11.7-1.6-23.8-8.9-33.1c-1.4-1.8-3-3.6-4.6-5.4
							c-4.8-5.3-9.7-10.8-10.1-17.9l0.6,0c0.4,6.9,5.2,12.3,9.9,17.5c1.6,1.8,3.2,3.6,4.6,5.4c7.4,9.5,10.6,21.7,9,33.6
							c-0.3,2.3-0.8,4.6-1.3,6.8c-1,4.6-2,9.3-1.4,14c0.6,5.3,3.3,10.1,5.8,14.8c2.4,4.5,5.2,9.6,5.7,15.2
							C-73.6,599.9-75.4,606.2-80.5,609z"/>
					</g>
					<path class="st2" d="M-80,580.4c-4.7-7.8-8-17.2-8.1-22.9c-0.2-10.5,10.2-23.3-3.7-42.8c-10.1-14.1-9.2-19.1-9.2-19.1
						l-98.1-6.8c0,0-3.1,15.4-9.2,23.4c-6.1,8-16.1,13.9-11,31.2c4.2,14.2-5.5,27.9-10.7,35.6c-5.2,7.6-3,15.7,3.1,34.4
						c0,0,4.3,2.7,7.8,4.6l1.4-8c1.3,0.6,2.5,9.8,4.1,10.3c1.6,0.5,3.3,0.9,5.1,1.2c-2.4-6.3-3-12.8-0.5-18
						c9.2-21.4,15.6-42.7,8.6-65.7c-5-17.3,8.1-31,22.4-34.1c20-4.2,36.4,7.2,53.7,14.6c5.8,1.8,13.4,3.7,16.4,9.4
						c5.9,10.5-4.4,23.2,0.5,34.7c3,7.7,10.7,14.3,13.7,22.9c3.4,8.6,3.7,17.8,1.7,26.8l0.3,0.6c0,0,9.1,2.2,16.3-5.2
						C-73.8,605.7-71.7,594.1-80,580.4z"/>
					<path class="st3" d="M-93.8,585.3c-3-8.6-10.7-15.3-13.7-22.9c-5-11.5,5.4-24.2-0.5-34.7c-3-5.7-10.6-7.6-16.4-9.4
						c-17.3-7.5-33.7-18.8-53.7-14.6c-14.3,3.1-27.4,16.8-22.4,34.1c7,23,0.7,44.3-8.6,65.7c-2.5,5.2-1.9,11.7,0.5,18
						c3,0.5,6.2,0.8,9.8,0.5l2.5-17.3l4.6,17.2c0,0,9.9,5.5,45.1-2.4c35.2-7.8,41.4-2.1,44.1-8.1c2.7-6-3.9-27.7-3.9-27.7l14.4,28.3
						C-90.1,603.1-90.3,593.9-93.8,585.3z"/>
					<path class="st4" d="M-133,555.2l-0.4-8.5l-24.9,1.3l-0.4,7.7C-150.1,557.3-141.5,556.8-133,555.2z"/>
					<path class="st5" d="M-114,563.7l-18.3-2.4l-0.6-6.1c-8.6,1.6-17.1,2.1-25.7,0.5l-0.3,5.3c0,0-8.3,3.5-11.2,4.2
						c0.1,13.5-2.3,50.4-0.8,63.9l58.7-0.2c0,0,1.7-16,2.4-21.8C-107.7,588.9-114,563.7-114,563.7z"/>
					<path class="st5" d="M-170.2,531.9l-5.8-14.5c0,0-14.2-3.6-13.5,10.6C-188.8,542.1-173.9,541.3-170.2,531.9z"/>
					<path class="st4" d="M-118.4,529.1l1.8-15.5c0,0,12.8-7.2,15.8,6.6C-97.8,534-112.4,537.2-118.4,529.1z"/>
					<g>
						<path class="st6" d="M-113.5,529.2c0,0,0.1,0,0.1,0c0.1-0.1,0.2-0.3,0.1-0.4c0-0.1-4.1-6.3,0-10.2c1.5-1.4,3-2,4.6-1.9
							c2.8,0.1,4.8,2.4,4.8,2.5c0.1,0.1,0.3,0.1,0.4,0c0.1-0.1,0.1-0.3,0-0.4c-0.1-0.1-2.2-2.5-5.2-2.6c-1.8-0.1-3.5,0.6-5,2.1
							c-4.5,4.2-0.1,10.8-0.1,10.9C-113.8,529.1-113.6,529.2-113.5,529.2z"/>
					</g>
					<g>
						<path class="st6" d="M-107.6,522.5c0.1,0,0.2-0.1,0.2-0.1c0.1-0.1,0-0.3-0.1-0.4c-0.1,0-5.3-2.7-8.2,1.4
							c-0.1,0.1-0.1,0.3,0.1,0.4c0.1,0.1,0.3,0.1,0.4-0.1c2.6-3.7,7.4-1.3,7.5-1.2C-107.7,522.5-107.6,522.5-107.6,522.5z"/>
					</g>
					<path class="st5" d="M-116.1,480.4c0,0,6.8,13.4,8.9,33.8c1.7,15.9-9.4,32.8-28.8,36.1c-18.2,3.1-37.9-2.3-46.2-27.3
						c-8.4-25-2.4-46.3,20.3-54.4C-139.2,460.5-122.4,465-116.1,480.4z"/>
					<path class="st4" d="M-151.4,529.6c-0.5,2.7-5,4.1-10.1,3.1c-5-1-8.7-4-8.2-6.7c0.5-2.7,5-4.1,10.1-3.1
						C-154.5,523.9-150.9,526.9-151.4,529.6z"/>
					<path class="st4" d="M-111.7,524.9c0.6,2.7-3,5.7-7.9,6.8c-5,1.1-9.5-0.2-10.1-2.8c-0.6-2.7,3-5.7,7.9-6.8
						C-116.8,520.9-112.3,522.2-111.7,524.9z"/>
					<path class="st7" d="M-165.1,505.7c0,0-2.8-2.5,3.1-5.6c5.9-3.2,8-2.5,9-0.9c0.9,1.4-0.5,3.6-3.8,5.3
						C-160.9,506.4-163.6,507.1-165.1,505.7z"/>
					<path class="st7" d="M-115.5,504.7c0,0,2.1-2.9-4.5-5c-6.6-2.1-8.4-1.1-9,0.5c-0.5,1.5,1.4,3.4,5.1,4.5
						C-119.4,506.1-116.6,506.3-115.5,504.7z"/>
					<path d="M-121.7,515.2c0,1.9-1.3,3.5-2.8,3.5c-1.6,0-2.8-1.5-2.9-3.5c0-1.9,1.3-3.5,2.8-3.5
						C-123,511.7-121.7,513.3-121.7,515.2z"/>
					<path d="M-153,515.2c0,1.9-1.3,3.5-2.8,3.5c-1.6,0-2.8-1.5-2.9-3.5c0-1.9,1.3-3.5,2.8-3.5C-154.3,511.7-153,513.3-153,515.2z"
						/>
					<g>
						<path class="st6" d="M-174.9,533.3c0,0-0.1,0-0.1,0c-0.1,0-0.2-0.2-0.2-0.4c0-0.1,2.3-7.1-2.7-9.8c-1.8-0.9-3.4-1.2-5-0.6
							c-2.6,0.9-4,3.6-4,3.7c-0.1,0.1-0.2,0.2-0.4,0.1c-0.1-0.1-0.2-0.2-0.1-0.4c0.1-0.1,1.5-3,4.4-3.9c1.7-0.6,3.5-0.3,5.4,0.7
							c5.5,2.9,3,10.4,3,10.5C-174.7,533.2-174.8,533.2-174.9,533.3z"/>
					</g>
					<g>
						<path class="st6" d="M-182.4,528.5c-0.1,0-0.2,0-0.2-0.1c-0.1-0.1-0.1-0.3,0-0.4c0,0,4.4-4,8.3-0.8c0.1,0.1,0.1,0.3,0,0.4
							c-0.1,0.1-0.3,0.1-0.4,0c-3.5-2.8-7.5,0.8-7.5,0.8C-182.3,528.4-182.4,528.5-182.4,528.5z"/>
					</g>
					<g>
						<path class="st6" d="M-136.1,523.1c-0.1,0-0.2-0.1-0.3-0.2c-0.1-0.1,0-0.3,0.1-0.4c0,0,2.3-1.1,3.3-3.1c0.8-1.6,0.5-4-0.5-5
							c-0.6-0.6-1.5-0.7-2.5-0.1c0,0-0.1,0-0.1,0.1c-3.5,2-5,1.1-5.7,0c-1.3-2-0.2-18.1-0.1-20c0-0.2,0.1-0.3,0.3-0.3
							c0.2,0,0.3,0.1,0.3,0.3c-0.3,4.9-1,18,0,19.6c0.8,1.3,2.5,1.2,5-0.2c0.1,0,0.1-0.1,0.2-0.1c1.2-0.6,2.3-0.6,3.1,0.2
							c1.2,1.2,1.5,3.8,0.6,5.6c-1.1,2.2-3.4,3.3-3.5,3.3C-136.1,523.1-136.1,523.1-136.1,523.1z"/>
					</g>
					<g>
						<path class="st8" d="M-140.7,532.9c1.8,0.6,3.3-0.4,4.3-1.6c-2.4-1.6-5.4-2.6-8-3.2C-144,529.9-143,532.2-140.7,532.9z"/>
						<path d="M-144.8,526.1c0,0,0,0.9,0.3,2.1c2.7,0.6,5.6,1.6,8,3.2c1.1-1.3,1.7-2.9,1.7-2.9C-138.2,526-144.8,526.1-144.8,526.1z
							"/>
					</g>
					<path class="st2" d="M-185.2,518.3c0,0,35.9-10.6,42.7-40.1c0,0,31.3,40.5,42.6,28.6c0,0,4.1-35.7-20.1-45.5
						c-13.3-5.4-23.5-2.6-23.5-2.6c-17.8-2.5-28.6-4.6-47.3,12C-210,487.9-204.8,527.3-185.2,518.3z"/>
					<g>
						<path class="st2" d="M-226.9,611.9c-6.9-9.9-8.5-23-4.2-34.3c1.1-3,2.7-5.9,4.2-8.6c2.5-4.6,5-9.3,5.7-14.5
							c0.6-4.3-0.2-8.8-0.9-13.1c-1-5.9-1.9-11.9,0.3-17.5c1.9-4.6,5.6-7.9,9.3-11.1c2-1.8,4.2-3.7,5.9-5.8
							c4.9-5.7,7.3-13.6,6.6-21.1l0.6-0.1c0.8,7.6-1.8,15.7-6.7,21.5c-1.8,2.1-3.9,4-6,5.8c-3.8,3.3-7.3,6.5-9.1,10.9
							c-2.2,5.4-1.3,11.1-0.3,17.1c0.7,4.4,1.5,8.9,0.9,13.3c-0.7,5.3-3.3,10.1-5.7,14.7c-1.5,2.8-3,5.6-4.1,8.6
							c-4.2,11.1-2.6,24,4.1,33.7L-226.9,611.9z"/>
					</g>
					<g>
						<path class="st2" d="M-202.1,522.7c-0.6,0-1.1,0-1.7,0l0-0.6c15,0.4,30.1-4.9,41.5-14.5c11.4-9.7,19.1-23.7,21.1-38.5l0.6,0.1
							c-2,15-9.8,29.1-21.3,38.9C-173,517.4-187.6,522.7-202.1,522.7z"/>
					</g>
					<g>
						<path class="st2" d="M-102.5,505.8c-22.7-5.1-41.9-22.6-49.1-44.7l0.6-0.2c7.1,21.9,26.2,39.3,48.7,44.3L-102.5,505.8z"/>
					</g>
					<g>
						<g>
							<path class="st5" d="M-122.3,814.8l-16.2-134.9l31.2-9.1c0,0,10.6,101,4.5,139.5c0,0,30,11.2,29.9,16.9
								c-0.2,5.7-34.8,1-34.8,1S-129,833.2-122.3,814.8z"/>
						</g>
						<g>
							<path class="st5" d="M-183.7,818.3c0,0-3.4-66.8-4.1-143.3c-0.1-11.4,42-0.7,42-0.7s-12.2,100.9-18.3,139.4
								c0,0,29,11,28.9,16.7c-0.2,5.7-33.8,1.3-33.8,1.3S-190.5,836.7-183.7,818.3z"/>
						</g>
						<g>
							<path class="st9" d="M-111.7,629.2c0,0,12.1,43.9,10.6,67.7c-0.6,9.2,0.5,107.8,0.5,107.8s-8,2.3-25.4-0.8l-14.5-122.3l0,0
								L-161,807c0,0-17.2,2.9-24.2-2c0,0-4.7-66.5-2.7-130.1c0.7-20.5,11.5-39.2,17.5-45.9L-111.7,629.2z"/>
							<g>
								<path class="st10" d="M-159.8,684.3c-0.2,0-0.3-0.1-0.3-0.3c0-0.2,0.1-0.3,0.3-0.3c14.2-0.3,34.5-4.2,34.7-4.3
									c0.2,0,0.3,0.1,0.4,0.2c0,0.2-0.1,0.3-0.2,0.4C-125.1,680-145.5,684-159.8,684.3C-159.8,684.3-159.8,684.3-159.8,684.3z"/>
							</g>
							<g>
								<path class="st10" d="M-183.7,807.4c0,0,0.2-3.5,0.2-3.5c-0.4,0-0.9,3.5-1.1-18.3c-0.2-20.6-0.4-55-0.4-102.4
									c0-0.3-1.7-29.5,16.7-54c0.1-0.1,0.3-0.2,0.4-0.1c0.1,0.1,0.2,0.3,0.1,0.4c-18.3,24.4-16.6,53.4-16.6,53.6
									c0,84.7,0.4,112.6,0.7,120.8c0.1,0,0.1-0.1,0.2-0.1c0.2,0,0.3,0.1,0.3,0.3C-183.3,807.2-183.4,807.4-183.7,807.4z"/>
							</g>
							<g>
								<path class="st10" d="M-123.4,802.9c-0.2,0-0.3-0.1-0.3-0.3L-138.9,682c0-0.2,0.1-0.3,0.3-0.3c0.2,0,0.3,0.1,0.3,0.3
									l15.2,120.6C-123.1,802.7-123.3,802.9-123.4,802.9C-123.4,802.9-123.4,802.9-123.4,802.9z"/>
							</g>
							<g>
								<path class="st10" d="M-139,671.7C-139,671.7-139,671.7-139,671.7c-0.2,0-0.3-0.1-0.3-0.3l1.3-41.1c0-0.2,0.1-0.3,0.3-0.3
									c0.2,0,0.3,0.1,0.3,0.3l-1.3,41.1C-138.7,671.6-138.8,671.7-139,671.7z"/>
							</g>
							<g>
								<path class="st10" d="M-180.3,657.7c-0.1,0-0.2-0.1-0.3-0.2c-0.1-0.1,0-0.3,0.1-0.4c5.7-3.2,15-13.5,15.6-27.7
									c0-0.2,0.2-0.3,0.3-0.3c0.2,0,0.3,0.2,0.3,0.3c-0.7,14.4-10.1,24.9-15.9,28.2C-180.2,657.6-180.3,657.7-180.3,657.7z"/>
							</g>
							<g>
								<path class="st10" d="M-105.2,655C-105.2,655-105.2,655-105.2,655c-1.9-0.3-4-2.1-6-4.9c-3.4-4.9-6.5-13.2-5.3-20.1
									c0-0.2,0.2-0.3,0.4-0.2c0.2,0,0.3,0.2,0.2,0.4c-1.2,6.7,1.8,14.8,5.2,19.6c1.9,2.7,3,4.6,4.6,4.8c0.2,0,1.2,0,1.2,0.2
									C-104.9,654.9-105,655-105.2,655z"/>
							</g>
							<g>
								<path class="st10" d="M-138.8,667.1C-138.8,667.1-138.8,667.1-138.8,667.1c-0.2,0-4.2-0.2-4.9-8.3
									c-0.7-7.9-0.2-28.5-0.2-28.7c0-0.2,0.1-0.3,0.3-0.3c0,0,0,0,0,0c0.2,0,0.3,0.1,0.3,0.3c0,0.2-0.5,20.8,0.2,28.6
									c0.7,7.5,4.3,7.8,4.3,7.8c0.2,0,0.3,0.1,0.3,0.3C-138.5,667-138.7,667.1-138.8,667.1z"/>
							</g>
							<g>
								<path class="st10" d="M-141,635.6c-9.4,0-20.6-0.5-32.7-2c-0.2,0-0.3-0.2-0.3-0.3c0-0.2,0.2-0.3,0.3-0.3
									c35.1,4.4,62.2,0.2,62.5,0.2c0.2,0,0.3,0.1,0.3,0.3c0,0.2-0.1,0.3-0.3,0.3C-111.2,633.8-123,635.6-141,635.6z"/>
							</g>
							<path class="st10" d="M-142.6,632.1c0,1.1,0.8,1.9,1.8,2c1.1,0,1.9-0.8,2-1.8c0-1.1-0.8-1.9-1.8-2
								C-141.7,630.2-142.6,631-142.6,632.1z"/>
						</g>
					</g>
					<path class="st5" d="M-127.8,563.3c8.6,1.6,17.1,4.7,21.9,10.9c7.1,11.4,16.5,24.4,16.5,24.4l9.8-29.9c0,0,5.3-10.9,7.9-11.1
						c2.6-0.2,0,4.9,0,4.9s8.9-9.1,10.2-7.3c1.3,1.7-5.7,8.6-5.7,8.6s9.6-7.4,10.7-4.6c0.5,1.7-8.3,7.1-8.3,7.1s9.2-4.8,9.9-3.1
						c0.7,1.7-8.3,6-8.3,6s7.7-2.9,8.3-1.1c0.5,1.5-8,6.3-13.2,8.5c-0.9,9.9-4.7,37.6-17.9,43.9c-13.9,6.7-27.9-21.4-31.3-29"/>
					<g>
						<path class="st6" d="M-90.9,602.2C-90.9,602.2-90.9,602.2-90.9,602.2c-0.2-0.1-0.3-0.2-0.2-0.3c0-0.1,2.4-6.1,3.5-9.4
							c0-0.1,0.2-0.2,0.3-0.1c0.1,0,0.2,0.2,0.1,0.3c-1.1,3.3-3.5,9.4-3.5,9.4C-90.7,602.2-90.8,602.2-90.9,602.2z"/>
					</g>
					<path class="st11" d="M-119.7,562.8c0,0,4.1-4.3,6.4-4.3c2.3,0-0.9,5.5,0.2,7.5c1.1,2,4.3,0.7,4.5,3.6c0.2,3-3.4,4.5-0.7,7.3
						c2.7,2.7,5.7,3.9,4.1,6.4c-1.6,2.5-2.7,6.6-2.7,6.6L-119.7,562.8z"/>
					<path class="st5" d="M-166.8,570.3l8,12.6c0,0-11.8,11.8-25.7,49.2c-5.2,14.1-10.9,34.3-10.9,34.3s5.3,9.7,3.7,12.2
						c-1.6,2.5-4.5-3.3-4.5-3.3s2.1,14.1-0.3,14.1c-2.4,0-3.8-10.9-3.8-10.9s0.1,13.6-3,12.7c-1.9-0.6-0.8-12.2-0.8-12.2
						s-1.9,11.5-3.9,11c-2-0.5,0.3-11.5,0.3-11.5s-2.6,8.9-4.6,8.2c-2-0.7,0.4-15.8,2.1-20.3c0,0,4.6-55.3,24.6-92.3
						c4-7,10-8.9,13.8-7.7l0,0C-169.7,567-167.9,568.4-166.8,570.3z"/>
					<path class="st11" d="M-159,561c0,0,12.1,4.3,28,0.4c0,0,9.4,0.4,11.9,0.6c2.5,0.2,11.9,19.1,12.1,34c0.2,10.1-5.4,33-5.4,33
						s-40.7,4.6-58.7,0.2l-7.9-33.7c0,0,9.8-0.8,10.2-13.7c0.5-12.9-6.2-19.5-6.2-19.5S-167.9,560-159,561z"/>
					<g>
						<path class="st12" d="M-149.2,615.4c-0.1,0-0.2,0-0.2-0.1c-0.1-0.1,0-0.3,0.1-0.4c9.3-5.3,16.6-13.7,20.6-23.7
							c0.1-0.1,0.2-0.2,0.3-0.2c0.1,0.1,0.2,0.2,0.2,0.4c-4,10.1-11.4,18.6-20.8,23.9C-149.1,615.4-149.1,615.4-149.2,615.4z"/>
					</g>
					<g>
						<path class="st12" d="M-139.7,624.8c-0.1,0-0.1,0-0.2-0.1c-0.1-0.1-0.1-0.3,0-0.4c5.7-6,9.9-13.3,12.2-21.2
							c0-0.1,0.2-0.2,0.3-0.2c0.1,0,0.2,0.2,0.2,0.3c-2.3,8-6.6,15.4-12.3,21.4C-139.6,624.8-139.6,624.8-139.7,624.8z"/>
					</g>
					<path class="st11" d="M-175,562.2c0,0-4.2-2.9-5.6-0.8c-1.4,2,4.1,5.7,5.2,7c1.1,1.4-4.1,3.2-3.4,5.7c0.7,2.5,5.2,3.9,4.8,7
						c-0.5,3.2-5,5-5,7.3c0,2.3,0,7,0,7s10,0.2,10.4-12.7C-168.1,569.8-175,562.2-175,562.2z"/>
					<g>
						<path class="st6" d="M-71.1,575.1C-71.1,575.1-71.1,575.1-71.1,575.1c-0.2,0-0.2-0.1-0.2-0.3c0.5-3.1,0.1-6.4-1-9.3
							c0-0.1,0-0.2,0.1-0.3c0.1,0,0.2,0,0.3,0.1c1.2,3,1.6,6.3,1.1,9.5C-70.9,575-71,575.1-71.1,575.1z"/>
					</g>
				</g>
				<g>
					<g>
						<path class="st13" d="M-128,732.1c0.1,0.9,0.2,1.9,0.4,2.9c0,0,5.4,1.9,20.1,1.9c16.5,0,18.6-2.1,18.6-2.1s0.1-0.8-0.2-2
							C-106.6,736.1-120.6,733.9-128,732.1z"/>
					</g>
					<path class="st13" d="M-114.7,735.2c0,0,2.6-8.9,6.3-12.2l3.8,1.5c0,0-4.3,5.9-4.7,10.9L-114.7,735.2z"/>
					<path class="st13" d="M-105.6,735.2c0,0,1.1-6,4.8-9.3l3.5,1.5c0,0-2.5,3.1-2.9,8L-105.6,735.2z"/>
				</g>
				<g>
					<g>
						<path class="st13" d="M-174.5,734.6c0.1,0.9,0.2,1.9,0.4,2.9c0,0,5.4,1.9,20.1,1.9c16.5,0,18.6-2.1,18.6-2.1s0.1-0.8-0.2-2
							C-153.1,738.7-167.1,736.5-174.5,734.6z"/>
					</g>
					<path class="st13" d="M-161.2,737.8c0,0,2.6-8.9,6.3-12.2l3.8,1.5c0,0-4.3,5.9-4.7,10.9L-161.2,737.8z"/>
					<path class="st13" d="M-152.1,737.8c0,0,1.1-6,4.8-9.3l3.5,1.5c0,0-2.5,3.1-2.9,8L-152.1,737.8z"/>
				</g>
			</g>
		</g>
		<g>
			<path class="st14" d="M-34.2,465.2c-0.6,0-44.3,0-47.2,0c-2.9,0-6,0.1-6,4.4c0,4.2-0.7,30.5-0.1,34.5c0.5,3.3,2.2,4.9,9.4,5.1
				c7.2,0.1,39.5-0.1,43.1,0c2.3,0.1,6.7,0.1,7-4.9c0.3-5.1,0.2-29.4,0.2-33.9C-27.8,464.8-34.2,465.2-34.2,465.2z"/>
			<path class="st14" d="M-56.9,506.7c0,0-0.4,7.5-3.4,13.2c0,0,9.6-1.7,12.6-14.5L-56.9,506.7z"/>
			<g>
				<path class="st15" d="M-37.3,475.7c-0.1,0-40.7,0-41,0c-0.3,0-0.6,0-0.6,0.3c0,0.3-0.1,2,0,2.3c0,0.2,0.2,0.3,0.9,0.3
					c0.7,0,40.2,0,40.6,0c0.2,0,0.6,0,0.7-0.3c0-0.3,0-1.9,0-2.2C-36.7,475.6-37.3,475.7-37.3,475.7z"/>
				<path class="st15" d="M-37.3,486.6c-0.1,0-40.7,0-41,0c-0.3,0-0.6,0-0.6,0.3c0,0.3-0.1,2,0,2.3c0,0.2,0.2,0.3,0.9,0.3
					c0.7,0,40.2,0,40.6,0c0.2,0,0.6,0,0.7-0.3c0-0.3,0-1.9,0-2.2C-36.7,486.6-37.3,486.6-37.3,486.6z"/>
				<path class="st15" d="M-37.3,498c-0.1,0-40.7,0-41,0c-0.3,0-0.6,0-0.6,0.3s-0.1,2,0,2.3c0,0.2,0.2,0.3,0.9,0.3
					c0.7,0,40.2,0,40.6,0c0.2,0,0.6,0,0.7-0.3c0-0.3,0-1.9,0-2.2C-36.7,498-37.3,498-37.3,498z"/>
			</g>
		</g>
	</g>
	<g>
		<path class="st16" d="M839.8,342.8c-1.7,0-132.4,0-141.1,0s-17.9,0.6-17.9,17.9c0,17.3-2,125.3-0.2,141.7
			c1.4,13.6,6.6,20.2,28,20.8c21.4,0.6,117.9-0.4,128.9,0c6.9,0.3,19.9,0.3,20.8-20.2c0.9-20.9,0.6-120.5,0.6-139.3
			C858.9,341.3,839.8,342.8,839.8,342.8z"/>
		<g>
			<path class="st2" d="M669.5,383.9c0.6,0,44.3,0,47.2,0c2.9,0,6,0.1,6,4.4c0,4.2,0.7,30.5,0.1,34.5c-0.5,3.3-2.2,4.9-9.4,5.1
				c-7.2,0.1-39.5-0.1-43.1,0c-2.3,0.1-6.7,0.1-7-4.9c-0.3-5.1-0.2-29.4-0.2-33.9C663,383.6,669.5,383.9,669.5,383.9z"/>
			<path class="st2" d="M709.4,425.4c0,0,0.4,7.5,3.4,13.2c0,0-9.6-1.7-12.6-14.5L709.4,425.4z"/>
			<g>
				<path class="st15" d="M676.8,420.9c0.5,0,3.9,0.1,4.5,0c0.4,0,0.6-0.2,0.7-0.9c0-0.7,0-3.7,0-4c0-0.2,0-0.6-0.6-0.7
					c-0.7,0-3.8,0-4.4,0c-0.7,0-0.7,0.6-0.7,0.6c0,0.1,0,4.2,0,4.4S676.3,420.9,676.8,420.9"/>
				<path class="st15" d="M690.3,415.9c0,0.1,0,4.2,0,4.4s0,0.6,0.6,0.6s3.9,0.1,4.5,0c0.4,0,0.6-0.2,0.7-0.9c0-0.7,0-3.7,0-4
					c0-0.2,0-0.6-0.6-0.7c-0.7,0-3.8,0-4.4,0C690.3,415.3,690.3,415.9,690.3,415.9z"/>
				<path class="st15" d="M704.4,415.9c0,0.1,0,4.2,0,4.4s0,0.6,0.6,0.6c0.5,0,3.9,0.1,4.5,0c0.4,0,0.6-0.2,0.7-0.9c0-0.7,0-3.7,0-4
					c0-0.2,0-0.6-0.6-0.7c-0.7,0-3.8,0-4.4,0C704.4,415.3,704.4,415.9,704.4,415.9z"/>
			</g>
			<g>
				<path class="st15" d="M676.8,411.5c0.5,0,3.9,0.1,4.5,0c0.4,0,0.6-0.2,0.7-0.9c0-0.7,0-18.1,0-18.5c0-0.2,0-0.6-0.6-0.7
					c-0.7,0-3.8,0-4.4,0c-0.7,0-0.7,0.6-0.7,0.6c0,0.1,0,18.6,0,18.9S676.3,411.5,676.8,411.5"/>
				<path class="st15" d="M690.3,392.1c0,0.1,0,18.6,0,18.9s0,0.6,0.6,0.6s3.9,0.1,4.5,0c0.4,0,0.6-0.2,0.7-0.9c0-0.7,0-18.1,0-18.5
					c0-0.2,0-0.6-0.6-0.7c-0.7,0-3.8,0-4.4,0C690.3,391.5,690.3,392.1,690.3,392.1z"/>
				<path class="st15" d="M704.4,392.1c0,0.1,0,18.6,0,18.9s0,0.6,0.6,0.6c0.5,0,3.9,0.1,4.5,0c0.4,0,0.6-0.2,0.7-0.9
					c0-0.7,0-18.1,0-18.5c0-0.2,0-0.6-0.6-0.7c-0.7,0-3.8,0-4.4,0C704.4,391.5,704.4,392.1,704.4,392.1z"/>
			</g>
		</g>
		<g>
			<defs>
				<path id="SVGID_3_" d="M839.8,342.8c-1.7,0-147.5,0-156.2,0c-8.7,0-17.9,0.6-17.9,17.9c0,17.3-2,125.3-0.2,141.7
					c1.4,13.6,37.9,54.2,72.1,20.8c21.4,0.6,88.9-0.4,99.9,0c6.9,0.3,19.9,0.3,20.8-20.2c0.9-20.9,0.6-120.5,0.6-139.3
					C858.9,341.3,839.8,342.8,839.8,342.8z"/>
			</defs>
			<clipPath id="SVGID_4_">
				<use xlink:href="#SVGID_3_"  style="overflow:visible;"/>
			</clipPath>
			<g class="st17">
				<path class="st18" d="M713.4,498.4c-0.7,1.2-1.2,1.8-1.2,1.8l-6.4-17.1l-1-3.7c0,0-3.6-9.8-4-12.5c-0.5-3.2,2.3-12.4,2-16
					c-0.3-3.3-4.6,0.5-6.4,2.2c-4.2-2.4-18.3-6.7-19.5-4.7c-1.1,1.8,7.1,5.1,10,6.2c0,0,0,0,0,0c-3.4-1.2-14.6-4.8-15.2-2.2
					c-0.2,1.3,7.2,3.9,11.1,5.1c0,0.1-0.1,0.1-0.1,0.2c-4.1-0.9-12.2-2.5-12.6-1.1c-0.4,1.5,8.1,3.7,11.8,4.6c0,0,0,0.1,0,0.1
					c-3.9-0.7-12.8-2.2-12.8-0.6c0,2.1,9.1,4.4,12.7,5.3l0.3-0.2c0.3,2.6,1,5.8,2.1,9.8c0,0,0.8,23,8.4,43
					c5.8,15.4,30.5,18.7,47.1-0.6C728.8,514.3,718.9,508.3,713.4,498.4z"/>
				<path class="st19" d="M739.6,517.8c2.8-3.3,5.4-7.1,7.6-11.7l-3.5-42.9c-6.8,2.7-12.7,7.6-16.8,14c-5.2,8.1-11,17.3-13.5,21.2
					C718.9,508.3,728.8,514.3,739.6,517.8z"/>
				<path class="st20" d="M686.9,461.3c0,0,7.9-0.2,8.5,5.2"/>
				<g>
					<path class="st21" d="M826.5,378.4c0,0,3.1,28.4-6.4,40.4c-9.5,12-16.5,15.6-28.9,17.7c-12.3,2.1-47-4.2-51-11.7
						c-4-7.5-10.5-30.5-6.2-45.7C738.4,363.8,826.5,378.4,826.5,378.4z"/>
					<path class="st22" d="M761.3,448.3c0,0,4.4-2.5,18.1-2.1c13.7,0.4,15.6,0.5,15.6,0.5L784.6,464l-18.8-6L761.3,448.3z"/>
					<path class="st19" d="M791.9,445.3l0.2-13.3l-28.1,3.7l0.3,12.7C773.8,449.9,783,448.5,791.9,445.3z"/>
					<path class="st18" d="M791.9,445.3c-8.8,3.1-18.1,4.6-27.6,3.1l0,1.9c0,0-0.9,20.6,13.6,22c14.5,1.4,13.9-22.2,13.9-22.2
						L791.9,445.3z"/>
					<path class="st19" d="M749.1,419l0-15.2c0,0-11.6-8.4-16,4.7C728.6,421.5,742.4,426.2,749.1,419z"/>
					<g>
						<path class="st23" d="M744.3,418.5c0,0-0.1,0-0.1-0.1c-0.1-0.1-0.1-0.3,0-0.4c0-0.1,4.7-5.6,1.1-9.8c-1.3-1.5-2.7-2.3-4.3-2.4
							c-2.7-0.2-4.9,1.8-5,1.9c-0.1,0.1-0.3,0.1-0.4,0c-0.1-0.1-0.1-0.3,0-0.4c0.1-0.1,2.4-2.2,5.4-2c1.7,0.1,3.3,1,4.7,2.6
							c3.9,4.6-1,10.5-1.1,10.6C744.6,418.5,744.4,418.5,744.3,418.5z"/>
					</g>
					<g>
						<path class="st23" d="M739.3,411.4c-0.1,0-0.2-0.1-0.2-0.2c-0.1-0.1,0-0.3,0.2-0.4c0.1,0,5.4-2,7.8,2.2c0.1,0.1,0,0.3-0.1,0.4
							c-0.1,0.1-0.3,0-0.4-0.1c-2.1-3.8-7.1-2-7.1-2C739.4,411.5,739.3,411.5,739.3,411.4z"/>
					</g>
					<path class="st18" d="M741.1,375.1c0,0-0.6,16.3-0.4,35.5c0.1,15.6,12.7,30.7,31.8,31.8c17.9,1,36.4-6.4,41.8-31.5
						c5.4-25.1,1.2-45.7-21.6-51C769.8,354.5,747.1,355.7,741.1,375.1z"/>
					<g>
						<path class="st24" d="M767.5,369.5c0.1-0.1,0.2-0.2,0.2-0.2S767.6,369.4,767.5,369.5z"/>
					</g>
					<path class="st21" d="M801.8,395.8c0,0,3-3.5-3.5-7.8c-6.5-4.3-8.7-3.3-9.8-1.1c-0.9,2,0.6,5,4.2,7.3
						C797.2,397,800.1,397.9,801.8,395.8z"/>
					<path class="st21" d="M748.6,393c0,0-2.4-4,4.8-7.1c7.1-3.1,9.2-1.7,9.8,0.6c0.6,2.1-1.4,4.8-5.5,6.4
						C752.9,394.9,749.8,395.3,748.6,393z"/>
					<path d="M786.8,406.4c0,1.9,1.3,3.4,2.8,3.4c1.5,0,2.8-1.5,2.8-3.4c0-1.9-1.3-3.4-2.8-3.4C788,403,786.8,404.6,786.8,406.4z"/>
					<path d="M752.9,405.8c0,1.9,1.3,3.4,2.8,3.4c1.5,0,2.8-1.5,2.8-3.4c0-1.9-1.3-3.4-2.8-3.4C754.1,402.4,752.8,403.9,752.9,405.8
						z"/>
					<g>
						<path class="st23" d="M769,413.4c0.1,0,0.2-0.1,0.2-0.2c0.1-0.1,0-0.3-0.1-0.4c0,0-2.2-1-3.2-3c-0.8-1.5-0.6-3.9,0.5-4.9
							c0.6-0.6,1.5-0.7,2.4-0.2c0,0,0.1,0,0.1,0.1c3.4,1.9,4.9,1,5.6-0.1c1.2-2,0-17.8-0.1-19.6c0-0.2-0.1-0.3-0.3-0.3
							c-0.2,0-0.3,0.1-0.3,0.3c0.4,4.8,1.2,17.7,0.2,19.3c-0.8,1.3-2.4,1.3-4.9-0.1c-0.1,0-0.1-0.1-0.2-0.1
							c-1.2-0.6-2.3-0.5-3.1,0.3c-1.2,1.2-1.5,3.8-0.6,5.5c1.1,2.1,3.4,3.2,3.5,3.2C769,413.4,769,413.4,769,413.4z"/>
					</g>
					<path class="st19" d="M784,420.8c0.5,2.6,5,3.9,9.9,2.9c4.9-1,8.4-4,7.9-6.6c-0.5-2.6-5-3.9-9.9-2.9
						C786.9,415.2,783.4,418.2,784,420.8z"/>
					<path class="st19" d="M761.4,420.5c-0.6,2.6-5.1,3.8-9.9,2.6c-4.9-1.1-8.3-4.2-7.7-6.8c0.6-2.6,5.1-3.8,9.9-2.6
						C758.6,414.8,762,417.9,761.4,420.5z"/>
					<path class="st21" d="M758.5,347.7c17.8-3.4,34.7,3.6,41,6.6c-0.5-3.7,1.3-8,2.5-8c1.7,0,1.2,7.3,1,9.5c0.1,0,0.1,0,0.2,0
						c0.7-1.6,2.9-6,5.1-4.4c1.5,1.1-0.4,3.4-2.3,5.2c5.7,1.9,19.1,5.7,20.5,21.7c1.6,18.9-6.7,27.7-6.7,27.7s-2.4,0.6-11.4-2.9
						c-2.7-1.1-10-38.3-20-28.8c-21.2,20.3-31.6,18-49.7,21.4c-6.4,1.2-4,5.4-6.4-6.8C729.9,376.9,735.9,352,758.5,347.7z"/>
					<path class="st18" d="M803.9,415.4l4.1-14.7c0,0,13.4-5,14.2,8.8C823,423.2,808.5,424.1,803.9,415.4z"/>
					<g>
						<path class="st23" d="M808.6,416.1c0,0,0.1,0,0.1,0c0.1-0.1,0.2-0.2,0.1-0.4c0-0.1-3-6.7,1.6-9.8c1.6-1.1,3.2-1.5,4.8-1.1
							c2.7,0.6,4.2,3.1,4.3,3.1c0.1,0.1,0.3,0.2,0.4,0.1c0.1-0.1,0.2-0.2,0.1-0.4c-0.1-0.1-1.7-2.8-4.6-3.4c-1.7-0.4-3.4,0-5.2,1.2
							c-5,3.3-1.9,10.4-1.8,10.5C808.3,416,808.4,416.1,808.6,416.1z"/>
					</g>
					<g>
						<path class="st23" d="M815.3,410.7c0.1,0,0.2,0,0.2-0.1c0.1-0.1,0.1-0.3-0.1-0.4c0,0-4.7-3.4-8.1,0c-0.1,0.1-0.1,0.3,0,0.4
							c0.1,0.1,0.3,0.1,0.4,0c3.1-3.1,7.3,0,7.4,0C815.2,410.7,815.3,410.7,815.3,410.7z"/>
					</g>
					<g>
						<g>
							<path class="st25" d="M747.4,424.3c-9.2-0.3-16.5-8-16.2-17.2c0.3-9.2,8-16.5,17.2-16.2c9.2,0.3,16.5,8,16.2,17.2
								C764.3,417.3,756.6,424.6,747.4,424.3z M748.3,391.8c-8.7-0.2-16,6.6-16.2,15.3c-0.2,8.7,6.6,16,15.3,16.2
								c8.7,0.2,16-6.6,16.2-15.3C763.9,399.4,757,392.1,748.3,391.8z"/>
						</g>
						<g>
							<path class="st25" d="M793,425.6c-9.2-0.3-16.5-8-16.2-17.2c0.3-9.2,8-16.5,17.2-16.2c9.2,0.3,16.5,8,16.2,17.2
								C809.9,418.6,802.2,425.9,793,425.6z M793.9,393.2c-8.7-0.3-16,6.6-16.2,15.3c-0.2,8.7,6.6,16,15.3,16.2
								c8.7,0.3,16-6.6,16.2-15.3C809.5,400.7,802.6,393.4,793.9,393.2z"/>
						</g>
						<g>
							<path class="st25" d="M777.3,406.6c-0.1,0-0.2,0-0.2-0.1c-6.2-3.9-12.8-0.4-12.8-0.4c-0.2,0.1-0.5,0-0.6-0.2
								c-0.1-0.2,0-0.5,0.2-0.6c0.1,0,7.1-3.8,13.7,0.4c0.2,0.1,0.3,0.4,0.1,0.6C777.6,406.5,777.4,406.6,777.3,406.6z"/>
						</g>
					</g>
					<g>
						<path class="st8" d="M773.7,424.5c-1.9,0.6-3.4-0.4-4.4-1.6c2.5-1.7,5.5-2.7,8.2-3.3C777.1,421.3,776.1,423.7,773.7,424.5z"/>
						<path d="M777.9,417.4c0,0,0,0.9-0.3,2.1c-2.7,0.6-5.7,1.6-8.2,3.3c-1.1-1.3-1.7-2.9-1.7-2.9
							C771.1,417.4,777.9,417.4,777.9,417.4z"/>
					</g>
				</g>
				<path class="st26" d="M739.6,591.3c-1.8,14.7-3.6,30-3.4,33l41.9,0.5l0.3-5.5c0,0,11-0.4,12.4-0.7l0.4,6.1
					c0,0,37.9,0.4,49.2,0.1c0,0-3.2-26.4-7.3-47.2C804.1,591.3,770.6,596.4,739.6,591.3z"/>
				<path class="st27" d="M743.3,562.3c0,0-1.9,14.2-3.7,29.1c31,5,64.4-0.1,93.6-13.7c-1.4-7-2.9-13.3-4.4-17.9L743.3,562.3z"/>
				<g>
					<path class="st28" d="M838,625.1c-0.1,0-0.2-0.1-0.2-0.2c-3.7-35.2-10-60.7-10.1-61c0-0.1,0-0.2,0.2-0.3c0.1,0,0.2,0,0.3,0.2
						c0.1,0.3,6.4,25.8,10.1,61C838.2,624.9,838.2,625,838,625.1C838,625.1,838,625.1,838,625.1z"/>
				</g>
				<path class="st18" d="M832.4,554.6c0,0-6.1,17.2-22.1,26.1c0,0,6.7,9.9,19.5,14.5c0,0,15.6-14.5,22-29.4
					c5.1-12,1.8-40.6-1.2-56.5c-7,5.8-14.9,9.1-23.2,11.5L832.4,554.6z"/>
				<path class="st19" d="M826.2,512.6l1.2,8.2c8.4-2.4,16.2-5.7,23.2-11.5c-0.7-3.8-1.4-6.9-2-8.8L826.2,512.6z"/>
				<g>
					<g>
						<path class="st28" d="M782.9,611.1c-0.1,0-0.2-0.1-0.2-0.2l-1.2-34.9c0-0.1,0.1-0.2,0.2-0.2c0.1,0,0.2,0.1,0.2,0.2l1.2,34.9
							C783.1,611,783,611,782.9,611.1C782.9,611.1,782.9,611.1,782.9,611.1z"/>
					</g>
					<g>
						<path class="st28" d="M783.1,607.9c-0.1,0-0.2-0.1-0.2-0.2c0-0.1,0.1-0.2,0.2-0.2c0.3,0,6.2-0.1,6.5-6.4
							c0.3-6.5-0.2-17.6-0.2-17.7c0-0.1,0.1-0.2,0.2-0.2c0.1,0,0.2,0.1,0.2,0.2c0,0.1,0.5,11.3,0.2,17.8
							C789.6,607.8,783.1,607.9,783.1,607.9z"/>
					</g>
					<g>
						<path class="st28" d="M812.1,580.2"/>
					</g>
					<g>
						<path class="st28" d="M833.6,597.4C833.6,597.4,833.5,597.4,833.6,597.4c-0.2-0.1-15.7-6-26.4-19.6c-0.1-0.1-0.1-0.2,0-0.3
							c0.1-0.1,0.2-0.1,0.3,0c10.7,13.4,26,19.4,26.1,19.4c0.1,0,0.2,0.2,0.1,0.3C833.8,597.3,833.7,597.4,833.6,597.4z"/>
					</g>
					<g>
						<path class="st28" d="M738.9,596.9c-0.1,0-0.2-0.1-0.2-0.2c0-0.2,0.2-0.3,1.1-0.8c3.1-1.6,12.3-6.4,18.8-20
							c0.1-0.1,0.2-0.2,0.3-0.1c0.1,0,0.2,0.2,0.1,0.3c-6.5,13.7-15.9,18.6-19,20.2c-0.4,0.2-0.8,0.4-0.9,0.5
							C739.1,596.8,739,596.9,738.9,596.9z"/>
					</g>
					<g>
						<path class="st28" d="M775.5,619.6c-2.4,0-3.7-0.1-3.8-0.1c-0.1,0-0.2-0.1-0.2-0.2c0-0.1,0.1-0.2,0.2-0.2
							c0.1,0,13.8,0.7,30.3-2.3c0.1,0,0.2,0.1,0.2,0.2c0,0.1-0.1,0.2-0.2,0.2C790.7,619.3,780.7,619.6,775.5,619.6z"/>
					</g>
					<g>
						<path class="st28" d="M796.2,622c0,0-0.1,0-0.1,0l-5.3-3.2c-0.1-0.1-0.1-0.2-0.1-0.3c0.1-0.1,0.2-0.1,0.3-0.1l5.3,3.2
							c0.1,0.1,0.1,0.2,0.1,0.3C796.3,622,796.3,622,796.2,622z"/>
					</g>
				</g>
				<path class="st29" d="M783.3,454.8l-2.3,9c0,0-3.2-8.3-3.5-9.2c-0.4-0.9-22.6,0-22.6,0s-12.9,0.2-18.6,4.3
					c-7.1,4.4-15.8,21.3-20.1,26.1c0,0-2.2,12.5,26.6,20.6c0,0,1,19.5,0.3,27.3c-0.7,7.8-3.5,35.1-3.5,35.1s12.4,14.2,33.7,16.7
					c0,0,6-3.2,8.5-8.9c0,0,6,8.9,13.8,10.6c7.8,1.8,23.4-11.3,29.8-19.1c6.4-7.8,7.1-12.8,7.1-12.8l-6.4-45.7
					c0,0,13.1-3.2,22.7-18.8c0,0-12.1-26.2-17.4-29.1c-5.3-2.8-30.8-7.1-30.8-7.1L783.3,454.8z"/>
				<path class="st30" d="M826.1,508.9l0.3,3.7c0,0,16.8-4.4,25.7-15.1c0,0-0.4-6-3.3-7.5C848.7,490.1,840.7,500.6,826.1,508.9z"/>
				<path class="st30" d="M743.5,505.7v5.8c0,0-17.1-3.5-29.9-19c0,0,0.4-6,3.3-7.5C716.8,485.1,728.8,497.4,743.5,505.7z"/>
				<path class="st30" d="M777.5,454.6c0,0-14.9-5.5-16.1-6.4c0,0-3.4,3.4-7.3,8.9c0,0,12.1,11.7,16,12.6L777.5,454.6z"/>
				<path class="st30" d="M783.3,454.5c0,0,10.5-6.9,11.7-7.8c0,0,5.9,4.1,9.8,9.6c0,0-10.1,12.4-14,13.3L783.3,454.5z"/>
				<g>
					<path class="st30" d="M781.7,576.1c-0.1,0-0.2-0.1-0.2-0.2l-0.7-112c0-0.1,0.1-0.2,0.2-0.2c0,0,0,0,0,0c0.1,0,0.2,0.1,0.2,0.2
						l0.7,112C781.9,576,781.8,576.1,781.7,576.1C781.7,576.1,781.7,576.1,781.7,576.1z"/>
				</g>
				<path class="st30" d="M791.3,486.3l21.1-1.2c1.3-0.1,2.4,0.8,2.5,2.1l2.3,16.7c0.1,0.8-0.2,1.7-0.9,2.2l-9.7,8
					c-0.8,0.6-1.8,0.7-2.7,0.2l-14-7.7c-0.8-0.4-1.3-1.3-1.2-2.2l0.3-15.8C789.1,487.4,790.1,486.3,791.3,486.3z"/>
				<g>
					
						<rect x="789.1" y="489.2" transform="matrix(0.9996 -2.730249e-02 2.730249e-02 0.9996 -13.0677 22.0799)" class="st29" width="25.9" height="0.8"/>
				</g>
				<g>
					<path class="st30" d="M787,581.4c-0.1,0-0.2-0.1-0.2-0.2L784.7,465c0,0,0-0.1,0-0.1l1.6-4.5c0-0.1,0.2-0.2,0.3-0.1
						c0.1,0,0.2,0.2,0.1,0.3l-1.6,4.5l2.1,116.2C787.3,581.3,787.2,581.4,787,581.4C787.1,581.4,787.1,581.4,787,581.4z"/>
				</g>
				<g>
					<path class="st22" d="M780.2,463.8c-4.5,0-6.7-1.6-6.9-1.7c-0.1-0.1-0.1-0.2,0-0.3c0.1-0.1,0.2-0.1,0.3,0c0,0,4.6,3.3,13.5,0.5
						c0.1,0,0.2,0,0.3,0.1c0,0.1,0,0.2-0.1,0.3C784.5,463.5,782.2,463.8,780.2,463.8z"/>
				</g>
				<path class="st30" d="M784.4,467.2c0,0.7-0.6,1.3-1.3,1.3c-0.7,0-1.3-0.6-1.3-1.3c0-0.7,0.6-1.3,1.3-1.3
					C783.8,465.9,784.4,466.5,784.4,467.2z"/>
				<path class="st30" d="M784.4,482.8c0,0.7-0.6,1.3-1.3,1.3c-0.7,0-1.3-0.6-1.3-1.3c0-0.7,0.6-1.3,1.3-1.3
					C783.8,481.5,784.4,482.1,784.4,482.8z"/>
				<path class="st30" d="M784.2,499.3c-0.5,0.5-1.3,0.6-1.9,0.1c-0.5-0.5-0.6-1.3-0.1-1.9c0.5-0.5,1.3-0.6,1.9-0.1
					C784.6,497.9,784.7,498.8,784.2,499.3z"/>
				<path class="st30" d="M784.6,517.6c-0.5,0.5-1.3,0.6-1.9,0.1c-0.5-0.5-0.6-1.3-0.1-1.9s1.3-0.6,1.9-0.1
					C785,516.2,785.1,517.1,784.6,517.6z"/>
				<path class="st30" d="M784.8,551c-0.5,0.5-1.3,0.6-1.9,0.1c-0.5-0.5-0.6-1.3-0.1-1.9s1.3-0.6,1.9-0.1
					C785.3,549.6,785.3,550.5,784.8,551z"/>
				<path class="st30" d="M784.7,535.3c-0.5,0.5-1.3,0.6-1.9,0.1s-0.6-1.3-0.1-1.9c0.5-0.5,1.3-0.6,1.9-0.1
					C785.2,533.9,785.2,534.8,784.7,535.3z"/>
				<path class="st30" d="M785,570.8c-0.5,0.5-1.3,0.6-1.9,0.1c-0.5-0.5-0.6-1.3-0.1-1.9c0.5-0.5,1.3-0.6,1.9-0.1
					C785.5,569.4,785.5,570.3,785,570.8z"/>
			</g>
		</g>
	</g>
	<g>
		<path class="st11" d="M858.9,208.3c0-1.7,0-132.4,0-141.1c0-8.7-0.6-17.9-17.9-17.9c-17.3,0-125.3-2-141.7-0.2
			c-13.6,1.4-20.2,6.6-20.8,28c-0.6,21.4,0.4,117.9,0,128.9c-0.3,6.9-0.3,19.9,20.2,20.8c20.9,0.9,120.5,0.6,139.3,0.6
			C860.3,227.5,858.9,208.3,858.9,208.3z"/>
		<g>
			<defs>
				<path id="SVGID_5_" d="M858.9,208.3c0-1.7-3.6-161.1-3.6-169.7s-0.6-17.9-17.9-17.9c-17.3,0-125.3-2-141.7-0.2
					c-13.6,1.4-20.2,6.6-20.8,28c-0.6,21.4-13.4,146.6-13.8,157.6c-0.3,6.9,32.8,54.2,65.8,21.2c44.1,1.5,92.4,0.3,111.2,0.2
					C860.3,227.5,858.9,208.3,858.9,208.3z"/>
			</defs>
			<clipPath id="SVGID_6_">
				<use xlink:href="#SVGID_5_"  style="overflow:visible;"/>
			</clipPath>
			<path class="st31" d="M844.8,210.1c-1.9-6.1-4.2-12-6.8-17.6c-3.6-7.3-9.4-9.5-13.3-8.5h0c-2.1,0.5-4,1.8-5.3,3.6l-8.7,12.1
				c0,0,2.4,3.2,7.8,17.9C828.3,218.4,837.1,215.3,844.8,210.1z"/>
			<path class="st32" d="M844.8,210.1c-7.8,5.2-16.5,8.4-26.4,7.5c0.5,1.3,0.9,2.6,1.4,4c1.1-0.1,2.1-0.3,3-0.9
				c-0.9,0.6-1.9,0.8-3,0.9c2.1,6,4.6,13.5,7.5,23c4.4,14.4,14.9,40.7,14.9,40.7s-5.9,9.4-4.4,12c1.5,2.6,4.6-3,4.6-3
				s-3,14-0.5,14.1c2.4,0.1,4.5-10.7,4.5-10.7s-0.9,13.6,2.3,12.9c1.9-0.5,1.5-12.1,1.5-12.1s1.2,11.6,3.3,11.2
				c2-0.4,0.4-11.5,0.4-11.5s2,9,4.1,8.5c2.1-0.6,0.6-15.7-0.9-20.4C857.2,286,856.2,245.6,844.8,210.1z"/>
			<g class="st33">
				<path class="st34" d="M684.9,170.9c-0.8-5.2-2.2-7.6-2.2-7.6c-0.4-2-1.3-3.1-1.3-6.9c0-1.5,0.1-3.3,0.9-4.5
					c4.8-6.6,12.4,0.6,12.4,0.6s-1.4-11.9,1.1-11.5c2.5,0.4,2.6,15.4,2.6,15.4c0.3,4.6,0,11.2,0,11.2l1.1,4"/>
				<g>
					<path class="st35" d="M697.1,166.4c-0.1,0-0.1,0-0.2-0.1c-0.3-0.4-8.4-9.4-7.6-12.4c0.1-0.6,0.5-1,0.9-1.1
						c1.7-0.5,4.7,2.6,4.9,2.7c0.1,0.1,0.1,0.2,0,0.3c-0.1,0.1-0.2,0.1-0.3,0c-0.8-0.8-3.3-2.9-4.4-2.6c-0.3,0.1-0.5,0.3-0.6,0.8
						c-0.7,2.8,7.4,11.9,7.5,12c0.1,0.1,0.1,0.2,0,0.3C697.2,166.4,697.2,166.4,697.1,166.4z"/>
				</g>
				<g>
					<path class="st35" d="M686.4,161.5c0,0-0.1,0-0.1,0c-0.1-0.1-0.1-0.2-0.1-0.3c1.6-2.6,4.4-3.6,4.5-3.6c0.1,0,0.2,0,0.3,0.1
						c0,0.1,0,0.2-0.1,0.3c0,0-2.7,1-4.3,3.5C686.5,161.4,686.4,161.5,686.4,161.5z"/>
				</g>
				<g>
					<path class="st35" d="M686.1,158.4c-0.7,0-1.5-0.6-1.9-1.6c-1.8-3.8,0.8-7.1,0.8-7.1c0.1-0.1,0.2-0.1,0.3,0
						c0.1,0.1,0.1,0.2,0,0.3c0,0-2.4,3.1-0.7,6.7c0.5,1,1.2,1.4,1.6,1.3c0.4-0.1,0.7-0.4,0.8-1c0-0.1,0.1-0.2,0.2-0.2
						c0.1,0,0.2,0.1,0.2,0.2c-0.1,0.7-0.6,1.2-1.2,1.3C686.2,158.4,686.1,158.4,686.1,158.4z"/>
				</g>
				<g>
					<path class="st35" d="M687.8,157.2c-0.6,0-1.3-0.4-1.8-1.5c-1.8-4.4,1.9-6.5,1.9-6.6c0.1-0.1,0.2,0,0.3,0.1
						c0.1,0.1,0,0.2-0.1,0.3c-0.1,0.1-3.4,2-1.7,6c0.4,1.1,1.2,1.4,1.7,1.2c0.6-0.2,0.9-1.2,0.4-2.6c-0.9-2.1,1.3-4.2,1.4-4.3
						c0.1-0.1,0.2-0.1,0.3,0c0.1,0.1,0.1,0.2,0,0.3c0,0-2,2-1.3,3.9c0.7,1.7,0.2,2.8-0.6,3.1C688.1,157.2,688,157.2,687.8,157.2z"/>
				</g>
				<g>
					<path class="st35" d="M683.8,159.3c-0.4,0-0.8-0.2-1.1-0.6c-0.7-0.8-1.3-2.4-1-4.3c0-0.1,0.1-0.2,0.2-0.2
						c0.1,0,0.2,0.1,0.2,0.2c-0.2,1.8,0.3,3.3,0.9,4c0.2,0.2,0.5,0.4,0.8,0.5c0.9,0,0.9-1.1,0.9-1.1c0-0.1,0.1-0.2,0.2-0.2
						c0.1,0,0.2,0.1,0.2,0.2C685.1,158.3,684.8,159.3,683.8,159.3C683.8,159.3,683.8,159.3,683.8,159.3z"/>
				</g>
			</g>
			<path class="st32" d="M711.7,198c-1.3,2.1-2.1,3.4-2.1,3.4l-11.3-34.7l0.1-2.2c-4.7,0.6-9.3,1.3-13.7,2.4
				c-0.4,9.6-2.2,53.4,10.3,63.7c13.3,11,30.3-5.3,40-17.1C725.8,211,717.5,205.8,711.7,198z"/>
			<path class="st31" d="M739.6,167c-9.7,3.1-22.9,22.9-27.9,31c5.8,7.8,14.1,13,23.3,15.5c4.7-5.8,7.7-10.5,7.7-10.5L739.6,167z"/>
			<g class="st33">
				<g>
					<path class="st36" d="M794.5,161.3c0,0,18.1,3.4,28.9,8.8c10.7,5.4,17.4,23.5,17.4,23.5s-7.6,11.6-20.7,15.3
						c0,0-0.2,11.2,0.7,19.5c0.9,8.2,3.3,28.2-6.7,30.5c-10,2.3-31.1,1.7-41.8,2.3c-10.7,0.6-24.3-1.5-31.3-4.8
						c-7-3.3-10.2-6.6-10.3-18.4c-0.1-11.8,4.1-35.1,4.1-35.1s-12.9-2.9-20.2-14.9c0,0,13-23.2,28.7-25.6
						C756.7,160.3,771.8,157.7,794.5,161.3z"/>
					<path class="st14" d="M820.1,208.9c-0.8,0.3-0.3,4.2-0.3,4.2s13.5,1.3,25.1-14.7c0,0,0.5-4.2-4.8-5.1
						C840,193.3,831.7,204.9,820.1,208.9z"/>
					<path class="st14" d="M735.2,201.6c0.7,0.2-0.8,4.2-0.8,4.2s-12.8,1.6-24-14.2c0,0-0.6-4.2,4.4-5.2
						C714.9,186.5,724.1,197.9,735.2,201.6z"/>
					<g>
						<path class="st37" d="M771.1,242.2c0.1,0,0.1,0,0.2-0.1c0.1-0.1,0-0.2-0.1-0.3c-8.6-5.9-16-13.8-21.5-22.7
							c-0.1-0.1-0.2-0.1-0.3-0.1c-0.1,0.1-0.1,0.2-0.1,0.3c5.5,8.9,13,16.8,21.6,22.8C771,242.2,771,242.2,771.1,242.2z"/>
					</g>
					<g>
						<path class="st37" d="M757.9,247.1c0.1,0,0.1,0,0.1-0.1c0.1-0.1,0.1-0.2,0-0.3c-6-6.8-10.7-14.8-13.6-23.4
							c0-0.1-0.2-0.2-0.3-0.1c-0.1,0-0.2,0.2-0.1,0.3c3,8.6,7.7,16.7,13.7,23.5C757.8,247.1,757.9,247.1,757.9,247.1z"/>
					</g>
				</g>
				<g>
					<path class="st14" d="M800.9,166.8c1.6-1.9,0.6-4.8-1.9-5.1c-4.6-0.6-11.6-1.5-17-1.6c-4.9-0.1-10.7-0.1-14.9-0.1
						c-3.3,0-5.4,3.7-3.7,6.5c2.5,4.1,7.3,8.7,16.5,9.2C790.4,176.3,797.3,170.9,800.9,166.8z"/>
					<path class="st8" d="M799,161.6c0,0-2.7,18.1-3.1,30.1c0,0-27.5-1.6-36.4-2c0,0,1.4-24.1,2.6-29.7c0,0-4.3,0.1-7.5,0.7
						c0,0-4.3,12-4.9,29.2c0,0-16.1,37-19.3,40.2l-12.3,119.5l111.1,0.2l-7-110.3c0,0-13.3-37-16.5-45c0,0,0.4-25,2.4-31
						C808.1,163.5,803,161.8,799,161.6z"/>
					<g>
						<path class="st14" d="M774.4,226.5c-18.7-1.5-18.6-22.3-18.6-22.5c0-0.1,0-0.1,0.1-0.2c0,0,0.1-0.1,0.2-0.1
							c15.2,0.3,40.4,1.8,40.7,1.8c0.1,0,0.1,0,0.2,0.1c0,0.1,0.1,0.1,0,0.2c0,0.2-3.6,20.8-20.7,20.8
							C775.6,226.6,775,226.6,774.4,226.5z M756.2,204.2c0,2.3,1,20.4,18.2,21.8c17.1,1.4,21.5-17.6,22-20
							C793.6,205.9,770.6,204.5,756.2,204.2z"/>
					</g>
					<g>
						<path class="st38" d="M821.7,263.6c0.1,0,0.2-0.1,0.2-0.2c0-0.1-0.1-0.2-0.2-0.3c-0.7-0.1-66.9-5.7-89.9-0.9
							c-0.1,0-0.2,0.2-0.2,0.3c0,0.1,0.2,0.2,0.3,0.2C754.8,257.9,821,263.5,821.7,263.6C821.7,263.6,821.7,263.6,821.7,263.6z"/>
					</g>
					<g>
						<path class="st38" d="M820.8,270.8c0.1,0,0.2-0.1,0.2-0.2c0-0.1-0.1-0.2-0.2-0.3c-0.7-0.1-66.9-5.7-89.9-0.9
							c-0.1,0-0.2,0.2-0.2,0.3c0,0.1,0.2,0.2,0.3,0.2C753.9,265.2,820.1,270.8,820.8,270.8C820.8,270.8,820.8,270.8,820.8,270.8z"/>
					</g>
					<g>
						<path class="st38" d="M775.9,298.5c0.1,0,0.2-0.1,0.2-0.2l1.5-37.1c0-0.1-0.1-0.2-0.2-0.2c-0.1,0-0.2,0.1-0.2,0.2l-1.5,37.1
							C775.6,298.4,775.8,298.5,775.9,298.5C775.9,298.5,775.9,298.5,775.9,298.5z"/>
					</g>
					<g>
						<path class="st38" d="M775.9,294c0.1,0,0.2-0.1,0.2-0.2c0-0.1-0.1-0.2-0.2-0.2c-0.3,0-6.7-0.1-7-7.9c-0.3-8,0.9-24.5,0.9-24.7
							c0-0.1-0.1-0.2-0.2-0.3c-0.1,0-0.2,0.1-0.3,0.2c0,0.2-1.2,16.7-0.9,24.7C768.7,293.9,775.8,294,775.9,294z"/>
					</g>
					<g>
						<path class="st38" d="M727.4,284.2C727.4,284.2,727.4,284.2,727.4,284.2c8.6-1.1,16.2-7.3,19.1-15.4c0-0.1,0-0.3-0.1-0.3
							c-0.1,0-0.3,0-0.3,0.1c-2.8,7.9-10.3,14-18.7,15.1c-0.1,0-0.2,0.1-0.2,0.3C727.2,284.1,727.3,284.2,727.4,284.2z"/>
					</g>
					<g>
						<path class="st38" d="M822.4,290.1c0.1,0,0.2,0,0.2-0.1c0.1-0.1,0-0.3-0.1-0.3c-6.3-3.4-10.9-9.9-11.9-17
							c0-0.1-0.1-0.2-0.3-0.2c-0.1,0-0.2,0.1-0.2,0.3c1.1,7.2,5.8,13.9,12.2,17.4C822.4,290.1,822.4,290.1,822.4,290.1z"/>
					</g>
					<g>
						<path class="st14" d="M805.1,195.1l-9.9-1.4c-0.7-0.1-1.3-0.5-1.7-1c-0.4-0.6-0.6-1.2-0.5-1.9l0.1-1c0.2-1.4,1.5-2.4,2.9-2.2
							l9.9,1.4c0.7,0.1,1.3,0.5,1.7,1s0.6,1.2,0.5,1.9l-0.1,1c-0.1,0.7-0.5,1.3-1,1.7c-0.5,0.3-1,0.5-1.6,0.5
							C805.4,195.1,805.3,195.1,805.1,195.1z M793.6,189.9l-0.1,1c-0.1,0.6,0.1,1.1,0.4,1.6c0.3,0.5,0.8,0.7,1.4,0.8l0,0l9.9,1.4
							c0.6,0.1,1.1-0.1,1.6-0.4c0.5-0.3,0.7-0.8,0.8-1.4l0.1-1c0.1-0.6-0.1-1.1-0.4-1.6c-0.3-0.5-0.8-0.7-1.4-0.8l-9.9-1.4
							c-0.1,0-0.2,0-0.3,0C794.7,188.1,793.7,188.8,793.6,189.9z"/>
					</g>
					<path class="st14" d="M795.8,197.7c0,2,1.6,3.6,3.6,3.6c2,0,3.6-1.6,3.6-3.6s-1.6-3.6-3.6-3.6
						C797.4,194.1,795.8,195.7,795.8,197.7z"/>
					<g>
						<path class="st14" d="M760,190.1l-10,0l0,0c-1.4,0-2.6-1.2-2.6-2.6l0-1c0-0.7,0.3-1.4,0.8-1.8c0.5-0.5,1.1-0.8,1.8-0.8
							c0,0,0,0,0,0l10,0c0.7,0,1.4,0.3,1.8,0.8c0.5,0.5,0.8,1.2,0.8,1.9l0,1c0,0.7-0.3,1.4-0.8,1.8
							C761.3,189.8,760.7,190.1,760,190.1C760,190.1,760,190.1,760,190.1z M750,189.9L750,189.9L750,189.9z M748.5,185
							c-0.4,0.4-0.6,0.9-0.6,1.5l0,1c0,1.2,1,2.1,2.1,2.1l10,0c0,0,0,0,0,0c0.6,0,1.1-0.2,1.5-0.6c0.4-0.4,0.6-0.9,0.6-1.5l0-1
							c0-0.6-0.2-1.1-0.6-1.5c-0.4-0.4-0.9-0.6-1.5-0.6l-10,0c0,0,0,0,0,0C749.4,184.4,748.9,184.6,748.5,185z"/>
					</g>
					<path class="st14" d="M751,193.9c0.3,2,2.1,3.4,4.1,3.1c2-0.3,3.4-2.1,3.1-4.1c-0.3-2-2.1-3.4-4.1-3.1
						C752.2,190.1,750.8,191.9,751,193.9z"/>
				</g>
				<g>
					<ellipse class="st35" cx="814.1" cy="54.7" rx="20.2" ry="19.3"/>
					<ellipse class="st39" cx="815.2" cy="54.4" rx="20.6" ry="19.6"/>
					<path class="st35" d="M815.4,59.9c0,0,26.3-0.4,28.6,18.5c2.2,18.9-5.2,21.9-1.5,26.7c3.7,4.8,11.5,10.4,9.3,18.2
						c-2.2,7.8-5.9,9.6-4.1,14.8c1.9,5.2,2.6,7.4,1.1,11.9c0,0-15.9,5.6-25.2,3.7l-1.1-10.8l-3,10.4c0,0-17.8,6.3-38.9,1.1
						c-21.1-5.2-34.1-3-41.5-8.5l3.7-15.2l-7.8,13.4c0,0-2.7,1.9-15.3-3.3c0,0-4.5-7.5-2.2-15.9c2.8-10.4,6.7-8.4,7.8-17
						c1.1-8.5,0.3-19.8,10.5-28.4c9.6-8.2,4.5-13,10.4-21.1c5.9-8.2,34.9-13.4,57.5-1.9"/>
					<g>
						<path class="st34" d="M751.6,127.3L752,111c0,0-12.1-9.3-17.2,4.6C729.7,129.4,744.2,134.7,751.6,127.3z"/>
						<g>
							<path class="st2" d="M745.9,146.9c-0.1,0-0.3,0-0.4,0c-5.4-0.2-9.6-4.8-9.4-10.2c0.2-3.8,2.4-7.1,5.9-8.6
								c0.3-0.1,0.6,0,0.7,0.3c0.1,0.3,0,0.6-0.3,0.7c-3.1,1.4-5.1,4.3-5.3,7.7c-0.2,4.8,3.6,8.9,8.4,9.1c4.2,0.2,7.9-2.6,8.9-6.7
								c0.1-0.3,0.3-0.4,0.6-0.4c0.3,0.1,0.4,0.3,0.4,0.6C754.4,143.8,750.4,146.9,745.9,146.9z"/>
						</g>
						<path class="st34" d="M815.6,132.1l4.8-15.6c0,0,14.4-4.9,14.9,9.8C835.7,141.1,820.2,141.5,815.6,132.1z"/>
						<g>
							<path class="st2" d="M818.5,150c-2.1,0-4.2-0.7-6-2.1c-3-2.3-4.4-6.1-3.6-9.7c0.1-0.3,0.3-0.5,0.6-0.4
								c0.3,0.1,0.5,0.3,0.4,0.6c-0.7,3.3,0.5,6.7,3.2,8.7c3.8,3,9.4,2.3,12.3-1.5c2.5-3.3,2.4-7.9-0.3-11.1
								c-0.2-0.2-0.2-0.5,0.1-0.7c0.2-0.2,0.5-0.2,0.7,0.1c3,3.5,3.1,8.7,0.3,12.4C824.3,148.7,821.4,150,818.5,150z"/>
						</g>
						<path class="st40" d="M773.6,160.2c-2.1-0.6-4.1-1.4-6-2.2l0.2-10.3l26.3,2l0,10.4C787.4,162,780,162.2,773.6,160.2z"/>
						<path class="st34" d="M773.6,160.2c6.3,2,13.7,1.8,20.5-0.1l0,6.4c-9.9,7.4-22.2,4.8-26.6-3.1l0.1-5.5
							C769.6,158.8,771.6,159.6,773.6,160.2z"/>
						<g>
							<path class="st34" d="M747.5,80.5c0,0-1.1,17.4-1.5,37.9c-0.3,16.7,12.7,33.2,33,34.9c19.1,1.6,39.1-5.7,45.6-32.4
								c6.5-26.7,2.7-48.7-21.5-55.1C778.7,59.3,754.4,59.9,747.5,80.5z"/>
						</g>
						<g>
							<path class="st35" d="M775.8,75.3c0.1-0.1,0.2-0.2,0.2-0.2S775.9,75.2,775.8,75.3z"/>
						</g>
						<path class="st35" d="M810.9,109.2c0,0,3.3-3.7-3.5-8.4c-6.8-4.8-9.2-3.8-10.4-1.5c-1.1,2.1,0.5,5.3,4.3,7.9
							C806,110.3,809.1,111.3,810.9,109.2z"/>
						<path class="st35" d="M753.6,105.3c0,0-2.4-4.3,5.3-7.4c7.7-3.1,9.9-1.6,10.5,0.9c0.5,2.3-1.7,5.1-6,6.7
							C758.1,107.5,754.9,107.8,753.6,105.3z"/>
						<g>
							<path class="st35" d="M820.6,132.7c0,0,0.1,0,0.1,0c0.1-0.1,0.2-0.2,0.2-0.4c0-0.1-3-7.2,2-10.4c1.8-1.1,3.5-1.5,5.1-1.1
								c2.8,0.7,4.5,3.4,4.5,3.4c0.1,0.1,0.3,0.2,0.4,0.1c0.1-0.1,0.2-0.3,0.1-0.4c-0.1-0.1-1.8-3-4.9-3.7c-1.8-0.4-3.7,0-5.6,1.2
								c-5.4,3.5-2.2,11.1-2.2,11.1C820.4,132.6,820.5,132.7,820.6,132.7z"/>
						</g>
						<g>
							<path class="st35" d="M828,127c0.1,0,0.2,0,0.2-0.1c0.1-0.1,0.1-0.3-0.1-0.4c0,0-4.9-3.7-8.7-0.1c-0.1,0.1-0.1,0.3,0,0.4
								c0.1,0.1,0.3,0.1,0.4,0c3.4-3.3,7.9,0.1,7.9,0.2C827.8,127,827.9,127,828,127z"/>
						</g>
						<g>
							<path class="st35" d="M778.3,122.3c0.1,0,0.2-0.1,0.3-0.2c0.1-0.1,0-0.3-0.1-0.4c0,0-2.4-1.1-3.4-3.3
								c-0.8-1.7-0.5-4.2,0.6-5.2c0.7-0.6,1.6-0.7,2.6-0.1c0,0,0.1,0,0.2,0.1c3.6,2.2,5.2,1.3,6,0.1c1.4-2.1,0.5-19,0.4-21
								c0-0.2-0.2-0.3-0.3-0.3c-0.2,0-0.3,0.1-0.3,0.3c0.3,5.2,0.7,18.9-0.3,20.6c-0.9,1.4-2.6,1.3-5.2-0.3c-0.1,0-0.1-0.1-0.2-0.1
								c-1.3-0.7-2.4-0.6-3.3,0.2c-1.3,1.2-1.7,4-0.8,5.9c1.1,2.3,3.5,3.5,3.6,3.6C778.3,122.3,778.3,122.3,778.3,122.3z"/>
						</g>
						<g>
							<path d="M774.8,132.7c-0.6-1.5-0.7-2.8-0.7-2.8c6.4-2.3,13.9-2.2,13.9-2.2s0.1,1.4-0.2,3.2
								C784.7,130.7,779.9,130.9,774.8,132.7z"/>
							<path class="st41" d="M787.7,130.9c-0.5,2.3-1.8,5.1-5.5,5.6c-4.5,0.6-6.5-1.8-7.4-3.8C779.9,130.9,784.7,130.7,787.7,130.9z
								"/>
						</g>
						<g>
							<path class="st35" d="M746.6,126.6c0,0-0.1,0-0.1-0.1c-0.1-0.1-0.1-0.3,0-0.4c0.1-0.1,5.2-5.9,1.4-10.5
								c-1.3-1.6-2.8-2.5-4.5-2.7c-2.9-0.3-5.3,1.8-5.3,1.8c-0.1,0.1-0.3,0.1-0.4,0c-0.1-0.1-0.1-0.3,0-0.4c0.1-0.1,2.6-2.3,5.8-2
								c1.8,0.2,3.5,1.1,4.9,2.9c4,5-1.4,11.2-1.5,11.2C746.8,126.6,746.7,126.6,746.6,126.6z"/>
						</g>
						<g>
							<path class="st35" d="M741.4,118.9c-0.1,0-0.2-0.1-0.2-0.2c-0.1-0.2,0-0.3,0.2-0.4c0.1,0,5.9-2,8.3,2.6
								c0.1,0.1,0,0.3-0.1,0.4c-0.1,0.1-0.3,0-0.4-0.1c-2.2-4.2-7.5-2.4-7.5-2.3C741.5,118.9,741.4,118.9,741.4,118.9z"/>
						</g>
						<path class="st40" d="M794.2,130.6c0.5,2.8,5.2,4.3,10.4,3.4c5.3-0.9,9.1-4,8.6-6.8c-0.5-2.8-5.2-4.3-10.4-3.4
							C797.5,124.8,793.7,127.8,794.2,130.6z"/>
						<path class="st40" d="M770.1,129.6c-0.7,2.8-5.5,3.9-10.7,2.5c-5.2-1.4-8.8-4.7-8-7.5c0.7-2.8,5.5-3.9,10.7-2.5
							C767.2,123.5,770.8,126.9,770.1,129.6z"/>
						<g>
							<path class="st42" d="M802.7,120.7c0,0,0.3-5.9-4.4-6.8c-4.7-0.9-6.4,4.8-6.4,4.8"/>
							<line class="st42" x1="802.7" y1="119.9" x2="805.9" y2="119"/>
							<line class="st43" x1="802.9" y1="118.4" x2="805" y2="117.7"/>
						</g>
						<g>
							<path class="st42" d="M759.6,117.1c0,0,1.5-5.7,6.3-5.1c4.8,0.6,4.6,6.5,4.6,6.5"/>
							<line class="st42" x1="759.9" y1="116.3" x2="757.1" y2="114.5"/>
							<line class="st43" x1="760.2" y1="114.9" x2="758.4" y2="113.5"/>
						</g>
					</g>
					<path class="st35" d="M808.2,57.3c0,0,27.8,4.5,30.8,20.9c3,16.4-5.6,40.2-5.6,40.2s-11.1-5.8-17.7-7.4
						c-3.6-0.9,3.4-5.9-0.4-18.7c0,0-4.8,11.8-10.4,12.9c-6.6,1.2-22.5-0.8-29.5-5.7c-3.9-2.7-1.6-14.3-2.6-14.9
						c-2-1.1-4,13.5-6.1,13.8c-1.4,0.3-11.1,7.1-13.6,3.4c-2-3-0.2-10.7-1.3-10.5c-2.9,0.6-2.3,15.3-4.6,15.8
						c-5.2,1.2-8.7,1.9-9.6,1.4c-4.6-2.5-2.1-33.1,6.9-43.3C753.4,55.2,783.2,46.4,808.2,57.3z"/>
					<path class="st39" d="M850.8,148.2c-2-4.5-2.5-9.7-1.4-14.5c0.8-3.6,2.5-7,3.4-10.5c0.9-3.6,1-7.6-1.1-10.7
						c-2.4-3.5-7.3-5.1-8.6-9.1c-1.4-4.3,2.2-8.5,4.1-12.7c3.2-6.9,1.3-15.7-4.3-20.8c-5.6-5-14.6-5.9-21.1-1.9"/>
					<path class="st39" d="M760.9,51.4c-3.8,0.3-7.8,0.5-11.4,1.9c-3.6,1.3-7,3.9-8.4,7.5c-1.1,3-0.8,6.3-1.5,9.5
						c-1.2,5.1-5,9.1-8.5,13.1c-3.5,3.9-6.9,8.5-7,13.8c0,5.3,3.4,10.9,1.1,15.7c-1.3,2.7-4.2,4.3-6.3,6.4
						c-5.4,5.3-5.9,14.8-1.2,20.6"/>
				</g>
			</g>
			<g class="st33">
				<path class="st35" d="M713.6,211.7c-0.1,0-0.2-0.1-0.2-0.2c-1.4-5-3.9-10-3.9-10c-0.1-0.1,0-0.2,0.1-0.3c0.1-0.1,0.2,0,0.3,0.1
					c0,0,2.6,5,4,10.1C713.8,211.5,713.7,211.6,713.6,211.7C713.6,211.7,713.6,211.7,713.6,211.7z"/>
			</g>
		</g>
		<g>
			<path class="st0" d="M658.6,84.7c0.6,0,44.3,0,47.2,0c2.9,0,6,0.1,6,4.4s0.7,30.5,0.1,34.5c-0.5,3.3-2.2,4.9-9.4,5.1
				c-7.2,0.1-39.5-0.1-43.1,0c-2.3,0.1-6.7,0.1-7-4.9c-0.3-5.1-0.2-29.4-0.2-33.9C652.2,84.4,658.6,84.7,658.6,84.7z"/>
			<path class="st0" d="M681.2,126.2c0,0,0.4,7.5,3.4,13.2c0,0-9.6-1.7-12.6-14.5L681.2,126.2z"/>
			<g>
				<path class="st15" d="M665.7,118c0.5,0,3.9,0.1,4.5,0c0.4,0,0.6-0.2,0.7-0.9c0-0.7,0-3.7,0-4c0-0.2,0-0.6-0.6-0.7
					c-0.7,0-3.8,0-4.4,0c-0.7,0-0.7,0.6-0.7,0.6c0,0.1,0,4.2,0,4.4S665.2,118,665.7,118"/>
				<path class="st15" d="M679.3,113c0,0.1,0,4.2,0,4.4s0,0.6,0.6,0.6s3.9,0.1,4.5,0c0.4,0,0.6-0.2,0.7-0.9c0-0.7,0-3.7,0-4
					c0-0.2,0-0.6-0.6-0.7c-0.7,0-3.8,0-4.4,0C679.2,112.4,679.3,113,679.3,113z"/>
				<path class="st15" d="M693.4,113c0,0.1,0,4.2,0,4.4s0,0.6,0.6,0.6c0.5,0,3.9,0.1,4.5,0c0.4,0,0.6-0.2,0.7-0.9c0-0.7,0-3.7,0-4
					c0-0.2,0-0.6-0.6-0.7c-0.7,0-3.8,0-4.4,0C693.3,112.4,693.4,113,693.4,113z"/>
			</g>
		</g>
	</g>
	<g>
		<path class="st14" d="M150.4,165.9c0,1.7,0,132.4,0,141.1c0,8.7,0.6,17.9,17.9,17.9c17.3,0,125.3,2,141.7,0.2
			c13.6-1.4,20.2-6.6,20.8-28c0.6-21.4-0.4-117.9,0-128.9c0.3-6.9,0.3-19.9-20.2-20.8c-20.9-0.9-120.5-0.6-139.3-0.6
			C149,146.7,150.4,165.9,150.4,165.9z"/>
		<g>
			<defs>
				<path id="SVGID_7_" d="M150.4,165.9c0,1.7,0,132.4,0,141.1c0,8.7,0.6,17.9,17.9,17.9c17.3,0,125.3,2,141.7,0.2
					c13.6-1.4,20.2-6.6,20.8-28c0.6-21.4-0.4-117.9,0-128.9c0.3-6.9,0.3-19.9-20.2-20.8c-20.9-0.9-120.5-0.6-139.3-0.6
					C149,146.7,150.4,165.9,150.4,165.9z"/>
			</defs>
			<clipPath id="SVGID_8_">
				<use xlink:href="#SVGID_7_"  style="overflow:visible;"/>
			</clipPath>
			<g class="st44">
				<path class="st21" d="M203,272.8c0,0,10.7-1.8,22.7-2.5c11.9-0.8,27.7,0.8,27.7,0.8s-10.9,25.2-29.3,20.2
					C205.7,286.4,203,272.8,203,272.8z"/>
				<g>
					<g>
						<path class="st45" d="M153.1,408.1c0,0-2.7-37.9,2.5-64.8c7.7-39.2,17.2-51.3,22.1-56.6c6.8-7.5,21.9-11.3,21.9-11.3l11.7-1.5
							l-0.9-15.5l27.1,0.2l1.4,14.1c0,0,9.6,4.7,13.8,6.9c0.6,14.5,10,14.3,11.9,28.4c-0.1,0-0.2,0.1-0.4,0.2l1.4,82.1
							c0,0-28.8,18.4-80.1-1.2l-1.4-72.3c0,0-8.5,33.8-10.4,43c-1.9,9.2-3.1,47.3-3.1,47.3s6.7,11.3,4.9,14.3
							c-1.8,3-5.4-3.7-5.4-3.7s3.1,16.6,0.3,16.7c-2.9,0.1-5-12.8-5-12.8s0.7,16.1-3.1,15.1c-2.2-0.7-1.4-14.4-1.4-14.4
							s-1.8,13.7-4.2,13.1c-2.4-0.6-0.1-13.6-0.1-13.6s-2.7,10.6-5.1,9.9C149,430.9,151.5,415.3,153.1,408.1z"/>
						<g>
							<path class="st46" d="M210.9,267.7l-0.6-9.4l27.1,0.2l1.1,11.3C231.5,270.3,221,270.4,210.9,267.7z"/>
						</g>
						<g>
							<path class="st45" d="M215.3,543.9l9.4-138.7l-41.6-5.1c0,0,10,105.6,15,139.5c0,0-26.6,9.6-26.5,14.6
								c0.1,5,30.7,1.2,30.7,1.2S221,560.2,215.3,543.9z"/>
						</g>
						<g>
							<path class="st45" d="M239.8,543.4c0,0-6.9-92.4-11.1-159.7c-0.6-10,37.2,14.7,37.2,14.7s-5.6,105.9-9.2,140
								c0,0,26.1,8.3,26.2,13.3c0.1,5-29.7,2.7-29.7,2.7S234.8,559.9,239.8,543.4z"/>
						</g>
						<g>
							<g>
								<path class="st15" d="M273.8,543.9c8.3,3.6,10.9,7.1,10.9,7.1s-0.4,1.2-11.8,2.7C272.1,550.3,272.5,546.8,273.8,543.9z"/>
								<path class="st47" d="M239.3,541.7c10.8,5.5,23.4-1.5,23.4-1.5c4.5,1.1,8.1,2.4,11.1,3.6c-1.4,2.9-1.7,6.4-0.9,9.7
									c-2.9,0.4-6.6,0.8-11.2,1.2c-22.4,2-23.4-3.8-23.4-3.8C238,545.4,239.4,542,239.3,541.7z"/>
							</g>
							<g>
								<path class="st15" d="M238.3,551.1c0.1,1.1,0.3,2.3,0.5,3.5c0,0,6.5,2.1,24.1,1.7c19.6-0.4,22.1-3,22.1-3s0.1-1-0.3-2.3
									C264,555.4,247.2,553.1,238.3,551.1z"/>
							</g>
							<path class="st48" d="M269.1,542.1c0,0-3.4,2.1-2.9,6.8"/>
							<path class="st48" d="M265.1,540.9c0,0-2.9,1.8-2.8,6.8"/>
							<path class="st48" d="M263.7,542.4c0,0,2.3-5.7-0.1-5.8C261.1,536.6,263.7,542.4,263.7,542.4z"/>
							<path class="st48" d="M263.7,542.5c0,0-4.1-4.6-5.2-2.5C257.3,542.2,263.7,542.5,263.7,542.5z"/>
						</g>
						<g>
							<path class="st49" d="M181.7,379.1c0,0,2.8,79.2,9.1,153.9c0.6,7.2,28.7-0.6,28.7-0.6l4.5-118l0,0l11.2,117.4
								c0,0,21.9,3.8,28.1-0.4c0,0,5.1-17.4,2.3-151.2L181.7,379.1z"/>
							<g>
								<path class="st50" d="M239.7,417c0.1,0,0.3-0.1,0.3-0.3c0-0.1-0.1-0.3-0.3-0.3c-12.5-0.4-30.3-4.1-30.5-4.1
									c-0.1,0-0.3,0.1-0.3,0.2c0,0.1,0.1,0.3,0.2,0.3C209.2,412.9,227.1,416.6,239.7,417C239.7,417,239.7,417,239.7,417z"/>
							</g>
							<g>
								<path class="st50" d="M260.7,529.6c0.1,0,0.3-0.1,0.3-0.3l1.4-142.8c0-0.1-0.1-0.3-0.3-0.3c0,0,0,0,0,0
									c-0.1,0-0.3,0.1-0.3,0.3l-1.4,142.8C260.5,529.4,260.6,529.6,260.7,529.6C260.7,529.6,260.7,529.6,260.7,529.6z"/>
							</g>
							<g>
								<path class="st50" d="M216.3,530.6c0.1,0,0.3-0.1,0.3-0.3l1.9-115.5c0-0.1-0.1-0.3-0.3-0.3c-0.2,0-0.3,0.1-0.3,0.3
									L216,530.3C216,530.5,216.2,530.6,216.3,530.6C216.3,530.6,216.3,530.6,216.3,530.6z"/>
							</g>
							<g>
								<path class="st50" d="M221.5,406.6c0.1,0,0.3-0.2,0.3-0.4l-0.6-27.3c0-0.2-0.1-0.4-0.3-0.4c-0.1,0-0.3,0.2-0.3,0.4l0.6,27.3
									C221.2,406.5,221.4,406.6,221.5,406.6z"/>
							</g>
							<g>
								<path class="st50" d="M261,409.3c0.1,0,0.1,0,0.2-0.1c0.1-0.1,0.1-0.3,0-0.4c-7.5-7.4-11.6-18-10.9-28.5
									c0-0.1-0.1-0.3-0.3-0.3c-0.2,0-0.3,0.1-0.3,0.3c-0.6,10.6,3.5,21.4,11.1,28.9C260.8,409.3,260.9,409.3,261,409.3z"/>
							</g>
							<g>
								<path class="st50" d="M183.7,405C183.8,405,183.8,405,183.7,405c4.3-1.4,7.8-5.4,9.4-10.4c1.5-5.1,0.9-10.5,0.4-14.2
									c0-0.1-0.2-0.2-0.3-0.2c-0.1,0-0.2,0.2-0.2,0.3c0.6,3.6,1.1,9-0.4,14c-1.5,4.8-4.9,8.7-8.9,10c-0.1,0-0.2,0.2-0.2,0.3
									C183.5,404.9,183.6,405,183.7,405z"/>
							</g>
							<g>
								<path class="st50" d="M221.5,405.6c0.2,0,3.7-0.2,4.4-7.3c0.7-6.9,0.7-16.3,0.7-16.4c0-0.1-0.1-0.3-0.3-0.3c0,0,0,0,0,0
									c-0.1,0-0.3,0.1-0.3,0.3c0,0.1,0,9.4-0.7,16.3c-0.7,6.6-3.9,6.8-3.9,6.8c-0.1,0-0.3,0.1-0.3,0.3
									C221.2,405.5,221.3,405.6,221.5,405.6z"/>
							</g>
							<g>
								<path class="st50" d="M264.7,390.5C264.7,390.5,264.7,390.5,264.7,390.5c-27.8-7.2-64.4-5.7-76.5-5.2
									c-4.4,0.2-4.4,0.2-4.4-0.1c0-0.1,0-0.3,0.2-0.3c0.1,0,0.1,0,0.2,0c0.3,0,2,0,4.1-0.1c12.1-0.5,48.8-2.1,76.6,5.2
									c0.1,0,0.2,0.2,0.2,0.3C264.9,390.4,264.8,390.5,264.7,390.5z"/>
							</g>
							<path class="st50" d="M225,380.6c0,1.1-0.6,2-1.5,2.1c-0.8,0-1.5-0.9-1.6-2c0-1.1,0.6-2,1.5-2.1
								C224.3,378.6,225,379.4,225,380.6z"/>
						</g>
						<g>
							<g>
								<path class="st15" d="M181,545.8c-8.1,3.9-10.6,7.5-10.6,7.5s0.4,1.1,11.9,2.2C183,552.1,182.5,548.7,181,545.8z"/>
								<path class="st47" d="M215.4,542.2c-10.6,6-23.5-0.5-23.5-0.5c-4.5,1.3-8,2.7-10.9,4.1c1.5,2.9,2,6.3,1.3,9.7
									c2.9,0.3,6.6,0.5,11.2,0.7c22.4,1.1,23.2-4.7,23.2-4.7C216.8,545.9,215.3,542.5,215.4,542.2z"/>
							</g>
							<g>
								<path class="st15" d="M216.7,551.6c-0.1,1.1-0.2,2.3-0.4,3.5c0,0-6.4,2.3-24,2.7c-19.6,0.4-22.2-2-22.2-2s-0.1-0.9,0.2-2.3
									C191.3,556.9,208,553.9,216.7,551.6z"/>
							</g>
							<path class="st48" d="M185.6,543.8c0,0,3.5,2,3.2,6.7"/>
							<path class="st48" d="M189.6,542.5c0,0,3,1.7,3.1,6.7"/>
							<path class="st48" d="M191.1,543.9c0,0-2.6-5.6-0.1-5.8C193.4,538,191.1,543.9,191.1,543.9z"/>
							<path class="st48" d="M191.1,544c0,0,3.9-4.8,5.1-2.7C197.4,543.4,191.1,544,191.1,544z"/>
						</g>
					</g>
				</g>
				<g>
					<path class="st21" d="M194.1,275.1c2.6-0.9,5.5-1.6,8.9-2.3c0,0,9.3,4.4,21.9,4c6.4-0.2,13.7-1.6,21.2-5.5c0,0,1.6,8.4,8.7,5.2
						c5.1,17.1,14.4,23.9,19.5,41.2c-0.3,0.2-0.6,0.3-0.9,0.4c0,0-1.1,5.9,0.9,18c2.9,17.1,0.4,43.8-2.1,47.2
						c-2.5,3.4-1.4,3.5-22.1-0.2c-20.7-3.7-55-4.4-64.2,0.9c-9.1,5.3-6.7-13.9-6.3-14.2c0.3-0.3,1.8-11.1,0.1-20.5
						c-0.8-4.2,1.1-7.6,1.1-7.6"/>
					<path class="st21" d="M180.8,341.8c-7.7-1-16.8-9.7-22.8-16.5c2.6-13,7-26.1,14.5-34.5c6.2-6.9,11.1-12.1,21.5-15.6"/>
					<path class="st46" d="M278.4,342.8c0,0,8.8-4.2,5.2-21.3l-15.2,5.7L278.4,342.8z"/>
					<path class="st21" d="M261.5,338.4c7.7-0.7,17.1-9.1,23.4-15.6c-2.1-13.1-6-26.3-13.2-35c-5.9-7.2-10.6-12.5-20.9-16.4"/>
					<g>
						<path class="st51" d="M225.3,281.6c18.3,0.3,27.2-12.1,27.3-12.3c0.1-0.1,0.1-0.3-0.1-0.4c-0.1-0.1-0.3-0.1-0.4,0.1
							c-0.1,0.1-9.8,13.5-29.5,11.9c-13.5-1.1-22.6-6.5-22.6-6.6c-0.1-0.1-0.3,0-0.3,0.1c-0.1,0.1,0,0.3,0.1,0.3
							c0.1,0.1,9.3,5.5,22.9,6.6C223.6,281.5,224.4,281.6,225.3,281.6z"/>
					</g>
					<g>
						<path class="st51" d="M181,340.1c0.1,0,0.2-0.1,0.3-0.2c0-0.1-0.1-0.3-0.2-0.3c-14.3-3.1-22-17.5-22.1-17.6
							c-0.1-0.1-0.2-0.2-0.3-0.1c-0.1,0.1-0.2,0.2-0.1,0.3C158.6,322.3,166.4,336.9,181,340.1C181,340.1,181,340.1,181,340.1z"/>
					</g>
					<g>
						<path class="st51" d="M181.6,347.1c0,0,0.1,0,0.1,0c0.1-0.1,0.2-0.2,0.1-0.3c0,0-1.9-4.8,0.8-21c0-0.1-0.1-0.3-0.2-0.3
							c-0.1,0-0.3,0.1-0.3,0.2c-2.7,16.3-0.8,21-0.7,21.2C181.4,347,181.5,347.1,181.6,347.1z"/>
					</g>
					<g>
						<path class="st51" d="M183.3,320.2c0.1,0,0.2-0.1,0.3-0.2c3.9-24.2,4.5-39.5,4.5-39.6c0-0.1-0.1-0.3-0.2-0.3
							c-0.1,0-0.3,0.1-0.3,0.2c0,0.2-0.6,15.4-4.5,39.6C183,320,183.1,320.2,183.3,320.2C183.2,320.2,183.2,320.2,183.3,320.2z"/>
					</g>
					<g>
						<path class="st51" d="M181,338.6"/>
					</g>
					<g>
						<path class="st51" d="M272.2,317.8c0.1,0,0.1,0,0.2-0.1c0.1-0.1,0.1-0.3,0-0.4c-0.1-0.1-11.4-10-14.2-12.9
							c-0.1-0.1-0.3-0.1-0.4,0c-0.1,0.1-0.1,0.3,0,0.4c2.8,2.9,14.1,12.8,14.3,12.9C272.1,317.7,272.1,317.8,272.2,317.8z"/>
					</g>
					<g>
						<path class="st51" d="M181.8,381.4c0.1,0,0.1,0,0.1,0c0.1-0.1,7.9-5.2,25.7-4.9c0.1,0,0.2,0,0.3,0c7.7,0.1,19,1.6,30,3
							c15.2,2,29.5,3.8,33.1,2.1c0.1-0.1,0.2-0.2,0.1-0.3c-0.1-0.1-0.2-0.2-0.3-0.1c-3.5,1.7-17.7-0.2-32.8-2.1
							c-11-1.4-22.4-2.9-30.1-3c-0.1,0-0.2,0-0.3,0c-17.9-0.3-25.9,5-26,5c-0.1,0.1-0.1,0.2-0.1,0.3
							C181.6,381.3,181.7,381.4,181.8,381.4z"/>
					</g>
					<g>
						<path class="st51" d="M241.4,367.3c0,0,0.1,0,0.1,0c10.4-6.2,19.5-14.3,27-23.8c0.1-0.1,0.1-0.3,0-0.4c-0.1-0.1-0.3-0.1-0.4,0
							c-7.5,9.5-16.5,17.5-26.9,23.7c-0.1,0.1-0.2,0.2-0.1,0.3C241.2,367.3,241.3,367.3,241.4,367.3z"/>
					</g>
					<g>
						<path class="st51" d="M254.5,374.3c0.1,0,0.1,0,0.2-0.1c6.2-6.7,10.6-15,12.8-23.8c0-0.1,0-0.3-0.2-0.3c-0.1,0-0.3,0-0.3,0.2
							c-2.2,8.8-6.6,16.9-12.7,23.6c-0.1,0.1-0.1,0.3,0,0.4C254.4,374.3,254.4,374.3,254.5,374.3z"/>
					</g>
				</g>
				<g>
					<path class="st52" d="M180.8,187.1c-4.2,1-7.8,4.3-9.2,8.5c-1.4,4.1-0.5,9,2.3,12.3c0.4,0.5,0.9,1,1,1.6
						c0.3,0.9-0.2,1.9-0.6,2.8c-1.3,2.8-2.6,5.9-2.2,9c0.3,3.1,2.8,6.2,5.9,6.2"/>
					<path class="st53" d="M258.4,194.2c-1-1-1.8-1.8-2.5-2.5c1.6,3.3,3.7,7.1,4.5,7.8c0,0,3.4,19.2,5.7,22.7
						c2.3,3.5,4-9.4,1.7-16.9c-1.4-4.5-2.6-6.7-3.4-7.7C262.7,196.9,259.9,195.8,258.4,194.2z"/>
					<g>
						<path class="st45" d="M257.2,190.5c0,0,7.2,14.2,9.4,35.9c1.8,16.9-10,34.8-30.5,38.3c-19.2,3.3-40.2-2.4-49-29
							c-8.9-26.5-2.6-49.1,21.5-57.7C232.6,169.4,250.4,174.1,257.2,190.5z"/>
						<path class="st46" d="M222.7,240.5c-0.3,2.9-4.9,4.8-10.3,4.3c-5.4-0.5-9.6-3.3-9.3-6.2c0.3-2.9,4.9-4.8,10.3-4.3
							C218.8,234.8,223,237.6,222.7,240.5z"/>
						<path class="st46" d="M264.1,231.8c0.9,2.8-2.5,6.4-7.7,8.1c-5.2,1.7-10.1,0.9-11-1.9c-0.9-2.8,2.5-6.4,7.7-8.1
							C258.2,228.2,263.1,229.1,264.1,231.8z"/>
						<g>
							<path class="st53" d="M232.6,185.2c-0.1-0.1-0.2-0.2-0.2-0.2S232.5,185.1,232.6,185.2z"/>
							<path class="st53" d="M271.7,172.9c1.2-6.4-4.5-3.2-4.5-3.2s1.3-5.4-3-8.2c-4.3-2.8-12.8,1.3-16.2,1.7c0,0,5.2-6.5,0.5-10
								c-4.8-3.5-17.7,5.7-22.1,7.4c-9.5,3.7-11-1.6-27,4.5c-6.9,2.6-9.8,8.8-9.8,8.8s1-12.7-2.8-12.1c-3.8,0.6-2.7,16.4-2.7,16.4
								s-9.7-3.3-10.2,1.1c-0.5,4.3,6.2,7.8,6.2,7.8s-14.5,10.1-4.5,19.8c0,0-6.5,7.2-4,14.9c0,0,0.9,2.7,4,3.3
								c0,0-6.3,8.7,2.1,16.6c8.5,7.9,13.6,20.9,21.6,18.6c8-2.4-4.6-13.4-7.9-17.5c-3.3-4-1.9-9.4-0.9-20.8
								c1-11.4,2.7-26.1,2.7-26.1s25.8,9.1,35.6,2c8.7-6.3,4.8-11.7,3.8-12.7c-0.1-0.1-0.2-0.2-0.2-0.2s0.1,0.1,0.2,0.2
								c1.4,1.4,9.9,9.9,17.8,8.6c6-1,3.1-7,3.1-7s1.1,2.3,2.4,4.9c0.6,0.6,1.5,1.5,2.5,2.5c1.6,1.6,4.3,2.7,6.1,3.4
								c-0.5-0.7-0.9-0.9-0.9-0.9s8.6,2.4,7.4-6.9c-0.5-5.3-5.4-8.4-5.4-8.4S270.5,179.3,271.7,172.9z"/>
						</g>
						<path class="st45" d="M197.1,245.8l-6.2-15.4c0,0-15.1-3.8-14.3,11.2C177.4,256.7,193.2,255.8,197.1,245.8z"/>
						<path class="st53" d="M205.1,220.7c0,0-3.7-3.4,2.8-8.9c6.5-5.4,9-4.7,10.4-2.4c1.3,2,0,5.4-3.7,8.4
							C210.2,221.4,207.1,222.7,205.1,220.7z"/>
						<path class="st53" d="M259.6,213.2c0,0,2.1-4.6-6-7.1c-8.1-2.5-10.2-0.7-10.5,1.9c-0.4,2.4,2.1,5,6.7,6.3
							C255.2,215.8,258.5,215.8,259.6,213.2z"/>
						<path d="M218.8,227.1c0.2,2-1,3.8-2.6,4c-1.7,0.2-3.2-1.3-3.4-3.4c-0.2-2,1-3.8,2.6-4C217.1,223.6,218.6,225.1,218.8,227.1z"
							/>
						<path d="M252.4,222.6c0.2,2-1,3.8-2.6,4c-1.7,0.2-3.2-1.3-3.4-3.4c-0.2-2,1-3.8,2.6-4C250.7,219.1,252.2,220.6,252.4,222.6z"
							/>
						<g>
							<path class="st23" d="M192.1,247.2c0,0-0.1,0-0.1,0c-0.2-0.1-0.2-0.2-0.2-0.4c0-0.1,2.5-7.6-2.9-10.4c-1.9-1-3.7-1.2-5.3-0.7
								c-2.8,0.9-4.2,3.8-4.3,3.9c-0.1,0.1-0.3,0.2-0.4,0.1c-0.1-0.1-0.2-0.3-0.1-0.4c0.1-0.1,1.6-3.2,4.6-4.2
								c1.8-0.6,3.7-0.3,5.8,0.7c5.8,3.1,3.2,11,3.2,11.1C192.3,247.2,192.2,247.2,192.1,247.2z"/>
						</g>
						<g>
							<path class="st23" d="M184.1,242.2c-0.1,0-0.2,0-0.3-0.1c-0.1-0.1-0.1-0.3,0-0.4c0,0,4.7-4.2,8.8-0.9c0.1,0.1,0.1,0.3,0,0.4
								c-0.1,0.1-0.3,0.1-0.4,0c-3.7-3-8,0.8-8,0.9C184.3,242.1,184.2,242.2,184.1,242.2z"/>
						</g>
						<g>
							<path class="st23" d="M237.9,232.6c-0.1,0-0.2,0-0.3-0.1c-0.1-0.1,0-0.3,0.1-0.4c0,0,2.3-1.4,3.1-3.6
								c0.7-1.8,0.1-4.3-1.1-5.2c-0.7-0.6-1.7-0.5-2.6,0.1c0,0-0.1,0.1-0.1,0.1c-3.5,2.5-5.2,1.7-6.1,0.6c-1.6-2-2.2-19.3-2.3-21.2
								c0-0.2,0.1-0.3,0.3-0.3c0.2,0,0.3,0.1,0.3,0.3c0.2,5.3,0.9,19.3,2.1,20.9c1,1.3,2.8,1.1,5.3-0.7c0.1-0.1,0.1-0.1,0.2-0.1
								c1.2-0.8,2.4-0.8,3.4-0.1c1.4,1.1,2,3.9,1.3,5.9c-0.9,2.5-3.3,3.9-3.4,3.9C238,232.5,237.9,232.6,237.9,232.6z"/>
						</g>
					</g>
					<path class="st54" d="M187.9,191.3c5.5,2.8,11.3,5.1,17.3,6.8c3,0.8,6,1.4,9.1,1.7c3.1,0.3,6.2,0.3,9.2-0.3
						c1.5-0.3,3-0.8,4.3-1.5c1.4-0.7,2.6-1.5,3.7-2.6c1-1.1,1.7-2.4,2.1-3.9c0.3-1.5,0.3-3,0.1-4.5c-0.6-3-2-5.8-3.8-8.3
						c-0.5-0.6-1-1.2-1.5-1.7c-0.5-0.5-1.2-1.1-1.7-1.2c-0.1,0-0.2,0-0.1,0c0,0,0,0.1,0,0.2c0,0.3,0.1,0.6,0.3,1
						c0.3,0.7,0.7,1.3,1.1,2c1.7,2.5,3.9,4.8,6.1,6.9c2.3,2.1,4.7,4,7.4,5.5c1.3,0.7,2.8,1.4,4.2,1.8c1.5,0.4,3,0.6,4.4,0.2
						c1.4-0.3,2.6-1.3,3.2-2.7c0.6-1.3,0.9-2.9,0.9-4.4c0-1.5-0.2-3.1-0.5-4.5c-0.4-1.5-0.9-3-1.6-4.2c-0.2-0.3-0.4-0.6-0.7-0.8
						c-0.1-0.1-0.3-0.2-0.4-0.2c-0.1,0-0.1,0-0.1,0c-0.1,0.1-0.1,0.5-0.1,0.9c0,0.4,0.1,0.7,0.2,1.1c0.3,1.5,0.8,3,1.4,4.4
						c1.1,2.9,2.6,5.7,4.3,8.2c0.9,1.3,1.9,2.5,3,3.4c1.1,1,2.5,1.8,3.9,1.6l0,0c0.2,0,0.5,0.2,0.5,0.4c0,0.2-0.2,0.5-0.4,0.5
						c0,0,0,0,0,0c-1.8,0.2-3.4-0.8-4.6-1.8c-1.2-1.1-2.2-2.3-3.1-3.6c-1.8-2.6-3.2-5.4-4.4-8.4c-0.6-1.5-1.1-3-1.4-4.6
						c-0.1-0.4-0.1-0.8-0.2-1.2c0-0.4-0.1-0.8,0.3-1.4c0.1-0.1,0.3-0.3,0.5-0.3c0.2-0.1,0.4,0,0.5,0c0.3,0.1,0.5,0.2,0.7,0.4
						c0.4,0.3,0.6,0.6,0.8,1c0.9,1.4,1.4,2.9,1.8,4.5c0.4,1.6,0.6,3.1,0.6,4.7c0,1.6-0.2,3.2-1,4.7c-0.7,1.5-2.1,2.8-3.8,3.1
						c-1.6,0.4-3.3,0.2-4.8-0.2c-1.6-0.4-3-1.1-4.4-1.8c-2.8-1.5-5.3-3.5-7.6-5.6c-2.3-2.1-4.5-4.5-6.3-7.1
						c-0.4-0.7-0.9-1.3-1.2-2.1c-0.2-0.4-0.3-0.8-0.4-1.3c0-0.2,0-0.6,0.3-0.9c0.3-0.3,0.7-0.3,1-0.2c0.9,0.3,1.5,0.9,2.1,1.4
						c0.6,0.6,1.1,1.2,1.6,1.8c1.9,2.5,3.4,5.5,4,8.6c0.3,1.6,0.3,3.2-0.1,4.8c-0.4,1.6-1.2,3.1-2.3,4.3c-1.1,1.2-2.5,2.1-3.9,2.8
						c-1.4,0.7-3,1.3-4.5,1.7c-3.1,0.8-6.3,0.9-9.5,0.7c-3.2-0.2-6.3-0.9-9.3-1.7c-6.1-1.7-11.9-4.2-17.4-7.3
						c-0.2-0.1-0.3-0.4-0.2-0.6C187.4,191.3,187.7,191.2,187.9,191.3L187.9,191.3z"/>
				</g>
				<g>
					<g>
						<path class="st45" d="M243.3,277.4l4,29l24.5-5.5L252,262.5c0,0-2.4-11.8-5.2-10.3c-2.7,1.4-2.4,9.3-2.4,9.3
							s-17.8-4.2-18.1-1.6c-0.2,2.5,11,5.1,11,5.1s-8.1-1.6-7.4,1.9c0.5,2,6.6,2.1,6.6,2.1s-6.3,0.1-6,2.3c0.4,2.2,6.2,1.6,6.2,1.6
							s-5.1,0.6-4.6,2.8c0.5,2.2,4.6,2.6,11.1,1.5l0,0"/>
						<path class="st45" d="M271.8,300.8c0,0,19,32.1,6.5,43.4c-12.5,11.2-21.6,2.2-24.5-8.3c-3-10.5-6.5-29.5-6.5-29.5"/>
					</g>
					<path class="st55" d="M260.2,278.3l-8.2-15.8c0,0-2.4-11.8-5.2-10.3c-2.7,1.4-2.4,9.3-2.4,9.3s-17.8-4.2-18.1-1.6
						c-0.2,2.5,11,5.1,11,5.1s-8.1-1.6-7.4,1.9c0.5,2,6.6,2.1,6.6,2.1s-6.3,0.1-6,2.3c0.4,2.2,6.2,1.6,6.2,1.6s-5.1,0.6-4.6,2.8
						c0.5,2.2,4.6,2.6,11.1,1.5l0,0"/>
				</g>
				<path class="st24" d="M269.4,342.5"/>
				<g>
					<path d="M228.7,239.4c0-1.5,0.3-2.6,0.3-2.6c6.3,0.2,12.6,2.8,12.6,2.8s-0.4,1.3-1.3,2.6C237.8,241,233.7,239.6,228.7,239.4z"
						/>
					<path class="st41" d="M240.4,242.2c-1.2,1.8-3.3,3.8-6.6,2.9c-4.1-1.1-5-3.7-5.1-5.8C233.7,239.6,237.8,241,240.4,242.2z"/>
				</g>
			</g>
		</g>
		<g>
			<path class="st16" d="M332.6,186.5c-0.6,0-44.3,0-47.2,0c-2.9,0-6,0.1-6,4.4c0,4.2-0.7,30.5-0.1,34.5c0.5,3.3,2.2,4.9,9.4,5.1
				c7.2,0.1,39.5-0.1,43.1,0c2.3,0.1,6.7,0.1,7-4.9c0.3-5.1,0.2-29.4,0.2-33.9C339,186.1,332.6,186.5,332.6,186.5z"/>
			<path class="st16" d="M293.1,228c0,0-0.4,7.5-3.4,13.2c0,0,9.6-1.7,12.6-14.5L293.1,228z"/>
			<g>
				<g>
					<path class="st15" d="M297.2,223.1c0.5,0,3.9,0.1,4.5,0c0.4,0,0.6-0.2,0.7-0.9c0-0.7,0-3.7,0-4c0-0.2,0-0.6-0.6-0.7
						c-0.7,0-3.8,0-4.4,0c-0.7,0-0.7,0.6-0.7,0.6c0,0.1,0,4.2,0,4.4S296.7,223.1,297.2,223.1"/>
				</g>
				<g>
					<path class="st15" d="M297.2,213.8c0.5,0,3.9,0.1,4.5,0c0.4,0,0.6-0.2,0.7-0.9c0-0.7,0-18.1,0-18.5c0-0.2,0-0.6-0.6-0.7
						c-0.7,0-3.8,0-4.4,0c-0.7,0-0.7,0.6-0.7,0.6c0,0.1,0,18.6,0,18.9C296.6,213.5,296.7,213.8,297.2,213.8"/>
				</g>
				<g>
					<path class="st15" d="M313.7,214.4c-0.7,0-1.1-0.4-0.9-1.1c0-0.2,0.1-4.4,0.1-4.6c1-4,4.1-3.7,4.7-6.9c0.2-1-0.3-2.2-1.6-2.2
						c-1.6,0-2.3,0.9-2.6,2.2c-0.1,0.7-0.4,1-1.1,0.8l-3.8-0.8c-0.6-0.1-0.9-0.5-0.9-1.1c0.2-2.4,1.5-6.9,8.4-6.9
						c7.5,0,7.8,5.9,7.7,6.9c0,5.3-3.5,6-4.9,8.4c-0.1,0.1-0.1,4.3-0.2,4.4c-0.2,0.6-0.5,0.8-1.1,0.8H313.7z M313.6,217.3
						c-0.6,0-1,0.3-1,1v3.8c0,0.6,0.4,1,1,1h3.8c0.7,0,1-0.4,1-1v-3.8c0-0.7-0.3-1-1-1H313.6z"/>
				</g>
			</g>
		</g>
	</g>
</g>
</svg>
